<svg class="gridItem__media" version="1.1" id="Layer_1" xmlns="http://www.w3.org/2000/svg" xmlns:xlink="http://www.w3.org/1999/xlink" x="0px" y="0px" width="1600" height="1200"
	 viewBox="0 0 1600 1200" style="enable-background:new 0 0 1600 1200;" xml:space="preserve" fill="none">
<path d="M213.7 1035.5L188.2 515C187.5 501.5 191.8 488.3 200.2 477.8L432.4 184.7C444.1 169.9 462.5 162.1 481.3 163.9L1230.4 235.5C1252 237.6 1270.4 252 1277.6 272.4L1401.9 625.4C1404.7 633.2 1405.6 641.6 1404.7 649.9L1362.9 1035.9L213.7 1035.5Z" fill="#F4F4F4"/>
<path d="M1067.2 300V606L1393.2 600.7L1287.2 300H1067.2V300Z" fill="#EAEAEA"/>
<path d="M1334.5 434.1H1302.3V509.2H1291.5V391.3H1281.1V379.7H1261.2V366.5H1255.7V379.7H1235.1V391.3H1224.9V485H1217.9V457.5L1183.4 444V523.5H1162.4V475.9H1154.8V466.4L1120.1 456.1L1086.3 466.6V475.9H1080.4V513.3H1073.9V599.3L1392.8 599.4L1334.5 434.1Z" fill="#DDDDDD"/>
<path opacity="0.2" d="M1189.3 306.6L1304 599.4H1340.1L1223.4 306.6H1189.3Z" fill="white"/>
<path opacity="0.2" d="M1239.7 306.6L1354.4 599.4H1366.5L1249.8 306.6H1239.7Z" fill="white"/>
<path d="M1392.8 599.4H1286.5V306.6H1289.6L1284.9 293.3H1060.6V612.6H1397.2L1392.8 599.4ZM1073.9 306.6H1273.2V599.3H1073.9V306.6Z" fill="white"/>
<path d="M1292.5 315.1H1073.9V310.2H1290.8L1292.5 315.1Z" fill="white"/>
<path d="M1295.5 323.7H1073.9V318.8H1293.8L1295.5 323.7Z" fill="white"/>
<path d="M1298.5 332.2H1073.9V327.3H1296.8L1298.5 332.2Z" fill="white"/>
<path d="M1301.5 340.7H1073.9V335.8H1299.8L1301.5 340.7Z" fill="white"/>
<path d="M1304.5 349.299H1073.9V344.399H1302.8L1304.5 349.299Z" fill="white"/>
<path d="M1307.5 357.799H1073.9V352.899H1305.8L1307.5 357.799Z" fill="white"/>
<path d="M1080.2 442.6H1080V306.6H1078.8V442.6H1078.5C1077.5 442.6 1076.7 443.4 1076.7 444.4V463.3C1076.7 464.3 1077.5 465.1 1078.5 465.1H1080.1C1081.1 465.1 1081.9 464.3 1081.9 463.3V444.4C1081.9 443.4 1081.2 442.6 1080.2 442.6Z" fill="white"/>
<path d="M1076.5 310.2H1073.9V315.1H1076.5V310.2Z" fill="#DDDDDD"/>
<path d="M1076.5 318.8H1073.9V323.7H1076.5V318.8Z" fill="#DDDDDD"/>
<path d="M1076.5 327.3H1073.9V332.2H1076.5V327.3Z" fill="#DDDDDD"/>
<path d="M1076.5 335.8H1073.9V340.7H1076.5V335.8Z" fill="#DDDDDD"/>
<path d="M1076.5 344.3H1073.9V349.2H1076.5V344.3Z" fill="#DDDDDD"/>
<path d="M1076.5 352.899H1073.9V357.799H1076.5V352.899Z" fill="#DDDDDD"/>
<path d="M1286.5 315.1H1273.2V317.2H1286.5V315.1Z" fill="#DDDDDD"/>
<path d="M1286.5 323.7H1273.2V325.8H1286.5V323.7Z" fill="#DDDDDD"/>
<path d="M1286.5 332.2H1273.2V334.3H1286.5V332.2Z" fill="#DDDDDD"/>
<path d="M1286.5 340.7H1273.2V342.8H1286.5V340.7Z" fill="#DDDDDD"/>
<path d="M1286.5 349.2H1273.2V351.3H1286.5V349.2Z" fill="#DDDDDD"/>
<path d="M1286.5 357.8H1273.2V359.9H1286.5V357.8Z" fill="#DDDDDD"/>
<path d="M352.5 542.8H302.7V1035.5H352.5V542.8Z" fill="#DADDDF"/>
<path d="M414.2 893.7H329.6V979.1H414.2V893.7V893.7Z" fill="#B2B6BB"/>
<path d="M398.3 893.7H433.6V901.9H432.3V979H400.9V901.9H398.3V893.7Z" fill="#858990"/>
<path d="M397.9 893.7H327.6V901.9H397.9V893.7Z" fill="#B2B6BB"/>
<path d="M329.6 903H404.8L412.3 901.9H329.6V903Z" fill="#858990"/>
<path d="M469.6 617.2H355.5V702.6H469.6V617.2Z" fill="#B2B6BB"/>
<path d="M445.5 617.2H471.6V625.4H469.6V702.6H449.4V625.4H445.5V617.2V617.2Z" fill="#858990"/>
<path d="M444.8 617.2H352.5V625.4H444.8V617.2Z" fill="#B2B6BB"/>
<path d="M456.6 625.399H355.5V626.499H456.6V625.399Z" fill="#858990"/>
<path d="M614.2 542.8H603H297.1V554H603V702.8H297.1V714H603V1035.4H614.2V542.8Z" fill="white"/>
<path d="M664 542.8H614.2V1035.5H664V542.8Z" fill="#DADDDF"/>
<path d="M302.7 1035.4V542.8H291.5V1035.5L302.7 1035.4Z" fill="white"/>
<path d="M607.4 979H299.2V990.2H607.4V979Z" fill="white"/>
<path d="M589.4 841.4H427.9V979H589.4V841.4Z" fill="#DADDDF"/>
<path d="M563.7 841.4H591.5V854.7H589.4V979H568V854.7H563.7V841.4Z" fill="#B2B6BB"/>
<path d="M563 841.4H424.7V854.7H563V841.4Z" fill="#DADDDF"/>
<path d="M575.5 854.7H427.9V856.4H575.5V854.7Z" fill="#B2B6BB"/>
<path d="M1404.6 1036.4H207.9C207.5 1036.4 207.2 1036.1 207.2 1035.7C207.2 1035.3 207.5 1035 207.9 1035H1404.7C1405.1 1035 1405.4 1035.3 1405.4 1035.7C1405.4 1036.1 1405 1036.4 1404.6 1036.4Z" fill="#B2B6BB"/>
<path d="M963 939.5H407C398.8 939.5 392.1 932.8 392.1 924.6V359.7C392.1 351.5 398.8 344.8 407 344.8H963C971.2 344.8 977.9 351.5 977.9 359.7V924.6C977.9 932.8 971.2 939.5 963 939.5Z" class="change-color-in-svg" fill="#4D61FC"/>
<path opacity="0.5" d="M963 939.5H407C398.8 939.5 392.1 932.8 392.1 924.6V359.7C392.1 351.5 398.8 344.8 407 344.8H963C971.2 344.8 977.9 351.5 977.9 359.7V924.6C977.9 932.8 971.2 939.5 963 939.5Z" fill="white"/>
<path d="M955.5 939.5H399.5C391.3 939.5 384.6 932.8 384.6 924.6V359.7C384.6 351.5 391.3 344.8 399.5 344.8H955.5C963.7 344.8 970.4 351.5 970.4 359.7V924.6C970.5 932.8 963.8 939.5 955.5 939.5Z" class="change-color-in-svg" fill="#4D61FC"/>
<path opacity="0.7" d="M955.5 939.5H399.5C391.3 939.5 384.6 932.8 384.6 924.6V359.7C384.6 351.5 391.3 344.8 399.5 344.8H955.5C963.7 344.8 970.4 351.5 970.4 359.7V924.6C970.5 932.8 963.8 939.5 955.5 939.5Z" fill="white"/>
<path d="M749.5 635.4H605.8C602.5 635.4 599.9 632.8 599.9 629.5V383.9C599.9 380.6 602.5 378 605.8 378H749.5C752.8 378 755.4 380.6 755.4 383.9V629.4C755.4 632.7 752.7 635.4 749.5 635.4Z" fill="white"/>
<path d="M723.7 527.299H630.3C629.6 527.299 629 526.699 629 525.999V521.699C629 520.999 629.6 520.399 630.3 520.399H723.7C724.4 520.399 725 520.999 725 521.699V525.999C725 526.699 724.4 527.299 723.7 527.299Z" fill="#3F4249"/>
<path d="M730.3 545.6H624.9C623.9 545.6 623.1 544.8 623.1 543.8C623.1 542.8 623.9 542 624.9 542H730.3C731.3 542 732.1 542.8 732.1 543.8C732.1 544.8 731.3 545.6 730.3 545.6Z" fill="#B1B5BA"/>
<path d="M730.3 562.2H624.9C623.9 562.2 623.1 561.4 623.1 560.4C623.1 559.4 623.9 558.6 624.9 558.6H730.3C731.3 558.6 732.1 559.4 732.1 560.4C732.1 561.4 731.3 562.2 730.3 562.2Z" fill="#B1B5BA"/>
<path d="M706.6 578.9H648.6C647.6 578.9 646.8 578.1 646.8 577.1C646.8 576.1 647.6 575.3 648.6 575.3H706.6C707.6 575.3 708.4 576.1 708.4 577.1C708.4 578.1 707.6 578.9 706.6 578.9Z" fill="#B1B5BA"/>
<path opacity="0.3" d="M677.6 488.9C702.3 488.9 722.4 468.8 722.4 444.1C722.4 419.4 702.3 399.3 677.6 399.3C652.9 399.3 632.8 419.4 632.8 444.1C632.8 468.8 652.9 488.9 677.6 488.9Z" class="change-color-in-svg" fill="#4D61FC"/>
<path d="M683.4 452.6C684.1 444.5 677.9 437.3 669.6 436.5C661.3 435.7 653.9 441.8 653.2 449.9C652.5 458 658.7 465.2 667 466C675.3 466.8 682.7 460.8 683.4 452.6Z" fill="#21252B"/>
<path d="M678.5 420.8C683.2 420.8 687 417 687 412.3C687 407.6 683.2 403.8 678.5 403.8C673.8 403.8 670 407.6 670 412.3C670 417 673.8 420.8 678.5 420.8Z" fill="#21252B"/>
<path d="M670.3 414.4C670.9 416.8 672.5 418.9 674.9 420C679.2 422 684.2 420.1 686.2 415.9C686.3 415.6 686.4 415.3 686.5 415C683.3 412.9 676.1 411.1 670.3 414.4Z" class="change-color-in-svg" fill="#4D61FC"/>
<path d="M685.9 451.4C685.5 460.5 683.9 465.5 689 465.8C697.1 466.2 704.1 459 704.5 449.9C704.9 440.8 698.6 433.1 690.5 432.7C688.2 440.5 686.3 442.2 685.9 451.4Z" fill="#21252B"/>
<path d="M677.6 488.9C691.3 488.9 703.5 482.8 711.7 473.1C710.2 471.5 708.3 470.2 705.9 469.4L694.6 466.2L692.1 465.5L667.6 465.3L663.3 466.2L646.3 469.5C644.7 469.9 643.3 470.5 642.1 471.4C650.3 482 663.1 488.9 677.6 488.9Z" class="change-color-in-svg" fill="#4D61FC"/>
<path d="M665.6 465.7L667.1 466.9C674.3 472.9 684.7 472.9 691.8 466.8L693 465.7L688.8 464.6C687.9 464.4 687.3 463.6 687.2 462.7L685.5 440.3L671.4 443L670 463.1C669.9 464 669.3 464.8 668.3 465L665.6 465.7Z" fill="#FC9D9D"/>
<path d="M678.9 458.1C673.4 458.1 668.9 453.7 668.5 448.3L667.2 426.8L690.9 427L689.3 448.5C689 453.9 684.4 458.1 678.9 458.1Z" fill="#FC9D9D"/>
<path d="M678.9 458.1C673.4 458.1 668.9 453.7 668.5 448.3L667.2 426.8L690.9 427L689.3 448.5C689 453.9 684.4 458.1 678.9 458.1Z" fill="#FC9D9D"/>
<path d="M674.4 442.1C675.1 442.1 675.6 441.6 675.6 440.9C675.6 440.2 675.1 439.7 674.4 439.7C673.7 439.7 673.2 440.2 673.2 440.9C673.2 441.6 673.7 442.1 674.4 442.1Z" fill="#21252B"/>
<path d="M673.8 440.7C674 440.7 674.1 440.6 674.1 440.4C674.1 440.2 674 440.1 673.8 440.1C673.6 440.1 673.5 440.2 673.5 440.4C673.5 440.6 673.6 440.7 673.8 440.7Z" fill="white"/>
<path d="M683.9 442.1C684.6 442.1 685.1 441.6 685.1 440.9C685.1 440.2 684.6 439.7 683.9 439.7C683.2 439.7 682.7 440.2 682.7 440.9C682.7 441.6 683.2 442.1 683.9 442.1Z" fill="#21252B"/>
<path d="M683.4 440.8C683.6 440.8 683.7 440.7 683.7 440.5C683.7 440.3 683.6 440.2 683.4 440.2C683.2 440.2 683.1 440.3 683.1 440.5C683.1 440.7 683.2 440.8 683.4 440.8Z" fill="white"/>
<g opacity="0.3">
<path opacity="0.3" d="M679.3 447.8H678.2C678 447.8 677.8 447.6 677.8 447.4C677.8 447.2 678 447 678.2 447H679.3C679.7 447 680.1 446.7 680.1 446.3C680.1 445.9 679.8 445.5 679.4 445.5C679.2 445.5 679 445.3 679 445.1C679 444.9 679.2 444.7 679.4 444.7C680.2 444.7 680.9 445.4 680.9 446.2C680.7 447.2 680.1 447.8 679.3 447.8Z" fill="black"/>
</g>
<path d="M659.2 439.4C661 438.1 660.4 435.7 660.4 435.7C660.1 434.7 659.9 433.6 659.8 432.4C659.7 429.7 661 427.9 661.8 427C662.2 426.5 662.5 425.9 662.6 425.3C663.7 413.7 680.8 411 689.3 418.1C694.5 422.4 695.6 427.2 695.2 431.7C695.2 431.7 694.9 433.7 696.7 434.7L694.5 435.6C693.6 438.9 692 440.4 691.2 442.8C689.3 441.6 689.8 436.3 689.8 436.3C684.7 435.7 684.8 429.9 684.8 429.9C680.1 439.7 668.2 438.7 668.2 438.7L667.5 441.4C667.5 441.4 662.8 440.4 661.7 438.7L659.8 440L659.2 439.4Z" fill="#21252B"/>
<path d="M689.7 445C689.7 445 693.7 444.7 693.9 440.6C694.1 436.5 689.1 436.6 689.1 440.7L689.3 445.1L689.7 445Z" fill="#FC9D9D"/>
<path opacity="0.3" d="M690.5 439.8C690.7 439.3 690.9 439 691.3 438.8C691.6 438.7 692 438.7 692.5 438.9C692.6 439 692.7 439.2 692.6 439.3C692.6 439.4 692.5 439.4 692.4 439.5C692.3 439.5 692.2 439.5 692.2 439.5C691.9 439.4 691.7 439.3 691.5 439.4C691.3 439.5 691.2 439.7 691.1 440C691 440.3 690.9 440.8 690.9 441.1C690.9 441.3 690.8 441.4 690.6 441.4C690.4 441.4 690.3 441.2 690.3 441.1C690.3 440.7 690.4 440.2 690.5 439.8Z" fill="black"/>
<path d="M690.7 444.2C691 444.2 691.3 443.8 691.3 443.4C691.3 443 691 442.6 690.7 442.6C690.4 442.6 690.1 443 690.1 443.4C690.1 443.9 690.4 444.2 690.7 444.2Z" class="change-color-in-svg" fill="#4D61FC"/>
<path opacity="0.15" d="M690.6 444.1C691 444.1 691.2 443.7 691.2 443.2C691.2 443 691.2 442.9 691.1 442.7C691.3 442.8 691.4 443.1 691.4 443.3C691.4 443.7 691.1 444.1 690.8 444.1C690.7 444.1 690.5 444.1 690.4 444C690.5 444.1 690.5 444.1 690.6 444.1Z" fill="black"/>
<path d="M668.2 445C668.2 445 664.2 444.7 664 440.6C663.8 436.6 668.8 436.6 668.8 440.7L668.6 445.1L668.2 445Z" fill="#FC9D9D"/>
<path opacity="0.3" d="M667.5 439.8C667.3 439.3 667 439 666.7 438.8C666.3 438.7 665.9 438.7 665.5 438.9C665.3 439 665.3 439.2 665.4 439.3C665.4 439.4 665.5 439.4 665.6 439.5C665.7 439.5 665.8 439.5 665.8 439.5C666.1 439.4 666.3 439.3 666.5 439.4C666.7 439.5 666.8 439.7 667 440C667.1 440.3 667.2 440.8 667.2 441.1C667.2 441.3 667.3 441.4 667.5 441.4C667.7 441.4 667.8 441.2 667.8 441.1C667.7 440.7 667.6 440.2 667.5 439.8Z" fill="black"/>
<path d="M667.8 443.4C667.8 443 667.5 442.6 667.2 442.6C666.9 442.6 666.6 442.9 666.6 443.4C666.6 443.8 666.9 444.2 667.2 444.2C667.5 444.2 667.8 443.9 667.8 443.4Z" class="change-color-in-svg" fill="#4D61FC"/>
<path opacity="0.15" d="M667.4 444.1C667 444.1 666.8 443.7 666.8 443.2C666.8 443 666.8 442.9 666.9 442.7C666.7 442.8 666.6 443.1 666.6 443.3C666.6 443.7 666.9 444.1 667.2 444.1C667.3 444.1 667.4 444.1 667.6 444C667.5 444.1 667.4 444.1 667.4 444.1Z" fill="black"/>
<path d="M681.7 449.7C681.9 449.7 682 449.9 681.9 450C681.3 451.2 680.1 452 678.7 452C677.3 452 676.1 451.2 675.5 450C675.4 449.9 675.5 449.7 675.7 449.7H681.7Z" fill="white"/>
<path d="M684.4 437.1C682.8 437.2 681.5 438.1 680.7 439.3C679.3 438.8 678.1 439.2 677.6 439.4C676.6 437.9 674.9 436.9 672.9 437.1C670.2 437.3 668.2 439.8 668.4 442.5C668.6 445.2 671.1 447.2 673.8 447C676.5 446.8 678.5 444.3 678.3 441.6C678.2 441 678.1 440.5 677.9 440C678.4 439.8 679.3 439.6 680.4 439.9C680 440.7 679.8 441.6 679.9 442.5C680.1 445.2 682.6 447.2 685.3 447C688 446.8 690 444.3 689.8 441.6C689.5 438.9 687.1 436.9 684.4 437.1ZM673.8 446.3C671.4 446.5 669.3 444.8 669.1 442.4C668.9 440 670.6 437.9 673 437.7C675.4 437.5 677.5 439.2 677.7 441.6C678 444 676.2 446.1 673.8 446.3ZM685.3 446.4C682.9 446.6 680.8 444.9 680.6 442.5C680.4 440.1 682.1 438 684.5 437.8C686.9 437.6 689 439.3 689.2 441.7C689.4 444.1 687.6 446.2 685.3 446.4Z" fill="white"/>
<path opacity="0.15" d="M674.7 458C676.1 458.6 677.5 458.8 678.8 458.8C679.3 458.8 679.8 458.8 680.2 458.7C682.5 459.8 686 459.3 687.1 458.9L686.8 454.6L686.2 455.2C685.4 455.9 684.5 456.5 683.5 457C682.7 457.3 681.1 457.9 679 458H678.9H678.8C677.6 458 676.3 457.8 675 457.3C674.8 457.2 674.6 457.3 674.5 457.5C674.4 457.7 674.5 457.9 674.7 458Z" fill="black"/>
<path d="M693.1 465.8L691.9 466.8C688.3 469.9 683.9 471.4 679.5 471.4C675.1 471.4 670.8 469.9 667.2 466.9L665.7 465.7L668.6 465L663.2 466.1L665.9 468.4C669.7 471.6 674.5 473.3 679.5 473.3C684.5 473.3 689.4 471.5 693.2 468.2L695.4 466.3L693.1 465.8Z" fill="#002D75"/>
<path d="M695.3 469.2C695.7 469.2 696.1 468.8 696.1 468.4C696.1 468 695.7 467.6 695.3 467.6C694.9 467.6 694.5 468 694.5 468.4C694.5 468.8 694.9 469.2 695.3 469.2Z" fill="white"/>
<path d="M685.7 481.6C686.1 481.6 686.5 481.2 686.5 480.8C686.5 480.4 686.1 480 685.7 480C685.3 480 684.9 480.4 684.9 480.8C684.9 481.2 685.3 481.6 685.7 481.6Z" fill="white"/>
<path d="M669.7 495.1C670.1 495.1 670.5 494.7 670.5 494.3C670.5 493.9 670.1 493.5 669.7 493.5C669.3 493.5 668.9 493.9 668.9 494.3C668.9 494.7 669.3 495.1 669.7 495.1Z" fill="white"/>
<path d="M701.4 492.4C701.8 492.4 702.2 492 702.2 491.6C702.2 491.2 701.8 490.8 701.4 490.8C701 490.8 700.6 491.2 700.6 491.6C700.6 492 701 492.4 701.4 492.4Z" fill="white"/>
<path d="M714.1 502.8C714.5 502.8 714.9 502.4 714.9 502C714.9 501.6 714.5 501.2 714.1 501.2C713.7 501.2 713.3 501.6 713.3 502C713.3 502.4 713.7 502.8 714.1 502.8Z" fill="white"/>
<path d="M710.3 479.2C710.7 479.2 711.1 478.8 711.1 478.4C711.1 478 710.7 477.6 710.3 477.6C709.9 477.6 709.5 478 709.5 478.4C709.5 478.8 709.9 479.2 710.3 479.2Z" fill="white"/>
<path d="M666.4 474.999C666.8 474.999 667.2 474.599 667.2 474.199C667.2 473.799 666.8 473.399 666.4 473.399C666 473.399 665.6 473.799 665.6 474.199C665.6 474.599 666 474.999 666.4 474.999Z" fill="white"/>
<path d="M653.3 485.6C653.7 485.6 654.1 485.2 654.1 484.8C654.1 484.4 653.7 484 653.3 484C652.9 484 652.5 484.4 652.5 484.8C652.5 485.2 652.9 485.6 653.3 485.6Z" fill="white"/>
<path d="M650.1 471.7C650.5 471.7 650.9 471.3 650.9 470.9C650.9 470.5 650.5 470.1 650.1 470.1C649.7 470.1 649.3 470.5 649.3 470.9C649.3 471.3 649.7 471.7 650.1 471.7Z" fill="white"/>
<path d="M635.9 489.2C636.3 489.2 636.7 488.8 636.7 488.4C636.7 488 636.3 487.6 635.9 487.6C635.5 487.6 635.1 488 635.1 488.4C635.1 488.8 635.5 489.2 635.9 489.2Z" fill="white"/>
<path d="M669 611C668.9 611.1 668.8 611.3 668.9 611.4L669.3 613.7C669.4 614.1 669 614.4 668.6 614.2L666.5 613.1C666.4 613.1 666.4 613 666.3 613L664.7 612.9L665.5 606.8L666.2 605.5C666.4 605.5 666.5 605.6 666.6 605.8L667.6 607.9C667.7 608 667.8 608.1 668 608.2L670.3 608.5C670.7 608.6 670.9 609 670.6 609.3L669 611Z" fill="#B1B5BA"/>
<path d="M619.7 605.8L620.7 607.9C620.8 608 620.9 608.1 621.1 608.2L623.4 608.5C623.8 608.6 623.9 609 623.7 609.3L622 611C621.9 611.1 621.8 611.3 621.9 611.4L622.3 613.7C622.4 614.1 622 614.4 621.6 614.2L619.5 613.1C619.4 613 619.2 613 619.1 613.1L617 614.2C616.7 614.4 616.3 614.1 616.3 613.7L616.7 611.4C616.7 611.2 616.7 611.1 616.6 611L614.9 609.4C614.6 609.1 614.8 608.7 615.2 608.6L617.5 608.3C617.7 608.3 617.8 608.2 617.9 608L618.9 605.9C619.1 605.5 619.6 605.5 619.7 605.8Z" class="change-color-in-svg" fill="#4D61FC"/>
<path d="M631.5 605.8L632.5 607.9C632.6 608 632.7 608.1 632.9 608.2L635.2 608.5C635.6 608.6 635.7 609 635.5 609.3L633.8 610.9C633.7 611 633.6 611.2 633.7 611.3L634.1 613.6C634.2 614 633.8 614.3 633.4 614.1L631.3 613C631.2 612.9 631 612.9 630.9 613L628.8 614.1C628.5 614.3 628.1 614 628.1 613.6L628.5 611.3C628.5 611.1 628.5 611 628.4 610.9L626.7 609.3C626.4 609 626.6 608.6 627 608.5L629.3 608.2C629.5 608.2 629.6 608.1 629.7 607.9L630.7 605.8C630.8 605.5 631.3 605.5 631.5 605.8Z" class="change-color-in-svg" fill="#4D61FC"/>
<path d="M643.2 605.8L644.2 607.9C644.3 608 644.4 608.1 644.6 608.2L646.9 608.5C647.3 608.6 647.4 609 647.2 609.3L645.5 610.9C645.4 611 645.3 611.2 645.4 611.3L645.8 613.6C645.9 614 645.5 614.3 645.1 614.1L643 613C642.9 612.9 642.7 612.9 642.6 613L640.5 614.1C640.2 614.3 639.8 614 639.8 613.6L640.2 611.3C640.2 611.1 640.2 611 640.1 610.9L638.4 609.3C638.1 609 638.3 608.6 638.7 608.5L641 608.2C641.2 608.2 641.3 608.1 641.4 607.9L642.4 605.8C642.6 605.5 643.1 605.5 643.2 605.8Z" class="change-color-in-svg" fill="#4D61FC"/>
<path d="M655 605.8L656 607.9C656.1 608 656.2 608.1 656.4 608.2L658.7 608.5C659.1 608.6 659.2 609 659 609.3L657.3 610.9C657.2 611 657.1 611.2 657.2 611.3L657.6 613.6C657.7 614 657.3 614.3 656.9 614.1L654.8 613C654.7 612.9 654.5 612.9 654.4 613L652.3 614.1C652 614.3 651.6 614 651.6 613.6L652 611.3C652 611.1 652 611 651.9 610.9L650.2 609.3C649.9 609 650.1 608.6 650.5 608.5L652.8 608.2C653 608.2 653.1 608.1 653.2 607.9L654.2 605.8C654.3 605.5 654.8 605.5 655 605.8Z" class="change-color-in-svg" fill="#4D61FC"/>
<path d="M666.3 605.6V613.1C666.2 613.1 666.2 613.1 666.1 613.2L664 614.3C663.7 614.5 663.3 614.2 663.3 613.8L663.7 611.5C663.7 611.3 663.7 611.2 663.6 611.1L661.9 609.4C661.6 609.1 661.8 608.7 662.2 608.6L664.5 608.3C664.7 608.3 664.8 608.2 664.9 608L665.9 605.9C666 605.7 666.2 605.6 666.3 605.6Z" class="change-color-in-svg" fill="#4D61FC"/>
<path d="M737.9 617.4H695.9C694.8 617.4 693.9 616.5 693.9 615.4V605C693.9 603.9 694.8 603 695.9 603H737.9C739 603 739.9 603.9 739.9 605V615.4C739.9 616.5 739 617.4 737.9 617.4Z" class="change-color-in-svg" fill="#4D61FC"/>
<path d="M726.7 611.7H707.2C706.4 611.7 705.7 611 705.7 610.2C705.7 609.4 706.4 608.7 707.2 608.7H726.7C727.5 608.7 728.2 609.4 728.2 610.2C728.2 611 727.5 611.7 726.7 611.7Z" fill="white"/>
<path d="M925.2 906.3H781.5C778.2 906.3 775.6 903.7 775.6 900.4V654.9C775.6 651.6 778.2 649 781.5 649H925.2C928.5 649 931.1 651.6 931.1 654.9V900.4C931.1 903.7 928.4 906.3 925.2 906.3Z" fill="white"/>
<path d="M899.5 798.3H806C805.3 798.3 804.7 797.7 804.7 797V792.7C804.7 792 805.3 791.4 806 791.4H899.4C900.1 791.4 900.7 792 900.7 792.7V797C900.7 797.7 900.2 798.3 899.5 798.3Z" fill="#3F4249"/>
<path d="M906 816.6H800.6C799.6 816.6 798.8 815.8 798.8 814.8C798.8 813.8 799.6 813 800.6 813H906C907 813 907.8 813.8 907.8 814.8C907.8 815.8 907 816.6 906 816.6Z" fill="#B1B5BA"/>
<path d="M906 833.2H800.6C799.6 833.2 798.8 832.4 798.8 831.4C798.8 830.4 799.6 829.6 800.6 829.6H906C907 829.6 907.8 830.4 907.8 831.4C907.8 832.4 907 833.2 906 833.2Z" fill="#B1B5BA"/>
<path d="M882.3 849.8H824.3C823.3 849.8 822.5 849 822.5 848C822.5 847 823.3 846.2 824.3 846.2H882.3C883.3 846.2 884.1 847 884.1 848C884.1 849 883.3 849.8 882.3 849.8Z" fill="#B1B5BA"/>
<path opacity="0.3" d="M853.3 759.9C878 759.9 898.1 739.8 898.1 715.1C898.1 690.4 878 670.3 853.3 670.3C828.6 670.3 808.5 690.4 808.5 715.1C808.5 739.8 828.6 759.9 853.3 759.9Z" class="change-color-in-svg" fill="#4D61FC"/>
<path d="M840.1 704.099C836.5 703.699 833.9 700.499 834.3 696.999C834.7 693.499 837.9 690.8 841.4 691.2C841.6 691.2 842.1 691.099 842.1 691.299C840.2 696.899 841.5 704.299 840.1 704.099Z" fill="#21252B"/>
<path d="M867.9 730.5C867.9 730.8 860.3 748.8 854.4 749.2C849.2 749.6 845.6 733 845.6 732.6L845.8 723.9L845.7 719.4C845.4 718.3 844.2 717.4 844.1 716C843.5 709.7 842.7 704 842.7 704C842.7 704 863 689.6 864.7 705.7L866.7 708.2L867.9 730.5Z" fill="#966363"/>
<path d="M842.5 683.9C842.5 683.9 832.8 721.4 850.2 724.3C865.3 726.8 867.7 703.2 867.7 703.2L867.5 687.9L856 682.9L842.5 683.9Z" fill="#966363"/>
<path d="M846.9 693.3C848.8 690.9 851.9 689.3 855 689.5C858.5 689.8 861.2 692.8 860.6 696.8L860.5 697.7C860.4 698.6 861 699.4 861.8 699.5C863.4 699.6 864.6 701.1 864.5 702.7L864.3 705.3C864.3 705.6 864.5 705.9 864.9 705.9C864.9 705.9 865.6 706 865.9 705.4L866.4 702.5L864.7 686.2L851.5 681.8L845.6 686.2L846.9 693.3Z" fill="#21252B"/>
<path opacity="0.15" d="M866.6 709.1C866.6 709.1 865.5 709 864.8 707.5L866.7 711.2L866.6 709.1Z" fill="black"/>
<path opacity="0.15" d="M860.3 721.3C858.9 722.9 856.4 724.7 852.7 725C849.9 726.7 847.2 726.9 845.6 726.8V722.4L846.3 722.9C848.1 724 850.8 724.8 854 724.2C856.7 723.6 858.6 722.2 859.7 720.9C859.8 720.8 860 720.8 860.2 720.9C860.4 721 860.4 721.2 860.3 721.3Z" fill="black"/>
<path d="M854.1 705.3C854.9 705.3 855.5 704.7 855.5 703.9C855.5 703.1 854.9 702.5 854.1 702.5C853.3 702.5 852.7 703.1 852.7 703.9C852.7 704.7 853.3 705.3 854.1 705.3Z" fill="#21252B"/>
<path d="M853.4 703.8C853.6 703.8 853.7 703.7 853.7 703.5C853.7 703.3 853.6 703.2 853.4 703.2C853.2 703.2 853.1 703.3 853.1 703.5C853.1 703.7 853.2 703.8 853.4 703.8Z" fill="white"/>
<path d="M844 705.6C844.8 705.6 845.4 705 845.4 704.2C845.4 703.4 844.8 702.8 844 702.8C843.2 702.8 842.6 703.4 842.6 704.2C842.6 705 843.2 705.6 844 705.6Z" fill="#21252B"/>
<path d="M843.4 704C843.6 704 843.7 703.9 843.7 703.7C843.7 703.5 843.6 703.4 843.4 703.4C843.2 703.4 843.1 703.5 843.1 703.7C843.1 703.9 843.2 704 843.4 704Z" fill="white"/>
<g opacity="0.3">
<path opacity="0.3" d="M847.7 711.3L849.6 711.2C849.8 711.2 850 711 850 710.8C850 710.6 849.8 710.4 849.6 710.4L847.7 710.5C847.2 710.5 846.8 710.1 846.8 709.7C846.8 709.2 847.2 708.8 847.6 708.8C847.8 708.8 848 708.6 848 708.4C848 708.2 847.8 708 847.6 708C846.7 708 846 708.8 846 709.7C846.1 710.6 846.8 711.3 847.7 711.3Z" fill="black"/>
</g>
<path d="M853.3 759.9C870.8 759.9 886 749.8 893.4 735.1C893.2 735 893 734.9 892.7 734.9C892.5 734.8 892.2 734.8 891.9 734.7L867.4 728.9L854.2 744.7L845.6 729.4L817.4 732.8H817.3C815.7 733 814.2 733.7 812.9 734.6C820.2 749.6 835.5 759.9 853.3 759.9Z" fill="#21252B"/>
<path d="M871.7 692.899C871.4 688.799 869.5 685.599 865.9 684.599C864.3 684.199 862.7 684.199 861.3 684.499C860.7 684.599 860.2 684.199 860.1 683.699C859.6 680.899 857.2 678.799 854.3 678.599C852.2 678.499 850.3 679.399 849.1 680.799C848.7 681.299 848 681.299 847.6 680.899C847.6 680.899 843.6 677.299 837.9 680.399C834.1 682.399 832.2 687.299 834.2 691.699C836.1 696.199 841.8 697.799 845.5 694.699C846.8 693.599 847.9 691.899 848.3 689.299C848.5 687.799 848.5 686.299 848.2 684.999L850 685.099C852.2 685.099 855.6 684.999 858.7 685.599C858.6 685.599 858.6 685.699 858.5 685.699L864 687.999C864 687.999 864.8 703.099 865.8 702.999C869.9 702.399 872 696.599 871.7 692.899Z" fill="#21252B"/>
<path d="M871.7 694.2L860.3 693.8C859.5 691.4 857.4 689.8 854.9 689.6C851.8 689.3 848.7 691 846.8 693.4C846.4 694 846 694.4 845.5 694.8C841.8 697.9 836.1 696.2 834.2 691.8C832.3 687.4 834.2 682.5 837.9 680.5C843.6 677.4 847.6 681.1 847.6 681.1C848 681.5 848.7 681.5 849.1 681C850.3 679.5 852.2 678.6 854.3 678.8C857.2 679 859.6 681.1 860.1 683.9C860.2 684.5 860.8 684.9 861.3 684.7C862.7 684.4 864.3 684.3 865.9 684.8C869.4 685.8 871.4 689 871.7 693.1C871.7 693.3 871.7 693.7 871.7 694.2Z" fill="#21252B"/>
<path d="M842.3 697.1L844.1 696.8C844.3 696.8 844.5 696.6 844.4 696.4C844.3 696.2 844.2 696 844 696.1L842.2 696.4C842 696.5 841.8 696.5 841.5 696.5C841 696.5 840.1 696.4 839.2 696.1C839 696 838.8 696.1 838.7 696.3C838.6 696.5 838.7 696.7 838.9 696.8C839.9 697.1 840.9 697.3 841.3 697.3C841.7 697.1 842 697.1 842.3 697.1Z" fill="#966363"/>
<path d="M853.3 745.3L847.8 740.5L854.6 739.2L861.2 740.7L855.4 745.3C854.7 745.8 853.8 745.8 853.3 745.3Z" fill="white"/>
<path d="M854.6 739.2L865.1 741.6L869.7 729.5L869.3 726.2C869.2 725.7 868.8 725.4 868.4 725.4H867.6L867.7 728.8L854.6 739.2Z" fill="white"/>
<path d="M845.6 729.4V726.6H845C844.4 726.6 844 727.1 844 727.6L843.9 741.2L854.4 739.2L845.6 729.4Z" fill="white"/>
<g opacity="0.15">
<path opacity="0.15" d="M863.4 741.7L854.5 739.7L845.2 741.5L845.1 741L854.5 739.2L863.5 741.2L863.4 741.7Z" fill="black"/>
</g>
<path d="M871.7 694.2C871.5 697.7 869.6 702.1 866.3 702.9L865.8 705.6C865.6 706.2 864.8 706.1 864.8 706.1C864.5 706.1 864.2 705.8 864.2 705.5L864.4 702.9C864.5 701.3 863.3 699.8 861.7 699.7C860.8 699.6 860.2 698.8 860.4 697.9L860.5 697C860.7 695.8 860.6 694.8 860.3 693.8L871.7 694.2Z" fill="#3F4249"/>
<path d="M866.4 701.399C866.4 701.399 867.2 698.599 870.1 699.699C873.4 700.899 872.4 707.699 867.8 708.999C865 709.399 865.4 707.699 865.8 705.499C866.4 701.399 866.4 701.399 866.4 701.399Z" fill="#966363"/>
<path opacity="0.3" d="M870.4 701.6C869.8 701.3 869.3 701.1 868.8 701.3C868.3 701.5 867.9 701.8 867.6 702.4C867.3 703 867.2 703.7 867.2 704.4V705C867.2 705.2 867.4 705.3 867.6 705.3C867.8 705.3 867.9 705.1 867.9 704.9V704.3C867.9 704.1 867.9 703.2 868.2 702.6C868.4 702.2 868.7 702 869 701.8C869.3 701.7 869.7 701.8 870.1 702C870.2 702.1 870.5 702 870.6 701.9C870.6 701.9 870.5 701.7 870.4 701.6Z" fill="black"/>
<path d="M863.9 695.2V695.9L860.6 695.7C860.6 695.7 860.6 695.3 860.6 695L863.9 695.2Z" fill="#21252B"/>
<path d="M863.3 696.9V697.6L866.2 697.8V697.1L863.3 696.9Z" fill="#21252B"/>
<path d="M850.6 724.8C847.2 724.9 844.4 722.3 844.3 718.9L844.2 716C844.1 713.6 846 711.6 848.4 711.5L851.9 711.4C854.3 711.3 856.3 713.2 856.4 715.6L856.5 718.5C856.6 722 854 724.7 850.6 724.8Z" fill="#21252B"/>
<path d="M847 714.2L853.1 714.1C853.1 714.1 852.8 716.4 850.3 716.5C847.3 716.7 847 714.2 847 714.2Z" fill="white"/>
<path d="M856.3 701.9C856.5 701.9 856.8 701.7 856.8 701.4C856.8 701.1 856.6 700.9 856.3 700.9L853 700.7C852.7 700.7 852.5 700.9 852.5 701.2C852.5 701.5 852.7 701.7 853 701.7L856.3 701.9C856.2 701.9 856.3 701.9 856.3 701.9Z" fill="#21252B"/>
<path d="M842 702.3C841.8 702.3 841.5 702.1 841.5 701.8C841.5 701.5 841.7 701.3 842 701.3L845.2 701C845.5 701 845.7 701.2 845.7 701.5C845.7 701.8 845.5 702 845.2 702L842 702.3C842.1 702.3 842 702.3 842 702.3Z" fill="#21252B"/>
<path d="M794.9 876.8L795.9 878.9C796 879 796.1 879.1 796.3 879.2L798.6 879.5C799 879.6 799.1 880 798.9 880.3L797.2 881.9C797.1 882 797 882.2 797.1 882.3L797.5 884.6C797.6 885 797.2 885.3 796.8 885.1L794.7 884C794.6 883.9 794.4 883.9 794.3 884L792.2 885.1C791.9 885.3 791.5 885 791.5 884.6L791.9 882.3C791.9 882.1 791.9 882 791.8 881.9L790.1 880.3C789.8 880 790 879.6 790.4 879.5L792.7 879.2C792.9 879.2 793 879.1 793.1 878.9L794.1 876.8C794.2 876.5 794.7 876.5 794.9 876.8Z" class="change-color-in-svg" fill="#4D61FC"/>
<path d="M806.6 876.8L807.6 878.9C807.7 879 807.8 879.1 808 879.2L810.3 879.5C810.7 879.6 810.8 880 810.6 880.3L808.9 881.9C808.8 882 808.7 882.2 808.8 882.3L809.2 884.6C809.3 885 808.9 885.3 808.5 885.1L806.4 884C806.3 883.9 806.1 883.9 806 884L803.9 885.1C803.6 885.3 803.2 885 803.2 884.6L803.6 882.3C803.6 882.1 803.6 882 803.5 881.9L801.8 880.3C801.5 880 801.7 879.6 802.1 879.5L804.4 879.2C804.6 879.2 804.7 879.1 804.8 878.9L805.8 876.8C805.9 876.5 806.4 876.5 806.6 876.8Z" class="change-color-in-svg" fill="#4D61FC"/>
<path d="M818.4 876.8L819.4 878.9C819.5 879 819.6 879.1 819.8 879.2L822.1 879.5C822.5 879.6 822.6 880 822.4 880.3L820.7 881.9C820.6 882 820.5 882.2 820.6 882.3L821 884.6C821.1 885 820.7 885.3 820.3 885.1L818.2 884C818.1 883.9 817.9 883.9 817.8 884L815.7 885.1C815.4 885.3 815 885 815 884.6L815.4 882.3C815.4 882.1 815.4 882 815.3 881.9L813.6 880.3C813.3 880 813.5 879.6 813.9 879.5L816.2 879.2C816.4 879.2 816.5 879.1 816.6 878.9L817.6 876.8C817.7 876.5 818.2 876.5 818.4 876.8Z" class="change-color-in-svg" fill="#4D61FC"/>
<path d="M830.1 876.8L831.1 878.9C831.2 879 831.3 879.1 831.5 879.2L833.8 879.5C834.2 879.6 834.3 880 834.1 880.3L832.4 881.9C832.3 882 832.2 882.2 832.3 882.3L832.7 884.6C832.8 885 832.4 885.3 832 885.1L829.9 884C829.8 883.9 829.6 883.9 829.5 884L827.4 885.1C827.1 885.3 826.7 885 826.7 884.6L827.1 882.3C827.1 882.1 827.1 882 827 881.9L825.3 880.3C825 880 825.2 879.6 825.6 879.5L827.9 879.2C828.1 879.2 828.2 879.1 828.3 878.9L829.3 876.8C829.4 876.5 829.9 876.5 830.1 876.8Z" class="change-color-in-svg" fill="#4D61FC"/>
<path d="M841.9 876.8L842.9 878.9C843 879 843.1 879.1 843.3 879.2L845.6 879.5C846 879.6 846.1 880 845.9 880.3L844.2 881.9C844.1 882 844 882.2 844.1 882.3L844.5 884.6C844.6 885 844.2 885.3 843.8 885.1L841.7 884C841.6 883.9 841.4 883.9 841.3 884L839.2 885.1C838.9 885.3 838.5 885 838.5 884.6L838.9 882.3C838.9 882.1 838.9 882 838.8 881.9L837.1 880.3C836.8 880 837 879.6 837.4 879.5L839.7 879.2C839.9 879.2 840 879.1 840.1 878.9L841.1 876.8C841.2 876.5 841.7 876.5 841.9 876.8Z" fill="#B1B5BA"/>
<path d="M913.6 888.3H871.6C870.5 888.3 869.6 887.4 869.6 886.3V876C869.6 874.9 870.5 874 871.6 874H913.6C914.7 874 915.6 874.9 915.6 876V886.4C915.6 887.5 914.7 888.3 913.6 888.3Z" class="change-color-in-svg" fill="#4D61FC"/>
<path d="M902.4 882.6H882.9C882.1 882.6 881.4 881.9 881.4 881.1C881.4 880.3 882.1 879.6 882.9 879.6H902.4C903.2 879.6 903.9 880.3 903.9 881.1C903.9 882 903.2 882.6 902.4 882.6Z" fill="white"/>
<path d="M563.6 888H440.3C437.5 888 435.2 885.7 435.2 882.9V672.3C435.2 669.5 437.5 667.2 440.3 667.2H563.6C566.4 667.2 568.7 669.5 568.7 672.3V883C568.6 885.8 566.4 888 563.6 888Z" class="change-color-in-svg" fill="#4D61FC"/>
<path opacity="0.5" d="M563.6 888H440.3C437.5 888 435.2 885.7 435.2 882.9V672.3C435.2 669.5 437.5 667.2 440.3 667.2H563.6C566.4 667.2 568.7 669.5 568.7 672.3V883C568.6 885.8 566.4 888 563.6 888Z" fill="white"/>
<path d="M553.7 871.4H517.7C516.8 871.4 516 870.6 516 869.7V860.8C516 859.9 516.8 859.1 517.7 859.1H553.7C554.6 859.1 555.4 859.9 555.4 860.8V869.7C555.3 870.6 554.6 871.4 553.7 871.4Z" class="change-color-in-svg" fill="#4D61FC"/>
<path d="M544 866.5H527.3C526.6 866.5 526 865.9 526 865.2C526 864.5 526.6 863.9 527.3 863.9H544C544.7 863.9 545.3 864.5 545.3 865.2C545.3 865.9 544.7 866.5 544 866.5Z" fill="white"/>
<path d="M452.8 861.5L453.7 863.3C453.8 863.4 453.9 863.5 454 863.5L456 863.8C456.3 863.8 456.5 864.3 456.2 864.5L454.7 865.9C454.6 866 454.6 866.1 454.6 866.3L454.9 868.3C455 868.6 454.6 868.9 454.3 868.7L452.5 867.8C452.4 867.7 452.2 867.7 452.1 867.8L450.3 868.7C450 868.9 449.7 868.6 449.7 868.3L450 866.3C450 866.2 450 866 449.9 865.9L448.4 864.5C448.2 864.3 448.3 863.9 448.6 863.8L450.6 863.5C450.7 863.5 450.8 863.4 450.9 863.3L451.8 861.5C452.2 861.2 452.6 861.2 452.8 861.5Z" class="change-color-in-svg" fill="#4D61FC"/>
<path d="M462.8 861.5L463.7 863.3C463.8 863.4 463.9 863.5 464 863.5L466 863.8C466.3 863.8 466.5 864.3 466.2 864.5L464.7 865.9C464.6 866 464.6 866.1 464.6 866.3L464.9 868.3C465 868.6 464.6 868.9 464.3 868.7L462.5 867.8C462.4 867.7 462.2 867.7 462.1 867.8L460.3 868.7C460 868.9 459.7 868.6 459.7 868.3L460 866.3C460 866.2 460 866 459.9 865.9L458.4 864.5C458.2 864.3 458.3 863.9 458.6 863.8L460.6 863.5C460.7 863.5 460.8 863.4 460.9 863.3L461.8 861.5C462.3 861.2 462.7 861.2 462.8 861.5Z" class="change-color-in-svg" fill="#4D61FC"/>
<path d="M472.9 861.5L473.8 863.3C473.9 863.4 474 863.5 474.1 863.5L476.1 863.8C476.4 863.8 476.6 864.3 476.3 864.5L474.8 865.9C474.7 866 474.7 866.1 474.7 866.3L475 868.3C475.1 868.6 474.7 868.9 474.4 868.7L472.6 867.8C472.5 867.7 472.3 867.7 472.2 867.8L470.4 868.7C470.1 868.9 469.8 868.6 469.8 868.3L470.1 866.3C470.1 866.2 470.1 866 470 865.9L468.5 864.5C468.3 864.3 468.4 863.9 468.7 863.8L470.7 863.5C470.8 863.5 470.9 863.4 471 863.3L471.9 861.5C472.3 861.2 472.8 861.2 472.9 861.5Z" class="change-color-in-svg" fill="#4D61FC"/>
<path d="M483 861.5L483.9 863.3C484 863.4 484.1 863.5 484.2 863.5L486.2 863.8C486.5 863.8 486.7 864.3 486.4 864.5L484.9 865.9C484.8 866 484.8 866.1 484.8 866.3L485.1 868.3C485.2 868.6 484.8 868.9 484.5 868.7L482.7 867.8C482.6 867.7 482.4 867.7 482.3 867.8L480.5 868.7C480.2 868.9 479.9 868.6 479.9 868.3L480.2 866.3C480.2 866.2 480.2 866 480.1 865.9L478.6 864.5C478.4 864.3 478.5 863.9 478.8 863.8L480.8 863.5C480.9 863.5 481 863.4 481.1 863.3L482 861.5C482.4 861.2 482.8 861.2 483 861.5Z" class="change-color-in-svg" fill="#4D61FC"/>
<path d="M493.1 861.5L494 863.3C494.1 863.4 494.2 863.5 494.3 863.5L496.3 863.8C496.6 863.8 496.8 864.3 496.5 864.5L495 865.9C494.9 866 494.9 866.1 494.9 866.3L495.2 868.3C495.3 868.6 494.9 868.9 494.6 868.7L492.8 867.8C492.7 867.7 492.5 867.7 492.4 867.8L490.6 868.7C490.3 868.9 490 868.6 490 868.3L490.3 866.3C490.3 866.2 490.3 866 490.2 865.9L488.7 864.5C488.5 864.3 488.6 863.9 488.9 863.8L490.9 863.5C491 863.5 491.1 863.4 491.2 863.3L492.1 861.5C492.5 861.2 492.9 861.2 493.1 861.5Z" class="change-color-in-svg" fill="#4D61FC"/>
<path d="M541.5 794.1H461.3C460.7 794.1 460.2 793.6 460.2 793V789.3C460.2 788.7 460.7 788.2 461.3 788.2H541.5C542.1 788.2 542.6 788.7 542.6 789.3V793C542.6 793.6 542.1 794.1 541.5 794.1Z" class="change-color-in-svg" fill="#4D61FC"/>
<g opacity="0.7">
<path opacity="0.3" d="M547.1 809.8H456.7C455.8 809.8 455.1 809.1 455.1 808.2C455.1 807.3 455.8 806.6 456.7 806.6H547.1C548 806.6 548.7 807.3 548.7 808.2C548.7 809.1 548 809.8 547.1 809.8Z" fill="white"/>
<path opacity="0.3" d="M547.1 824.099H456.7C455.8 824.099 455.1 823.399 455.1 822.499C455.1 821.599 455.8 820.899 456.7 820.899H547.1C548 820.899 548.7 821.599 548.7 822.499C548.7 823.399 548 824.099 547.1 824.099Z" fill="white"/>
<path opacity="0.3" d="M526.8 838.3H477C476.1 838.3 475.4 837.6 475.4 836.7C475.4 835.8 476.1 835.1 477 835.1H526.7C527.6 835.1 528.3 835.8 528.3 836.7C528.3 837.6 527.6 838.3 526.8 838.3Z" fill="white"/>
</g>
<path opacity="0.5" d="M501.9 761.1C523.1 761.1 540.3 743.9 540.3 722.7C540.3 701.5 523.1 684.3 501.9 684.3C480.7 684.3 463.5 701.5 463.5 722.7C463.5 743.9 480.7 761.1 501.9 761.1Z" class="change-color-in-svg" fill="#4D61FC"/>
<path d="M486.9 708.2C486.9 708.2 479.2 712.2 482 722.7C483 726.6 479.2 727.5 477.3 729.5C472.2 734.5 475.9 744.1 478.9 743.9L515.8 755.7C515.8 755.7 529.1 738.4 523.3 729.6C520.7 725.7 521.2 725.1 522.2 720.9C523.7 714.5 519.2 712.1 519.2 712.1L516.9 711.9L506.9 694.7L492.6 706.9L490.3 707.2L486.9 708.2Z" fill="#21252B"/>
<path d="M501.9 761.1C514.1 761.1 525 755.4 532 746.5C530.9 742.7 528.3 739.8 524.3 738.5L515.3 736.1L490.9 735.8L476 738.8C473.3 739.4 471 741.1 469.5 743.3C476.3 754 488.3 761.1 501.9 761.1Z" class="change-color-in-svg" fill="#4D61FC"/>
<path opacity="0.6" d="M492.6 740.2L486.7 736.6L490.2 735.9L514.6 736.2L517 736.8L511.2 740.3C505.3 743.7 498.2 743.7 492.6 740.2Z" fill="black"/>
<path d="M514.5 736.2L509.9 739C504.8 742 498.4 742 493.4 738.8L489.1 736.1L490.4 735.7C491.7 735.4 492.6 734.2 492.6 732.9L493.7 717.1L509.2 715L509.7 727L510 733C510.1 734.2 511 735.2 512.2 735.6L514.5 736.2Z" fill="#966363"/>
<path d="M504.7 729.1H503.9C498.3 729.3 493.7 724.9 493.5 719.3L493.1 705.2C493 703.3 494.5 701.8 496.4 701.7L509.6 701.3C512 701.2 514 703.1 514.1 705.5L514.5 718.6C514.7 724.2 510.3 728.9 504.7 729.1Z" fill="#966363"/>
<path d="M503.9 714.9C504.5 714.9 505 714.4 505 713.8C505 713.2 504.5 712.7 503.9 712.7C503.3 712.7 502.8 713.2 502.8 713.8C502.8 714.4 503.3 714.9 503.9 714.9Z" fill="#21252B"/>
<path d="M504.5 714.2C504.6 714.2 504.7 714.1 504.7 714C504.7 713.9 504.6 713.8 504.5 713.8C504.4 713.8 504.3 713.9 504.3 714C504.3 714.1 504.4 714.2 504.5 714.2Z" fill="white"/>
<path d="M512.3 714.8C512.9 714.8 513.4 714.3 513.4 713.7C513.4 713.1 512.9 712.6 512.3 712.6C511.7 712.6 511.2 713.1 511.2 713.7C511.2 714.3 511.7 714.8 512.3 714.8Z" fill="#21252B"/>
<path d="M512.9 714.2C513 714.2 513.1 714.1 513.1 714C513.1 713.9 513 713.8 512.9 713.8C512.8 713.8 512.7 713.9 512.7 714C512.7 714.1 512.8 714.2 512.9 714.2Z" fill="white"/>
<g opacity="0.3">
<path opacity="0.3" d="M508.3 720L506.8 720.1C506.6 720.1 506.5 720 506.5 719.8C506.5 719.6 506.6 719.5 506.8 719.5L508.3 719.4C508.7 719.4 508.9 719.1 508.9 718.7C508.9 718.3 508.6 718 508.2 718.1C508 718.1 507.9 718 507.9 717.8C507.9 717.6 508 717.5 508.2 717.5C508.9 717.5 509.5 718 509.6 718.7C509.6 719.3 509 720 508.3 720Z" fill="black"/>
</g>
<path d="M519.2 712.1C517.6 711 518.2 708.8 518.2 708.8V708.9C519.7 697.4 511.8 691 505.2 690.4C501.4 690.1 491.7 691.6 489.8 703.1C489.5 704.8 489.6 706.5 486.9 708.2C486.9 708.2 489.2 713.9 489.9 716C490.2 716.9 491.9 713.2 492.6 712.8C492.7 712.8 493.4 713.8 493.9 714.4C494.2 714.8 494.8 714.8 495 714.3L495.1 714.1C495.6 712.5 495.9 710.7 495.8 709C500.4 707.4 499.9 702.6 499.9 702.6C505.2 711.9 514.3 708.5 514.3 708.5L514.4 713.8C514.4 713.8 515.4 712.9 516.3 711.4L518 712.6L519.2 712.1Z" fill="#21252B"/>
<path d="M494.3 719.9C494.3 719.9 489.5 720.6 488.2 715.9C486.9 711.2 492.7 709.9 493.9 714.6L494.9 719.8L494.3 719.9Z" fill="#966363"/>
<path opacity="0.3" d="M489.5 713.3C490 712.9 490.5 712.7 490.9 712.8C491.4 712.9 491.8 713.1 492.1 713.6C492.5 714.1 492.7 714.7 492.8 715.4L492.9 715.9C493 716.3 492.3 716.4 492.3 716C492.2 715.4 492.2 715.4 492.2 715.4C492.2 715.2 492 714.4 491.7 713.9C491.4 713.6 491.2 713.4 490.9 713.3C490.6 713.3 490.3 713.4 489.9 713.7C489.8 713.8 489.6 713.8 489.5 713.7C489.3 713.6 489.3 713.4 489.5 713.3Z" fill="black"/>
<path d="M512.7 710.5C511.3 710.6 510.1 711.3 509.4 712.4C508.2 712 507.1 712.2 506.7 712.4C505.9 711 504.3 710.1 502.6 710.2C500.2 710.4 498.4 712.4 498.5 714.9C498.7 717.3 500.7 719.1 503.2 719C505.6 718.8 507.4 716.8 507.3 714.3C507.3 713.8 507.1 713.3 507 712.9C507.4 712.8 508.2 712.6 509.2 712.9C508.8 713.6 508.6 714.4 508.7 715.2C508.9 717.6 510.9 719.4 513.4 719.3C515.8 719.1 517.6 717.1 517.5 714.6C517.2 712.2 515.1 710.4 512.7 710.5ZM503.1 718.4C501 718.5 499.2 716.9 499 714.8C498.9 712.7 500.5 710.9 502.6 710.7C504.7 710.6 506.5 712.2 506.7 714.3C506.8 716.4 505.2 718.3 503.1 718.4ZM513.2 718.7C511.1 718.8 509.3 717.2 509.1 715.1C509 713 510.6 711.2 512.7 711C514.8 710.9 516.6 712.5 516.8 714.6C516.9 716.8 515.3 718.6 513.2 718.7Z" fill="white"/>
<path d="M492.9 719.3C493.5 719.3 493.9 718.9 493.9 718.3C493.9 717.7 493.5 717.3 492.9 717.3C492.3 717.3 491.9 717.7 491.9 718.3C491.9 718.9 492.3 719.3 492.9 719.3Z" class="change-color-in-svg" fill="#4D61FC"/>
<path opacity="0.15" d="M493.3 719.1C492.7 719.1 492.2 718.7 492.2 718.1C492.2 717.9 492.2 717.7 492.3 717.5C492.1 717.7 491.9 718 491.9 718.3C491.9 718.8 492.4 719.2 492.9 719.2C493.1 719.2 493.3 719.1 493.4 719C493.4 719.1 493.3 719.1 493.3 719.1Z" fill="black"/>
<path opacity="0.15" d="M493.5 719.9H494.9L493.3 722.7L493.5 719.9Z" fill="black"/>
<path opacity="0.15" d="M509.9 731C509.2 731.1 508.5 731.2 507.8 731.2C505.5 731.2 503.6 730.2 502.5 729.3C500.4 729 498.9 728.3 497.9 727.8C497.8 727.7 497.7 727.5 497.8 727.4C497.9 727.3 498.1 727.2 498.2 727.3C499 727.8 500.2 728.3 501.8 728.6C501.9 728.6 502 728.6 502.1 728.7C502.3 728.7 502.6 728.8 502.8 728.8H502.9C503 728.8 503.2 728.8 503.4 728.8C503.8 728.8 504.2 728.8 504.6 728.8C506.5 728.7 508.2 728.4 509.8 727.6L509.9 731Z" fill="black"/>
<path d="M509.1 721.7C509.2 721.7 509.3 721.9 509.3 722C508.7 723.1 507.7 723.8 506.5 723.7C505.3 723.7 504.3 723 503.7 721.9C503.6 721.8 503.7 721.6 503.9 721.6L509.1 721.7Z" fill="white"/>
<path d="M513.3 710.3C505 711.1 501 704 500.9 703.9C500.8 703.7 500.9 703.5 501 703.4C501.2 703.3 501.4 703.4 501.5 703.5C501.5 703.6 505.4 710.3 513.2 709.5C513.4 709.5 513.6 709.6 513.6 709.8C513.6 710.1 513.5 710.2 513.3 710.3Z" fill="#21252B"/>
<g opacity="0.3">
<path opacity="0.3" d="M503.1 747.8C483.3 747.8 468.1 744.8 467.9 744.8L468.5 743.8C468.5 743.8 468.5 743.8 469.3 742.8C473.4 743.6 500.6 748.2 529.9 743.6L531 745.8L530.7 745.9C521 747.3 511.6 747.8 503.1 747.8Z" fill="white"/>
</g>
<path d="M739.3 888H616C613.2 888 610.9 885.7 610.9 882.9V672.3C610.9 669.5 613.2 667.2 616 667.2H739.3C742.1 667.2 744.4 669.5 744.4 672.3V883C744.3 885.8 742.1 888 739.3 888Z" class="change-color-in-svg" fill="#4D61FC"/>
<path opacity="0.5" d="M739.3 888H616C613.2 888 610.9 885.7 610.9 882.9V672.3C610.9 669.5 613.2 667.2 616 667.2H739.3C742.1 667.2 744.4 669.5 744.4 672.3V883C744.3 885.8 742.1 888 739.3 888Z" fill="white"/>
<path d="M717.2 795.3H637C636.4 795.3 635.9 794.8 635.9 794.2V790.5C635.9 789.9 636.4 789.4 637 789.4H717.2C717.8 789.4 718.3 789.9 718.3 790.5V794.2C718.3 794.9 717.8 795.3 717.2 795.3Z" class="change-color-in-svg" fill="#4D61FC"/>
<g opacity="0.7">
<path opacity="0.3" d="M722.8 811.1H632.4C631.5 811.1 630.8 810.4 630.8 809.5C630.8 808.6 631.5 807.9 632.4 807.9H722.8C723.7 807.9 724.4 808.6 724.4 809.5C724.4 810.3 723.7 811.1 722.8 811.1Z" fill="white"/>
<path opacity="0.3" d="M722.8 825.301H632.4C631.5 825.301 630.8 824.601 630.8 823.701C630.8 822.801 631.5 822.101 632.4 822.101H722.8C723.7 822.101 724.4 822.801 724.4 823.701C724.4 824.601 723.7 825.301 722.8 825.301Z" fill="white"/>
<path opacity="0.3" d="M702.5 839.6H652.8C651.9 839.6 651.2 838.9 651.2 838C651.2 837.1 651.9 836.4 652.8 836.4H702.5C703.4 836.4 704.1 837.1 704.1 838C704.1 838.9 703.4 839.6 702.5 839.6Z" fill="white"/>
</g>
<path d="M628 862.7L628.9 864.5C629 864.6 629.1 864.7 629.2 864.7L631.2 865C631.5 865 631.7 865.5 631.4 865.7L629.9 867.1C629.8 867.2 629.8 867.3 629.8 867.5L630.1 869.5C630.2 869.8 629.8 870.1 629.5 869.9L627.7 869C627.6 868.9 627.4 868.9 627.3 869L625.5 869.9C625.2 870.1 624.9 869.8 624.9 869.5L625.2 867.5C625.2 867.4 625.2 867.2 625.1 867.1L623.6 865.7C623.4 865.5 623.5 865.1 623.8 865L625.8 864.7C625.9 864.7 626 864.6 626.1 864.5L627 862.7C627.4 862.4 627.8 862.4 628 862.7Z" class="change-color-in-svg" fill="#4D61FC"/>
<path d="M638 862.7L638.9 864.5C639 864.6 639.1 864.7 639.2 864.7L641.2 865C641.5 865 641.7 865.5 641.4 865.7L639.9 867.1C639.8 867.2 639.8 867.3 639.8 867.5L640.1 869.5C640.2 869.8 639.8 870.1 639.5 869.9L637.7 869C637.6 868.9 637.4 868.9 637.3 869L635.5 869.9C635.2 870.1 634.9 869.8 634.9 869.5L635.2 867.5C635.2 867.4 635.2 867.2 635.1 867.1L633.6 865.7C633.4 865.5 633.5 865.1 633.8 865L635.8 864.7C635.9 864.7 636 864.6 636.1 864.5L637 862.7C637.5 862.4 637.9 862.4 638 862.7Z" class="change-color-in-svg" fill="#4D61FC"/>
<path d="M648.1 862.7L649 864.5C649.1 864.6 649.2 864.7 649.3 864.7L651.3 865C651.6 865 651.8 865.5 651.5 865.7L650 867.1C649.9 867.2 649.9 867.3 649.9 867.5L650.2 869.5C650.3 869.8 649.9 870.1 649.6 869.9L647.8 869C647.7 868.9 647.5 868.9 647.4 869L645.6 869.9C645.3 870.1 645 869.8 645 869.5L645.3 867.5C645.3 867.4 645.3 867.2 645.2 867.1L643.7 865.7C643.5 865.5 643.6 865.1 643.9 865L645.9 864.7C646 864.7 646.1 864.6 646.2 864.5L647.1 862.7C647.5 862.4 648 862.4 648.1 862.7Z" class="change-color-in-svg" fill="#4D61FC"/>
<path d="M658.2 862.7L659.1 864.5C659.2 864.6 659.3 864.7 659.4 864.7L661.4 865C661.7 865 661.9 865.5 661.6 865.7L660.1 867.1C660 867.2 660 867.3 660 867.5L660.3 869.5C660.4 869.8 660 870.1 659.7 869.9L658 869C657.9 868.9 657.7 868.9 657.6 869L655.8 869.9C655.5 870.1 655.2 869.8 655.2 869.5L655.5 867.5C655.5 867.4 655.5 867.2 655.4 867.1L653.9 865.7C653.7 865.5 653.8 865.1 654.1 865L656.1 864.7C656.2 864.7 656.3 864.6 656.4 864.5L657.3 862.7C657.6 862.4 658 862.4 658.2 862.7Z" class="change-color-in-svg" fill="#4D61FC"/>
<path d="M668.3 862.7L669.2 864.5C669.3 864.6 669.4 864.7 669.5 864.7L671.5 865C671.8 865 672 865.5 671.7 865.7L670.2 867.1C670.1 867.2 670.1 867.3 670.1 867.5L670.4 869.5C670.5 869.8 670.1 870.1 669.8 869.9L668 869C667.9 868.9 667.7 868.9 667.6 869L665.8 869.9C665.5 870.1 665.2 869.8 665.2 869.5L665.5 867.5C665.5 867.4 665.5 867.2 665.4 867.1L663.9 865.7C663.7 865.5 663.8 865.1 664.1 865L666.1 864.7C666.2 864.7 666.3 864.6 666.4 864.5L667.3 862.7C667.7 862.4 668.1 862.4 668.3 862.7Z" class="change-color-in-svg" fill="#4D61FC"/>
<path d="M647.8 862.5V868.9C647.7 868.9 647.7 868.9 647.6 869L645.8 869.9C645.5 870.1 645.2 869.8 645.2 869.5L645.5 867.5C645.5 867.4 645.5 867.2 645.4 867.1L644 865.7C643.8 865.5 643.9 865.1 644.2 865L646.2 864.7C646.3 864.7 646.5 864.6 646.5 864.5L647.4 862.7C647.5 862.6 647.6 862.5 647.8 862.5Z" class="change-color-in-svg" fill="#4D61FC"/>
<path d="M729.4 872.6H693.4C692.5 872.6 691.7 871.8 691.7 870.9V862C691.7 861.1 692.5 860.3 693.4 860.3H729.4C730.3 860.3 731.1 861.1 731.1 862V870.9C731.1 871.9 730.3 872.6 729.4 872.6Z" class="change-color-in-svg" fill="#4D61FC"/>
<path d="M719.7 867.7H703C702.3 867.7 701.7 867.1 701.7 866.4C701.7 865.7 702.3 865.1 703 865.1H719.7C720.4 865.1 721 865.7 721 866.4C721 867.2 720.4 867.7 719.7 867.7Z" fill="white"/>
<path opacity="0.5" d="M677.6 762.4C698.8 762.4 716 745.2 716 724C716 702.8 698.8 685.6 677.6 685.6C656.4 685.6 639.2 702.8 639.2 724C639.2 745.2 656.4 762.4 677.6 762.4Z" class="change-color-in-svg" fill="#4D61FC"/>
<path d="M689.4 760.5C689.6 748.1 689.9 740.2 689.9 740.2L689.7 740.1L688.7 739.8L687.1 741.6C675.6 750.1 667.5 738.2 667.5 738.2L667.1 738.3C667.1 738.3 665.7 745.9 663.5 759.7C667.9 761.4 672.6 762.4 677.6 762.4C681.7 762.4 685.7 761.7 689.4 760.5Z" fill="white"/>
<path d="M710.3 744.1L698.4 740.5L689.9 737.9C689.9 737.9 689.8 738.7 689.6 740.1C689.2 743.5 688.4 750.9 687.6 761.1C697.2 758.5 705.2 752.3 710.3 744.1Z" fill="#21252B"/>
<path d="M667.8 716.8L666.9 740C666.9 740.5 667 741 667.3 741.4L667.5 741.7C673 747.7 682 747.7 688.9 742.5C689.6 742 690 741.1 689.9 740.2L687.4 716.1L667.8 716.8Z" fill="#FC9D9D"/>
<path d="M689.8 708C689.8 708 692.5 733.8 678.1 734.7C665.2 735.4 665.5 708.9 665.5 708.9L664.8 701L683.1 698.7L687.6 701.3L689.8 708Z" fill="#FC9D9D"/>
<path opacity="0.15" d="M689 733L688.3 725.8C686.8 730.4 683.9 734.1 679.1 734.6C679.1 734.6 679.1 734.6 679.2 734.6C678.9 734.6 678.5 734.7 678.2 734.7C674.4 734.8 671.4 732.9 669.2 729.1C669.1 728.9 668.9 728.9 668.7 729C668.5 729.1 668.5 729.3 668.6 729.5C670.9 733.6 674.1 735.6 678.2 735.4C679.1 735.4 679.9 735.3 680.7 735C683.2 735.4 686.1 734.9 689 733Z" fill="black"/>
<path d="M688.5 700.2C686.9 685.2 653.4 691.8 665.4 715L665.9 713.6H666.8C667.4 713.5 667.9 713 667.9 712.4V707.9C667.9 706.7 668.8 705.8 670 705.7L684.3 705.2C684.9 705.2 685.9 705 686.9 704.6L687.2 711.5C687.2 712.6 688 713.2 689.1 713.2L690.7 714.1C695.8 710.8 695.6 700.3 688.5 700.2Z" fill="#3F4249"/>
<path d="M665.9 715.1C665.8 713.2 663.7 712.2 662.2 713.3C662.2 713.3 662.2 713.3 662.1 713.3C659.6 715.3 661.1 722 666.5 721.7L665.9 715.1Z" fill="#FC9D9D"/>
<path d="M692.9 712.9C691.3 711.8 689.2 713 689.2 714.8V721.2C694.7 721.2 695.6 714.7 692.9 712.9Z" fill="#FC9D9D"/>
<path d="M684.9 706.3C684.5 706.5 684.3 706.6 684.2 706.6C684 706.7 683.9 706.6 683.8 706.4C683.7 706.2 683.8 706.1 684 706C684 706 686.7 705 687.1 702.8C687.1 702.6 687.3 702.5 687.4 702.6C687.6 702.6 687.7 702.8 687.6 702.9C687.4 704.8 685.8 705.8 684.9 706.3Z" fill="#FC9D9D"/>
<path d="M673.3 718.1C674 718.1 674.5 717.6 674.5 716.9C674.5 716.2 674 715.7 673.3 715.7C672.6 715.7 672.1 716.2 672.1 716.9C672.1 717.6 672.6 718.1 673.3 718.1Z" fill="#21252B"/>
<path d="M672.8 717C672.9 717 673 716.9 673 716.8C673 716.7 672.9 716.6 672.8 716.6C672.7 716.6 672.6 716.7 672.6 716.8C672.6 716.9 672.7 717 672.8 717Z" fill="white"/>
<path d="M682.3 717.9C683 717.9 683.5 717.4 683.5 716.7C683.5 716 683 715.5 682.3 715.5C681.6 715.5 681.1 716 681.1 716.7C681.1 717.4 681.6 717.9 682.3 717.9Z" fill="#21252B"/>
<path d="M681.8 716.8C681.9 716.8 682 716.7 682 716.6C682 716.5 681.9 716.4 681.8 716.4C681.7 716.4 681.6 716.5 681.6 716.6C681.6 716.7 681.7 716.8 681.8 716.8Z" fill="white"/>
<g opacity="0.3">
<path opacity="0.3" d="M678.1 723.9H679.1C679.3 723.9 679.5 723.7 679.5 723.5C679.5 723.3 679.3 723.1 679.1 723.1H678.1C677.7 723.1 677.3 722.8 677.3 722.4C677.3 722 677.6 721.6 678 721.6C678.2 721.6 678.4 721.4 678.4 721.2C678.4 721 678.2 720.8 678 720.8C677.2 720.8 676.5 721.5 676.6 722.3C676.6 723.2 677.3 723.9 678.1 723.9Z" fill="black"/>
</g>
<g opacity="0.3">
<path opacity="0.3" d="M664.4 718.5C664.2 718.5 664 718.4 664 718.2L663.9 717.4C663.9 716.6 663.6 716 663.3 715.7C663 715.5 662.7 715.5 662.7 715.5C662.5 715.5 662.3 715.4 662.3 715.2C662.3 715 662.4 714.8 662.6 714.8C662.7 714.8 663.2 714.7 663.7 715.2C664.2 715.6 664.5 716.4 664.6 717.4L664.7 718.2C664.7 718.3 664.6 718.5 664.4 718.5Z" fill="black"/>
</g>
<g opacity="0.3">
<path opacity="0.3" d="M691 717.8C691.2 717.8 691.3 717.6 691.4 717.4V716.6C691.4 715.8 691.6 715.2 691.9 714.9C692.2 714.6 692.5 714.7 692.5 714.7C692.7 714.7 692.9 714.6 692.9 714.4C692.9 714.2 692.8 714 692.6 714C692.5 714 692 714 691.5 714.4C691 714.9 690.8 715.6 690.7 716.7V717.5C690.6 717.7 690.8 717.8 691 717.8Z" fill="black"/>
</g>
<path d="M689.3 735.4L693 738.8L696.9 756.4L688.8 752L689.8 740.2L689.3 735.4Z" fill="#21252B"/>
<path opacity="0.3" d="M693.6 739L692.9 738.8L696.9 756.4L688.8 752L688.6 755.7L697.6 757L693.6 739Z" fill="black"/>
<path d="M644.4 743.2C649.2 751.5 657 757.9 666.4 760.7C666.8 747.1 666.9 738.2 666.9 738.2L644.4 743.2Z" fill="#21252B"/>
<path d="M667 736.3L663.7 739L658.2 756L666.6 752.5L667 736.3Z" fill="#21252B"/>
<path opacity="0.3" d="M663.1 739.1L663.8 738.9L658.2 756L666.6 752.5L666.5 756.1L657.4 756.6L663.1 739.1Z" fill="black"/>
<path d="M676.7 724.1H679.3C680.8 724.1 682.3 724.9 683.1 726.2L683.2 726.3C683.5 726.8 684.3 727.2 684.9 727.2C685.7 727.2 686.6 726.9 686.9 725.8L688.8 712.9L690.4 712.8L688.4 727.7C687.6 732.8 683.2 736.6 678 736.6C673 736.6 668.4 733.1 667.3 728.3L665.7 713.8L666.8 712.5L669 725.7C669.2 726.8 670.6 727.2 671.3 727.2C671.9 727.2 672.5 726.8 672.9 726.3L673.1 726C673.9 724.8 675.3 724.1 676.7 724.1Z" fill="#3F4249"/>
<path d="M675.1 726.3L680.6 726.2C680.7 726.2 680.8 726.3 680.8 726.5C679.9 729.3 676 729.4 674.9 726.7C674.8 726.5 674.9 726.3 675.1 726.3Z" fill="white"/>
<path d="M666.8 708.4C666.8 708.4 669.9 710.9 672 708.7C676.1 704.4 678.2 710.7 686 704.8C688.5 697.7 669.6 701.7 669.6 701.7L668.1 705.3L666.8 708.4Z" fill="#3F4249"/>
<path d="M682.9 712.8C681.1 712.8 679.6 713.8 678.8 715.2H676.3C675.5 713.8 673.9 712.8 672.2 712.8C669.6 712.8 667.4 714.9 667.4 717.6C667.4 720.3 669.5 722.4 672.2 722.4C674.9 722.4 677 720.3 677 717.6C677 717 676.9 716.5 676.7 716H678.5C678.3 716.5 678.2 717.1 678.2 717.6C678.2 720.2 680.3 722.4 683 722.4C685.7 722.4 687.8 720.3 687.8 717.6C687.8 714.9 685.5 712.8 682.9 712.8ZM672.2 721.6C670 721.6 668.2 719.8 668.2 717.6C668.2 715.4 670 713.6 672.2 713.6C674.4 713.6 676.2 715.4 676.2 717.6C676.2 719.8 674.4 721.6 672.2 721.6ZM682.9 721.6C680.7 721.6 678.9 719.8 678.9 717.6C678.9 715.4 680.7 713.6 682.9 713.6C685.1 713.6 686.9 715.4 686.9 717.6C686.9 719.8 685.1 721.6 682.9 721.6Z" fill="white"/>
<path d="M915 617.1H791.7C788.9 617.1 786.6 614.8 786.6 612V401.3C786.6 398.5 788.9 396.2 791.7 396.2H915C917.8 396.2 920.1 398.5 920.1 401.3V612C920 614.8 917.8 617.1 915 617.1Z" class="change-color-in-svg" fill="#4D61FC"/>
<path opacity="0.5" d="M915 617.1H791.7C788.9 617.1 786.6 614.8 786.6 612V401.3C786.6 398.5 788.9 396.2 791.7 396.2H915C917.8 396.2 920.1 398.5 920.1 401.3V612C920 614.8 917.8 617.1 915 617.1Z" fill="white"/>
<path d="M892.9 524.4H812.7C812.1 524.4 811.6 523.9 811.6 523.3V519.6C811.6 519 812.1 518.5 812.7 518.5H892.9C893.5 518.5 894 519 894 519.6V523.3C894 523.9 893.5 524.4 892.9 524.4Z" class="change-color-in-svg" fill="#4D61FC"/>
<path d="M803.2 591.8L804.1 593.6C804.2 593.7 804.3 593.8 804.4 593.8L806.4 594.1C806.7 594.1 806.9 594.6 806.6 594.8L805.1 596.2C805 596.3 805 596.4 805 596.6L805.3 598.6C805.4 598.9 805 599.2 804.7 599L803 598C802.9 597.9 802.7 597.9 802.6 598L800.8 598.9C800.5 599.1 800.2 598.8 800.2 598.5L800.5 596.5C800.5 596.4 800.5 596.2 800.4 596.1L798.9 594.7C798.7 594.5 798.8 594.1 799.1 594L801.1 593.7C801.2 593.7 801.3 593.6 801.4 593.5L802.3 591.7C802.6 591.5 803 591.5 803.2 591.8Z" class="change-color-in-svg" fill="#4D61FC"/>
<path d="M813.2 591.8L814.1 593.6C814.2 593.7 814.3 593.8 814.4 593.8L816.4 594.1C816.7 594.1 816.9 594.6 816.6 594.8L815.1 596.2C815 596.3 815 596.4 815 596.6L815.3 598.6C815.4 598.9 815 599.2 814.7 599L812.9 598.1C812.8 598 812.6 598 812.5 598.1L810.7 599C810.4 599.2 810.1 598.9 810.1 598.6L810.4 596.6C810.4 596.5 810.4 596.3 810.3 596.2L808.8 594.8C808.6 594.6 808.7 594.2 809 594.1L811 593.8C811.1 593.8 811.2 593.7 811.3 593.6L812.2 591.8C812.7 591.5 813.1 591.5 813.2 591.8Z" class="change-color-in-svg" fill="#4D61FC"/>
<path d="M823.3 591.8L824.2 593.6C824.3 593.7 824.4 593.8 824.5 593.8L826.5 594.1C826.8 594.1 827 594.6 826.7 594.8L825.2 596.2C825.1 596.3 825.1 596.4 825.1 596.6L825.4 598.6C825.5 598.9 825.1 599.2 824.8 599L823 598.1C822.9 598 822.7 598 822.6 598.1L821 599C820.7 599.2 820.4 598.9 820.4 598.6L820.7 596.6C820.7 596.5 820.7 596.3 820.6 596.2L819.1 594.8C818.9 594.6 819 594.2 819.3 594.1L821.3 593.8C821.4 593.8 821.5 593.7 821.6 593.6L822.5 591.8C822.7 591.5 823.2 591.5 823.3 591.8Z" class="change-color-in-svg" fill="#4D61FC"/>
<path d="M833.4 591.8L834.3 593.6C834.4 593.7 834.5 593.8 834.6 593.8L836.6 594.1C836.9 594.1 837.1 594.6 836.8 594.8L835.3 596.2C835.2 596.3 835.2 596.4 835.2 596.6L835.5 598.6C835.6 598.9 835.2 599.2 834.9 599L833.1 598.1C833 598 832.8 598 832.7 598.1L830.9 599C830.6 599.2 830.3 598.9 830.3 598.6L830.6 596.6C830.6 596.5 830.6 596.3 830.5 596.2L829 594.8C828.8 594.6 828.9 594.2 829.2 594.1L831.2 593.8C831.3 593.8 831.4 593.7 831.5 593.6L832.4 591.8C832.8 591.5 833.3 591.5 833.4 591.8Z" class="change-color-in-svg" fill="#4D61FC"/>
<path d="M843.5 591.8L844.4 593.6C844.5 593.7 844.6 593.8 844.7 593.8L846.7 594.1C847 594.1 847.2 594.6 846.9 594.8L845.4 596.2C845.3 596.3 845.3 596.4 845.3 596.6L845.6 598.6C845.7 598.9 845.3 599.2 845 599L843.2 598.1C843.1 598 842.9 598 842.8 598.1L841 599C840.7 599.2 840.4 598.9 840.4 598.6L840.7 596.6C840.7 596.5 840.7 596.3 840.6 596.2L839.1 594.8C838.9 594.6 839 594.2 839.3 594.1L841.3 593.8C841.4 593.8 841.5 593.7 841.6 593.6L842.5 591.8C842.9 591.5 843.3 591.5 843.5 591.8Z" class="change-color-in-svg" fill="#4D61FC"/>
<path d="M905.1 601.7H869.1C868.2 601.7 867.4 600.9 867.4 600V591C867.4 590.1 868.2 589.3 869.1 589.3H905.1C906 589.3 906.8 590.1 906.8 591V599.9C906.8 600.9 906 601.7 905.1 601.7Z" class="change-color-in-svg" fill="#4D61FC"/>
<path opacity="0.3" d="M895.4 596.8H878.7C878 596.8 877.4 596.2 877.4 595.5C877.4 594.8 878 594.2 878.7 594.2H895.4C896.1 594.2 896.7 594.8 896.7 595.5C896.7 596.2 896.1 596.8 895.4 596.8Z" fill="white"/>
<path opacity="0.5" d="M853.3 491.4C874.5 491.4 891.7 474.2 891.7 453C891.7 431.8 874.5 414.6 853.3 414.6C832.1 414.6 814.9 431.8 814.9 453C814.9 474.2 832.1 491.4 853.3 491.4Z" class="change-color-in-svg" fill="#4D61FC"/>
<path d="M841.9 445.3C845.2 445.3 847.8 442.7 847.8 439.4C847.8 436.1 845.2 433.5 841.9 433.5C838.6 433.5 836 436.1 836 439.4C836 442.7 838.6 445.3 841.9 445.3Z" fill="#21252B"/>
<path d="M853.3 491.4C867.4 491.4 879.7 483.8 886.4 472.5L866.9 468.1L843.8 469.8L822.3 475.6C829.3 485.2 840.6 491.4 853.3 491.4Z" fill="#3F4249"/>
<path d="M843.9 470V469.9L866.7 468.3V468.4C866.8 469 866.6 469.5 866.3 470L855.2 478.8C855 478.9 854.9 479 854.7 479C854.5 479 854.3 479 854.1 478.8L844.9 472C844.2 471.5 843.9 470.8 843.9 470Z" class="change-color-in-svg" fill="#4D61FC"/>
<g opacity="0.15">
<path opacity="0.15" d="M825 513.5L821.3 513.7C821.1 513.7 821 513.6 820.9 513.4C820.9 513.2 821 513.1 821.2 513L824.8 512.8C825 512.8 825.1 512.9 825.2 513.1C825.3 513.3 825.2 513.4 825 513.5Z" fill="black"/>
</g>
<path d="M866.7 468.299C866.8 468.899 866.6 469.4 866.3 469.9L855.2 478.7C854.9 479 854.4 479 854 478.7L844.8 471.9C844.2 471.4 843.8 470.7 843.8 469.9L843.9 465.9L844.1 461.6L844.2 457.799C843.9 456.799 843.7 455.599 843.5 454.299C842.9 448.299 842 442.9 842 442.9C842 442.9 861.2 428.8 863.1 444.2L863.7 448.2L864.4 453.5V453.6L866.7 468.299Z" fill="#FC9D9D"/>
<g opacity="0.6">
<path opacity="0.6" d="M869.2 468.7C869.2 469.1 869.1 469.5 869 469.9C868.7 470.8 868.1 471.6 867.4 472.2L856.8 480.7C856.1 481.2 855.7 481.4 854.9 481.4C854.2 481.4 853.3 481.1 852.5 480.5L843.4 473.9C842.2 473 841.7 472 841.5 470.5L843.8 469.9H844V470C844 470.8 844.3 471.5 845 472L854.2 478.8C854.4 478.9 854.6 479 854.8 479C855 479 855.2 478.9 855.3 478.8L866.4 470C866.7 469.6 866.9 469 866.8 468.4V468.3H866.9L869.2 468.7Z" fill="black"/>
</g>
<path d="M840.8 431.3C840.8 431.3 833.2 461.3 848.6 463.5C861.9 465.4 863.7 444.7 863.7 444.7L863.2 431.2L840.8 431.3Z" fill="#FC9D9D"/>
<path opacity="0.15" d="M864.1 450.399C864.1 450.399 862.8 450.499 862.1 449.899L864.6 453.599L864.1 450.399Z" fill="black"/>
<path d="M863.3 442.299C863.3 442.299 864.5 439.499 867.4 440.799C870.7 442.299 870 449.999 864.3 450.299C861.3 450.499 861.9 448.799 862.5 446.499C863.4 442.299 863.3 442.299 863.3 442.299Z" fill="#FC9D9D"/>
<path opacity="0.3" d="M867.5 442.8C866.9 442.4 866.4 442.2 865.9 442.4C865.4 442.5 864.9 442.9 864.6 443.4C864.2 444 864 444.7 864 445.5L863.9 446.2C863.9 446.4 864 446.6 864.2 446.6C864.4 446.6 864.6 446.5 864.6 446.3L864.7 445.6C864.7 445.4 864.8 444.4 865.2 443.9C865.5 443.5 865.7 443.2 866.1 443.2C866.4 443.1 866.8 443.2 867.2 443.5C867.4 443.6 867.6 443.6 867.7 443.4C867.7 443.2 867.7 442.9 867.5 442.8Z" fill="black"/>
<path d="M841.6 433.799L843.2 433.999C843.4 433.999 843.5 433.899 843.5 433.699C843.5 433.499 843.4 433.399 843.2 433.399L841.6 433.199C841.4 433.199 841.2 433.099 841 433.099C840.6 432.999 839.9 432.699 839.2 432.199C839.1 432.099 838.9 432.099 838.8 432.299C838.7 432.399 838.7 432.599 838.9 432.699C839.7 433.199 840.5 433.499 840.9 433.699C841.1 433.699 841.3 433.799 841.6 433.799Z" fill="#FC9D9D"/>
<path opacity="0.15" d="M858.4 460.499C857 461.999 854.7 463.799 851.2 464.199C848.3 465.999 845.5 466.099 844 465.999L844.2 461.699C845.9 462.899 849 464.099 852.5 463.399C855.1 462.799 856.8 461.399 857.9 460.099C858 459.999 858.2 459.999 858.3 460.099C858.5 460.199 858.5 460.399 858.4 460.499Z" fill="black"/>
<g opacity="0.3">
<path opacity="0.3" d="M847.6 457.3C847.6 457.4 847.6 457.4 847.6 457.3C848.9 457.4 849.5 457.5 849.5 457.5C849.7 457.5 849.9 457.4 849.9 457.1C849.9 456.9 849.8 456.7 849.5 456.7C849.5 456.7 848.9 456.6 847.7 456.5C847.5 456.5 847.3 456.6 847.3 456.9C847.2 457.1 847.4 457.3 847.6 457.3Z" fill="black"/>
</g>
<path d="M838.5 438.1C838.5 438.1 838.5 438.2 838.5 438.1C839.7 438.6 840.3 438.8 840.3 438.8C840.5 438.9 840.7 438.8 840.8 438.6C840.9 438.4 840.8 438.2 840.6 438.1C840.6 438.1 840 437.9 838.9 437.4C838.7 437.3 838.5 437.4 838.4 437.6C838.2 437.8 838.3 438 838.5 438.1Z" fill="#FC9D9D"/>
<g opacity="0.3">
<path opacity="0.3" d="M846.9 455.5C850.3 456 851.8 454.2 852.4 453.3C852.5 453.1 852.5 452.9 852.3 452.8C852.1 452.7 851.9 452.7 851.8 452.9C851.3 453.8 849.6 455.7 845.5 454.3C845.3 454.2 845.1 454.3 845 454.5C844.9 454.7 845 454.9 845.2 455C845.8 455.3 846.4 455.5 846.9 455.5Z" fill="black"/>
</g>
<path d="M851.7 446.7C852.4 446.7 852.9 446.2 852.9 445.5C852.9 444.8 852.4 444.3 851.7 444.3C851 444.3 850.5 444.8 850.5 445.5C850.5 446.2 851 446.7 851.7 446.7Z" fill="#21252B"/>
<path d="M851.1 445.4C851.3 445.4 851.4 445.3 851.4 445.1C851.4 444.9 851.3 444.8 851.1 444.8C850.9 444.8 850.8 444.9 850.8 445.1C850.8 445.3 850.9 445.4 851.1 445.4Z" fill="white"/>
<path d="M842.7 446.6C843.4 446.6 843.9 446.1 843.9 445.4C843.9 444.7 843.4 444.2 842.7 444.2C842 444.2 841.5 444.7 841.5 445.4C841.5 446.1 842 446.6 842.7 446.6Z" fill="#21252B"/>
<path d="M842.1 445.3C842.3 445.3 842.4 445.2 842.4 445C842.4 444.8 842.3 444.7 842.1 444.7C841.9 444.7 841.8 444.8 841.8 445C841.8 445.2 841.9 445.3 842.1 445.3Z" fill="white"/>
<g opacity="0.3">
<path opacity="0.3" d="M846 452.5L847.7 452.6C847.9 452.6 848.1 452.5 848.1 452.3C848.1 452.1 848 451.9 847.8 451.9L846.1 451.8C845.7 451.8 845.4 451.4 845.4 451C845.4 450.6 845.8 450.3 846.2 450.3C846.4 450.3 846.6 450.2 846.6 450C846.6 449.8 846.5 449.6 846.3 449.6C845.5 449.5 844.8 450.1 844.7 450.9C844.6 451.7 845.2 452.4 846 452.5Z" fill="black"/>
</g>
<path d="M844.5 443.7C844.7 443.7 844.8 443.6 844.9 443.4C845 443.2 844.9 442.9 844.7 442.8C844.6 442.8 842.8 442 840.8 442.9C840.6 443 840.5 443.3 840.6 443.5C840.7 443.7 841 443.8 841.2 443.7C842.8 443 844.3 443.6 844.4 443.6C844.3 443.7 844.4 443.7 844.5 443.7Z" fill="#21252B"/>
<path d="M853.5 443.8C853.7 443.8 853.8 443.7 853.9 443.6C854 443.4 853.9 443.1 853.7 443C853.6 443 851.9 442.1 849.8 442.8C849.6 442.9 849.4 443.2 849.5 443.4C849.6 443.6 849.9 443.8 850.1 443.7C851.8 443.1 853.2 443.8 853.3 443.9C853.4 443.8 853.4 443.8 853.5 443.8Z" fill="#21252B"/>
<path d="M866.3 440.5L866.6 435.3C867.5 428.3 861.4 428.3 861.4 428.3C862.7 423.3 855.5 422.4 855.5 422.4C834.1 418.5 830.2 435.8 839.6 437.9C850 440.2 854.9 433.7 854.9 433.7L857 440.1C857.3 441.2 858.3 441.9 859.5 441.9C860.3 441.9 861 442.5 861.1 443.4L861.3 445.8C861.3 446.2 861.7 446.6 862.2 446.5C862.6 446.5 863 446.1 863 445.7V444.1L863.2 442.9C863.5 441.5 864.7 440.3 866.3 440.5Z" fill="#21252B"/>
<path d="M837.8 478.2H838.9V475.1H837.8V478.2Z" fill="#B1B5BA"/>
<path d="M872.2 474.9H873.3V471.8H872.2V474.9Z" fill="#B1B5BA"/>
<path d="M848.9 486.1H850V483H848.9V486.1Z" fill="#B1B5BA"/>
<path d="M824.8 477L825.4 478L828.1 476.5L827.6 475.5L824.8 477Z" fill="#B1B5BA"/>
<path d="M882.4 475.399L882.9 476.399L885.6 474.899L885.1 473.899L882.4 475.399Z" fill="#B1B5BA"/>
<path d="M862.1 481.8L862.7 482.8L865.4 481.3L864.9 480.3L862.1 481.8Z" fill="#B1B5BA"/>
<path d="M834.6 486.499L835.1 487.499L837.8 485.899L837.3 484.899L834.6 486.499Z" fill="#B1B5BA"/>
<path d="M873.6 487.8L874.6 487.3L873.1 484.6L872.1 485.1L873.6 487.8Z" fill="#B1B5BA"/>
<path d="M563.6 617.1H440.3C437.5 617.1 435.2 614.8 435.2 612V401.3C435.2 398.5 437.5 396.2 440.3 396.2H563.6C566.4 396.2 568.7 398.5 568.7 401.3V612C568.6 614.8 566.4 617.1 563.6 617.1Z" class="change-color-in-svg" fill="#4D61FC"/>
<path opacity="0.5" d="M563.6 617.1H440.3C437.5 617.1 435.2 614.8 435.2 612V401.3C435.2 398.5 437.5 396.2 440.3 396.2H563.6C566.4 396.2 568.7 398.5 568.7 401.3V612C568.6 614.8 566.4 617.1 563.6 617.1Z" fill="white"/>
<path d="M553.7 601.7H517.7C516.8 601.7 516 600.9 516 600V591C516 590.1 516.8 589.3 517.7 589.3H553.7C554.6 589.3 555.4 590.1 555.4 591V599.9C555.3 600.9 554.6 601.7 553.7 601.7Z" class="change-color-in-svg" fill="#4D61FC"/>
<path opacity="0.3" d="M544 596.8H527.3C526.6 596.8 526 596.2 526 595.5C526 594.8 526.6 594.2 527.3 594.2H544C544.7 594.2 545.3 594.8 545.3 595.5C545.3 596.2 544.7 596.8 544 596.8Z" fill="white"/>
<path d="M452.8 591.8L453.7 593.6C453.8 593.7 453.9 593.8 454 593.8L456 594.1C456.3 594.1 456.5 594.6 456.2 594.8L454.7 596.2C454.6 596.3 454.6 596.4 454.6 596.6L454.9 598.6C455 598.9 454.6 599.2 454.3 599L452.5 598.1C452.4 598 452.2 598 452.1 598.1L450.3 599C450 599.2 449.7 598.9 449.7 598.6L450 596.6C450 596.5 450 596.3 449.9 596.2L448.4 594.8C448.2 594.6 448.3 594.2 448.6 594.1L450.6 593.8C450.7 593.8 450.8 593.7 450.9 593.6L451.8 591.8C452.2 591.5 452.6 591.5 452.8 591.8Z" class="change-color-in-svg" fill="#4D61FC"/>
<path d="M462.8 591.8L463.7 593.6C463.8 593.7 463.9 593.8 464 593.8L466 594.1C466.3 594.1 466.5 594.6 466.2 594.8L464.7 596.2C464.6 596.3 464.6 596.4 464.6 596.6L464.9 598.6C465 598.9 464.6 599.2 464.3 599L462.5 598.1C462.4 598 462.2 598 462.1 598.1L460.3 599C460 599.2 459.7 598.9 459.7 598.6L460 596.6C460 596.5 460 596.3 459.9 596.2L458.4 594.8C458.2 594.6 458.3 594.2 458.6 594.1L460.6 593.8C460.7 593.8 460.8 593.7 460.9 593.6L461.8 591.8C462.3 591.5 462.7 591.5 462.8 591.8Z" class="change-color-in-svg" fill="#4D61FC"/>
<path d="M472.9 591.8L473.8 593.6C473.9 593.7 474 593.8 474.1 593.8L476.1 594.1C476.4 594.1 476.6 594.6 476.3 594.8L474.8 596.2C474.7 596.3 474.7 596.4 474.7 596.6L475 598.6C475.1 598.9 474.7 599.2 474.4 599L472.6 598.1C472.5 598 472.3 598 472.2 598.1L470.4 599C470.1 599.2 469.8 598.9 469.8 598.6L470.1 596.6C470.1 596.5 470.1 596.3 470 596.2L468.5 594.8C468.3 594.6 468.4 594.2 468.7 594.1L470.7 593.8C470.8 593.8 470.9 593.7 471 593.6L471.9 591.8C472.3 591.5 472.8 591.5 472.9 591.8Z" class="change-color-in-svg" fill="#4D61FC"/>
<path d="M483 591.8L483.9 593.6C484 593.7 484.1 593.8 484.2 593.8L486.2 594.1C486.5 594.1 486.7 594.6 486.4 594.8L484.9 596.2C484.8 596.3 484.8 596.4 484.8 596.6L485.1 598.6C485.2 598.9 484.8 599.2 484.5 599L482.7 598.1C482.6 598 482.4 598 482.3 598.1L480.5 599C480.2 599.2 479.9 598.9 479.9 598.6L480.2 596.6C480.2 596.5 480.2 596.3 480.1 596.2L478.6 594.8C478.4 594.6 478.5 594.2 478.8 594.1L480.8 593.8C480.9 593.8 481 593.7 481.1 593.6L482 591.8C482.4 591.5 482.8 591.5 483 591.8Z" class="change-color-in-svg" fill="#4D61FC"/>
<path d="M493.1 591.8L494 593.6C494.1 593.7 494.2 593.8 494.3 593.8L496.3 594.1C496.6 594.1 496.8 594.6 496.5 594.8L495 596.2C494.9 596.3 494.9 596.4 494.9 596.6L495.2 598.6C495.3 598.9 494.9 599.2 494.6 599L492.8 598.1C492.7 598 492.5 598 492.4 598.1L490.6 599C490.3 599.2 490 598.9 490 598.6L490.3 596.6C490.3 596.5 490.3 596.3 490.2 596.2L488.7 594.8C488.5 594.6 488.6 594.2 488.9 594.1L490.9 593.8C491 593.8 491.1 593.7 491.2 593.6L492.1 591.8C492.5 591.5 492.9 591.5 493.1 591.8Z" class="change-color-in-svg" fill="#4D61FC"/>
<path d="M541.5 524.4H461.3C460.7 524.4 460.2 523.9 460.2 523.3V519.6C460.2 519 460.7 518.5 461.3 518.5H541.5C542.1 518.5 542.6 519 542.6 519.6V523.3C542.6 523.9 542.1 524.4 541.5 524.4Z" class="change-color-in-svg" fill="#4D61FC"/>
<g opacity="0.7">
<path opacity="0.3" d="M547.1 540.099H456.7C455.8 540.099 455.1 539.399 455.1 538.499C455.1 537.599 455.8 536.899 456.7 536.899H547.1C548 536.899 548.7 537.599 548.7 538.499C548.7 539.399 548 540.099 547.1 540.099Z" fill="white"/>
<path opacity="0.3" d="M547.1 554.399H456.7C455.8 554.399 455.1 553.699 455.1 552.799C455.1 551.899 455.8 551.199 456.7 551.199H547.1C548 551.199 548.7 551.899 548.7 552.799C548.7 553.699 548 554.399 547.1 554.399Z" fill="white"/>
<path opacity="0.3" d="M526.8 568.599H477C476.1 568.599 475.4 567.899 475.4 566.999C475.4 566.099 476.1 565.399 477 565.399H526.7C527.6 565.399 528.3 566.099 528.3 566.999C528.3 567.899 527.6 568.599 526.8 568.599Z" fill="white"/>
</g>
<path opacity="0.5" d="M501.9 491.4C523.1 491.4 540.3 474.2 540.3 453C540.3 431.8 523.1 414.6 501.9 414.6C480.7 414.6 463.5 431.8 463.5 453C463.5 474.2 480.7 491.4 501.9 491.4Z" class="change-color-in-svg" fill="#4D61FC"/>
<path d="M486.6 438V447.5L491.9 447.9L491.1 441.2L486.6 438Z" fill="#3F4249"/>
<path d="M501.9 491.4C515.2 491.4 526.9 484.6 533.8 474.4C532.3 472.4 530 471 527.4 470.5L510.5 467.7L488.6 468.3L469.4 470.8C468.9 470.9 468.5 471 468 471.1C474.5 483.2 487.2 491.4 501.9 491.4Z" fill="#21252B"/>
<path d="M488.6 468.3C488.6 468.4 486.4 468.5 486.4 468.6C486.4 468.7 486.4 468.9 486.4 469C486.4 473.1 492.3 476.4 499.6 476.4C506.9 476.4 512.8 473.1 512.8 469C512.8 468.7 512.8 468.4 512.7 468.1C512.7 468 510.6 467.8 510.6 467.7L488.6 468.3Z" class="change-color-in-svg" fill="#4D61FC"/>
<path d="M510.4 444.2C510.4 444.2 491 432 490.3 446.9L490.9 450.5L489.4 468.9C488.8 476 510.7 476.3 510.7 468.4L509.5 458.6C509.7 457.6 509.9 456.5 509.9 455.2C509.8 449.5 510.4 444.2 510.4 444.2Z" fill="#966363"/>
<path d="M512.1 443.7C515.7 443.7 518.7 440.7 518.7 437.1C518.7 433.5 515.7 430.5 512.1 430.5C508.5 430.5 505.5 433.5 505.5 437.1C505.5 440.7 508.5 443.7 512.1 443.7Z" fill="#3F4249"/>
<path d="M512.5 433.7C512.5 433.7 519.4 462.6 504.6 464.5C491.8 466.2 490.4 446.2 490.4 446.2L491 433.2L512.5 433.7Z" fill="#966363"/>
<path d="M492.8 443.1C492.7 447.4 492.8 451.4 493.6 453.9C494 455.2 494.8 456.4 497.4 454.9C507 449.5 513.6 454.5 513.6 454.5C513.6 454.5 512.6 462.4 506.1 464.1C499.6 465.8 491 461.8 491.1 452.8C491.1 451.7 490.5 445.3 491.4 442.1C492.3 438.8 493.4 438.7 493.4 438.7L492.8 443.1Z" fill="#3F4249"/>
<path d="M505.6 421.5C502 421.5 498.8 423 497.1 425.3C496.2 426.4 494.8 426.9 493.3 426.7C493.1 426.7 492.3 426.7 492 426.7C480.4 427.5 482.1 444.8 492.5 443.4C494.7 443.1 496.7 441.5 497.8 439.1C498.6 437.4 500.4 436.5 502.2 437C503.2 437.3 504.3 437.4 505.5 437.4C511 437.4 515.5 433.8 515.5 429.5C515.7 425.1 511.2 421.5 505.6 421.5Z" fill="#3F4249"/>
<path d="M512.6 436.1C512 436.5 510.8 437.1 510.8 437.1C510.7 437.1 510.5 437.1 510.4 436.9C510.3 436.7 510.4 436.6 510.6 436.5C510.6 436.5 512.3 435.5 512.5 435.4C512.8 435.1 513.3 434.8 513.8 434.2C513.9 434.1 514.1 434 514.2 434.1C514.3 434.2 514.4 434.4 514.3 434.5C513.8 435.2 512.8 435.9 512.6 436.1Z" fill="#966363"/>
<path opacity="0.15" d="M510.1 466.6L509.7 462.2C508.1 463.7 505.5 464.9 501.4 464.5C501.4 464.5 498.6 464.3 495.7 462.7C495.5 462.6 495.4 462.6 495.2 462.7C495.1 462.8 495.1 463 495.3 463.1C495.9 463.6 498.1 464.7 501.6 465.2C506.3 468.2 510.1 466.6 510.1 466.6Z" fill="black"/>
<path d="M501.9 446.4C502.6 446.4 503.1 445.9 503.1 445.2C503.1 444.5 502.6 444 501.9 444C501.2 444 500.7 444.5 500.7 445.2C500.7 445.9 501.2 446.4 501.9 446.4Z" fill="#21252B"/>
<path d="M502.4 445C502.5 445 502.6 444.9 502.6 444.8C502.6 444.7 502.5 444.6 502.4 444.6C502.3 444.6 502.2 444.7 502.2 444.8C502.2 444.9 502.3 445 502.4 445Z" fill="white"/>
<path d="M511.3 446.5C512 446.5 512.5 446 512.5 445.3C512.5 444.6 512 444.1 511.3 444.1C510.6 444.1 510.1 444.6 510.1 445.3C510.1 446 510.6 446.5 511.3 446.5Z" fill="#21252B"/>
<path d="M511.8 445.1C511.9 445.1 512 445 512 444.9C512 444.8 511.9 444.7 511.8 444.7C511.7 444.7 511.6 444.8 511.6 444.9C511.6 445 511.7 445.1 511.8 445.1Z" fill="white"/>
<path d="M514.7 442.2H509.5H508.8H504.3H498.5C497.5 442.2 496.8 443 496.8 443.9V445.2C496.8 447.8 498.9 449.8 501.4 449.8C504 449.8 506 447.7 506 445.2V443.9C506 443.5 505.9 443.1 505.6 442.9H507.4C507.2 443.2 507.1 443.6 507.1 443.9V445.2C507.1 447.8 509.2 449.8 511.7 449.8C514.3 449.8 516.3 447.7 516.3 445.2V443.9C516.4 442.9 515.6 442.2 514.7 442.2ZM505.3 443.9V445.2C505.3 447.4 503.5 449.2 501.4 449.2C499.2 449.2 497.4 447.4 497.4 445.3V444C497.4 443.4 497.9 443 498.4 443H504.2C504.9 442.9 505.3 443.3 505.3 443.9ZM515.7 445.2C515.7 447.4 513.9 449.2 511.8 449.2C509.6 449.2 507.8 447.4 507.8 445.3V444C507.8 443.4 508.3 443 508.8 443H509.5H514.7C515.3 443 515.7 443.5 515.7 444V445.2Z" fill="#21252B"/>
<path d="M491 452.2L491.3 444.8C491.3 444.8 490.1 441.7 487.1 443C483.6 444.4 486.2 453.8 491 452.2Z" fill="#966363"/>
<g opacity="0.5">
<path opacity="0.5" d="M490.1 447.899C489.9 447.899 489.7 447.699 489.7 447.499C489.7 446.299 489.4 445.499 488.9 445.199C488.3 444.799 487.4 445.099 487.4 445.099C487.2 445.199 487 445.099 486.9 444.899C486.8 444.699 486.9 444.499 487.1 444.399C487.1 444.399 488.3 443.899 489.3 444.499C490 444.999 490.4 445.999 490.4 447.399C490.4 447.699 490.3 447.899 490.1 447.899Z" fill="black"/>
</g>
<path d="M502 455.1H508.6L508.4 455.6C507.2 458.6 502.8 458.3 502 455.1Z" fill="white"/>
<g opacity="0.5">
<path opacity="0.5" d="M507.4 452.3H506.7C506.5 452.3 506.3 452.1 506.3 451.9C506.3 451.7 506.5 451.5 506.7 451.5H507.4C508 451.5 508.5 451 508.5 450.4C508.5 449.9 508.2 449.5 507.7 449.4C507.5 449.4 507.4 449.1 507.4 448.9C507.4 448.7 507.7 448.6 507.9 448.6C508.7 448.8 509.3 449.5 509.3 450.4C509.3 451.5 508.4 452.3 507.4 452.3Z" fill="black"/>
</g>
<path d="M739.3 398.6C742.9 398.6 745.8 395.7 745.8 392.1C745.8 388.5 742.9 385.6 739.3 385.6C735.7 385.6 732.8 388.5 732.8 392.1C732.8 395.7 735.7 398.6 739.3 398.6Z" class="change-color-in-svg" fill="#4D61FC"/>
<path d="M739.6 388.2L740.5 390C740.6 390.1 740.7 390.2 740.8 390.2L742.8 390.5C743.1 390.5 743.2 390.9 743 391.1L741.5 392.5C741.4 392.6 741.4 392.7 741.4 392.8L741.7 394.8C741.8 395.1 741.4 395.3 741.2 395.2L739.4 394.2C739.3 394.1 739.2 394.1 739.1 394.2L737.3 395.2C737 395.3 736.7 395.1 736.8 394.8L737.1 392.8C737.1 392.7 737.1 392.6 737 392.5L735.5 391.1C735.3 390.9 735.4 390.5 735.7 390.5L737.7 390.2C737.8 390.2 737.9 390.1 738 390L738.9 388.2C739.1 387.9 739.5 387.9 739.6 388.2Z" fill="white"/>
<path d="M733 396.7L731 401.8L734.2 401.3L736.2 403.8L737.8 399.7C735.9 399.4 734.2 398.3 733 396.7Z" class="change-color-in-svg" fill="#4D61FC"/>
<path d="M745.5 396.7C744.4 398.2 742.6 399.3 740.7 399.7L742.3 403.8L744.3 401.3L747.5 401.8L745.5 396.7Z" class="change-color-in-svg" fill="#4D61FC"/>
<path d="M907.8 675C911.4 675 914.3 672.1 914.3 668.5C914.3 664.9 911.4 662 907.8 662C904.2 662 901.3 664.9 901.3 668.5C901.3 672.1 904.2 675 907.8 675Z" class="change-color-in-svg" fill="#4D61FC"/>
<path d="M908.2 664.7L909.1 666.5C909.2 666.6 909.3 666.7 909.4 666.7L911.4 667C911.7 667 911.8 667.4 911.6 667.6L910.1 669C910 669.1 910 669.2 910 669.3L910.3 671.3C910.4 671.6 910 671.8 909.8 671.7L908 670.7C907.9 670.6 907.8 670.6 907.7 670.7L905.9 671.7C905.6 671.8 905.3 671.6 905.4 671.3L905.7 669.3C905.7 669.2 905.7 669.1 905.6 669L904.1 667.6C903.9 667.4 904 667 904.3 667L906.3 666.7C906.4 666.7 906.5 666.6 906.6 666.5L907.5 664.7C907.6 664.4 908 664.4 908.2 664.7Z" fill="white"/>
<path d="M901.6 673.2L899.6 678.3L902.8 677.8L904.8 680.3L906.4 676.2C904.4 675.8 902.7 674.7 901.6 673.2Z" class="change-color-in-svg" fill="#4D61FC"/>
<path d="M914.1 673.2C913 674.7 911.2 675.8 909.3 676.2L910.9 680.3L912.9 677.8L916.1 678.3L914.1 673.2Z" class="change-color-in-svg" fill="#4D61FC"/>
<path d="M634 248.9C634 226.9 617.4 208.7 595.9 206.4V206.1H591.2C567.6 206.1 548.4 225.3 548.4 248.9C548.4 272.5 567.6 291.7 591.2 291.7H595.9V291.4C617.3 289.1 634 270.9 634 248.9Z" fill="#858990"/>
<path d="M587.7 291.7C611.3 291.7 630.5 272.5 630.5 248.9C630.5 225.3 611.3 206.1 587.7 206.1C564.1 206.1 544.9 225.3 544.9 248.9C544.9 272.5 564.1 291.7 587.7 291.7Z" fill="#B1B5BA"/>
<path d="M587.7 287C608.7 287 625.8 269.9 625.8 248.9C625.8 227.9 608.7 210.8 587.7 210.8C566.7 210.8 549.6 227.9 549.6 248.9C549.6 269.9 566.7 287 587.7 287Z" fill="white"/>
<path d="M587.7 287C608.7 287 625.8 269.9 625.8 248.9C625.8 227.9 608.7 210.8 587.7 210.8C566.7 210.8 549.6 227.9 549.6 248.9C549.6 269.9 566.7 287 587.7 287Z" fill="#858990"/>
<path opacity="0.9" d="M587.7 287C608.7 287 625.8 269.9 625.8 248.9C625.8 227.9 608.7 210.8 587.7 210.8C566.7 210.8 549.6 227.9 549.6 248.9C549.6 269.9 566.7 287 587.7 287Z" fill="white"/>
<path d="M587.7 210.8C588.4 210.8 589 210.8 589.8 210.9C569.8 211.9 553.8 228.6 553.8 248.9C553.8 269.2 569.8 285.9 589.8 286.9C589.1 286.9 588.5 287 587.7 287C566.6 287 549.6 270 549.6 248.9C549.6 227.8 566.6 210.8 587.7 210.8Z" fill="#858990"/>
<path d="M588.1 251.8L575.4 226.7C574.9 225.8 575.3 224.5 576.2 224.1C577.1 223.6 578.4 224 578.8 224.9L589.7 246.5L604.2 239.4C605.1 238.9 606.4 239.3 606.8 240.3C607.3 241.2 606.9 242.5 605.9 242.9L588.1 251.8Z" class="change-color-in-svg" fill="#4D61FC"/>
<path opacity="0.5" d="M620.3 268.5C623.8 262.7 625.8 256 625.8 248.8C625.8 227.7 608.8 210.7 587.7 210.7C586.7 210.7 585.6 210.8 584.6 210.8L620.3 268.5Z" fill="white"/>
<path opacity="0.5" d="M578.8 211.899C576.9 212.399 575.1 212.899 573.4 213.599L612.8 277.499C614.3 276.199 615.7 274.699 617 273.099L578.8 211.899Z" fill="white"/>
<path d="M1085.4 1018.7L1033.3 1020L1054.1 1005.1C1057.6 1002.6 1059.7 998.7 1059.9 994.4L1060.6 978.1L1089 978.2L1085.4 1018.7Z" fill="#FB9C9C"/>
<path opacity="0.15" d="M1079.6 999.7V999.4C1079.8 997.5 1078.5 995.9 1076.7 995.7L1060.1 993.3L1060.3 990H1088.1L1085.6 1017.6L1062.9 1015.1L1070.4 1012.1C1075.5 1010 1079.2 1005.2 1079.6 999.7Z" fill="black"/>
<path d="M1179.3 1017.7H1155.9L1151.5 978L1179.3 978.1V1017.7V1017.7Z" fill="#FB9C9C"/>
<path opacity="0.15" d="M1173.5 1011.1L1172.9 998.9C1172.8 997.3 1171.6 996 1170 995.8L1153.1 993.2L1152.7 989.8L1179.1 989.9L1179.2 1018L1173.5 1011.1Z" fill="black"/>
<path d="M1180.9 665.399V989.899H1150.4L1123.9 725.299C1123.7 723.499 1122.3 722.299 1120.5 722.299C1118.8 722.299 1117.4 723.599 1117.2 725.299L1089 989.899H1058.5L1069 667.199L1180.9 665.399Z" class="change-color-in-svg" fill="#4D61FC"/>
<path d="M1177.6 1003.8L1176.9 1003.1C1171.4 997.6 1162 997.7 1156.7 1003.3L1156.3 1003.8C1154.9 1005.2 1154.2 1007.1 1154.2 1008.9V1011.9C1154.2 1013.7 1154 1015.4 1153.4 1017.1L1150.9 1025.4C1150.3 1027.4 1149.9 1029.5 1149.9 1031.6V1032.6C1149.9 1034.2 1151.3 1035.5 1153 1035.5H1181.8C1183.6 1035.5 1184.9 1034.2 1184.9 1032.6V1032.2C1184.9 1029.8 1184.5 1027.4 1183.7 1025L1180.8 1016.9C1180.2 1015 1179.8 1013.1 1179.8 1011.1L1179.7 1008.8C1179.7 1007.1 1179 1005.2 1177.6 1003.8Z" fill="#3F4249"/>
<path d="M1181.7 989.9H1149.2L1148.6 983.3H1181.6L1181.7 989.9Z" class="change-color-in-svg" fill="#4D61FC"/>
<path opacity="0.15" d="M1181.7 989.9H1168.1L1167.8 983.3H1181.6L1181.7 989.9Z" fill="black"/>
<path opacity="0.5" d="M1185.1 1032.3V1032.7C1185.1 1034.3 1183.7 1035.6 1182 1035.6H1153.2C1151.4 1035.6 1150.1 1034.3 1150.1 1032.7V1031.7C1150.1 1031.3 1150.1 1030.9 1150.2 1030.5H1185.2C1185.1 1031 1185.1 1031.6 1185.1 1032.3Z" fill="black"/>
<path d="M1089 1009.5V1029.8C1089 1033.1 1086.4 1035.7 1083.1 1035.7H1014C1012.6 1035.7 1011.5 1034.6 1011.5 1033.2C1011.5 1028.4 1014.6 1024 1019.2 1022.5L1034.8 1017.4L1054.6 1002.1C1056.6 1000.5 1059.5 1000.6 1061.5 1002.3L1070.3 1009.8C1071.6 1010.9 1073.3 1011.2 1075 1010.8L1086.1 1007.3C1087.6 1006.8 1089 1007.9 1089 1009.5Z" fill="#3F4249"/>
<path d="M1083.1 1035.7H1014C1012.6 1035.7 1011.5 1034.6 1011.5 1033.2C1011.5 1032.3 1011.6 1031.5 1011.8 1030.7H1088.9C1088.5 1033.6 1086.1 1035.7 1083.1 1035.7Z" fill="black"/>
<path d="M1055 1010.2C1055.2 1010.2 1055.3 1010.1 1055.4 1010C1055.6 1009.8 1055.6 1009.4 1055.4 1009.1L1051.2 1004.6C1051 1004.4 1050.6 1004.4 1050.3 1004.6C1050.1 1004.8 1050.1 1005.2 1050.3 1005.5L1054.5 1010C1054.6 1010.1 1054.8 1010.2 1055 1010.2Z" fill="white"/>
<path d="M1051.7 1012.8C1051.9 1012.8 1052 1012.7 1052.1 1012.6C1052.3 1012.4 1052.3 1012 1052.1 1011.7L1047.9 1007.2C1047.7 1007 1047.3 1007 1047 1007.2C1046.8 1007.4 1046.8 1007.8 1047 1008.1L1051.2 1012.6C1051.3 1012.7 1051.5 1012.8 1051.7 1012.8Z" fill="white"/>
<path d="M1048.4 1015.3C1048.6 1015.3 1048.7 1015.2 1048.8 1015.1C1049 1014.9 1049 1014.5 1048.8 1014.2L1044.6 1009.7C1044.4 1009.5 1044 1009.5 1043.7 1009.7C1043.5 1009.9 1043.5 1010.3 1043.7 1010.6L1047.9 1015.1C1048 1015.3 1048.1 1015.3 1048.4 1015.3Z" fill="white"/>
<path d="M1161.5 1010.6C1161.6 1010.6 1161.7 1010.6 1161.8 1010.5C1167.3 1007.8 1172.4 1010.5 1172.4 1010.5C1172.7 1010.7 1173.2 1010.6 1173.4 1010.2C1173.6 1009.9 1173.5 1009.4 1173.1 1009.2C1172.9 1009 1167.3 1006.2 1161.1 1009.2C1160.8 1009.4 1160.6 1009.8 1160.8 1010.2C1160.9 1010.4 1161.2 1010.6 1161.5 1010.6Z" fill="white"/>
<path d="M1161.5 1014.3C1161.6 1014.3 1161.7 1014.3 1161.8 1014.2C1167.3 1011.5 1172.4 1014.2 1172.4 1014.2C1172.7 1014.4 1173.2 1014.3 1173.4 1013.9C1173.6 1013.6 1173.5 1013.1 1173.1 1012.9C1172.9 1012.7 1167.3 1009.9 1161.1 1012.9C1160.8 1013.1 1160.6 1013.5 1160.8 1013.9C1160.9 1014.1 1161.2 1014.3 1161.5 1014.3Z" fill="white"/>
<path d="M1161.5 1017.9C1161.6 1017.9 1161.7 1017.9 1161.8 1017.8C1167.3 1015.1 1172.4 1017.8 1172.4 1017.8C1172.7 1018 1173.2 1017.9 1173.4 1017.5C1173.6 1017.2 1173.5 1016.7 1173.1 1016.5C1172.9 1016.3 1167.3 1013.5 1161.1 1016.5C1160.8 1016.7 1160.6 1017.1 1160.8 1017.5C1160.9 1017.7 1161.2 1017.9 1161.5 1017.9Z" fill="white"/>
<path opacity="0.4" d="M1071.3 986.3L1100.9 736.4C1101.9 728.4 1108.7 722.3 1116.7 722.3H1120.5C1118.8 722.3 1117.4 723.6 1117.2 725.3L1089.2 988.4L1071.3 986.3Z" fill="black"/>
<path d="M1089.8 989.9H1057.5L1057.9 983.3H1090.5L1089.8 989.9Z" class="change-color-in-svg" fill="#4D61FC"/>
<path opacity="0.15" d="M1089.8 989.9H1070.8L1071.7 983.3H1090.5L1089.8 989.9Z" fill="black"/>
<path opacity="0.4" d="M1180.9 667.8V983.1L1167.8 983.2L1155.7 667.8C1180.9 667.8 1155.8 667.8 1180.9 667.8Z" fill="black"/>
<path d="M1066.5 598.099L1069.1 667.799H1180.9L1183.1 622.799L1175.9 562.699L1099.3 541.399L1062.4 618.899" fill="#21252B"/>
<path d="M1054.4 624.3L1050.4 625.5C1036.6 629 1024.2 615.9 1028.3 602.3L1051.8 521.2C1054.1 513.6 1060.5 508 1068.4 506.8L1111 499.8L1151.1 500C1151.1 500 1153.6 499.8 1190.7 511.1C1201.1 514.3 1207.8 524.3 1206.7 535.1L1199.5 608.3C1198.4 618.5 1189.2 625.8 1179 624.5L1149.7 620.8V593.7H1157.6L1159.1 553.5L1158.4 573.1L1058.3 592.1L1054.4 624.3Z" fill="#21252B"/>
<path d="M1166.8 569.899L1165.2 595.599L1150.3 593.899L1149.1 573.999L1153.7 573.099L1155.9 571.499C1157.3 570.399 1161.3 570.399 1162.5 570.199L1166.8 569.899Z" fill="#FB9C9C"/>
<path opacity="0.3" d="M1071.1 589.699L1083.9 544.699C1084.2 543.799 1085.4 543.999 1085.4 544.899L1084.9 586.899L1071.1 589.699Z" fill="black"/>
<path d="M1113.3 472.6C1113.3 475 1113.6 477 1114 478.9L1111.7 499.8C1111.5 501 1112 502.4 1113.1 503.3L1128.1 516.2C1128.6 516.7 1129.3 516.7 1130 516.4L1149.3 503.3C1150.4 502.6 1151.1 501.4 1151.1 500.1L1148.7 464.9L1148.2 457.9C1147 431 1111.9 453 1111.9 453C1111.9 453 1112.9 462.3 1113.3 472.6Z" fill="#FC9D9D"/>
<path d="M1108.9 454.5C1115.5 454.5 1120.8 449.2 1120.8 442.6C1120.8 436 1115.5 430.7 1108.9 430.7C1102.3 430.7 1097 436 1097 442.6C1097 449.2 1102.3 454.5 1108.9 454.5Z" fill="#21252B"/>
<path d="M1147.1 433.2L1148.1 456.6C1148.1 456.6 1145.5 492.7 1122.3 489.6C1095.6 486.1 1108 433.9 1108 433.9L1147.1 433.2Z" fill="#FC9D9D"/>
<path d="M1105.9 417.799C1109.9 415.399 1113.4 416.099 1115.8 417.099C1117.4 417.799 1119.3 417.299 1120.3 415.699C1121.9 413.299 1125 410.099 1130.8 409.899C1138.3 409.599 1141.6 413.699 1143 415.999C1143.5 416.999 1144.6 417.599 1145.6 417.699C1149.1 418.199 1156.2 420.799 1158.7 427.999C1163.1 440.599 1154 454.499 1154 454.499L1148.4 450.999L1147.4 452.599L1146.4 457.499C1146.4 457.999 1145.7 458.399 1145.2 458.399C1144.7 458.399 1144.2 457.899 1144.2 457.199L1144.5 451.999C1144.5 451.099 1144 450.399 1143.1 450.399C1140.1 450.199 1138 447.599 1138.2 444.599C1138.5 441.599 1136.3 438.999 1133.3 438.799L1109.6 437.099C1101.4 435.799 1098.3 422.499 1105.9 417.799Z" fill="#21252B"/>
<path opacity="0.15" d="M1149.2 471.4L1145.4 465.6C1146.6 466.6 1148.9 466.5 1148.9 466.5L1149.2 471.4Z" fill="black"/>
<path d="M1145.9 459.899C1145 463.899 1144 466.899 1149.2 466.499C1159.1 465.799 1160.2 452.499 1154.4 449.899C1149.3 447.599 1147.6 452.499 1147.6 452.499C1147.6 452.499 1147.6 452.499 1145.9 459.899Z" fill="#FC9D9D"/>
<path opacity="0.3" d="M1155 454.499C1154.8 454.799 1154.5 454.799 1154.1 454.699C1153.4 454.199 1152.7 453.999 1152.2 454.199C1151.7 454.199 1151.3 454.699 1150.8 455.399C1150.1 456.299 1149.9 457.999 1149.9 458.399L1149.7 459.599C1149.7 459.899 1149.4 460.099 1149 460.099C1148.7 460.099 1148.5 459.799 1148.5 459.399L1148.7 458.199C1148.9 456.799 1149 455.599 1149.7 454.499C1150.4 453.599 1151.1 452.899 1152 452.799C1152.9 452.699 1153.7 452.799 1154.8 453.499C1155 453.599 1155.1 453.899 1155 454.499Z" fill="black"/>
<path d="M1108.2 437.9C1107.5 437.7 1106.1 437.2 1104.7 436.3C1104.4 436.1 1104.4 435.8 1104.5 435.6C1104.7 435.3 1105 435.3 1105.2 435.4C1106.4 436.3 1107.6 436.8 1108.3 437C1108.6 437 1109 437.2 1109.3 437.2L1112.1 437.4C1112.4 437.4 1112.6 437.6 1112.6 437.9C1112.6 438.2 1112.4 438.4 1112.1 438.4L1109.3 438.2C1108.9 438.2 1108.6 438.1 1108.2 437.9Z" fill="#FC9D9D"/>
<path opacity="0.15" d="M1126.7 490.9C1132.8 490 1136.8 486.9 1139.1 484.3C1139.3 484.1 1139.3 483.8 1139.1 483.6C1138.9 483.4 1138.6 483.4 1138.4 483.6C1136.5 485.7 1133.5 488.1 1129 489.4C1121.8 491 1115.4 487.7 1113.1 485.4L1112.2 493.8C1112.2 493.7 1119.5 495.8 1126.7 490.9Z" fill="black"/>
<g opacity="0.3">
<path opacity="0.3" d="M1119.9 478.4C1119.9 477.9 1120.2 477.7 1120.6 477.7C1122.7 478 1123.7 478 1123.7 478C1124 478 1124.4 478.3 1124.4 478.7C1124.4 479 1124.1 479.4 1123.7 479.4C1123.7 479.4 1122.7 479.2 1120.4 479.1C1120.1 478.9 1119.7 478.5 1119.9 478.4Z" fill="black"/>
</g>
<g opacity="0.3">
<path opacity="0.3" d="M1116.2 475.199C1115.9 474.999 1115.7 474.699 1115.9 474.299C1116.1 473.999 1116.4 473.799 1116.8 473.999C1123.8 476.299 1126.7 472.999 1127.6 471.399C1127.8 471.199 1128.1 471.099 1128.5 471.199C1128.7 471.399 1128.8 471.699 1128.7 472.099C1127.8 473.699 1125.2 476.799 1119.3 475.899C1118.3 475.699 1117.3 475.599 1116.2 475.199Z" fill="black"/>
</g>
<path d="M1125.7 460.4C1126.9 460.4 1127.8 459.5 1127.8 458.3C1127.8 457.1 1126.9 456.2 1125.7 456.2C1124.5 456.2 1123.6 457.1 1123.6 458.3C1123.6 459.5 1124.5 460.4 1125.7 460.4Z" fill="#21252B"/>
<path d="M1124.8 458.1C1125.1 458.1 1125.3 457.9 1125.3 457.6C1125.3 457.3 1125.1 457.1 1124.8 457.1C1124.5 457.1 1124.3 457.3 1124.3 457.6C1124.3 457.9 1124.5 458.1 1124.8 458.1Z" fill="white"/>
<path d="M1109.2 460.4C1110.4 460.4 1111.3 459.5 1111.3 458.3C1111.3 457.1 1110.4 456.2 1109.2 456.2C1108 456.2 1107.1 457.1 1107.1 458.3C1107.1 459.5 1108 460.4 1109.2 460.4Z" fill="#21252B"/>
<path d="M1108.3 458.1C1108.6 458.1 1108.8 457.9 1108.8 457.6C1108.8 457.3 1108.6 457.1 1108.3 457.1C1108 457.1 1107.8 457.3 1107.8 457.6C1107.8 457.9 1108 458.1 1108.3 458.1Z" fill="white"/>
<g opacity="0.3">
<path opacity="0.3" d="M1115.4 467.9C1115.6 466.5 1116.8 465.5 1118.2 465.6C1118.5 465.6 1118.7 465.9 1118.7 466.3C1118.7 466.6 1118.4 466.8 1118 466.8C1117.3 466.8 1116.6 467.3 1116.6 468C1116.6 468.7 1117.1 469.4 1117.8 469.4L1120.6 469.6C1120.9 469.6 1121.1 469.9 1121.1 470.3C1121.1 470.6 1120.8 470.8 1120.4 470.8L1117.6 470.6C1116.2 470.5 1115.2 469.3 1115.4 467.9Z" fill="black"/>
</g>
<path d="M1101.2 455.9V458.3C1101.2 462.8 1104.9 466.7 1109.6 466.7C1114.1 466.7 1118 463 1118 458.3V455.9C1118 455.2 1117.7 454.5 1117.3 454H1120.6C1120.1 454.5 1119.9 455.2 1119.9 455.9V458.3C1119.9 462.8 1123.6 466.7 1128.3 466.7C1132.8 466.7 1136.7 463 1136.7 458.3V455.9C1136.7 454.2 1135.3 452.8 1133.6 452.8H1123H1114.8H1113.6H1104.2C1102.4 452.7 1101.1 454.1 1101.2 455.9ZM1123 453.9H1133.5C1134.5 453.9 1135.4 454.8 1135.4 455.8V458.2C1135.4 462.2 1132.3 465.4 1128.2 465.4C1124.2 465.4 1121 462.3 1121 458.2V455.8C1121.1 454.8 1122 454.1 1123 453.9ZM1102.1 455.9C1102.1 454.9 1103 454 1104 454H1113.4H1114.6C1115.6 454 1116.5 454.9 1116.5 455.9V458.3C1116.5 462.3 1113.4 465.5 1109.3 465.5C1105.3 465.5 1102.1 462.4 1102.1 458.3V455.9Z" fill="#21252B"/>
<path d="M1100.1 582.2L1094.8 598.3L1091.2 596.5C1077 596.7 1074.9 585.1 1074.9 585.1L1066.4 585.9C1065.7 585.9 1065.1 585.4 1065 584.7C1064.9 584 1065.3 583.3 1066 583L1072.8 580.9L1061.7 580.6C1060.4 580.5 1059.9 579.7 1059.8 578.9C1059.7 578.1 1060.4 577 1061.5 577L1057.4 577.3H1057.3C1056.6 577.3 1055.9 576.9 1055.6 576.3C1054.9 575 1055.7 573.5 1057 573.3L1074.1 571L1059.9 570.2C1058.9 570.1 1058.1 569.2 1058.1 568.2C1058.1 568.1 1058.1 568.1 1058.1 568C1058.2 566.9 1059.1 566.1 1060.2 566.2H1074.4C1076.6 566.2 1078.7 567 1080.3 568.3L1096.2 581.3L1100.1 582.2Z" fill="#FB9C9C"/>
<path d="M1201.8 586.1L1198.2 623.4C1197.1 634.4 1185.6 641.2 1175.5 636.7L1091.4 600L1097.8 581.5L1165.3 595.7L1166.6 575.1L1201.8 586.1Z" fill="#21252B"/>
<path d="M1097.8 602.699L1091.3 599.899L1097.7 581.399L1104.7 582.799L1097.8 602.699Z" class="change-color-in-svg" fill="#4D61FC"/>
<path opacity="0.3" d="M1172.6 596L1165.5 590.3L1168 548.4C1168 547.7 1167.1 547.6 1166.9 548.3L1157.5 593.9L1172.1 597.5C1172.2 597.5 1172.2 597.5 1172.3 597.5C1172.9 597.5 1173.4 596.7 1172.6 596Z" fill="black"/>
<path opacity="0.3" d="M1149 572.8L1149.2 573.9L1061 591.7V590.1L1149 572.8Z" fill="black"/>
<path opacity="0.3" d="M1107.5 607.3L1109.2 608.4L1062.4 622.8L1062.5 621.7L1107.5 607.3Z" fill="black"/>
<path opacity="0.2" d="M1073.5 576L1061.3 577.3V576.3L1073.4 575L1073.5 576Z" fill="black"/>
<path d="M1151.1 499.8V500C1151.1 501.3 1150.3 502.5 1149.3 503.2L1130 516.3C1129.7 516.5 1129.4 516.5 1129.1 516.5C1128.7 516.5 1128.4 516.4 1128.1 516.1L1113.1 503.2C1112.1 502.3 1111.5 500.9 1111.7 499.7V499.5L1107.7 500.2C1107.7 502.5 1108.7 504.7 1110.5 506.2L1125.4 519C1126.4 519.9 1127.7 520.4 1129 520.4C1129.9 520.4 1130.8 520.2 1131.7 519.7L1131.9 519.6L1132.1 519.5L1151.4 506.4C1153.4 505 1154.6 503 1154.9 500.7L1151.1 499.8Z" class="change-color-in-svg" fill="#4D61FC"/>
<path d="M1150.4 593.899L1152.3 592.999L1054.3 624.199L1058.4 592.199L1149.2 573.899L1150.4 593.899Z" fill="#21252B"/>
<path d="M1170.1 515.5C1170.8 515.5 1171.3 515 1171.3 514.3C1171.3 513.6 1170.8 513.1 1170.1 513.1C1169.4 513.1 1168.9 513.6 1168.9 514.3C1168.9 515 1169.4 515.5 1170.1 515.5Z" class="change-color-in-svg" fill="#4D61FC"/>
<path d="M1115.3 571.1C1116 571.1 1116.5 570.6 1116.5 569.9C1116.5 569.2 1116 568.7 1115.3 568.7C1114.6 568.7 1114.1 569.2 1114.1 569.9C1114.1 570.6 1114.6 571.1 1115.3 571.1Z" class="change-color-in-svg" fill="#4D61FC"/>
<path d="M1151.1 553.799C1151.8 553.799 1152.3 553.299 1152.3 552.599C1152.3 551.899 1151.8 551.399 1151.1 551.399C1150.4 551.399 1149.9 551.899 1149.9 552.599C1149.9 553.299 1150.4 553.799 1151.1 553.799Z" class="change-color-in-svg" fill="#4D61FC"/>
<path d="M1109.3 525C1110 525 1110.5 524.5 1110.5 523.8C1110.5 523.1 1110 522.6 1109.3 522.6C1108.6 522.6 1108.1 523.1 1108.1 523.8C1108.1 524.5 1108.6 525 1109.3 525Z" class="change-color-in-svg" fill="#4D61FC"/>
<path d="M1073.5 559.7C1074.2 559.7 1074.7 559.2 1074.7 558.5C1074.7 557.8 1074.2 557.3 1073.5 557.3C1072.8 557.3 1072.3 557.8 1072.3 558.5C1072.3 559.2 1072.8 559.7 1073.5 559.7Z" class="change-color-in-svg" fill="#4D61FC"/>
<path d="M1068.6 517.799C1069.3 517.799 1069.8 517.299 1069.8 516.599C1069.8 515.899 1069.3 515.399 1068.6 515.399C1067.9 515.399 1067.4 515.899 1067.4 516.599C1067.4 517.299 1067.9 517.799 1068.6 517.799Z" class="change-color-in-svg" fill="#4D61FC"/>
<path d="M1067.4 613.799C1068.1 613.799 1068.6 613.299 1068.6 612.599C1068.6 611.899 1068.1 611.399 1067.4 611.399C1066.7 611.399 1066.2 611.899 1066.2 612.599C1066.2 613.299 1066.7 613.799 1067.4 613.799Z" class="change-color-in-svg" fill="#4D61FC"/>
<path d="M1043.2 575.1C1043.9 575.1 1044.4 574.6 1044.4 573.9C1044.4 573.2 1043.9 572.7 1043.2 572.7C1042.5 572.7 1042 573.2 1042 573.9C1042 574.6 1042.5 575.1 1043.2 575.1Z" class="change-color-in-svg" fill="#4D61FC"/>
<path d="M1178.9 624C1179.6 624 1180.1 623.5 1180.1 622.8C1180.1 622.1 1179.6 621.6 1178.9 621.6C1178.2 621.6 1177.7 622.1 1177.7 622.8C1177.7 623.5 1178.2 624 1178.9 624Z" class="change-color-in-svg" fill="#4D61FC"/>
<path d="M1143.9 661.6C1144.6 661.6 1145.1 661.1 1145.1 660.4C1145.1 659.7 1144.6 659.2 1143.9 659.2C1143.2 659.2 1142.7 659.7 1142.7 660.4C1142.7 661.1 1143.2 661.6 1143.9 661.6Z" class="change-color-in-svg" fill="#4D61FC"/>
<path d="M1142.7 612.6C1143.4 612.6 1143.9 612.1 1143.9 611.4C1143.9 610.7 1143.4 610.2 1142.7 610.2C1142 610.2 1141.5 610.7 1141.5 611.4C1141.5 612.1 1142 612.6 1142.7 612.6Z" class="change-color-in-svg" fill="#4D61FC"/>
<path d="M1082.1 656C1082.8 656 1083.3 655.5 1083.3 654.8C1083.3 654.1 1082.8 653.6 1082.1 653.6C1081.4 653.6 1080.9 654.1 1080.9 654.8C1080.9 655.5 1081.4 656 1082.1 656Z" class="change-color-in-svg" fill="#4D61FC"/>
<path d="M1116.6 632.7C1117.3 632.7 1117.8 632.2 1117.8 631.5C1117.8 630.8 1117.3 630.3 1116.6 630.3C1115.9 630.3 1115.4 630.8 1115.4 631.5C1115.4 632.2 1115.9 632.7 1116.6 632.7Z" class="change-color-in-svg" fill="#4D61FC"/>
<path d="M1168.8 652C1169.5 652 1170 651.5 1170 650.8C1170 650.1 1169.5 649.6 1168.8 649.6C1168.1 649.6 1167.6 650.1 1167.6 650.8C1167.6 651.5 1168.1 652 1168.8 652Z" class="change-color-in-svg" fill="#4D61FC"/>
<path d="M1145.2 588.299C1145.9 588.299 1146.4 587.799 1146.4 587.099C1146.4 586.399 1145.9 585.899 1145.2 585.899C1144.5 585.899 1144 586.399 1144 587.099C1144 587.799 1144.5 588.299 1145.2 588.299Z" class="change-color-in-svg" fill="#4D61FC"/>
<path d="M1177.7 583.4C1178.4 583.4 1178.9 582.9 1178.9 582.2C1178.9 581.5 1178.4 581 1177.7 581C1177 581 1176.5 581.5 1176.5 582.2C1176.5 582.9 1177 583.4 1177.7 583.4Z" class="change-color-in-svg" fill="#4D61FC"/>
<path d="M1198 550.2C1198.7 550.2 1199.2 549.7 1199.2 549C1199.2 548.3 1198.7 547.8 1198 547.8C1197.3 547.8 1196.8 548.3 1196.8 549C1196.8 549.7 1197.3 550.2 1198 550.2Z" class="change-color-in-svg" fill="#4D61FC"/>
<path opacity="0.3" d="M1150.3 592.399L1150.4 593.899L1107.5 607.299L1121.3 613.199L1157.7 593.899L1150.3 592.399Z" fill="black"/>
<path d="M1143.2 529.5H1137.5C1137.1 529.5 1136.8 529.2 1136.8 528.8C1136.8 528.4 1137.1 528.1 1137.5 528.1H1143.2C1143.6 528.1 1143.9 528.4 1143.9 528.8C1143.9 529.2 1143.6 529.5 1143.2 529.5Z" fill="#F4F4F4"/>
<path d="M1058.2 542.1H1052.5C1052.1 542.1 1051.8 541.8 1051.8 541.4C1051.8 541 1052.1 540.7 1052.5 540.7H1058.2C1058.6 540.7 1058.9 541 1058.9 541.4C1058.9 541.8 1058.6 542.1 1058.2 542.1Z" fill="#F4F4F4"/>
<path d="M1162.5 613.9L1164.3 608.5C1164.4 608.1 1164.8 607.9 1165.2 608C1165.6 608.1 1165.8 608.5 1165.7 608.9L1163.9 614.3C1163.8 614.7 1163.4 614.9 1163 614.8C1162.5 614.7 1162.3 614.3 1162.5 613.9Z" fill="#F4F4F4"/>
<path d="M1086.6 634L1088.4 628.6C1088.5 628.2 1088.9 628 1089.3 628.1C1089.7 628.2 1089.9 628.6 1089.8 629L1088 634.4C1087.9 634.8 1087.5 635 1087.1 634.9C1086.6 634.8 1086.4 634.4 1086.6 634Z" fill="#F4F4F4"/>
<path d="M1195.2 582.2H1189.5C1189.1 582.2 1188.8 581.9 1188.8 581.5C1188.8 581.1 1189.1 580.8 1189.5 580.8H1195.2C1195.6 580.8 1195.9 581.1 1195.9 581.5C1195.9 581.9 1195.6 582.2 1195.2 582.2Z" fill="#F4F4F4"/>
<path d="M1106.9 556.4L1103 552.2C1102.7 551.9 1102.7 551.4 1103 551.2C1103.3 550.9 1103.8 550.9 1104 551.2L1107.9 555.4C1108.2 555.7 1108.2 556.2 1107.9 556.4C1107.6 556.8 1107.2 556.7 1106.9 556.4Z" fill="#F4F4F4"/>
<path d="M1121.1 657.4L1117.2 653.2C1116.9 652.9 1116.9 652.4 1117.2 652.2C1117.5 651.9 1118 651.9 1118.2 652.2L1122.1 656.4C1122.4 656.7 1122.4 657.2 1122.1 657.4C1121.9 657.7 1121.4 657.7 1121.1 657.4Z" fill="#F4F4F4"/>
<path d="M1088.7 516.8L1092.9 512.9C1093.2 512.6 1093.7 512.6 1093.9 512.9C1094.2 513.2 1094.2 513.7 1093.9 513.9L1089.7 517.8C1089.4 518.1 1088.9 518.1 1088.7 517.8C1088.4 517.6 1088.4 517.1 1088.7 516.8Z" fill="#F4F4F4"/>
<path d="M1106.3 597L1110.5 593.1C1110.8 592.8 1111.3 592.8 1111.5 593.1C1111.8 593.4 1111.8 593.9 1111.5 594.1L1107.3 598C1107 598.3 1106.5 598.3 1106.3 598C1106 597.7 1106 597.3 1106.3 597Z" fill="#F4F4F4"/>
<path d="M1147.1 631.5H1152.8C1153.2 631.5 1153.5 631.8 1153.5 632.2C1153.5 632.6 1153.2 632.9 1152.8 632.9H1147.1C1146.7 632.9 1146.4 632.6 1146.4 632.2C1146.4 631.8 1146.7 631.5 1147.1 631.5Z" fill="#F4F4F4"/>
<path d="M1190.8 528.8L1187.9 533.8C1187.7 534.1 1187.3 534.3 1186.9 534.1C1186.6 533.9 1186.4 533.5 1186.6 533.1L1189.5 528.1C1189.7 527.8 1190.1 527.6 1190.5 527.8C1190.9 528.1 1191 528.5 1190.8 528.8Z" fill="#F4F4F4"/>
<path d="M1051.6 600.7L1048.7 605.7C1048.5 606 1048.1 606.2 1047.7 606C1047.4 605.8 1047.2 605.4 1047.4 605L1050.3 600C1050.5 599.7 1050.9 599.5 1051.3 599.7C1051.7 599.9 1051.8 600.4 1051.6 600.7Z" fill="#F4F4F4"/>
<path opacity="0.3" d="M1198.3 515.1C1200 518.7 1200.8 522.9 1200.4 527.1L1195.4 578L1189.7 623.3C1189 630.4 1183.9 635.7 1177.7 637.4C1187.2 640 1197.1 633.4 1198.1 623.3L1201.7 586.1L1206.7 535.2C1207.6 527.3 1204.2 519.8 1198.3 515.1Z" fill="black"/>
<path opacity="0.3" d="M1182.3 638C1179.8 638 1177.7 637.4 1177.7 637.4L1164.5 631.8L1107.5 607.3L1148.3 634.4C1152 636.6 1154.4 640.6 1154.6 644.9L1155.7 667.7H1180.9L1182.3 638Z" fill="black"/>
<path d="M1149.2 573.899L1150.4 593.899L1143.9 595.899L1142.8 575.199L1149.2 573.899Z" class="change-color-in-svg" fill="#4D61FC"/>
<path opacity="0.6" d="M1069.1 667.8H1180.9V676.2H1068.8L1069.1 667.8Z" fill="black"/>
<path d="M1235.5 1023.2C1230.2 1023.2 1225.9 1027.5 1225.9 1032.8C1225.9 1034 1226.8 1034.9 1228 1034.9H1243.4C1245.1 1034.9 1246.7 1033.9 1247.4 1032.3L1267.5 987.2L1245 961.1C1245.3 962.3 1235.5 1023.2 1235.5 1023.2Z" fill="#3F4249"/>
<path d="M1346.9 986.1H1308.7L1324 1000.9C1326.2 1003 1327.2 1006.2 1326.6 1009.2L1323.9 1023.2C1318.8 1023.2 1314.7 1027.3 1314.7 1032.4V1032.9C1314.7 1034.1 1315.6 1035 1316.8 1035H1330.8C1332.5 1035 1334 1034 1334.8 1032.5L1347.9 1005.9C1349.6 1002.4 1350 998.3 1349 994.5L1346.9 986.1Z" fill="#3F4249"/>
<path d="M1367.6 956C1375.6 953.6 1390.6 944.9 1397.4 936.1C1397.9 935.4 1397.9 934.4 1397.4 933.8C1396.8 933.1 1395.8 932.9 1395 933.4C1334.4 967.6 1272.2 927.1 1272.2 927.1C1271.3 922.3 1268.4 918.2 1264.2 915.8C1255.7 911 1245.3 911 1236.8 915.8C1233.8 917.5 1230.3 917.8 1227.1 916.7L1217.7 913.4C1216 912.8 1214.3 913.9 1214.1 915.7L1213.8 918.5C1212.9 926.8 1215.8 935.1 1221.7 941.1L1262.3 982.3C1266.9 986.9 1269 993.5 1268 999.9L1264.4 1023.6C1259.1 1023.6 1254.8 1027.9 1254.8 1033.2C1254.8 1034.4 1255.7 1035.3 1256.9 1035.3H1272.3C1274 1035.3 1275.6 1034.3 1276.3 1032.7L1296.8 986.5H1337.4L1352.7 1001.3C1354.9 1003.4 1355.9 1006.6 1355.3 1009.6L1352.6 1023.6C1347.5 1023.6 1343.4 1027.7 1343.4 1032.8C1343.4 1034.2 1344.5 1035.3 1345.9 1035.3H1359.4C1361.1 1035.3 1362.6 1034.3 1363.4 1032.8L1376.5 1006.2C1378.2 1002.7 1378.6 998.6 1377.6 994.8L1367.6 956Z" fill="#868A91"/>
<path d="M1245.5 921.8C1246.6 920.7 1246.9 919.2 1246.1 918.5C1245.3 917.8 1243.9 918 1242.8 919.1C1241.7 920.2 1241.4 921.7 1242.2 922.4C1243 923.1 1244.4 922.9 1245.5 921.8Z" fill="#3F4249"/>
<path d="M1358.5 975.9C1358.5 984.1 1365.1 990.7 1373.3 990.7C1374.4 990.7 1375.5 990.6 1376.5 990.3L1369.1 961.7C1363 963.5 1358.5 969.2 1358.5 975.9Z" fill="#3F4249"/>
<path d="M1294.1 991.999L1291.4 990.899C1287.8 989.499 1283.8 990.299 1281.1 993.099C1278.9 995.399 1277.9 998.699 1278.6 1001.8L1279.1 1004C1279.5 1005.7 1279.4 1007.5 1278.8 1009.2L1278.6 1009.8C1277.1 1014 1278 1018.6 1280.8 1022L1294.1 991.999Z" fill="#3F4249"/>
<path d="M1276.1 929.3L1278.7 945.2C1280.2 954.1 1288.1 959.9 1296.1 958L1303.6 956.2C1305.3 955.8 1307 955.7 1308.7 956.1L1324.7 959.2C1332.5 960.7 1340.4 956.8 1344.6 949.4L1345.9 947.1C1313.3 948 1285.9 934.7 1276.1 929.3Z" fill="#3F4249"/>
<path d="M1377.5 941.2C1379 942.3 1380.9 943 1382.9 943C1387.6 943 1391.4 939.5 1391.9 934.9C1387.2 937.5 1382.3 939.6 1377.5 941.2Z" fill="#3F4249"/>
<path d="M1234.3 934.5C1232.2 931.6 1231.3 927.9 1231.7 924.3L1232.7 917C1230.8 917.3 1228.9 917.1 1227.1 916.5L1217.7 913.2C1216 912.6 1214.3 913.7 1214.1 915.5L1213.8 918.3C1212.9 926.6 1215.8 934.9 1221.7 940.9L1233.6 953L1235.4 949.8C1237.9 944.9 1237.5 939 1234.3 934.5Z" fill="#B2B6BB"/>
<path d="M1270.4 929.7L1277.8 948.3C1279.7 952.7 1277.9 958.5 1273.9 961.1C1269.2 964.2 1262.9 964.4 1256.7 958.4C1248.3 950.4 1251.8 932.5 1256.1 925.6" fill="#3F4249"/>
<path d="M1337.2 986.2L1329.1 977.3L1335.9 992.2L1337.2 986.2Z" fill="#3F4249"/>
<path d="M1223.4 915.1L1217.7 913.1C1216 912.5 1214.1 913.6 1213.9 915.5L1213.5 919.5C1214.2 919.7 1214.9 919.8 1215.6 919.8C1219 919.8 1222 917.9 1223.4 915.1Z" fill="#3F4249"/>
<path d="M1269.7 927.9L1277.4 947.2C1278.6 950 1277.5 953.2 1275 954.8C1271.2 957.2 1265 958.8 1258.3 952.4C1251.2 945.6 1252.2 931 1256.8 924.5" fill="#868A91"/>
<path d="M1268.1 957.4C1265.1 957.4 1261.6 956.2 1258 952.7C1250.5 945.5 1251.9 930.6 1256.5 924.2C1256.7 924 1257 923.9 1257.2 924.1C1257.4 924.3 1257.5 924.6 1257.3 924.8C1253 930.9 1251.7 945.3 1258.7 952.1C1265.1 958.3 1271 956.8 1274.8 954.4C1277.2 952.9 1278.1 950 1277 947.4L1269.3 928.1C1269.2 927.9 1269.3 927.6 1269.6 927.5C1269.8 927.4 1270.1 927.5 1270.2 927.8L1277.9 947.1C1279.2 950.1 1278.1 953.6 1275.3 955.3C1273.3 956.4 1270.9 957.4 1268.1 957.4Z" fill="#3F4249"/>
<path d="M1296.7 986.2C1296.7 986.2 1305.3 976 1329.2 977.3L1333.3 986.2H1296.7Z" fill="#B2B6BB"/>
<path d="M1367.1 953.5L1367.7 956C1367.7 956 1373.8 954.1 1379.2 950.7L1367.1 953.5Z" fill="#3F4249"/>
<path d="M1222.1 929.5C1220.2 929.5 1218.5 929 1217.2 927.9C1213.1 924.4 1213.7 916.9 1213.8 916.6C1213.8 916.3 1214.1 916.1 1214.3 916.2C1214.6 916.2 1214.8 916.5 1214.7 916.7C1214.7 916.8 1214.1 924.1 1217.8 927.2C1219.6 928.7 1222.1 929 1225.3 928.1C1225.6 928 1225.8 928.2 1225.9 928.4C1226 928.7 1225.8 928.9 1225.6 929C1224.4 929.4 1223.2 929.5 1222.1 929.5Z" fill="#3F4249"/>
<g opacity="0.7">
<path opacity="0.3" d="M898.5 540.1H808.1C807.2 540.1 806.5 539.4 806.5 538.5C806.5 537.6 807.2 536.9 808.1 536.9H898.5C899.4 536.9 900.1 537.6 900.1 538.5C900.1 539.4 899.4 540.1 898.5 540.1Z" fill="white"/>
<path opacity="0.3" d="M898.5 554.4H808.1C807.2 554.4 806.5 553.7 806.5 552.8C806.5 551.9 807.2 551.2 808.1 551.2H898.5C899.4 551.2 900.1 551.9 900.1 552.8C900.1 553.7 899.4 554.4 898.5 554.4Z" fill="white"/>
<path opacity="0.3" d="M878.2 568.6H828.5C827.6 568.6 826.9 567.9 826.9 567C826.9 566.1 827.6 565.4 828.5 565.4H878.2C879.1 565.4 879.8 566.1 879.8 567C879.8 567.9 879.1 568.6 878.2 568.6Z" fill="white"/>
</g>
</svg>
