<svg class="gridItem__media" version="1.1" id="Layer_1" xmlns="http://www.w3.org/2000/svg" xmlns:xlink="http://www.w3.org/1999/xlink" x="0px" y="0px" width="1600" height="1200"
	 viewBox="0 0 1600 1200" style="enable-background:new 0 0 1600 1200;" xml:space="preserve" fill="none">
<path d="M1346.1 1029.4L1381.9 509.2C1382.9 495.1 1378.4 481.2 1369.4 470.3L1138.3 191.3C1126.8 177.5 1109.3 170.1 1091.4 171.6L417 227.4C395.4 229.2 376.8 243.5 369.6 264L222.1 683.4C219.1 692 218.2 701.2 219.6 710.2L269.5 1028.7L1346.1 1029.4Z" fill="#F4F4F4"/>
<path d="M471.4 691.4H370.3V754.2H471.4V691.4Z" fill="#B2B6BB"/>
<path d="M471.4 691.4H449.9V754.2H471.4V691.4Z" fill="#61656D"/>
<path d="M323.9 696.6L307.6 616.2L308.1 616.1L324.4 696.5L323.9 696.6Z" fill="#3F4249"/>
<path d="M328.456 589.114L326.315 693.593L326.815 693.604L328.956 589.124L328.456 589.114Z" fill="#3F4249"/>
<path d="M352.377 608.32L327.469 639.62L327.861 639.931L352.769 608.631L352.377 608.32Z" fill="#3F4249"/>
<path d="M336.6 716.6L334.1 712.9C331.6 709.2 330.3 704.8 330.3 700.3V691.4H320.7V700.3C320.7 704.8 319.4 709.2 316.9 712.9L314.4 716.6C309.2 724.4 307.6 734.1 309.9 743.2L312.7 754.2H338.3L341.1 743.2C343.4 734.1 341.7 724.4 336.6 716.6Z" fill="#868A91"/>
<path d="M336.6 716.6L334.1 712.9C331.6 709.2 330.3 704.8 330.3 700.3V691.4H327.5V699.5C327.5 704.5 329 709.4 331.7 713.6C335.9 721.3 335.9 730.1 334.4 737.3C333.5 741.6 331.8 745.7 329.5 749.4L327.6 752.5C326.9 753.6 325.7 754.3 324.4 754.3H338.4L341.2 743.3C343.4 734.1 341.7 724.4 336.6 716.6Z" fill="#61656D"/>
<path d="M347.278 640.492L317.648 665.078L317.968 665.463L347.597 640.877L347.278 640.492Z" fill="#3F4249"/>
<path d="M321.5 684.6L295.3 659.8L295.6 659.5L321.8 684.2L321.5 684.6Z" fill="#3F4249"/>
<path d="M337.7 627.1L341.8 609.1C343.3 602.7 350.9 600 356.1 604.1C361.2 608.2 360.3 616.3 354.4 619.1L337.7 627.1Z" class="change-color-in-svg" fill="#4D61FC"/>
<path opacity="0.3" d="M337.7 627.1L341.8 609.1C343.3 602.7 350.9 600 356.1 604.1C361.2 608.2 360.3 616.3 354.4 619.1L337.7 627.1Z" fill="white"/>
<path d="M359.4 611.2C359.4 614.4 357.6 617.6 354.3 619.1L337.6 627.1L356 604.1C358.4 605.9 359.5 608.6 359.4 611.2Z" class="change-color-in-svg" fill="#4D61FC"/>
<path d="M328.2 619.1L316.4 594.7C312.2 586 318.5 575.9 328.2 575.9C337.8 575.9 344.2 586 340 594.7L328.2 619.1Z" class="change-color-in-svg" fill="#4D61FC"/>
<path opacity="0.3" d="M328.2 619.1L316.4 594.7C312.2 586 318.5 575.9 328.2 575.9C337.8 575.9 344.2 586 340 594.7L328.2 619.1Z" fill="white"/>
<path opacity="0.3" d="M328.8 576L328.2 619.1L340 594.7C344.1 586.2 338.1 576.3 328.8 576Z" fill="white"/>
<path d="M315.1 651.6L298 631.2C291.9 623.9 295.5 612.7 304.7 610.4C313.9 608.1 322.4 616.2 320.5 625.5L315.1 651.6Z" class="change-color-in-svg" fill="#4D61FC"/>
<path opacity="0.3" d="M320.5 625.5C322.4 616.2 313.9 608.1 304.7 610.4L315.2 651.5L320.5 625.5Z" fill="white"/>
<path d="M312.7 675.9L304.9 656.4C302.1 649.4 293 647.8 288 653.3C282.9 658.8 285.4 667.7 292.6 669.9L312.7 675.9Z" class="change-color-in-svg" fill="#4D61FC"/>
<path opacity="0.3" d="M312.7 675.9L304.9 656.4C302.1 649.4 293 647.8 288 653.3C282.9 658.8 285.4 667.7 292.6 669.9L312.7 675.9Z" fill="white"/>
<path opacity="0.3" d="M288.3 652.9L312.7 675.9L304.9 656.4C302.2 649.6 293.4 647.9 288.3 652.9Z" fill="white"/>
<path d="M325.7 658.8L334.2 638.2C337.2 630.9 346.9 629.2 352.2 635.1C357.5 641 354.8 650.4 347.1 652.6L325.7 658.8Z" class="change-color-in-svg" fill="#4D61FC"/>
<path opacity="0.3" d="M325.7 658.8L334.2 638.2C337.2 630.9 346.9 629.2 352.2 635.1C357.5 641 354.8 650.4 347.1 652.6L325.7 658.8Z" fill="white"/>
<path d="M326.7 684.1L326.4 683.7L367 661.5L367.2 661.9L326.7 684.1Z" fill="#3F4249"/>
<path d="M333.2 680.2L347.9 660.1C353.1 652.9 364.1 653.7 368.2 661.5C372.4 669.3 366.9 678.8 358.1 679.2L333.2 680.2Z" class="change-color-in-svg" fill="#4D61FC"/>
<path opacity="0.3" d="M333.2 680.2L347.9 660.1C353.1 652.9 364.1 653.7 368.2 661.5C372.4 669.3 366.9 678.8 358.1 679.2L333.2 680.2Z" fill="white"/>
<path d="M368.6 672.1C366.8 676 363 679 358.1 679.2L333.2 680.2L368.2 661.5C370.1 665.1 370 668.9 368.6 672.1Z" class="change-color-in-svg" fill="#4D61FC"/>
<path opacity="0.3" d="M334.2 638.2L325.7 658.8L352.2 635.1C346.9 629.3 337.3 630.9 334.2 638.2Z" fill="white"/>
<path d="M498.2 760.9H565.3C567.2 760.9 568.7 759.4 568.7 757.5C568.7 755.6 567.2 754.1 565.3 754.1H498.2V760.9Z" fill="#B2B6BB"/>
<path d="M556.6 757.6H488.9V966.1H556.6V757.6Z" fill="#B2B6BB"/>
<path d="M491 757.6H283.9V966.1H491V757.6Z" fill="#DADDDF"/>
<path d="M480.5 950.2H293.6V786.6L480.5 786.8V950.2ZM295.1 948.7H479V788.3H295.1V948.7Z" fill="#B2B6BB"/>
<path d="M276.2 760.9H498.3C500.2 760.9 501.7 759.4 501.7 757.5C501.7 755.6 500.2 754.1 498.3 754.1H276.2C274.3 754.1 272.8 755.6 272.8 757.5C272.9 759.4 274.4 760.9 276.2 760.9Z" fill="#DADDDF"/>
<path d="M480.5 867.399H293.6V868.899H480.5V867.399Z" fill="#B2B6BB"/>
<path d="M379 812.9C381.872 812.9 384.2 810.571 384.2 807.7C384.2 804.828 381.872 802.5 379 802.5C376.128 802.5 373.8 804.828 373.8 807.7C373.8 810.571 376.128 812.9 379 812.9Z" fill="#B2B6BB"/>
<path opacity="0.15" d="M380.9 807.7C380.9 805.4 379.4 803.499 377.4 802.799C377.9 802.599 378.5 802.5 379.1 802.5C382 802.5 384.3 804.8 384.3 807.7C384.3 810.6 382 812.9 379.1 812.9C378.5 812.9 378 812.799 377.4 812.599C379.4 811.899 380.9 810 380.9 807.7Z" fill="black"/>
<path d="M379 893.4C381.872 893.4 384.2 891.071 384.2 888.2C384.2 885.328 381.872 883 379 883C376.128 883 373.8 885.328 373.8 888.2C373.8 891.071 376.128 893.4 379 893.4Z" fill="#B2B6BB"/>
<path opacity="0.15" d="M380.9 888.2C380.9 885.9 379.4 883.999 377.4 883.299C377.9 883.099 378.5 883 379.1 883C382 883 384.3 885.3 384.3 888.2C384.3 891.1 382 893.4 379.1 893.4C378.5 893.4 378 893.299 377.4 893.099C379.4 892.399 380.9 890.5 380.9 888.2Z" fill="black"/>
<path d="M501.7 767.899L491 760.899H283.9V764.099L501.7 767.899Z" fill="#B2B6BB"/>
<path d="M543.3 966.1L548.5 1023.8C548.9 1025.9 547.3 1027.9 545.2 1027.9C543.8 1027.9 542.5 1027 542 1025.6L526.9 966.1H543.3V966.1Z" fill="#DADDDF"/>
<path d="M541.4 999.7L535.1 998.2L527 966.2H543.4L548.6 1023.9C548.9 1025.5 548 1027.1 546.6 1027.7L541.4 999.7Z" fill="#B2B6BB"/>
<path d="M484.4 966.1L489.6 1023.8C490 1025.9 488.4 1027.9 486.3 1027.9C484.9 1027.9 483.6 1027 483.1 1025.6L468 966.1H484.4Z" fill="#DADDDF"/>
<path d="M478.9 972.5L469.5 970.7L467.9 966.1H484.3L489.5 1023.8C489.8 1025.4 488.9 1027 487.5 1027.6L478.9 972.5Z" fill="#B2B6BB"/>
<path d="M354.6 966.1L349.4 1023.8C349 1025.9 350.6 1027.9 352.7 1027.9C354.1 1027.9 355.4 1027 355.9 1025.6L371 966.1H354.6V966.1Z" fill="#DADDDF"/>
<path d="M357.5 996.8L351.9 995.4L354.6 966.1H371L355.9 1025.6C355.4 1027 354.1 1027.9 352.7 1027.9C352.6 1027.9 352.6 1027.9 352.5 1027.9L357.5 996.8Z" fill="#B2B6BB"/>
<path d="M294.1 966.1L288.9 1023.8C288.5 1025.9 290.1 1027.9 292.2 1027.9C293.6 1027.9 294.9 1027 295.4 1025.6L310.5 966.1H294.1V966.1Z" fill="#DADDDF"/>
<path d="M300.5 971.1L293.3 969.8L294.1 966.1H310.5L295.4 1025.6C294.9 1027 293.6 1027.9 292.2 1027.9C292.1 1027.9 292.1 1027.9 292 1027.9L300.5 971.1Z" fill="#B2B6BB"/>
<path d="M382.7 886.1L347.1 926.4L372.5 946L402.3 918.8L382.7 886.1Z" fill="#FC9D9D"/>
<path d="M351.9 919.8L329.2 937.2C326.7 939.1 326 942.6 327.5 945.3L371.1 1025.8C372 1027.6 374.1 1028.3 376 1027.6C380 1026.1 382.2 1021.8 381 1017.7L380.5 1015.8C378 1007 376.7 998 376.6 988.8L376 946.3C376 943.7 374.1 941.4 371.6 940.8C363.3 938.9 357.1 931.9 356.1 923.4L355.9 921.3C355.5 919.6 353.3 918.7 351.9 919.8Z" fill="#242830"/>
<path d="M362.9 908.1L477.7 774.9L476.5 588.7H539.4L530.1 788.1C530 796.6 526.5 804.7 520.3 810.6L387.2 932.7L362.9 908.1Z" fill="#3F4249"/>
<path d="M551.5 427.599L548 484.399L543.4 483.699L539.3 588.999L405.7 588.599L403.4 470.599L392.2 399.999L435.4 387.699L436.9 387.299L442.4 385.699L465.8 405.799L490.7 385.399L497.3 387.499C497.8 387.599 498 387.699 498.1 387.699H498.2C498.2 387.699 498.2 387.699 498.5 387.799L498.8 387.899L530.8 398.099C543.7 402.199 552.1 414.299 551.5 427.599Z" class="change-color-in-svg" fill="#4D61FC"/>
<path d="M370.8 426.499L363 536.499L413.6 516.299L424.6 392.299L393.4 399.799C380.9 402.799 371.7 413.599 370.8 426.499Z" class="change-color-in-svg" fill="#4D61FC"/>
<path d="M462.2 410.699L453.8 543.799L465.2 555.999L475.9 543.799L469.8 410.099L465.8 407.399L462.2 410.699Z" fill="#242830"/>
<path d="M648.1 417.5L575.5 531.7C570.1 540.2 557.4 539 553.6 529.7L534.4 481.8L549.5 415.7L571.5 477.7L613.5 417.5H648.1V417.5Z" class="change-color-in-svg" fill="#4D61FC"/>
<path d="M404.3 967.899L437 968.599L435.4 993.899L405.2 996.599L404.3 967.899Z" fill="#FC9D9D"/>
<path d="M420.3 981.2C429 981.2 436.2 988.1 436.5 996.8L436.6 1000.8C436.7 1002.4 436.9 1004 437.3 1005.5L441.8 1022.1C442.6 1025 440.4 1027.8 437.5 1027.8H400.3C397.1 1027.8 394.9 1024.6 396.1 1021.6L402.5 1005.6C403.4 1003.4 403.9 1001 404 998.6L404.1 996.7C404.4 988.2 411.5 981.2 420.3 981.2Z" fill="#242830"/>
<path opacity="0.2" d="M542.7 502.199L528.2 467.999C527.4 466.899 525.6 467.299 525.5 468.699L517.9 588.599L539.3 588.999L542.7 502.199Z" fill="black"/>
<path opacity="0.2" d="M517.9 588.7L506 788.8L403 899.6L402.7 869.7L397.3 876.1L395.2 908L379.5 924.9L387.2 932.7L520.8 810.1C526.7 804.5 530.1 796.8 530.1 788.7L539.4 588.7H517.9V588.7Z" fill="black"/>
<g opacity="0.2">
<path opacity="0.2" d="M458.754 793.813L454.623 869.2L456.121 869.282L460.252 793.895L458.754 793.813Z" fill="black"/>
</g>
<path d="M496.8 490.6L502.9 481.6L504.4 472C504.5 471.6 504.8 471.3 505.2 471.2C507.9 470.6 510.5 472.4 510.9 475.1L512.8 486.7L534.1 485.2C535.7 485.2 537.1 486.4 537.3 488C537.5 489.8 536 491.4 534.2 491.4H532.5H534.3C536.1 491.4 537.7 492.8 537.8 494.6C538 496.5 536.6 498.3 534.6 498.4L533 498.5L534.8 498.3C536.6 498.1 538.2 499.5 538.4 501.3C538.6 503.1 537.2 504.7 535.4 504.9L533.3 505.1L536.3 504.8C537.6 504.7 538.8 505.7 539 507C539.1 508.3 538.2 509.4 537 509.6L499.8 515.6L485.2 519.9L489.1 491.2L496.8 490.6Z" fill="#FC9D9D"/>
<path opacity="0.2" d="M424.6 497.2C418.2 493.8 413.9 487.4 413.2 480.2L410.2 449.4C410.1 448.7 409.2 448.7 409.1 449.4L404.1 499.6L392.8 500.9C392.4 500.9 392.1 501.3 392.2 501.7C392.2 502.1 392.6 502.4 393 502.3L496.9 490.5L498.1 488.7L424.6 497.2Z" fill="black"/>
<path opacity="0.15" d="M539 507.1L538.9 506.9C538.6 505.5 537.2 504.6 535.9 504.9L535.5 505L504.6 509.7L496.3 490.6H494L485.4 491.6L488 519.3C488 519.3 502.5 515.4 503 515.3L505.7 514.9C515.3 513.3 534.6 510.2 536.6 509.9C539.4 509.3 539 507.1 539 507.1Z" fill="black"/>
<g opacity="0.15">
<path opacity="0.15" d="M525 491.4C525 491 525.3 490.7 525.7 490.7L536.9 489.8C536.4 490.8 535.4 491.5 534.3 491.5H534.2L525.8 492.2C525.4 492.1 525 491.8 525 491.4Z" fill="black"/>
</g>
<g opacity="0.15">
<path opacity="0.15" d="M525.5 498.9C525.5 498.5 525.7 498.2 526.1 498.1L537.4 496.6C537 497.6 536 498.3 534.9 498.4H534.8L526.2 499.6C525.9 499.6 525.6 499.3 525.5 498.9Z" fill="black"/>
</g>
<path opacity="0.2" d="M478.5 416.099L478.3 415.899L478.5 416.099L466.3 412.799L454.6 416.199L435.4 387.799L436.9 387.399L455.8 415.299L465.9 407.399L477.3 415.299L497.5 387.599C498 387.699 498.2 387.799 498.3 387.799H498.4C498.4 387.799 498.4 387.799 498.7 387.899L499 387.999L478.5 416.099Z" fill="black"/>
<path d="M366.5 506.2L489.1 491.3L493.3 517.5L377.1 551.4C369.4 553.7 361.8 547.3 362.7 539.3L366.5 506.2Z" class="change-color-in-svg" fill="#4D61FC"/>
<path opacity="0.2" d="M492.6 513L382.8 539.299C373 541.399 363.8 533.5 364.6 523.4L364.8 521.2L362.8 539.299C361.9 547.299 369.5 553.7 377.2 551.4L423.8 537.7L493.4 517.4L492.6 513Z" fill="black"/>
<path d="M491 491.2L496.1 516.9L501.1 515.7L496.3 490.6L491 491.2Z" fill="#242830"/>
<path d="M496.3 509.5C499.448 509.5 502 506.948 502 503.8C502 500.652 499.448 498.1 496.3 498.1C493.152 498.1 490.6 500.652 490.6 503.8C490.6 506.948 493.152 509.5 496.3 509.5Z" fill="#242830"/>
<path opacity="0.2" d="M499.9 509.5L497.5 497.2C497.1 497.1 496.7 497.1 496.2 497.1C494.7 497.1 493.4 497.6 492.3 498.4L494.7 510.5C495.2 510.6 495.7 510.7 496.2 510.7C497.6 510.5 498.9 510.1 499.9 509.5Z" fill="black"/>
<path d="M496.3 508.8C499.061 508.8 501.3 506.561 501.3 503.8C501.3 501.038 499.061 498.8 496.3 498.8C493.539 498.8 491.3 501.038 491.3 503.8C491.3 506.561 493.539 508.8 496.3 508.8Z" fill="white"/>
<path d="M405.7 588.7L403.8 979.6H436.8L469.3 654.9C469.4 653 470.9 651.6 472.8 651.6C474.7 651.6 476.2 653.1 476.3 654.9L477.2 684.9L482.3 588.7H405.7Z" fill="#3F4249"/>
<path opacity="0.2" d="M472.7 651.5C452.9 651.5 435.6 667.6 435.6 687.4L422.7 979.5H436.6L469.1 654.799C469.3 652.999 470.9 651.5 472.7 651.5Z" fill="black"/>
<path d="M538.9 600.6H405.6L405.7 588.7H539.4L538.9 600.6Z" fill="#242830"/>
<path d="M442.7 588.7H438.4V601.6H442.7V588.7Z" fill="#3F4249"/>
<path d="M500.5 588.7H496.2V601.6H500.5V588.7Z" fill="#3F4249"/>
<path d="M480.2 600.6H464.5C462.9 600.6 461.6 599.3 461.6 597.7V591.6C461.6 590 462.9 588.7 464.5 588.7H480.2C481.8 588.7 483.1 590 483.1 591.6V597.7C483.1 599.3 481.8 600.6 480.2 600.6Z" fill="#B2B6BB"/>
<path d="M413.4 997.699C413.2 997.699 412.9 997.599 412.8 997.399C412.6 997.099 412.7 996.599 413 996.399C413.1 996.399 420.3 991.599 427.4 996.399C427.7 996.599 427.8 997.099 427.6 997.399C427.4 997.699 426.9 997.799 426.6 997.599C420.3 993.399 413.9 997.599 413.8 997.599C413.7 997.699 413.5 997.699 413.4 997.699Z" fill="#868A91"/>
<path d="M413.4 1002C413.2 1002 412.9 1001.9 412.8 1001.7C412.6 1001.4 412.7 1000.9 413 1000.7C413.1 1000.7 420.3 995.9 427.4 1000.7C427.7 1000.9 427.8 1001.4 427.6 1001.7C427.4 1002 426.9 1002.1 426.6 1001.9C420.3 997.7 413.9 1001.9 413.8 1001.9C413.7 1001.9 413.5 1002 413.4 1002Z" fill="#868A91"/>
<path d="M413.4 1006.2C413.2 1006.2 412.9 1006.1 412.8 1005.9C412.6 1005.6 412.7 1005.1 413 1004.9C413.1 1004.9 420.3 1000.1 427.4 1004.9C427.7 1005.1 427.8 1005.6 427.6 1005.9C427.4 1006.2 426.9 1006.3 426.6 1006.1C420.3 1001.9 413.9 1006.1 413.8 1006.1C413.7 1006.2 413.5 1006.2 413.4 1006.2Z" fill="#868A91"/>
<path d="M368.3 957.099C367.9 957.099 367.6 956.799 367.6 956.499C367.5 956.099 367.8 955.699 368.2 955.699L375.9 954.599C376.3 954.499 376.7 954.799 376.7 955.199C376.8 955.599 376.5 955.999 376.1 955.999L368.3 957.099Z" fill="#868A91"/>
<path d="M368.4 962.3C368 962.3 367.7 962 367.7 961.7C367.6 961.3 367.9 960.9 368.3 960.9L376 959.8C376.4 959.7 376.8 960 376.8 960.4C376.9 960.8 376.6 961.2 376.2 961.2L368.4 962.3C368.5 962.3 368.5 962.3 368.4 962.3Z" fill="#868A91"/>
<path d="M368.4 968.099C368 968.099 367.7 967.799 367.7 967.499C367.6 967.099 367.9 966.699 368.3 966.699L376 965.599C376.4 965.499 376.8 965.799 376.8 966.199C376.9 966.599 376.6 966.999 376.2 966.999L368.4 968.099C368.5 968.099 368.5 968.099 368.4 968.099Z" fill="#868A91"/>
<g opacity="0.2">
<path opacity="0.2" d="M405.5 634.799L415.8 600.299C415.9 599.899 416.3 599.699 416.7 599.799C417.1 599.899 417.3 600.299 417.2 600.699L405.5 639.999V634.799Z" fill="black"/>
</g>
<g opacity="0.2">
<path opacity="0.2" d="M537.2 635.499L526.7 600.299C526.6 599.899 526.2 599.699 525.8 599.799C525.4 599.899 525.2 600.299 525.3 600.699L537 639.999L537.2 635.499Z" fill="black"/>
</g>
<g opacity="0.2">
<path opacity="0.2" d="M477.3 777.2C477.1 777.2 477 777.1 476.8 777C476.5 776.7 476.5 776.3 476.7 776L490 760.5C490.3 760.2 490.7 760.2 491 760.4C491.3 760.7 491.3 761.1 491.1 761.4L477.8 776.9C477.8 777.1 477.6 777.2 477.3 777.2Z" fill="black"/>
</g>
<path opacity="0.2" d="M567 483.3L571.5 477.7L566 462.2L562.9 481.6C562.7 483.5 565.8 484.8 567 483.3Z" fill="black"/>
<path opacity="0.2" d="M572.2 535.099C574.5 533.599 575.7 531.499 577.7 528.099L581.7 521.9V463.5L572.2 535.099Z" fill="black"/>
<path d="M465.8 407.4L490.9 385.4L487.2 335.6H445.6L442.5 385.8L465.8 407.4Z" fill="#FC9D9D"/>
<path d="M492.8 318.1C492.8 318.1 498 375.1 466.7 375.5C436.1 375.9 438.6 318.8 438.6 318.8L438.7 302.4L478.3 297.8L487.9 303.5L492.8 318.1Z" fill="#FC9D9D"/>
<path d="M486.2 304.899C486.2 304.899 496.5 298.899 500.5 310.399C503.9 320.099 496.6 330.099 496.6 330.099L490.9 329.199C488.5 328.999 486.9 327.799 486.8 325.399L486.2 304.899Z" fill="#21252B"/>
<path d="M493.7 298.5C493.9 309.3 484.5 311.6 480.8 311.7L449.8 312.5C447.3 312.6 445.3 314.6 445.3 317.1V326.9C445.3 328.2 444.3 329.4 442.9 329.5L441 329.6L438.7 332.1C426.8 328.5 423.8 293.9 446.4 288.3C448.8 287.7 451 286.1 452.2 283.9C455.8 277.4 469.2 276.4 475.4 284.3C476.7 286 478.4 286.8 480.5 286.9C488.7 287.2 493.6 292.6 493.7 298.5Z" fill="#21252B"/>
<path d="M440.8 333C440.6 329 436 326.7 432.8 329L432.7 329.1C427.1 333.4 429.7 348 441.4 347.4L440.8 333Z" fill="#FC9D9D"/>
<path d="M499.4 328.8L499.3 328.7C496 326.4 491.5 328.8 491.4 332.8L491.2 346.6C503 346.9 505 332.9 499.4 328.8Z" fill="#FC9D9D"/>
<path d="M442.2 334.9C442.2 335.6 441.6 336.2 440.8 336.2C440 336.2 439.4 335.7 439.3 335.1L438.5 325.8L442.3 326.2L442.2 334.9Z" fill="#21252B"/>
<path d="M493.8 334.1C493.8 334.8 493.2 335.4 492.4 335.4C491.6 335.4 491 334.899 490.9 334.299L490.1 325L493.9 325.4L493.8 334.1Z" fill="#21252B"/>
<path d="M480.8 313.1C479.9 313.1 479.3 313 479.2 313C478.8 313 478.6 312.6 478.6 312.3C478.6 311.9 479 311.7 479.3 311.7C479.4 311.7 485.5 312.4 488.4 308.4C488.6 308.1 489 308 489.3 308.3C489.6 308.5 489.7 308.9 489.4 309.2C487.2 312.5 483.1 313.1 480.8 313.1Z" fill="#FC9D9D"/>
<path d="M456.1 341.9C457.591 341.9 458.8 340.691 458.8 339.2C458.8 337.708 457.591 336.5 456.1 336.5C454.609 336.5 453.4 337.708 453.4 339.2C453.4 340.691 454.609 341.9 456.1 341.9Z" fill="#21252B"/>
<path d="M454.8 339.499C455.131 339.499 455.4 339.231 455.4 338.899C455.4 338.568 455.131 338.299 454.8 338.299C454.469 338.299 454.2 338.568 454.2 338.899C454.2 339.231 454.469 339.499 454.8 339.499Z" fill="white"/>
<path d="M477 341.6C478.491 341.6 479.7 340.391 479.7 338.9C479.7 337.409 478.491 336.2 477 336.2C475.509 336.2 474.3 337.409 474.3 338.9C474.3 340.391 475.509 341.6 477 341.6Z" fill="#21252B"/>
<path d="M475.7 339.2C476.031 339.2 476.3 338.931 476.3 338.6C476.3 338.268 476.031 338 475.7 338C475.369 338 475.1 338.268 475.1 338.6C475.1 338.931 475.369 339.2 475.7 339.2Z" fill="white"/>
<g opacity="0.3">
<path opacity="0.3" d="M467.1 352.7H469.3C469.7 352.7 470.1 352.3 470.1 351.9C470.1 351.5 469.7 351.1 469.3 351.1H467.1C466.2 351.1 465.5 350.4 465.5 349.5C465.5 348.6 466.2 347.8 467.1 347.8C467.5 347.8 467.9 347.4 467.9 347C467.9 346.6 467.5 346.2 467.1 346.2C465.3 346.2 463.9 347.7 463.9 349.4C463.9 351.3 465.3 352.8 467.1 352.7Z" fill="black"/>
</g>
<path d="M485 332.1H473.2H471.6H461.3H461.2H447.9C445.7 332.1 444 333.8 444 336V339C444 344.8 448.7 349.6 454.6 349.6C460.4 349.6 465.2 344.9 465.2 339V336C465.2 335.1 464.9 334.3 464.4 333.6H468.5C468 334.3 467.7 335.1 467.7 335.9V338.9C467.7 344.7 472.4 349.5 478.3 349.5C484.1 349.5 488.9 344.8 488.9 338.9V335.9C488.9 333.9 487.2 332.1 485 332.1ZM463.6 336V339C463.6 344 459.5 348 454.5 348C449.5 348 445.5 343.9 445.5 338.9V335.9C445.5 334.6 446.6 333.6 447.9 333.6H461.2H461.3C462.6 333.6 463.7 334.7 463.6 336ZM487.3 339C487.3 344 483.2 348 478.2 348C473.2 348 469.2 343.9 469.2 338.9V335.9C469.2 334.6 470.3 333.6 471.6 333.6H473.2H485C486.3 333.6 487.3 334.7 487.3 336V339Z" fill="#21252B"/>
<path d="M460.2 356.599L473.5 356.399C473.8 356.399 474.1 356.699 474 357.099C471.7 363.799 462.4 363.999 459.8 357.399V357.299C459.6 356.999 459.9 356.599 460.2 356.599Z" fill="white"/>
<g opacity="0.3">
<path opacity="0.3" d="M437.4 340.299C437 340.299 436.6 339.999 436.6 339.599L436.5 337.899C436.4 336.099 436 334.9 435.2 334.2C434.6 333.7 434 333.7 433.9 333.7C433.5 333.7 433.1 333.399 433.1 332.999C433.1 332.599 433.4 332.199 433.8 332.099C433.9 332.099 435.1 331.999 436.2 332.899C437.3 333.799 437.9 335.5 438 337.7L438.1 339.399C438.2 339.899 437.9 340.199 437.4 340.299C437.5 340.299 437.5 340.299 437.4 340.299Z" fill="black"/>
</g>
<g opacity="0.3">
<path opacity="0.3" d="M495.1 339.5C495.5 339.5 495.9 339.2 495.9 338.8L496 337.1C496 335.3 496.4 334 497.1 333.4C497.7 332.8 498.3 332.9 498.3 332.9C498.7 332.9 499.1 332.6 499.1 332.2C499.1 331.8 498.8 331.4 498.4 331.4C498.3 331.4 497.1 331.3 496 332.3C494.9 333.3 494.3 334.9 494.3 337.2L494.2 338.9C494.3 339.1 494.6 339.4 495.1 339.5Z" fill="black"/>
</g>
<path opacity="0.15" d="M488.8 357.1L488.9 356.8C485.5 366.5 479.1 374.3 468.9 375.4H469C468.3 375.5 467.5 375.5 466.8 375.5C458.6 375.6 452.1 371.4 447.5 363.1C447.3 362.8 446.9 362.6 446.5 362.8C446.2 363 446 363.4 446.2 363.8C451.1 372.6 458 377 466.8 376.9C468.7 376.9 470.5 376.6 472.2 376.2C477.6 377.3 483.8 376.3 489.9 372.4L488.8 357.1Z" fill="black"/>
<path opacity="0.8" d="M327.4 945.3L371 1025.8C371.9 1027.6 374 1028.3 375.9 1027.6C376.3 1027.5 376.7 1027.3 377 1027.1L329.1 937.1C326.6 939.1 325.9 942.5 327.4 945.3Z" fill="black"/>
<path opacity="0.8" d="M400.3 1027.9H437.5C440.4 1027.9 442.5 1025.2 441.9 1022.4H395.9C395.3 1025.2 397.4 1027.9 400.3 1027.9Z" fill="black"/>
<path d="M496.5 505L493.4 504L493.5 503.5L496.2 504.4L498.1 501.2L498.6 501.5L496.5 505Z" fill="#242830"/>
<path d="M1243.2 693.9H1187.3V811.9H1243.2V693.9Z" fill="#DADDDF"/>
<path d="M1221.2 693.9H1245.1V705.3H1243.2V811.9H1224.8V705.3H1221.2V693.9Z" fill="#B2B6BB"/>
<path d="M1220.6 693.9H1187.3V705.3H1220.6V693.9Z" fill="#DADDDF"/>
<path d="M1231.3 705.3H1187.3V706.8H1231.3V705.3Z" fill="#B2B6BB"/>
<path d="M1265 605.5H1255.3H1033V615.1H1255.3V811.9H1033V821.5H1255.3V1027.9H1265V605.5Z" fill="white"/>
<path d="M896.8 278.8C896.8 252.1 917 230.1 943 227.2V226.9H948.7C977.4 226.9 1000.6 250.1 1000.6 278.8C1000.6 307.5 977.4 330.7 948.7 330.7H943V330.4C917 327.5 896.8 305.5 896.8 278.8Z" fill="#B2B6BB"/>
<path d="M943 330.7C971.664 330.7 994.9 307.463 994.9 278.8C994.9 250.136 971.664 226.9 943 226.9C914.336 226.9 891.1 250.136 891.1 278.8C891.1 307.463 914.336 330.7 943 330.7Z" fill="#868A91"/>
<path d="M943 325C968.516 325 989.2 304.316 989.2 278.8C989.2 253.285 968.516 232.6 943 232.6C917.485 232.6 896.8 253.285 896.8 278.8C896.8 304.316 917.485 325 943 325Z" fill="white"/>
<path d="M943 325C968.516 325 989.2 304.316 989.2 278.8C989.2 253.285 968.516 232.6 943 232.6C917.485 232.6 896.8 253.285 896.8 278.8C896.8 304.316 917.485 325 943 325Z" fill="#868A91"/>
<path opacity="0.9" d="M943 325C968.516 325 989.2 304.316 989.2 278.8C989.2 253.285 968.516 232.6 943 232.6C917.485 232.6 896.8 253.285 896.8 278.8C896.8 304.316 917.485 325 943 325Z" fill="white"/>
<path d="M943 232.6C943.8 232.6 944.7 232.6 945.5 232.7C921.1 234 901.8 254.1 901.8 278.8C901.8 303.5 921.2 323.6 945.5 324.9C944.7 324.9 943.9 325 943 325C917.5 325 896.8 304.3 896.8 278.8C896.8 253.3 917.5 232.6 943 232.6Z" fill="#B2B6BB"/>
<path d="M942.5 282.4L957.8 251.9C958.4 250.7 957.9 249.3 956.7 248.7C955.5 248.1 954.1 248.6 953.5 249.8L940.4 276L922.8 267.4C921.6 266.8 920.2 267.3 919.6 268.5C919 269.7 919.5 271.1 920.7 271.7L942.5 282.4Z" class="change-color-in-svg" fill="#4D61FC"/>
<path opacity="0.5" d="M903.4 302.6C899.2 295.6 896.8 287.5 896.8 278.8C896.8 253.3 917.5 232.6 943 232.6C944.3 232.6 945.5 232.7 946.8 232.8L903.4 302.6Z" fill="white"/>
<path opacity="0.5" d="M953.7 233.9C955.9 234.4 958.1 235.1 960.2 236L912.4 313.5C910.5 311.9 908.8 310 907.2 308.1L953.7 233.9Z" fill="white"/>
<path d="M1188.7 1028.6H605.7C597.8 1028.6 591.5 1022.2 591.5 1014.4V431.4C591.5 423.5 597.9 417.2 605.7 417.2H1188.7C1196.6 417.2 1202.9 423.6 1202.9 431.4V1014.4C1202.9 1022.3 1196.6 1028.6 1188.7 1028.6Z" class="change-color-in-svg" fill="#4D61FC"/>
<path opacity="0.5" d="M1188.7 1028.6H605.7C597.8 1028.6 591.5 1022.2 591.5 1014.4V431.4C591.5 423.5 597.9 417.2 605.7 417.2H1188.7C1196.6 417.2 1202.9 423.6 1202.9 431.4V1014.4C1202.9 1022.3 1196.6 1028.6 1188.7 1028.6Z" fill="white"/>
<path d="M1178.9 1028.6H595.9C588 1028.6 581.7 1022.2 581.7 1014.4V431.4C581.7 423.5 588.1 417.2 595.9 417.2H1178.9C1186.8 417.2 1193.1 423.6 1193.1 431.4V1014.4C1193.1 1022.3 1186.8 1028.6 1178.9 1028.6Z" class="change-color-in-svg" fill="#4D61FC"/>
<path opacity="0.7" d="M1178.9 1028.6H595.9C588 1028.6 581.7 1022.2 581.7 1014.4V431.4C581.7 423.5 588.1 417.2 595.9 417.2H1178.9C1186.8 417.2 1193.1 423.6 1193.1 431.4V1014.4C1193.1 1022.3 1186.8 1028.6 1178.9 1028.6Z" fill="white"/>
<path d="M614.9 412.3C614.9 415 617.1 417.1 619.7 417.1H626.3L627.9 433.1C628 434.3 629.1 435.3 630.3 435.3C631.6 435.3 632.6 434.3 632.7 433L633.7 417.7C633.7 417.5 633.9 417.3 634.2 417.3C634.4 417.3 634.6 417.5 634.7 417.7L635.7 432.8C635.8 434.2 636.9 435.3 638.3 435.3C639.7 435.3 640.9 434.2 640.9 432.7L641.4 417.4L640.9 432.3C640.8 433.9 642.2 435.3 643.8 435.3C645.3 435.3 646.5 434.2 646.7 432.7L648.1 417.5L647.1 428.8C647 430.2 648.1 431.5 649.5 431.5C650.7 431.5 651.7 430.7 651.9 429.5L653.8 419.9C654.3 417.4 653.4 414.8 651.5 413.2C643.8 406.5 632.8 405.2 623.8 410.1L615.3 411.8C615.1 411.7 614.9 412 614.9 412.3Z" fill="#FC9D9D"/>
<g opacity="0.15">
<path opacity="0.15" d="M640.782 417.423L640.313 431.514L641.712 431.561L642.181 417.469L640.782 417.423Z" fill="black"/>
</g>
<g opacity="0.15">
<path opacity="0.15" d="M647.286 418.308L646.34 429.669L647.735 429.786L648.681 418.424L647.286 418.308Z" fill="black"/>
</g>
<path opacity="0.2" d="M626.3 417.2H619.7L623.7 413.4C624.5 412.6 625.9 413.1 626 414.3L626.3 417.2Z" fill="black"/>
<path d="M863.5 693.8H666.8C662.6 693.8 659.3 690.4 659.3 686.3V489.6C659.3 485.4 662.7 482.1 666.8 482.1H863.5C867.7 482.1 871 485.5 871 489.6V686.3C871 690.5 867.7 693.8 863.5 693.8Z" class="change-color-in-svg" fill="#4D61FC"/>
<path opacity="0.5" d="M863.5 693.8H666.8C662.6 693.8 659.3 690.4 659.3 686.3V489.6C659.3 485.4 662.7 482.1 666.8 482.1H863.5C867.7 482.1 871 485.5 871 489.6V686.3C871 690.5 867.7 693.8 863.5 693.8Z" fill="white"/>
<path d="M853.7 693.8H657C652.8 693.8 649.5 690.4 649.5 686.3V489.6C649.5 485.4 652.9 482.1 657 482.1H853.7C857.9 482.1 861.2 485.5 861.2 489.6V686.3C861.3 690.5 857.9 693.8 853.7 693.8Z" fill="white"/>
<path d="M801.7 626.9H709.1C705.8 626.9 703.2 624.2 703.2 621C703.2 617.7 705.9 615.1 709.1 615.1H801.7C805 615.1 807.6 617.8 807.6 621C807.6 624.3 805 626.9 801.7 626.9Z" fill="#61656D"/>
<path d="M825.8 650H685C683.3 650 681.9 648.6 681.9 646.9C681.9 645.2 683.3 643.8 685 643.8H825.8C827.5 643.8 828.9 645.2 828.9 646.9C829 648.6 827.5 650 825.8 650Z" fill="#B2B6BB"/>
<path d="M797.4 669.2H713.5C711.8 669.2 710.4 667.799 710.4 666.099C710.4 664.399 711.8 663 713.5 663H797.4C799.1 663 800.5 664.399 800.5 666.099C800.5 667.799 799.1 669.2 797.4 669.2Z" fill="#B2B6BB"/>
<path d="M763.4 506.7H755.4V507.5C736.8 511.2 722.7 527.7 722.7 547.4C722.7 567.1 736.7 583.6 755.4 587.3V588.1H763.4C785.9 588.1 804.1 569.9 804.1 547.4C804.1 524.9 785.9 506.7 763.4 506.7Z" class="change-color-in-svg" fill="#4D61FC"/>
<path d="M755.4 588C777.878 588 796.1 569.778 796.1 547.3C796.1 524.822 777.878 506.6 755.4 506.6C732.922 506.6 714.7 524.822 714.7 547.3C714.7 569.778 732.922 588 755.4 588Z" class="change-color-in-svg" fill="#4D61FC"/>
<path opacity="0.4" d="M755.4 588C777.878 588 796.1 569.778 796.1 547.3C796.1 524.822 777.878 506.6 755.4 506.6C732.922 506.6 714.7 524.822 714.7 547.3C714.7 569.778 732.922 588 755.4 588Z" fill="white"/>
<path d="M747.8 564.299L734.1 550.599C733.4 549.899 733.4 548.699 734.1 547.899L737.7 544.299C738.4 543.599 739.6 543.599 740.4 544.299L749.2 553.099L770.4 531.799C771.1 531.099 772.3 531.099 773.1 531.799L776.7 535.399C777.4 536.099 777.4 537.299 776.7 538.099L750.5 564.299C749.8 565.099 748.6 565.099 747.8 564.299Z" fill="white"/>
<path d="M1127.5 693.8H930.8C926.6 693.8 923.3 690.4 923.3 686.3V489.6C923.3 485.4 926.7 482.1 930.8 482.1H1127.5C1131.7 482.1 1135 485.5 1135 489.6V686.3C1135.1 690.5 1131.7 693.8 1127.5 693.8Z" class="change-color-in-svg" fill="#4D61FC"/>
<path opacity="0.5" d="M1127.5 693.8H930.8C926.6 693.8 923.3 690.4 923.3 686.3V489.6C923.3 485.4 926.7 482.1 930.8 482.1H1127.5C1131.7 482.1 1135 485.5 1135 489.6V686.3C1135.1 690.5 1131.7 693.8 1127.5 693.8Z" fill="white"/>
<path d="M1117.7 693.8H921.1C916.9 693.8 913.6 690.4 913.6 686.3V489.6C913.6 485.4 917 482.1 921.1 482.1H1117.8C1122 482.1 1125.3 485.5 1125.3 489.6V686.3C1125.3 690.5 1121.9 693.8 1117.7 693.8Z" fill="white"/>
<path d="M1065.7 626.9H973.1C969.8 626.9 967.2 624.2 967.2 621C967.2 617.7 969.9 615.1 973.1 615.1H1065.7C1069 615.1 1071.6 617.8 1071.6 621C1071.7 624.3 1069 626.9 1065.7 626.9Z" fill="#61656D"/>
<path d="M1089.8 650H949C947.3 650 945.9 648.6 945.9 646.9C945.9 645.2 947.3 643.8 949 643.8H1089.8C1091.5 643.8 1092.9 645.2 1092.9 646.9C1093 648.6 1091.6 650 1089.8 650Z" fill="#B2B6BB"/>
<path d="M1061.4 669.2H977.5C975.8 669.2 974.4 667.799 974.4 666.099C974.4 664.399 975.8 663 977.5 663H1061.4C1063.1 663 1064.5 664.399 1064.5 666.099C1064.5 667.799 1063.1 669.2 1061.4 669.2Z" fill="#B2B6BB"/>
<path d="M1027.4 506.7H1019.4V507.5C1000.8 511.2 986.7 527.7 986.7 547.4C986.7 567.1 1000.7 583.6 1019.4 587.3V588.1H1027.4C1049.9 588.1 1068.1 569.9 1068.1 547.4C1068.1 524.9 1049.9 506.7 1027.4 506.7Z" class="change-color-in-svg" fill="#4D61FC"/>
<path d="M1059.6 553.817C1063.2 531.629 1048.13 510.723 1025.94 507.122C1003.76 503.521 982.851 518.589 979.25 540.777C975.649 562.965 990.717 583.871 1012.9 587.472C1035.09 591.073 1056 576.005 1059.6 553.817Z" class="change-color-in-svg" fill="#4D61FC"/>
<path opacity="0.4" d="M1059.6 553.817C1063.2 531.629 1048.13 510.723 1025.94 507.122C1003.76 503.521 982.851 518.589 979.25 540.777C975.649 562.965 990.717 583.871 1012.9 587.472C1035.09 591.073 1056 576.005 1059.6 553.817Z" fill="white"/>
<path d="M1011.9 564.3L998.2 550.6C997.5 549.9 997.5 548.7 998.2 547.9L1001.8 544.3C1002.5 543.6 1003.7 543.6 1004.5 544.3L1013.3 553.1L1034.5 531.8C1035.2 531.1 1036.4 531.1 1037.2 531.8L1040.8 535.4C1041.5 536.1 1041.5 537.3 1040.8 538.1L1014.6 564.3C1013.8 565.1 1012.6 565.1 1011.9 564.3Z" fill="white"/>
<path d="M863.5 971.6H666.8C662.6 971.6 659.3 968.2 659.3 964.1V767.4C659.3 763.2 662.7 759.9 666.8 759.9H863.5C867.7 759.9 871 763.3 871 767.4V964.1C871 968.2 867.7 971.6 863.5 971.6Z" class="change-color-in-svg" fill="#4D61FC"/>
<path opacity="0.5" d="M863.5 971.6H666.8C662.6 971.6 659.3 968.2 659.3 964.1V767.4C659.3 763.2 662.7 759.9 666.8 759.9H863.5C867.7 759.9 871 763.3 871 767.4V964.1C871 968.2 867.7 971.6 863.5 971.6Z" fill="white"/>
<path d="M853.7 971.6H657C652.8 971.6 649.5 968.2 649.5 964.1V767.4C649.5 763.2 652.9 759.9 657 759.9H853.7C857.9 759.9 861.2 763.3 861.2 767.4V964.1C861.3 968.2 857.9 971.6 853.7 971.6Z" fill="white"/>
<path d="M801.7 904.7H709.1C705.8 904.7 703.2 902 703.2 898.8C703.2 895.5 705.9 892.9 709.1 892.9H801.7C805 892.9 807.6 895.6 807.6 898.8C807.6 902.1 805 904.7 801.7 904.7Z" fill="#61656D"/>
<path d="M825.8 927.8H685C683.3 927.8 681.9 926.4 681.9 924.7C681.9 923 683.3 921.6 685 921.6H825.8C827.5 921.6 828.9 923 828.9 924.7C829 926.4 827.5 927.8 825.8 927.8Z" fill="#B2B6BB"/>
<path d="M797.4 947H713.5C711.8 947 710.4 945.6 710.4 943.9C710.4 942.2 711.8 940.8 713.5 940.8H797.4C799.1 940.8 800.5 942.2 800.5 943.9C800.5 945.6 799.1 947 797.4 947Z" fill="#B2B6BB"/>
<path d="M763.4 784.5H755.4V785.3C736.8 789 722.7 805.5 722.7 825.2C722.7 844.9 736.7 861.4 755.4 865.1V865.9H763.4C785.9 865.9 804.1 847.7 804.1 825.2C804.1 802.7 785.9 784.5 763.4 784.5Z" class="change-color-in-svg" fill="#4D61FC"/>
<path d="M755.4 865.8C777.878 865.8 796.1 847.578 796.1 825.1C796.1 802.622 777.878 784.4 755.4 784.4C732.922 784.4 714.7 802.622 714.7 825.1C714.7 847.578 732.922 865.8 755.4 865.8Z" class="change-color-in-svg" fill="#4D61FC"/>
<path opacity="0.4" d="M755.4 865.8C777.878 865.8 796.1 847.578 796.1 825.1C796.1 802.622 777.878 784.4 755.4 784.4C732.922 784.4 714.7 802.622 714.7 825.1C714.7 847.578 732.922 865.8 755.4 865.8Z" fill="white"/>
<path d="M747.8 842.1L734.1 828.4C733.4 827.7 733.4 826.5 734.1 825.7L737.7 822.1C738.4 821.4 739.6 821.4 740.4 822.1L749.2 830.9L770.4 809.6C771.1 808.9 772.3 808.9 773.1 809.6L776.7 813.2C777.4 813.9 777.4 815.1 776.7 815.9L750.5 842.1C749.8 842.9 748.6 842.9 747.8 842.1Z" fill="white"/>
<path d="M1127.5 971.6H930.8C926.6 971.6 923.3 968.2 923.3 964.1V767.4C923.3 763.2 926.7 759.9 930.8 759.9H1127.5C1131.7 759.9 1135 763.3 1135 767.4V964.1C1135.1 968.2 1131.7 971.6 1127.5 971.6Z" class="change-color-in-svg" fill="#4D61FC"/>
<path opacity="0.5" d="M1127.5 971.6H930.8C926.6 971.6 923.3 968.2 923.3 964.1V767.4C923.3 763.2 926.7 759.9 930.8 759.9H1127.5C1131.7 759.9 1135 763.3 1135 767.4V964.1C1135.1 968.2 1131.7 971.6 1127.5 971.6Z" fill="white"/>
<path d="M1117.7 971.6H921.1C916.9 971.6 913.6 968.2 913.6 964.1V767.4C913.6 763.2 917 759.9 921.1 759.9H1117.8C1122 759.9 1125.3 763.3 1125.3 767.4V964.1C1125.3 968.2 1121.9 971.6 1117.7 971.6Z" fill="white"/>
<path d="M1065.7 904.7H973.1C969.8 904.7 967.2 902 967.2 898.8C967.2 895.5 969.9 892.9 973.1 892.9H1065.7C1069 892.9 1071.6 895.6 1071.6 898.8C1071.7 902.1 1069 904.7 1065.7 904.7Z" fill="#61656D"/>
<path d="M1089.8 927.8H949C947.3 927.8 945.9 926.4 945.9 924.7C945.9 923 947.3 921.6 949 921.6H1089.8C1091.5 921.6 1092.9 923 1092.9 924.7C1093 926.4 1091.6 927.8 1089.8 927.8Z" fill="#B2B6BB"/>
<path d="M1061.4 947H977.5C975.8 947 974.4 945.6 974.4 943.9C974.4 942.2 975.8 940.8 977.5 940.8H1061.4C1063.1 940.8 1064.5 942.2 1064.5 943.9C1064.5 945.6 1063.1 947 1061.4 947Z" fill="#B2B6BB"/>
<path d="M1027.4 784.5H1019.4V785.3C1000.8 789 986.7 805.5 986.7 825.2C986.7 844.9 1000.7 861.4 1019.4 865.1V865.9H1027.4C1049.9 865.9 1068.1 847.7 1068.1 825.2C1068.1 802.7 1049.9 784.5 1027.4 784.5Z" class="change-color-in-svg" fill="#4D61FC"/>
<path d="M1059.6 831.622C1063.2 809.434 1048.14 788.528 1025.95 784.927C1003.76 781.326 982.854 796.394 979.253 818.582C975.652 840.77 990.72 861.676 1012.91 865.277C1035.1 868.878 1056 853.81 1059.6 831.622Z" class="change-color-in-svg" fill="#4D61FC"/>
<path opacity="0.4" d="M1059.6 831.622C1063.2 809.434 1048.14 788.528 1025.95 784.927C1003.76 781.326 982.854 796.394 979.253 818.582C975.652 840.77 990.72 861.676 1012.91 865.277C1035.1 868.878 1056 853.81 1059.6 831.622Z" fill="white"/>
<path d="M1011.9 842.1L998.2 828.4C997.5 827.7 997.5 826.5 998.2 825.7L1001.8 822.1C1002.5 821.4 1003.7 821.4 1004.5 822.1L1013.3 830.9L1034.5 809.6C1035.2 808.9 1036.4 808.9 1037.2 809.6L1040.8 813.2C1041.5 813.9 1041.5 815.1 1040.8 815.9L1014.6 842.1C1013.8 842.9 1012.6 842.9 1011.9 842.1Z" fill="white"/>
<path d="M981.8 1010.9C974.4 1010.9 968.4 1016.9 968.4 1024.3C968.4 1025.9 969.7 1027.2 971.3 1027.2H992.8C995.2 1027.2 997.4 1025.8 998.4 1023.5L1026.4 960.7L995 924.4C995.5 926.1 981.8 1010.9 981.8 1010.9Z" fill="#3F4249"/>
<path d="M1136.9 959.2H1083.7L1105.1 979.7C1108.2 982.7 1109.6 987 1108.8 991.3L1105 1010.9C1097.9 1010.9 1092.2 1016.6 1092.2 1023.7V1024.3C1092.2 1025.9 1093.5 1027.2 1095.1 1027.2H1114.6C1116.9 1027.2 1119.1 1025.9 1120.1 1023.8L1138.4 986.7C1140.8 981.8 1141.4 976.1 1140 970.8L1136.9 959.2Z" fill="#3F4249"/>
<path d="M1165.8 917.2C1177 913.8 1197.8 901.8 1207.4 889.5C1208.1 888.5 1208.1 887.2 1207.4 886.2C1206.6 885.2 1205.2 885 1204.1 885.6C1119.7 933.2 1033.1 876.8 1033.1 876.8C1031.9 870.1 1027.8 864.4 1021.9 861C1010.1 854.3 995.6 854.3 983.7 860.9C979.6 863.2 974.7 863.7 970.2 862.1L957 857.4C954.7 856.6 952.2 858.1 952 860.6L951.6 864.5C950.3 876.1 954.4 887.7 962.6 896L1019.2 953.4C1025.6 959.9 1028.5 969 1027.2 978L1022.2 1011C1014.8 1011 1008.8 1017 1008.8 1024.4C1008.8 1026 1010.1 1027.3 1011.7 1027.3H1033.2C1035.6 1027.3 1037.8 1025.9 1038.8 1023.6L1067.3 959.3H1123.8L1145.2 979.8C1148.3 982.8 1149.7 987.1 1148.9 991.4L1145.1 1011C1138 1011 1132.3 1016.7 1132.3 1023.8C1132.3 1025.8 1133.9 1027.3 1135.8 1027.3H1154.6C1156.9 1027.3 1159.1 1026 1160.1 1023.9L1178.4 986.8C1180.8 981.9 1181.4 976.2 1180 970.9L1165.8 917.2Z" fill="#868A91"/>
<path d="M995.882 869.589C997.405 868.066 997.785 865.976 996.731 864.922C995.676 863.868 993.587 864.248 992.064 865.771C990.541 867.294 990.161 869.383 991.215 870.437C992.27 871.492 994.359 871.112 995.882 869.589Z" fill="#3F4249"/>
<path d="M1153.2 945C1153.2 956.4 1162.4 965.6 1173.8 965.6C1175.3 965.6 1176.8 965.4 1178.3 965.1L1168 925.3C1159.4 927.7 1153.2 935.6 1153.2 945Z" fill="#3F4249"/>
<path d="M1063.4 967.5L1059.7 966C1054.7 964 1049.1 965.2 1045.3 969C1042.2 972.2 1040.9 976.7 1041.8 981.1L1042.5 984.1C1043 986.5 1042.9 989 1042.1 991.4L1041.8 992.2C1039.8 998 1040.9 1004.4 1044.9 1009.2L1063.4 967.5Z" fill="#3F4249"/>
<path d="M1038.4 880.1L1042 902.2C1044 914.6 1055.1 922.7 1066.3 920L1076.7 917.5C1079 916.9 1081.5 916.9 1083.8 917.3L1106.1 921.6C1117 923.7 1127.9 918.3 1133.7 908L1135.5 904.8C1090.1 906.1 1052.1 887.7 1038.4 880.1Z" fill="#3F4249"/>
<path d="M1179.6 896.7C1181.7 898.3 1184.3 899.2 1187.2 899.2C1193.7 899.2 1199.1 894.3 1199.8 888C1193 891.5 1186.3 894.4 1179.6 896.7Z" fill="#3F4249"/>
<path d="M980.2 887.4C977.2 883.3 976 878.2 976.6 873.2L978 863C975.4 863.4 972.7 863.2 970.2 862.3L957 857.6C954.7 856.8 952.2 858.3 952 860.8L951.6 864.7C950.3 876.3 954.4 887.9 962.6 896.2L979.2 913L981.6 908.6C985.2 901.8 984.7 893.6 980.2 887.4Z" fill="#B2B6BB"/>
<path d="M1030.4 880.7L1040.7 906.6C1043.3 912.7 1040.8 920.8 1035.3 924.4C1028.8 928.7 1020 929 1011.4 920.7C999.7 909.5 1004.6 884.6 1010.6 875.1" fill="#3F4249"/>
<path d="M1123.5 959.3L1112.2 947L1121.7 967.7L1123.5 959.3Z" fill="#3F4249"/>
<path d="M965 860.4L957.1 857.6C954.7 856.7 952.1 858.4 951.8 860.9L951.2 866.5C952.2 866.7 953.2 866.9 954.2 866.9C958.9 866.8 963 864.2 965 860.4Z" fill="#3F4249"/>
<path d="M1029.4 878.2L1040.2 905C1041.8 908.9 1040.4 913.4 1036.8 915.6C1031.5 918.9 1022.9 921.2 1013.6 912.3C1003.7 902.8 1005.1 882.6 1011.5 873.5" fill="#868A91"/>
<path d="M1027.2 919.2C1023 919.2 1018.2 917.5 1013.2 912.7C1008.5 908.2 1005.9 901.1 1005.8 892.6C1005.7 885.1 1007.7 877.6 1011 872.9C1011.2 872.6 1011.6 872.5 1011.9 872.7C1012.2 872.9 1012.3 873.3 1012.1 873.6C1006.1 882 1004.3 902.1 1014.1 911.6C1023.1 920.2 1031.2 918.1 1036.5 914.8C1039.8 912.7 1041.1 908.7 1039.6 905.1L1028.8 878.3C1028.7 878 1028.8 877.6 1029.2 877.4C1029.5 877.3 1029.9 877.4 1030.1 877.8L1040.9 904.6C1042.7 908.8 1041.1 913.6 1037.3 916C1034.5 917.8 1031.1 919.2 1027.2 919.2Z" fill="#3F4249"/>
<path d="M1067 959.3C1067 959.3 1079 945.1 1112.2 946.9L1117.8 959.3H1067Z" fill="#B2B6BB"/>
<path d="M1165 913.8L1165.8 917.3C1165.8 917.3 1174.3 914.6 1181.9 910L1165 913.8Z" fill="#3F4249"/>
<path d="M963.2 880.4C960.5 880.4 958.2 879.6 956.4 878.1C950.7 873.3 951.6 862.8 951.6 862.3C951.6 861.9 952 861.7 952.3 861.7C952.7 861.7 952.9 862.1 952.9 862.4C952.9 862.5 952 872.7 957.2 877C959.7 879.1 963.2 879.5 967.7 878.3C968.1 878.2 968.4 878.4 968.5 878.8C968.6 879.2 968.4 879.5 968 879.6C966.4 880.2 964.7 880.4 963.2 880.4Z" fill="#3F4249"/>
<path d="M1325.1 605.5H1265V1027.9H1325.1V605.5Z" fill="#DADDDF"/>
<path d="M1377.2 1031H244.3C243.6 1031 243.1 1030.5 243.1 1029.8C243.1 1029.1 243.6 1028.6 244.3 1027.9H1377.1C1378.3 1028.1 1378.3 1029.1 1378.3 1029.8C1378.3 1030.4 1377.8 1031 1377.2 1031Z" fill="#DADDDF"/>
</svg>
