<svg width="1600" height="1200" viewBox="0 0 1600 1200" fill="none" xmlns="http://www.w3.org/2000/svg">
<path d="M1183.2 356.1C1183.2 356.1 1204.5 364 1227.2 354L1228.7 362.5C1228.7 362.5 1224.8 380.9 1208.5 384C1206.8 384.3 1205 384.3 1203.3 384C1198.4 383.1 1188.2 379.6 1183.1 366.2L1183.2 356.1Z" fill="#00BC7D"/>
<path d="M1190.5 362.199C1189.9 362.199 1189.5 362.599 1189.5 363.199C1189.5 363.799 1189.9 364.199 1190.5 364.199C1191.1 364.199 1191.5 363.799 1191.5 363.199C1191.5 362.599 1191 362.199 1190.5 362.199Z" fill="white"/>
<path d="M1203.9 370.3C1203.3 370.3 1202.9 370.7 1202.9 371.3C1202.9 371.9 1203.3 372.3 1203.9 372.3C1204.5 372.3 1204.9 371.9 1204.9 371.3C1204.9 370.7 1204.5 370.3 1203.9 370.3Z" fill="white"/>
<path d="M1213.1 361.8C1212.5 361.8 1212.1 362.2 1212.1 362.8C1212.1 363.4 1212.5 363.8 1213.1 363.8C1213.7 363.8 1214.1 363.4 1214.1 362.8C1214.1 362.2 1213.6 361.8 1213.1 361.8Z" fill="white"/>
<path d="M1191 372.699C1190.4 372.699 1190 373.099 1190 373.699C1190 374.299 1190.4 374.699 1191 374.699C1191.6 374.699 1192 374.299 1192 373.699C1192 373.099 1191.5 372.699 1191 372.699Z" fill="white"/>
<path d="M1216.6 375.1C1216 375.1 1215.6 375.5 1215.6 376.1C1215.6 376.7 1216 377.1 1216.6 377.1C1217.2 377.1 1217.6 376.7 1217.6 376.1C1217.6 375.5 1217.2 375.1 1216.6 375.1Z" fill="white"/>
<path d="M1224.9 364.5C1224.3 364.5 1223.9 364.9 1223.9 365.5C1223.9 366.1 1224.3 366.5 1224.9 366.5C1225.5 366.5 1225.9 366.1 1225.9 365.5C1225.9 364.9 1225.4 364.5 1224.9 364.5Z" fill="white"/>
<path d="M1226.3 354.8C1225.7 354.8 1225.3 355.2 1225.3 355.8C1225.3 356.4 1225.7 356.8 1226.3 356.8C1226.9 356.8 1227.3 356.4 1227.3 355.8C1227.3 355.2 1226.9 354.8 1226.3 354.8Z" fill="white"/>
<path d="M1206.2 383C1205.7 383 1205.2 383.3 1205.2 383.9C1205.2 384 1205.2 384 1205.2 384.1C1205.8 384.1 1206.5 384.1 1207.1 384.1C1207.2 383.6 1206.8 383.1 1206.3 383C1206.2 383 1206.2 383 1206.2 383Z" fill="white"/>
<path d="M1202.1 359C1201.9 359.5 1202.1 360.1 1202.6 360.3C1203.1 360.5 1203.7 360.3 1203.9 359.8C1204 359.6 1204 359.3 1203.9 359C1203.3 359 1202.7 359.1 1202.1 359Z" fill="white"/>
<path d="M1184.3 368.9L1177.3 357.5V357.4L1176.7 345.5C1176.7 345 1177 344.6 1177.4 344.5C1177.9 344.4 1178.3 344.6 1178.5 345L1184.3 357.4V368.9ZM1178.2 357.2L1183.3 365.4V357.5L1177.6 345.5L1178.2 357.2Z" fill="#00BC7D"/>
<path d="M1226.2 364.9L1224 356L1230 339.6L1231.6 355L1226.2 364.9ZM1225 356.1L1226.5 362.2L1230.5 354.9L1229.4 344.1L1225 356.1Z" fill="#00BC7D"/>
</svg>
