<svg class="gridItem__media" version="1.1" id="Layer_1" xmlns="http://www.w3.org/2000/svg" xmlns:xlink="http://www.w3.org/1999/xlink" x="0px" y="0px" width="1600" height="1200"	 viewBox="0 0 1600 1200" style="enable-background:new 0 0 1600 1200;" xml:space="preserve" fill="none">
<path d="M256.83 994.999L220.58 672.789C219.55 663.748 221.831 654.639 227 647.149L481.65 264.249C484.591 259.993 488.378 256.388 492.774 253.659C497.169 250.93 502.08 249.137 507.2 248.389L1081.2 205.939C1087.8 204.972 1094.53 205.774 1100.72 208.261C1106.9 210.749 1112.32 214.834 1116.41 220.099L1412.5 519.579C1418.45 527.221 1421.22 536.864 1420.24 546.499L1333.92 994.999H256.83Z" fill="#F4F4F4"/>
<path d="M378.73 885.219L378.87 885.399L384.5 892.999L384.64 893.189L384.85 893.089L389.91 890.849C391.445 892.054 393.124 893.061 394.91 893.849C395.06 895.739 395.2 897.619 395.34 899.359V899.589H395.56L405 900.999H405.22L405.3 900.789C405.99 899.009 406.67 897.249 407.3 895.619C409.255 895.374 411.172 894.891 413.01 894.179L417.22 897.769L417.38 897.909L417.55 897.779L425.11 892.139L425.28 892.019L425.19 891.829L422.94 886.749C424.147 885.187 425.154 883.481 425.94 881.669L431.48 881.229H431.66V881.049C432.13 877.779 432.58 874.659 433 871.719V871.549L432.84 871.489L427.62 869.489C427.373 867.504 426.876 865.559 426.14 863.699L429.76 859.429L429.84 859.339L429.77 859.239C427.45 856.179 425.54 853.639 424.09 851.709L424.04 851.649H423.98L420.13 853.409L419.13 853.869L418.79 854.049C418.705 853.954 418.611 853.867 418.51 853.789C418.31 853.639 418.01 853.399 417.6 853.099C416.348 852.21 415.007 851.453 413.6 850.839L413.2 845.199V845.099H413.1L403.77 843.699H403.64L403.59 843.829C402.96 845.439 402.29 847.149 401.59 849.029C399.608 849.259 397.665 849.746 395.81 850.479L391.58 846.839L391.44 846.719L391.3 846.829L383.72 852.449L383.57 852.559L383.65 852.739L385.89 857.819C384.681 859.377 383.673 861.08 382.89 862.889L377.35 863.309H377.14V863.529C376.686 866.556 376.23 869.666 375.77 872.859V873.079L375.98 873.159L381.14 875.159C381.383 877.111 381.866 879.026 382.58 880.859L378.98 885.069L378.73 885.219ZM412.25 865.889C412.19 865.889 412.77 866.619 413.37 868.099C414.19 870.197 414.289 872.509 413.65 874.669C413.184 876.254 412.329 877.696 411.162 878.865C409.995 880.034 408.553 880.891 406.97 881.359C406.062 881.634 405.118 881.769 404.17 881.759C403.18 881.769 402.194 881.624 401.25 881.329C399.25 880.716 397.498 879.48 396.25 877.802C395.002 876.124 394.322 874.091 394.31 871.999C394.293 871.01 394.432 870.025 394.72 869.079C394.989 868.172 395.39 867.31 395.91 866.519C396.878 865.043 398.22 863.849 399.8 863.059C401.18 862.381 402.701 862.039 404.24 862.059C406.491 862.066 408.676 862.822 410.45 864.209C411.69 865.179 412.19 865.939 412.25 865.889Z" fill="#B2B6BB"/>
<path d="M881.899 747.07L882.019 747.23L887.019 753.91L887.139 754.07L887.329 753.99L891.789 751.99C893.157 753.062 894.656 753.956 896.249 754.65C896.379 756.32 896.499 757.98 896.619 759.52V759.72H896.819L905.059 760.92H905.259L905.329 760.73C905.939 759.16 906.539 757.61 907.089 756.17C908.803 755.954 910.482 755.524 912.089 754.89L915.809 758.07L915.959 758.19L916.109 758.08L922.779 753.08L922.929 752.97L922.859 752.8C922.159 751.24 921.479 749.72 920.859 748.32C921.936 746.943 922.833 745.434 923.529 743.83L928.419 743.44H928.579V743.28C928.989 740.39 929.389 737.63 929.759 735.04V734.89L929.629 734.84L925.019 733.08C924.8 731.328 924.36 729.611 923.709 727.97L926.909 724.2L926.969 724.12L926.909 724.04L921.909 717.39V717.33H921.849L918.479 719L917.599 719.41L917.299 719.56L917.049 719.34C916.879 719.2 916.609 718.99 916.249 718.73C915.146 717.942 913.962 717.272 912.719 716.73C912.619 715.37 912.509 713.73 912.369 711.73V711.63H912.279L903.999 710.41H903.879V710.52C903.319 711.95 902.739 713.46 902.089 715.12C900.339 715.327 898.622 715.754 896.979 716.39L893.249 713.18L893.129 713.08L892.999 713.17L886.319 718.17L886.179 718.27L886.249 718.42C886.916 719.88 887.582 721.377 888.249 722.91C887.174 724.281 886.276 725.783 885.579 727.38L880.679 727.76H880.499V727.95C880.109 730.62 879.699 733.37 879.289 736.18V736.38L879.469 736.45L884.039 738.21C884.245 739.924 884.668 741.604 885.299 743.21L881.999 746.91L881.899 747.07ZM911.489 730C911.489 730 911.949 730.65 912.489 732C913.215 733.848 913.303 735.886 912.739 737.79C912.355 739.097 911.67 740.296 910.739 741.29C909.674 742.423 908.329 743.254 906.839 743.7C906.035 743.943 905.199 744.064 904.359 744.06C903.487 744.068 902.62 743.936 901.789 743.67C900.023 743.132 898.475 742.043 897.372 740.562C896.269 739.082 895.669 737.287 895.659 735.44C895.647 733.722 896.141 732.039 897.079 730.6C897.75 729.578 898.627 728.707 899.653 728.043C900.679 727.379 901.833 726.935 903.04 726.742C904.247 726.548 905.481 726.608 906.664 726.917C907.847 727.227 908.952 727.78 909.909 728.54C910.46 729 910.988 729.487 911.489 730ZM916.779 719.2L916.099 718.73L916.199 718.8L916.779 719.2Z" fill="#61656D"/>
<path opacity="0.5" d="M881.899 747.07L882.019 747.23L887.019 753.91L887.139 754.07L887.329 753.99L891.789 751.99C893.157 753.062 894.656 753.956 896.249 754.65C896.379 756.32 896.499 757.98 896.619 759.52V759.72H896.819L905.059 760.92H905.259L905.329 760.73C905.939 759.16 906.539 757.61 907.089 756.17C908.803 755.954 910.482 755.524 912.089 754.89L915.809 758.07L915.959 758.19L916.109 758.08L922.779 753.08L922.929 752.97L922.859 752.8C922.159 751.24 921.479 749.72 920.859 748.32C921.936 746.943 922.833 745.434 923.529 743.83L928.419 743.44H928.579V743.28C928.989 740.39 929.389 737.63 929.759 735.04V734.89L929.629 734.84L925.019 733.08C924.8 731.328 924.36 729.611 923.709 727.97L926.909 724.2L926.969 724.12L926.909 724.04L921.909 717.39V717.33H921.849L918.479 719L917.599 719.41L917.299 719.56L917.049 719.34C916.879 719.2 916.609 718.99 916.249 718.73C915.146 717.942 913.962 717.272 912.719 716.73C912.619 715.37 912.509 713.73 912.369 711.73V711.63H912.279L903.999 710.41H903.879V710.52C903.319 711.95 902.739 713.46 902.089 715.12C900.339 715.327 898.622 715.754 896.979 716.39L893.249 713.18L893.129 713.08L892.999 713.17L886.319 718.17L886.179 718.27L886.249 718.42C886.916 719.88 887.582 721.377 888.249 722.91C887.174 724.281 886.276 725.783 885.579 727.38L880.679 727.76H880.499V727.95C880.109 730.62 879.699 733.37 879.289 736.18V736.38L879.469 736.45L884.039 738.21C884.245 739.924 884.668 741.604 885.299 743.21L881.999 746.91L881.899 747.07ZM911.489 730C911.489 730 911.949 730.65 912.489 732C913.215 733.848 913.303 735.886 912.739 737.79C912.355 739.097 911.67 740.296 910.739 741.29C909.674 742.423 908.329 743.254 906.839 743.7C906.035 743.943 905.199 744.064 904.359 744.06C903.487 744.068 902.62 743.936 901.789 743.67C900.023 743.132 898.475 742.043 897.372 740.562C896.269 739.082 895.669 737.287 895.659 735.44C895.647 733.722 896.141 732.039 897.079 730.6C897.75 729.578 898.627 728.707 899.653 728.043C900.679 727.379 901.833 726.935 903.04 726.742C904.247 726.548 905.481 726.608 906.664 726.917C907.847 727.227 908.952 727.78 909.909 728.54C910.46 729 910.988 729.487 911.489 730ZM916.779 719.2L916.099 718.73L916.199 718.8L916.779 719.2Z" fill="white"/>
<path d="M874.77 680.84L874.93 681.04C877.01 683.853 879.127 686.697 881.28 689.57L881.43 689.78L881.67 689.68L887.37 687.15C889.117 688.515 891.028 689.654 893.06 690.54C893.22 692.68 893.39 694.79 893.54 696.76V697.02H893.8L904.32 698.55H904.58L904.67 698.31L906.91 692.48C909.114 692.21 911.274 691.662 913.34 690.85L918.09 694.91L918.27 695.07L918.47 694.92L926.99 688.56L927.18 688.42L927.08 688.21L924.54 682.49C925.907 680.725 927.049 678.797 927.94 676.75L934.19 676.25H934.4V676.05C934.93 672.35 935.4 668.83 935.91 665.52V665.33L935.73 665.27L929.85 663.02C929.571 660.781 929.006 658.586 928.17 656.49L932.26 651.68L932.35 651.57L932.27 651.47L925.87 642.98L925.81 642.91H925.74L921.4 644.91L920.29 645.43L919.91 645.62L919.59 645.34C919.36 645.16 919.03 644.89 918.59 644.55C917.178 643.549 915.666 642.695 914.08 642C913.96 640.27 913.81 638.19 913.63 635.65V635.54H913.52L903 634H902.85L902.79 634.14L900.54 640C898.309 640.255 896.121 640.8 894.03 641.62L889.26 637.52L889.11 637.39L888.94 637.51C886.24 639.51 883.41 641.62 880.4 643.84L880.23 643.97L880.32 644.17L882.84 649.9C881.468 651.652 880.323 653.571 879.43 655.61L873.19 656.09H872.95V656.33C872.45 659.75 871.934 663.257 871.4 666.85V667.09L871.63 667.18L877.45 669.43C877.693 671.643 878.214 673.817 879 675.9L874.94 680.64L874.77 680.84ZM912.56 659C912.49 659.05 913.15 659.83 913.82 661.5C914.755 663.861 914.867 666.467 914.14 668.9C913.657 670.566 912.787 672.094 911.6 673.36C910.238 674.813 908.511 675.877 906.6 676.44C904.497 677.073 902.254 677.073 900.15 676.44C897.896 675.749 895.921 674.356 894.514 672.463C893.107 670.571 892.342 668.278 892.33 665.92C892.304 663.726 892.934 661.573 894.14 659.74C895.155 658.179 896.546 656.897 898.185 656.013C899.824 655.129 901.658 654.671 903.52 654.68C906.06 654.683 908.525 655.538 910.52 657.11C911.93 658.24 912.5 659.09 912.56 659Z" fill="#B2B6BB"/>
<path d="M989.89 740.729C987.54 741.588 985.107 742.201 982.63 742.559L979.46 750.739L963 748.309L962.33 739.569C960.066 738.51 957.914 737.224 955.91 735.729L947.91 739.269L938 725.909L943.72 719.259C942.86 716.911 942.253 714.477 941.91 711.999L933.74 708.819L936.19 692.419L944.93 691.759C945.989 689.476 947.29 687.314 948.81 685.309L945.29 677.309L958.56 667.499L965.19 673.229C967.579 672.362 970.053 671.748 972.57 671.399L975.75 663.289L991.86 665.739L992.47 674.479C994.332 675.409 996.133 676.458 997.86 677.619L999.21 678.509L1006.15 675.359L1007.15 675.019L1016.83 687.919L1011.18 694.549C1012.07 696.937 1012.7 699.415 1013.06 701.939L1021.24 705.089L1019.05 720.089L1018.87 721.359L1010.15 722.029C1009.09 724.316 1007.8 726.487 1006.29 728.509L1009.84 736.509L996.54 746.389L989.89 740.729ZM1003.37 728.179L1003.84 727.579C1005.57 725.359 1007.02 722.93 1008.15 720.349L1008.45 719.659L1016.66 719.019L1018.45 706.719L1010.75 703.719L1010.66 702.959C1010.32 700.135 1009.62 697.365 1008.57 694.719L1008.29 694.019L1013.6 687.779L1006.28 678.029L998.98 681.349L996.46 679.669C994.643 678.45 992.738 677.367 990.76 676.429L990.07 676.119L989.5 667.899L977.37 666.039L974.37 673.689L973.62 673.769C970.803 674.083 968.037 674.755 965.39 675.769L964.68 676.039L958.43 670.649L948.43 678.059L951.74 685.599L951.27 686.189C949.532 688.399 948.077 690.818 946.94 693.389L946.64 694.089L938.4 694.699L936.55 707.119L944.24 710.119L944.33 710.869C944.65 713.65 945.322 716.378 946.33 718.989L946.6 719.689L941.23 725.999L948.74 736.119L956.29 732.779L956.89 733.249C959.092 734.972 961.501 736.413 964.06 737.539L964.75 737.839L965.38 746.079L977.83 747.999L980.83 740.289L981.58 740.199C984.356 739.872 987.081 739.201 989.69 738.199L990.4 737.919L996.66 743.289L1006.72 735.799L1003.37 728.179ZM977.21 722.179C975.623 722.192 974.043 721.952 972.53 721.469C969.332 720.47 966.532 718.486 964.53 715.799V715.799C962.548 713.105 961.466 709.854 961.44 706.509C961.415 704.919 961.644 703.336 962.12 701.819C962.542 700.362 963.186 698.979 964.03 697.719C965.481 695.499 967.464 693.678 969.8 692.422C972.135 691.166 974.748 690.515 977.4 690.529C981.034 690.548 984.556 691.788 987.4 694.049C989.449 695.711 991.04 697.87 992.02 700.319C993.342 703.681 993.497 707.389 992.46 710.849C991.707 713.385 990.331 715.692 988.459 717.56C986.587 719.429 984.277 720.8 981.74 721.549L981.19 721.709C979.891 722.048 978.553 722.213 977.21 722.199V722.179ZM971.37 694.409C969.23 695.47 967.411 697.082 966.1 699.079C964.661 701.277 963.906 703.852 963.93 706.479C963.945 709.299 964.86 712.04 966.542 714.303C968.224 716.566 970.585 718.232 973.28 719.059C974.549 719.471 975.877 719.671 977.21 719.649C978.494 719.669 979.773 719.487 981 719.109C983.291 718.436 985.362 717.166 987 715.429C988.402 713.914 989.43 712.092 990 710.109C990.889 707.151 990.752 703.979 989.61 701.109C988.774 699.075 987.436 697.285 985.72 695.909C983.334 694.029 980.388 693.001 977.35 692.989C976.145 692.988 974.946 693.143 973.78 693.449C972.945 693.69 972.137 694.018 971.37 694.429V694.409Z" fill="#B2B6BB"/>
<path d="M1466.46 563.41H1225.95V724.45H1466.46V563.41Z" fill="white"/>
<path d="M1225.4 562.869V724.999H1467V562.869H1225.4ZM1226.49 723.869V578.329H1465.91V723.899L1226.49 723.869Z" fill="#868A91"/>
<path d="M1238.06 569.761C1238.06 570.295 1237.9 570.817 1237.61 571.261C1237.31 571.705 1236.89 572.051 1236.39 572.255C1235.9 572.459 1235.36 572.513 1234.83 572.409C1234.31 572.305 1233.83 572.047 1233.45 571.67C1233.07 571.292 1232.82 570.811 1232.71 570.287C1232.61 569.764 1232.66 569.221 1232.87 568.727C1233.07 568.234 1233.42 567.812 1233.86 567.516C1234.3 567.219 1234.83 567.061 1235.36 567.061C1235.71 567.061 1236.07 567.13 1236.39 567.266C1236.72 567.402 1237.02 567.601 1237.27 567.851C1237.52 568.102 1237.72 568.4 1237.85 568.727C1237.99 569.055 1238.06 569.406 1238.06 569.761V569.761Z" fill="white"/>
<path d="M1247.32 569.761C1247.32 570.295 1247.16 570.817 1246.86 571.261C1246.57 571.705 1246.15 572.051 1245.65 572.255C1245.16 572.459 1244.62 572.513 1244.09 572.409C1243.57 572.305 1243.09 572.047 1242.71 571.67C1242.33 571.292 1242.08 570.811 1241.97 570.287C1241.87 569.764 1241.92 569.221 1242.13 568.727C1242.33 568.234 1242.68 567.812 1243.12 567.516C1243.56 567.219 1244.09 567.061 1244.62 567.061C1244.97 567.061 1245.33 567.13 1245.65 567.266C1245.98 567.402 1246.28 567.601 1246.53 567.851C1246.78 568.102 1246.98 568.4 1247.11 568.727C1247.25 569.055 1247.32 569.406 1247.32 569.761V569.761Z" fill="white"/>
<path d="M1256.44 569.761C1256.44 570.295 1256.28 570.817 1255.98 571.261C1255.69 571.705 1255.27 572.051 1254.77 572.255C1254.28 572.459 1253.74 572.513 1253.21 572.409C1252.69 572.305 1252.21 572.047 1251.83 571.67C1251.45 571.292 1251.2 570.811 1251.09 570.287C1250.99 569.764 1251.04 569.221 1251.24 568.727C1251.45 568.234 1251.8 567.812 1252.24 567.516C1252.68 567.219 1253.21 567.061 1253.74 567.061C1254.09 567.061 1254.44 567.13 1254.77 567.266C1255.1 567.402 1255.4 567.601 1255.65 567.851C1255.9 568.102 1256.1 568.4 1256.23 568.727C1256.37 569.055 1256.44 569.406 1256.44 569.761Z" fill="white"/>
<path d="M1253.43 607.77V693.38" stroke="#DADDDF" stroke-miterlimit="10"/>
<path d="M1270.43 607.77V693.38" stroke="#DADDDF" stroke-miterlimit="10"/>
<path d="M1440 678.57H1253.63" stroke="#DADDDF" stroke-miterlimit="10"/>
<path d="M1440 663.57H1253.63" stroke="#DADDDF" stroke-miterlimit="10"/>
<path d="M1440 648.57H1253.63" stroke="#DADDDF" stroke-miterlimit="10"/>
<path d="M1440 633.57H1253.63" stroke="#DADDDF" stroke-miterlimit="10"/>
<path d="M1440 618.57H1253.63" stroke="#DADDDF" stroke-miterlimit="10"/>
<path d="M1287.43 607.77V693.38" stroke="#DADDDF" stroke-miterlimit="10"/>
<path d="M1304.43 607.77V693.38" stroke="#DADDDF" stroke-miterlimit="10"/>
<path d="M1321.43 607.77V693.38" stroke="#DADDDF" stroke-miterlimit="10"/>
<path d="M1338.43 607.77V693.38" stroke="#DADDDF" stroke-miterlimit="10"/>
<path d="M1355.43 607.77V693.38" stroke="#DADDDF" stroke-miterlimit="10"/>
<path d="M1372.43 607.77V693.38" stroke="#DADDDF" stroke-miterlimit="10"/>
<path d="M1389.43 607.77V693.38" stroke="#DADDDF" stroke-miterlimit="10"/>
<path d="M1406.43 607.77V693.38" stroke="#DADDDF" stroke-miterlimit="10"/>
<path d="M1423.43 607.77V693.38" stroke="#DADDDF" stroke-miterlimit="10"/>
<path d="M1440.43 607.77V693.38" stroke="#DADDDF" stroke-miterlimit="10"/>
<path d="M1303.35 695.43C1304.48 695.43 1305.4 694.512 1305.4 693.38C1305.4 692.248 1304.48 691.33 1303.35 691.33C1302.22 691.33 1301.3 692.248 1301.3 693.38C1301.3 694.512 1302.22 695.43 1303.35 695.43Z" class="change-color-in-svg" fill="#4D61FC"/>
<path d="M1320.06 649.469C1321.19 649.469 1322.11 648.551 1322.11 647.419C1322.11 646.287 1321.19 645.369 1320.06 645.369C1318.93 645.369 1318.01 646.287 1318.01 647.419C1318.01 648.551 1318.93 649.469 1320.06 649.469Z" class="change-color-in-svg" fill="#4D61FC"/>
<path d="M1336.78 649.469C1337.91 649.469 1338.83 648.551 1338.83 647.419C1338.83 646.287 1337.91 645.369 1336.78 645.369C1335.65 645.369 1334.73 646.287 1334.73 647.419C1334.73 648.551 1335.65 649.469 1336.78 649.469Z" class="change-color-in-svg" fill="#4D61FC"/>
<path d="M1353.49 634.27C1354.62 634.27 1355.54 633.352 1355.54 632.22C1355.54 631.088 1354.62 630.17 1353.49 630.17C1352.36 630.17 1351.44 631.088 1351.44 632.22C1351.44 633.352 1352.36 634.27 1353.49 634.27Z" class="change-color-in-svg" fill="#4D61FC"/>
<path d="M1370.21 665.039C1371.34 665.039 1372.26 664.122 1372.26 662.989C1372.26 661.857 1371.34 660.939 1370.21 660.939C1369.08 660.939 1368.16 661.857 1368.16 662.989C1368.16 664.122 1369.08 665.039 1370.21 665.039Z" class="change-color-in-svg" fill="#4D61FC"/>
<path d="M1386.92 665.039C1388.05 665.039 1388.97 664.122 1388.97 662.989C1388.97 661.857 1388.05 660.939 1386.92 660.939C1385.79 660.939 1384.87 661.857 1384.87 662.989C1384.87 664.122 1385.79 665.039 1386.92 665.039Z" class="change-color-in-svg" fill="#4D61FC"/>
<path d="M1403.64 680.61C1404.77 680.61 1405.69 679.692 1405.69 678.56C1405.69 677.428 1404.77 676.51 1403.64 676.51C1402.51 676.51 1401.59 677.428 1401.59 678.56C1401.59 679.692 1402.51 680.61 1403.64 680.61Z" class="change-color-in-svg" fill="#4D61FC"/>
<path d="M1420.35 665.231C1421.48 665.231 1422.4 664.313 1422.4 663.181C1422.4 662.049 1421.48 661.131 1420.35 661.131C1419.22 661.131 1418.3 662.049 1418.3 663.181C1418.3 664.313 1419.22 665.231 1420.35 665.231Z" class="change-color-in-svg" fill="#4D61FC"/>
<path d="M1437.06 695.491C1438.19 695.491 1439.11 694.573 1439.11 693.441C1439.11 692.308 1438.19 691.391 1437.06 691.391C1435.93 691.391 1435.01 692.308 1435.01 693.441C1435.01 694.573 1435.93 695.491 1437.06 695.491Z" class="change-color-in-svg" fill="#4D61FC"/>
<path d="M1436.74 693.619L1420.25 663.779L1403.63 679.079L1386.77 663.369H1369.98L1353.39 632.819L1336.92 647.789H1320.33L1303.7 693.499L1303 693.249L1319.8 647.039H1336.63L1353.59 631.619L1370.43 662.619H1387.07L1403.64 678.049L1420.45 662.579L1437.39 693.259L1436.74 693.619Z" class="change-color-in-svg" fill="#4D61FC"/>
<path d="M1303.35 693.38L1320.06 662.99L1336.78 678.54L1353.49 647.61L1370.21 647.76L1386.92 662.99L1403.63 647.49L1420.35 663.18L1437.06 693.44" stroke="#21252B" stroke-width="0.75" stroke-miterlimit="10"/>
<path d="M1303.35 695.43C1304.48 695.43 1305.4 694.512 1305.4 693.38C1305.4 692.248 1304.48 691.33 1303.35 691.33C1302.22 691.33 1301.3 692.248 1301.3 693.38C1301.3 694.512 1302.22 695.43 1303.35 695.43Z" fill="#21252B"/>
<path d="M1320.06 665.039C1321.19 665.039 1322.11 664.122 1322.11 662.989C1322.11 661.857 1321.19 660.939 1320.06 660.939C1318.93 660.939 1318.01 661.857 1318.01 662.989C1318.01 664.122 1318.93 665.039 1320.06 665.039Z" fill="#21252B"/>
<path d="M1336.78 680.43C1337.91 680.43 1338.83 679.512 1338.83 678.38C1338.83 677.248 1337.91 676.33 1336.78 676.33C1335.65 676.33 1334.73 677.248 1334.73 678.38C1334.73 679.512 1335.65 680.43 1336.78 680.43Z" fill="#21252B"/>
<path d="M1353.49 649.661C1354.62 649.661 1355.54 648.743 1355.54 647.611C1355.54 646.478 1354.62 645.561 1353.49 645.561C1352.36 645.561 1351.44 646.478 1351.44 647.611C1351.44 648.743 1352.36 649.661 1353.49 649.661Z" fill="#21252B"/>
<path d="M1370.21 649.84C1371.34 649.84 1372.26 648.922 1372.26 647.79C1372.26 646.658 1371.34 645.74 1370.21 645.74C1369.08 645.74 1368.16 646.658 1368.16 647.79C1368.16 648.922 1369.08 649.84 1370.21 649.84Z" fill="#21252B"/>
<path d="M1386.92 665.039C1388.05 665.039 1388.97 664.122 1388.97 662.989C1388.97 661.857 1388.05 660.939 1386.92 660.939C1385.79 660.939 1384.87 661.857 1384.87 662.989C1384.87 664.122 1385.79 665.039 1386.92 665.039Z" fill="#21252B"/>
<path d="M1403.64 649.661C1404.77 649.661 1405.69 648.743 1405.69 647.611C1405.69 646.478 1404.77 645.561 1403.64 645.561C1402.51 645.561 1401.59 646.478 1401.59 647.611C1401.59 648.743 1402.51 649.661 1403.64 649.661Z" fill="#21252B"/>
<path d="M1420.35 665.231C1421.48 665.231 1422.4 664.313 1422.4 663.181C1422.4 662.049 1421.48 661.131 1420.35 661.131C1419.22 661.131 1418.3 662.049 1418.3 663.181C1418.3 664.313 1419.22 665.231 1420.35 665.231Z" fill="#21252B"/>
<path d="M1437.06 695.491C1438.19 695.491 1439.11 694.573 1439.11 693.441C1439.11 692.308 1438.19 691.391 1437.06 691.391C1435.93 691.391 1435.01 692.308 1435.01 693.441C1435.01 694.573 1435.93 695.491 1437.06 695.491Z" fill="#21252B"/>
<path d="M1255.31 692.739C1255.42 693.114 1255.42 693.513 1255.31 693.888C1255.2 694.262 1254.98 694.596 1254.68 694.847C1254.38 695.097 1254.01 695.255 1253.62 695.299C1253.23 695.344 1252.84 695.274 1252.49 695.097C1252.14 694.921 1251.85 694.646 1251.66 694.306C1251.46 693.967 1251.37 693.578 1251.4 693.188C1251.42 692.798 1251.56 692.423 1251.8 692.111C1252.03 691.798 1252.35 691.561 1252.72 691.429C1252.98 691.338 1253.25 691.299 1253.52 691.316C1253.79 691.333 1254.05 691.405 1254.3 691.528C1254.54 691.65 1254.75 691.821 1254.93 692.029C1255.1 692.238 1255.23 692.479 1255.31 692.739V692.739Z" fill="#61656D"/>
<path d="M1271.86 692.74C1271.97 693.115 1271.97 693.515 1271.86 693.89C1271.75 694.265 1271.53 694.599 1271.23 694.85C1270.93 695.102 1270.56 695.259 1270.17 695.304C1269.78 695.348 1269.39 695.277 1269.04 695.1C1268.69 694.922 1268.4 694.647 1268.21 694.306C1268.01 693.966 1267.92 693.576 1267.95 693.186C1267.98 692.795 1268.11 692.42 1268.35 692.108C1268.59 691.796 1268.91 691.56 1269.28 691.43C1269.54 691.34 1269.81 691.303 1270.08 691.321C1270.35 691.338 1270.61 691.411 1270.85 691.533C1271.09 691.656 1271.31 691.826 1271.48 692.033C1271.65 692.241 1271.78 692.481 1271.86 692.74Z" fill="#61656D"/>
<path d="M1288.58 692.739C1288.69 693.114 1288.69 693.513 1288.58 693.888C1288.47 694.262 1288.25 694.596 1287.95 694.847C1287.65 695.097 1287.28 695.255 1286.89 695.299C1286.5 695.344 1286.11 695.274 1285.76 695.097C1285.41 694.921 1285.12 694.646 1284.93 694.306C1284.73 693.967 1284.64 693.578 1284.67 693.188C1284.69 692.798 1284.83 692.423 1285.07 692.111C1285.3 691.798 1285.62 691.561 1285.99 691.429C1286.25 691.338 1286.52 691.299 1286.79 691.316C1287.06 691.333 1287.32 691.405 1287.57 691.528C1287.81 691.65 1288.02 691.821 1288.2 692.029C1288.37 692.238 1288.5 692.479 1288.58 692.739V692.739Z" fill="#61656D"/>
<path d="M1305.29 692.74C1305.4 693.115 1305.4 693.515 1305.29 693.89C1305.18 694.265 1304.96 694.599 1304.66 694.85C1304.36 695.102 1303.99 695.259 1303.6 695.304C1303.21 695.348 1302.82 695.277 1302.47 695.1C1302.12 694.922 1301.83 694.647 1301.64 694.306C1301.44 693.966 1301.35 693.576 1301.38 693.186C1301.4 692.795 1301.54 692.42 1301.78 692.108C1302.02 691.796 1302.34 691.56 1302.71 691.43C1302.97 691.34 1303.24 691.303 1303.51 691.321C1303.78 691.338 1304.04 691.411 1304.28 691.533C1304.52 691.656 1304.74 691.826 1304.91 692.033C1305.08 692.241 1305.21 692.481 1305.29 692.74Z" fill="#61656D"/>
<path d="M1322 692.739C1322.11 693.114 1322.11 693.513 1322 693.888C1321.89 694.262 1321.67 694.596 1321.37 694.847C1321.07 695.097 1320.7 695.255 1320.31 695.299C1319.92 695.344 1319.53 695.274 1319.18 695.097C1318.83 694.921 1318.54 694.646 1318.35 694.306C1318.15 693.967 1318.06 693.578 1318.09 693.188C1318.11 692.798 1318.25 692.423 1318.49 692.111C1318.72 691.798 1319.04 691.561 1319.41 691.429C1319.67 691.338 1319.94 691.299 1320.21 691.316C1320.48 691.333 1320.74 691.405 1320.99 691.528C1321.23 691.65 1321.44 691.821 1321.62 692.029C1321.79 692.238 1321.92 692.479 1322 692.739V692.739Z" fill="#61656D"/>
<path d="M1338.72 692.74C1338.83 693.115 1338.83 693.515 1338.72 693.89C1338.61 694.265 1338.39 694.599 1338.09 694.85C1337.79 695.102 1337.42 695.259 1337.03 695.304C1336.64 695.348 1336.25 695.277 1335.9 695.1C1335.55 694.922 1335.26 694.647 1335.07 694.306C1334.87 693.966 1334.78 693.576 1334.81 693.186C1334.83 692.795 1334.97 692.42 1335.21 692.108C1335.45 691.796 1335.77 691.56 1336.14 691.43C1336.4 691.34 1336.67 691.303 1336.94 691.321C1337.21 691.338 1337.47 691.411 1337.71 691.533C1337.95 691.656 1338.17 691.826 1338.34 692.033C1338.51 692.241 1338.64 692.481 1338.72 692.74Z" fill="#61656D"/>
<path d="M1355.44 692.739C1355.55 693.114 1355.55 693.513 1355.44 693.888C1355.33 694.262 1355.11 694.596 1354.81 694.847C1354.51 695.097 1354.14 695.255 1353.75 695.299C1353.36 695.344 1352.97 695.274 1352.62 695.097C1352.27 694.921 1351.98 694.646 1351.79 694.306C1351.59 693.967 1351.5 693.578 1351.53 693.188C1351.55 692.798 1351.69 692.423 1351.92 692.111C1352.16 691.798 1352.48 691.561 1352.85 691.429C1353.11 691.338 1353.38 691.299 1353.65 691.316C1353.92 691.333 1354.18 691.405 1354.43 691.528C1354.67 691.65 1354.88 691.821 1355.06 692.029C1355.23 692.238 1355.36 692.479 1355.44 692.739V692.739Z" fill="#61656D"/>
<path d="M1372.15 692.74C1372.26 693.115 1372.26 693.515 1372.15 693.89C1372.04 694.265 1371.82 694.599 1371.52 694.85C1371.22 695.102 1370.85 695.259 1370.46 695.304C1370.07 695.348 1369.68 695.277 1369.33 695.1C1368.98 694.922 1368.69 694.647 1368.5 694.306C1368.3 693.966 1368.21 693.576 1368.24 693.186C1368.26 692.795 1368.4 692.42 1368.64 692.108C1368.88 691.796 1369.2 691.56 1369.57 691.43C1369.82 691.34 1370.1 691.303 1370.37 691.321C1370.64 691.338 1370.9 691.411 1371.14 691.533C1371.38 691.656 1371.59 691.826 1371.77 692.033C1371.94 692.241 1372.07 692.481 1372.15 692.74Z" fill="#61656D"/>
<path d="M1388.87 692.739C1388.98 693.114 1388.98 693.513 1388.87 693.888C1388.76 694.262 1388.54 694.596 1388.24 694.847C1387.94 695.097 1387.57 695.255 1387.18 695.299C1386.79 695.344 1386.4 695.274 1386.05 695.097C1385.7 694.921 1385.41 694.646 1385.22 694.306C1385.02 693.967 1384.93 693.578 1384.96 693.188C1384.98 692.798 1385.12 692.423 1385.35 692.111C1385.59 691.798 1385.91 691.561 1386.28 691.429C1386.53 691.338 1386.81 691.299 1387.08 691.316C1387.35 691.333 1387.61 691.405 1387.86 691.528C1388.1 691.65 1388.31 691.821 1388.49 692.029C1388.66 692.238 1388.79 692.479 1388.87 692.739V692.739Z" fill="#61656D"/>
<path d="M1405.58 692.739C1405.69 693.114 1405.69 693.513 1405.58 693.888C1405.47 694.262 1405.25 694.596 1404.95 694.847C1404.65 695.097 1404.28 695.255 1403.89 695.299C1403.5 695.344 1403.11 695.274 1402.76 695.097C1402.41 694.921 1402.12 694.646 1401.93 694.306C1401.73 693.967 1401.64 693.578 1401.67 693.188C1401.69 692.798 1401.83 692.423 1402.07 692.111C1402.3 691.798 1402.62 691.561 1402.99 691.429C1403.25 691.338 1403.52 691.299 1403.79 691.316C1404.06 691.333 1404.32 691.405 1404.57 691.528C1404.81 691.65 1405.02 691.821 1405.2 692.029C1405.37 692.238 1405.5 692.479 1405.58 692.739V692.739Z" fill="#61656D"/>
<path d="M1422.29 692.74C1422.4 693.115 1422.4 693.515 1422.29 693.89C1422.18 694.265 1421.96 694.599 1421.66 694.85C1421.36 695.102 1420.99 695.259 1420.6 695.304C1420.21 695.348 1419.82 695.277 1419.47 695.1C1419.12 694.922 1418.83 694.647 1418.64 694.306C1418.44 693.966 1418.35 693.576 1418.38 693.186C1418.4 692.795 1418.54 692.42 1418.78 692.108C1419.02 691.796 1419.34 691.56 1419.71 691.43C1419.97 691.34 1420.24 691.303 1420.51 691.321C1420.78 691.338 1421.04 691.411 1421.28 691.533C1421.52 691.656 1421.74 691.826 1421.91 692.033C1422.08 692.241 1422.21 692.481 1422.29 692.74Z" fill="#61656D"/>
<path d="M1437.06 695.491C1438.19 695.491 1439.11 694.573 1439.11 693.441C1439.11 692.308 1438.19 691.391 1437.06 691.391C1435.93 691.391 1435.01 692.308 1435.01 693.441C1435.01 694.573 1435.93 695.491 1437.06 695.491Z" fill="#61656D"/>
<path d="M1437.06 692.881H1253.36V693.881H1437.06V692.881Z" fill="#61656D"/>
<path d="M1258.21 702.631H1253.36V707.481H1258.21V702.631Z" class="change-color-in-svg" fill="#4D61FC"/>
<path d="M1290.67 704.561H1262.33C1262.15 704.561 1262 704.708 1262 704.891V705.231C1262 705.413 1262.15 705.561 1262.33 705.561H1290.67C1290.85 705.561 1291 705.413 1291 705.231V704.891C1291 704.708 1290.85 704.561 1290.67 704.561Z" fill="#868A91"/>
<path d="M1307.71 702.631H1302.86V707.481H1307.71V702.631Z" fill="#21252B"/>
<path d="M1340.17 704.561H1311.83C1311.65 704.561 1311.5 704.708 1311.5 704.891V705.231C1311.5 705.413 1311.65 705.561 1311.83 705.561H1340.17C1340.35 705.561 1340.5 705.413 1340.5 705.231V704.891C1340.5 704.708 1340.35 704.561 1340.17 704.561Z" fill="#868A91"/>
<path d="M1357.21 702.631H1352.36V707.481H1357.21V702.631Z" fill="#61656D"/>
<path d="M1389.67 704.561H1361.33C1361.15 704.561 1361 704.708 1361 704.891V705.231C1361 705.413 1361.15 705.561 1361.33 705.561H1389.67C1389.85 705.561 1390 705.413 1390 705.231V704.891C1390 704.708 1389.85 704.561 1389.67 704.561Z" fill="#868A91"/>
<path d="M1381.2 591H1311.2C1310.09 591 1309.2 591.895 1309.2 593C1309.2 594.105 1310.09 595 1311.2 595H1381.2C1382.3 595 1383.2 594.105 1383.2 593C1383.2 591.895 1382.3 591 1381.2 591Z" fill="#B2B6BB"/>
<path d="M552.13 845.61C550.044 846.367 547.886 846.906 545.69 847.22L542.88 854.48L528.29 852.33L527.7 844.57C525.694 843.63 523.788 842.491 522.01 841.17L514.9 844.3L506.12 832.46L511.19 826.56C510.43 824.476 509.89 822.317 509.58 820.12L502.34 817.3L504.51 802.75L512.26 802.17C513.203 800.148 514.356 798.231 515.7 796.45L512.58 789.35L524.35 780.65L530.23 785.73C532.35 784.962 534.546 784.419 536.78 784.11L539.6 776.91L553.89 779.09L554.43 786.85C556.083 787.669 557.68 788.598 559.21 789.63L560.4 790.42L566.56 787.62L567.44 787.32L576 798.76L571 804.64C571.791 806.76 572.351 808.96 572.67 811.2L579.92 813.99L577.92 827.31L577.77 828.44L570.03 829.04C569.09 831.068 567.94 832.992 566.6 834.78L569.75 841.89L558 850.66L552.13 845.61ZM564.13 834.47L564.54 833.94C566.081 831.973 567.368 829.819 568.37 827.53L568.63 826.91L575.92 826.34L577.51 815.44L570.67 812.81L570.59 812.14C570.292 809.634 569.67 807.177 568.74 804.83L568.49 804.21L573.2 798.67L566.67 790L560.2 793L558 791.48C556.39 790.396 554.702 789.433 552.95 788.6L552.33 788.33L551.83 781.04L541 779.39L538.34 786.17L537.68 786.25C535.179 786.54 532.726 787.149 530.38 788.06L529.75 788.3L524.21 783.52L515.32 790.08L518.25 796.77L517.84 797.3C516.295 799.26 515.005 801.407 514 803.69L513.73 804.3L506.42 804.85L504.78 815.85L511.6 818.51L511.68 819.17C511.976 821.636 512.581 824.055 513.48 826.37L513.72 827L509 832.56L515.65 841.56L522.35 838.56L522.88 838.97C524.832 840.501 526.969 841.781 529.24 842.78L529.85 843.05L530.41 850.36L541.44 852L544.08 845.16L544.75 845.08C547.216 844.782 549.635 844.173 551.95 843.27L552.57 843.03L558.13 847.79L567.05 841.15L564.13 834.47ZM540.92 829.16C539.515 829.177 538.118 828.968 536.78 828.54C533.938 827.667 531.446 825.917 529.66 823.54V823.54C527.896 821.153 526.937 818.268 526.92 815.3C526.891 812.53 527.688 809.815 529.21 807.5C530.484 805.532 532.23 803.913 534.289 802.792C536.348 801.671 538.655 801.082 541 801.08C544.223 801.092 547.349 802.191 549.87 804.2C551.689 805.675 553.104 807.588 553.98 809.76C555.145 812.744 555.278 816.032 554.36 819.1C553.694 821.349 552.476 823.396 550.817 825.054C549.158 826.711 547.11 827.927 544.86 828.59L544.37 828.73C543.231 829.029 542.057 829.174 540.88 829.16H540.92ZM535.75 804.53C533.853 805.479 532.238 806.91 531.07 808.68C529.79 810.627 529.119 812.911 529.14 815.24C529.154 817.742 529.966 820.174 531.459 822.182C532.952 824.189 535.048 825.667 537.44 826.4C539.669 827.08 542.051 827.08 544.28 826.4C545.869 825.916 547.34 825.108 548.601 824.026C549.862 822.944 550.884 821.612 551.603 820.115C552.322 818.618 552.722 816.987 552.779 815.327C552.835 813.667 552.546 812.013 551.93 810.47C551.191 808.671 550.007 807.088 548.49 805.87C546.368 804.2 543.75 803.285 541.05 803.27C539.983 803.273 538.922 803.411 537.89 803.68C537.135 803.885 536.404 804.17 535.71 804.53H535.75Z" fill="#B2B6BB"/>
<path d="M490.169 668L426.609 752.68H553.719L490.169 668Z" class="change-color-in-svg" fill="#4D61FC"/>
<path d="M525.92 751.34H454.42V994H525.92V751.34Z" class="change-color-in-svg" fill="#4D61FC"/>
<path opacity="0.2" d="M490.169 668L426.609 752.68H553.719L490.169 668Z" fill="black"/>
<path opacity="0.2" d="M525.92 751.34H454.42V994H525.92V751.34Z" fill="black"/>
<path d="M471.829 668L408.279 752.68H535.389L471.829 668Z" class="change-color-in-svg" fill="#4D61FC"/>
<path d="M507.58 751.34H436.08V994H507.58V751.34Z" class="change-color-in-svg" fill="#4D61FC"/>
<path d="M471.83 668H490.17L481 680.21L471.83 668Z" class="change-color-in-svg" fill="#4D61FC"/>
<path opacity="0.2" d="M471.83 668H490.17L481 680.21L471.83 668Z" fill="black"/>
<path d="M817.169 521L753.609 605.68H880.719L817.169 521Z" class="change-color-in-svg" fill="#4D61FC"/>
<path d="M852.92 604.34H781.42V994H852.92V604.34Z" class="change-color-in-svg" fill="#4D61FC"/>
<path opacity="0.2" d="M817.169 521L753.609 605.68H880.719L817.169 521Z" fill="black"/>
<path opacity="0.2" d="M852.92 604.34H781.42V994H852.92V604.34Z" fill="black"/>
<path d="M798.829 521L735.279 605.68H862.389L798.829 521Z" class="change-color-in-svg" fill="#4D61FC"/>
<path d="M834.58 604.34H763.08V994H834.58V604.34Z" class="change-color-in-svg" fill="#4D61FC"/>
<path d="M798.83 521H817.17L808 533.21L798.83 521Z" class="change-color-in-svg" fill="#4D61FC"/>
<path opacity="0.2" d="M798.83 521H817.17L808 533.21L798.83 521Z" fill="black"/>
<path d="M1144.17 370L1080.61 454.68H1207.72L1144.17 370Z" class="change-color-in-svg" fill="#4D61FC"/>
<path d="M1179.92 453.34H1108.42V994H1179.92V453.34Z" class="change-color-in-svg" fill="#4D61FC"/>
<path opacity="0.2" d="M1144.17 370L1080.61 454.68H1207.72L1144.17 370Z" fill="black"/>
<path opacity="0.2" d="M1179.92 453.34H1108.42V994H1179.92V453.34Z" fill="black"/>
<path d="M1125.83 370L1062.28 454.68H1189.39L1125.83 370Z" class="change-color-in-svg" fill="#4D61FC"/>
<path d="M1161.58 453.34H1090.08V994H1161.58V453.34Z" class="change-color-in-svg" fill="#4D61FC"/>
<path d="M1125.83 370H1144.17L1135 382.21L1125.83 370Z" class="change-color-in-svg" fill="#4D61FC"/>
<path opacity="0.2" d="M1125.83 370H1144.17L1135 382.21L1125.83 370Z" fill="black"/>
<path d="M1402.14 997.41H197.86C197.477 997.357 197.126 997.168 196.872 996.877C196.618 996.585 196.479 996.212 196.479 995.825C196.479 995.439 196.618 995.065 196.872 994.774C197.126 994.483 197.477 994.293 197.86 994.24H1402.14C1402.52 994.293 1402.87 994.483 1403.13 994.774C1403.38 995.065 1403.52 995.439 1403.52 995.825C1403.52 996.212 1403.38 996.585 1403.13 996.877C1402.87 997.168 1402.52 997.357 1402.14 997.41V997.41Z" fill="#B2B6BB"/>
<path d="M302.251 857.821L299.881 855.991L479.771 622.491L589.631 760.901L806.821 475.521L919.011 611.821L1122 337.561L1124.41 339.351L919.131 616.691L806.911 480.361L589.681 765.791L479.811 627.361L302.251 857.821Z" class="change-color-in-svg" fill="#4D61FC"/>
<g opacity="0.2">
<path opacity="0.2" d="M302.251 857.821L299.881 855.991L479.771 622.491L589.631 760.901L806.821 475.521L919.011 611.821L1122 337.561L1124.41 339.351L919.131 616.691L806.911 480.361L589.681 765.791L479.811 627.361L302.251 857.821Z" fill="white"/>
</g>
<path d="M301 868C305.971 868 310 863.971 310 859C310 854.029 305.971 850 301 850C296.029 850 292 854.029 292 859C292 863.971 296.029 868 301 868Z" class="change-color-in-svg" fill="#4D61FC"/>
<path d="M481 635C485.971 635 490 630.971 490 626C490 621.029 485.971 617 481 617C476.029 617 472 621.029 472 626C472 630.971 476.029 635 481 635Z" class="change-color-in-svg" fill="#4D61FC"/>
<path d="M589 770C593.971 770 598 765.971 598 761C598 756.029 593.971 752 589 752C584.029 752 580 756.029 580 761C580 765.971 584.029 770 589 770Z" class="change-color-in-svg" fill="#4D61FC"/>
<path d="M806 488C810.971 488 815 483.971 815 479C815 474.029 810.971 470 806 470C801.029 470 797 474.029 797 479C797 483.971 801.029 488 806 488Z" class="change-color-in-svg" fill="#4D61FC"/>
<path d="M918 620C922.971 620 927 615.971 927 611C927 606.029 922.971 602 918 602C913.029 602 909 606.029 909 611C909 615.971 913.029 620 918 620Z" class="change-color-in-svg" fill="#4D61FC"/>
<path d="M1123 347C1127.97 347 1132 342.971 1132 338C1132 333.029 1127.97 329 1123 329C1118.03 329 1114 333.029 1114 338C1114 342.971 1118.03 347 1123 347Z" class="change-color-in-svg" fill="#4D61FC"/>
<path d="M1046.69 839.109C1046.69 839.109 1040.96 871.279 1040.19 889.029C1040.09 891.113 1040.49 893.189 1041.36 895.085C1042.23 896.98 1043.54 898.638 1045.19 899.919C1049.75 903.409 1058.74 907.919 1078.93 911.919L1074.87 874.529L1079.16 842.119L1046.69 839.109Z" fill="#FC9D9D"/>
<path opacity="0.15" d="M1062.91 878.07L1072.42 881.87L1072.32 875.93C1069.23 875.48 1066.08 875.585 1063.03 876.24C1062.85 876.306 1062.69 876.424 1062.57 876.58C1062.45 876.735 1062.38 876.922 1062.37 877.116C1062.36 877.31 1062.4 877.504 1062.5 877.674C1062.59 877.843 1062.74 877.981 1062.91 878.07Z" fill="black"/>
<path d="M1081.25 715.001C1075.76 727.001 1073.42 737.211 1084.67 739.531C1079.67 748.211 1088.27 762.531 1099.39 757.901C1099.39 757.901 1101.9 761.551 1108.97 762.351C1119.13 763.351 1123.12 759.491 1123.12 759.491L1133.84 758.011C1138.58 767.131 1157.09 766.651 1163.05 759.551C1165.56 765.021 1178.34 764.551 1180.16 756.121C1181.88 748.251 1178.34 746.831 1177.88 746.491C1184.27 751.391 1195.88 739.191 1184.61 726.641C1180.05 721.501 1177.54 719.111 1175.83 716.641C1181.08 718.121 1186.9 712.191 1184.73 706.641C1181.99 699.561 1176.17 702.071 1171.15 691.921C1164.42 678.341 1158.94 673.671 1158.72 673.321C1147.55 656.491 1113.72 654.011 1101.52 670.271C1095.19 677.141 1091.44 686.731 1088.33 695.021C1086.18 698.871 1081.26 702.961 1078.17 704.471C1072 707.461 1075 716.001 1081.25 715.001Z" fill="black"/>
<path d="M1219.56 837.301C1219.56 837.301 1226.99 869.361 1227.72 886.761C1227.8 888.436 1227.5 890.107 1226.83 891.645C1226.16 893.183 1225.15 894.547 1223.87 895.631C1219.55 899.241 1210.37 904.221 1188.13 908.691L1192.2 873.691L1187.9 843.001L1219.56 837.301Z" fill="#FC9D9D"/>
<path d="M1105 762.64L1070.16 772.64C1067.94 773.255 1065.85 774.272 1064 775.64C1061.19 777.827 1058.77 780.475 1056.84 783.47C1054.76 786.65 1053.19 790.135 1052.18 793.8C1050.03 801.36 1045.99 823.99 1044.35 839.15L1080.35 842.41L1084.82 880.23H1184.89L1187.89 842.94L1221.89 837.52C1221.89 837.52 1216.02 796.82 1209.69 785.46C1208.61 783.663 1207.31 782.01 1205.82 780.54C1200.98 775.54 1197 772.99 1191.02 771.36L1159.18 763L1105.01 762.6" fill="#3F4249"/>
<path opacity="0.4" d="M1065.17 774.86H1199.11C1198.39 774.398 1197.65 773.974 1196.89 773.59H1067.56C1066.73 773.955 1065.94 774.38 1065.17 774.86Z" fill="white"/>
<path opacity="0.4" d="M1207.17 785.679C1207.87 785.379 1208.56 785.089 1209.29 784.809C1209.14 784.579 1208.95 784.299 1208.7 783.959C1208.04 784.219 1207.4 784.489 1206.77 784.759C1202.96 786.479 1198.83 787.369 1194.65 787.369C1190.47 787.369 1186.34 786.479 1182.53 784.759C1178.6 782.996 1174.34 782.084 1170.03 782.084C1165.72 782.084 1161.46 782.996 1157.53 784.759C1153.72 786.479 1149.59 787.369 1145.41 787.369C1141.23 787.369 1137.1 786.479 1133.29 784.759C1129.36 782.996 1125.1 782.084 1120.79 782.084C1116.48 782.084 1112.22 782.996 1108.29 784.759C1104.48 786.479 1100.35 787.369 1096.17 787.369C1091.99 787.369 1087.86 786.479 1084.05 784.759C1080.12 782.996 1075.86 782.084 1071.55 782.084C1067.24 782.084 1062.98 782.996 1059.05 784.759C1057.82 785.313 1056.57 785.8 1055.29 786.219C1055.08 786.619 1054.89 787.029 1054.69 787.429C1056.32 786.969 1057.9 786.384 1059.44 785.679C1063.25 783.965 1067.38 783.079 1071.56 783.079C1075.74 783.079 1079.87 783.965 1083.68 785.679C1087.61 787.45 1091.87 788.365 1096.18 788.365C1100.49 788.365 1104.75 787.45 1108.68 785.679C1112.49 783.965 1116.62 783.079 1120.8 783.079C1124.98 783.079 1129.11 783.965 1132.92 785.679C1136.85 787.45 1141.11 788.365 1145.42 788.365C1149.73 788.365 1153.99 787.45 1157.92 785.679C1161.73 783.965 1165.86 783.079 1170.04 783.079C1174.22 783.079 1178.35 783.965 1182.16 785.679C1186.09 787.448 1190.35 788.362 1194.66 788.362C1198.97 788.362 1203.23 787.448 1207.16 785.679H1207.17Z" fill="white"/>
<path opacity="0.4" d="M1215.45 803.129C1211.75 803.272 1208.11 804.167 1204.77 805.759C1200.96 807.479 1196.83 808.369 1192.65 808.369C1188.47 808.369 1184.34 807.479 1180.53 805.759C1176.6 803.996 1172.34 803.084 1168.03 803.084C1163.72 803.084 1159.46 803.996 1155.53 805.759C1151.72 807.479 1147.59 808.369 1143.41 808.369C1139.23 808.369 1135.1 807.479 1131.29 805.759C1127.36 803.996 1123.1 803.084 1118.79 803.084C1114.48 803.084 1110.22 803.996 1106.29 805.759C1102.48 807.479 1098.35 808.369 1094.17 808.369C1089.99 808.369 1085.86 807.479 1082.05 805.759C1078.12 803.996 1073.86 803.084 1069.55 803.084C1065.24 803.084 1060.98 803.996 1057.05 805.759C1054.55 806.954 1051.88 807.751 1049.14 808.119C1049.08 808.459 1049.01 808.799 1048.95 809.119C1051.89 808.761 1054.76 807.927 1057.44 806.649C1061.25 804.936 1065.38 804.049 1069.56 804.049C1073.74 804.049 1077.87 804.936 1081.68 806.649C1085.61 808.42 1089.87 809.335 1094.18 809.335C1098.49 809.335 1102.75 808.42 1106.68 806.649C1110.49 804.936 1114.62 804.049 1118.8 804.049C1122.98 804.049 1127.11 804.936 1130.92 806.649C1134.85 808.42 1139.11 809.335 1143.42 809.335C1147.73 809.335 1151.99 808.42 1155.92 806.649C1159.73 804.936 1163.86 804.049 1168.04 804.049C1172.22 804.049 1176.35 804.936 1180.16 806.649C1184.09 808.418 1188.35 809.332 1192.66 809.332C1196.97 809.332 1201.23 808.418 1205.16 806.649C1208.45 805.067 1212.03 804.195 1215.68 804.089L1215.45 803.129Z" fill="white"/>
<path opacity="0.4" d="M1219.75 824.359C1218.27 824.163 1216.78 824.07 1215.29 824.079C1210.96 823.982 1206.68 824.9 1202.77 826.759C1198.96 828.479 1194.83 829.369 1190.65 829.369C1186.47 829.369 1182.34 828.479 1178.53 826.759C1174.6 824.996 1170.34 824.084 1166.03 824.084C1161.72 824.084 1157.46 824.996 1153.53 826.759C1149.72 828.479 1145.59 829.369 1141.41 829.369C1137.23 829.369 1133.1 828.479 1129.29 826.759C1125.36 824.996 1121.1 824.084 1116.79 824.084C1112.48 824.084 1108.22 824.996 1104.29 826.759C1100.48 828.479 1096.35 829.369 1092.17 829.369C1087.99 829.369 1083.86 828.479 1080.05 826.759C1076.12 824.996 1071.86 824.084 1067.55 824.084C1063.24 824.084 1058.98 824.996 1055.05 826.759C1052.11 828.178 1048.93 829.029 1045.67 829.269C1045.67 829.599 1045.57 829.939 1045.53 830.269C1048.97 830.043 1052.33 829.16 1055.44 827.669C1059.25 825.955 1063.38 825.069 1067.56 825.069C1071.74 825.069 1075.87 825.955 1079.68 827.669C1083.61 829.44 1087.87 830.355 1092.18 830.355C1096.49 830.355 1100.75 829.44 1104.68 827.669C1108.49 825.955 1112.62 825.069 1116.8 825.069C1120.98 825.069 1125.11 825.955 1128.92 827.669C1132.85 829.44 1137.11 830.355 1141.42 830.355C1145.73 830.355 1149.99 829.44 1153.92 827.669C1157.73 825.955 1161.86 825.069 1166.04 825.069C1170.22 825.069 1174.35 825.955 1178.16 827.669C1182.09 829.438 1186.35 830.352 1190.66 830.352C1194.97 830.352 1199.23 829.438 1203.16 827.669C1206.94 825.854 1211.09 824.963 1215.28 825.069C1216.83 825.057 1218.38 825.161 1219.92 825.379L1219.75 824.359Z" fill="white"/>
<path opacity="0.4" d="M1187.3 850.339C1183.57 850.266 1179.89 849.386 1176.53 847.759C1172.6 845.996 1168.34 845.084 1164.03 845.084C1159.72 845.084 1155.46 845.996 1151.53 847.759C1147.72 849.479 1143.59 850.369 1139.41 850.369C1135.23 850.369 1131.1 849.479 1127.29 847.759C1123.36 845.996 1119.1 845.084 1114.79 845.084C1110.48 845.084 1106.22 845.996 1102.29 847.759C1095.64 850.739 1088.12 851.184 1081.16 849.009L1081.29 850.099C1088.36 852.191 1095.95 851.687 1102.68 848.679C1106.49 846.965 1110.62 846.079 1114.8 846.079C1118.98 846.079 1123.11 846.965 1126.92 848.679C1130.85 850.45 1135.11 851.365 1139.42 851.365C1143.73 851.365 1147.99 850.45 1151.92 848.679C1155.73 846.965 1159.86 846.079 1164.04 846.079C1168.22 846.079 1172.35 846.965 1176.16 848.679C1179.62 850.344 1183.4 851.251 1187.24 851.339L1187.3 850.339Z" fill="white"/>
<path opacity="0.4" d="M1051.65 795.86H1213.57C1213.44 795.43 1213.32 795 1213.19 794.59H1052C1051.87 795 1051.76 795.41 1051.65 795.86Z" fill="white"/>
<path opacity="0.4" d="M1047.53 814.86L1081.61 816.86L1189.72 817.86L1217.38 812.86C1217.3 812.44 1217.21 812.01 1217.13 811.59L1189.72 816.59L1081.61 815.59L1047.75 813.59C1047.68 814 1047.6 814.44 1047.53 814.86Z" fill="white"/>
<path opacity="0.4" d="M1044.5 834.86L1080.5 837.86H1188.56L1220.94 832.53L1220.8 831.59L1188.33 836.59H1080.39L1044.65 833.59L1044.5 834.86Z" fill="white"/>
<path d="M1186 857.59H1082V858.87H1186V857.59Z" fill="white"/>
<path d="M1114.51 755.45L1116.17 717.52H1144.47L1146.68 728.26L1149.41 755.81C1149.53 757.008 1150 758.145 1150.76 759.08C1151.52 760.015 1152.54 760.707 1153.69 761.07L1169.42 765.539C1167.96 769.537 1165.99 773.328 1163.56 776.82C1149.74 797.22 1120.04 799.649 1103.56 781.359C1099.43 776.942 1096.62 771.465 1095.42 765.539L1110.49 760.969C1111.63 760.548 1112.62 759.8 1113.33 758.818C1114.05 757.835 1114.46 756.664 1114.51 755.45V755.45Z" fill="#FC9D9D"/>
<path opacity="0.15" d="M1114.54 752.451C1115.94 752.916 1117.4 753.162 1118.88 753.18C1123.43 753.2 1127.87 751.725 1131.5 748.98C1135.37 748.642 1139.13 747.461 1142.5 745.521C1142.58 745.47 1142.65 745.405 1142.71 745.327C1142.76 745.25 1142.8 745.162 1142.82 745.069C1142.84 744.976 1142.85 744.879 1142.83 744.785C1142.82 744.691 1142.78 744.601 1142.73 744.521C1142.68 744.434 1142.62 744.358 1142.54 744.298C1142.47 744.238 1142.38 744.195 1142.28 744.172C1142.19 744.149 1142.09 744.147 1141.99 744.166C1141.9 744.185 1141.81 744.224 1141.73 744.281C1139.14 745.802 1136.28 746.82 1133.31 747.281C1133.1 747.281 1132.88 747.391 1132.67 747.391C1132.03 747.481 1131.49 747.47 1130.95 747.57H1130.74C1130.39 747.658 1130.02 747.692 1129.66 747.67L1126.77 747.61C1122.79 747.425 1118.94 746.171 1115.62 743.98L1114.54 752.451Z" fill="black"/>
<path opacity="0.15" d="M1205.84 877L1196.41 878.86L1196.25 873.74C1196.25 873.74 1201.09 874.31 1205.62 875.18C1205.81 875.236 1205.97 875.345 1206.1 875.494C1206.22 875.643 1206.3 875.825 1206.33 876.018C1206.35 876.211 1206.32 876.407 1206.23 876.582C1206.14 876.756 1206.01 876.902 1205.84 877Z" fill="black"/>
<path opacity="0.3" d="M1188.11 841.181C1188.36 838.307 1188.84 835.458 1189.54 832.661C1190.99 826.951 1193.26 816.171 1191.11 811.661C1188.11 805.391 1189.11 815.091 1186.18 840.751C1185.39 843.92 1183.73 846.801 1181.37 849.061C1181.37 849.061 1173.55 857.701 1151.15 850.281C1139.93 846.702 1127.95 846.287 1116.51 849.081C1114.15 849.671 1107.2 851.081 1104.82 851.601C1099.53 852.771 1091.23 853.601 1085.57 849.301C1084.8 848.709 1084.18 847.945 1083.76 847.071C1082.82 845.131 1081.44 841.071 1081.84 834.571C1081.95 832.841 1082 831.101 1081.96 829.371C1081.88 825.831 1081.64 821.371 1080.96 826.531C1080.4 830.549 1080.26 834.613 1080.53 838.661L1081.29 850.131L1099.69 867.321L1187.19 852.261L1188.11 841.181Z" fill="black"/>
<path d="M1083.63 918.37C1083.63 918.37 1133.38 924.9 1140.2 924.13L1189.52 915.8L1215.1 900C1215.1 900 1240.59 886 1256.22 900.82C1256.22 900.82 1276.34 915.87 1258.87 939.36C1258.87 939.36 1226.22 972.85 1204.23 987.78L1126.35 992.48C1126.35 992.48 1031 964.54 1012 954.12C1010 953.05 982.211 945.73 994.271 917.76C994.271 917.76 998.6 903.33 1020.47 901.39C1026.45 900.9 1032.46 901.369 1038.29 902.78C1047.6 905 1067.39 910.22 1083.63 918.37Z" class="change-color-in-svg" fill="#4D61FC"/>
<path opacity="0.3" d="M1133.79 961.64L1133.28 960.74C1141.97 955.74 1161.53 942.56 1161.73 942.43C1181.41 927.686 1201.86 914 1222.99 901.43L1223.51 902.32C1202.41 914.875 1181.98 928.541 1162.33 943.26C1162.11 943.42 1142.52 956.67 1133.79 961.64Z" fill="black"/>
<path opacity="0.2" d="M1256.41 927.689C1256.41 927.689 1249.01 955.539 1205.19 965.279C1205.19 965.279 1173.57 974.279 1166.19 974.609L1180.11 976.239C1180.11 976.239 1250.54 964.159 1256.41 927.689Z" fill="black"/>
<path opacity="0.3" d="M1138.53 956.72C1137.95 949.81 1139.53 928.17 1139.59 927.25L1140.59 927.33C1140.59 927.55 1138.95 949.8 1139.53 956.63L1138.53 956.72Z" fill="black"/>
<path opacity="0.3" d="M1136.55 938.69C1107.95 938.69 1067.71 920.69 1067.29 920.54L1067.71 919.6C1068.14 919.79 1110.96 938.88 1139.4 937.6C1139.62 937.6 1160.99 936.71 1189.97 921.6L1190.45 922.52C1161.25 937.76 1139.66 938.63 1139.45 938.64C1138.49 938.67 1137.53 938.69 1136.55 938.69Z" fill="black"/>
<path d="M1042.54 915.801L1140.11 964.941L1125.36 992.151L1076.86 977.361L1042.54 915.801Z" class="change-color-in-svg" fill="#4D61FC"/>
<path opacity="0.3" d="M1040.1 914.179C1032.67 911.319 1024.6 912.849 1024.51 912.869L1024.32 911.869C1029.73 910.959 1035.29 911.43 1040.47 913.239L1040.1 914.179Z" fill="black"/>
<path opacity="0.2" d="M1042.54 915.801C1042.54 915.801 1037.08 908.741 1053.94 919.111C1057.69 921.421 1061.54 923.561 1065.51 925.501C1078.98 932.111 1109.38 946.631 1127.35 952.221C1127.35 952.221 1137.89 955.491 1146.45 949.571C1147.08 949.141 1147.75 948.771 1148.36 948.331C1153.76 944.411 1182.79 926.161 1204.36 912.181C1206.54 910.761 1208.68 909.311 1210.78 907.801C1215.01 904.801 1223.1 899.231 1220.22 903.711C1220.22 903.711 1171.86 935.541 1150.11 950.811L1133.59 961.191L1042.54 915.801Z" fill="black"/>
<path d="M1058.64 971.671C1058.64 971.671 1048.49 970.861 1043.64 983.521C1043.64 983.521 1036.18 995.811 1054.43 993.951C1054.43 993.951 1076.68 991.541 1089.82 992.651C1094.59 993.061 1099.37 993.321 1104.16 993.291C1111.26 993.308 1118.35 992.931 1125.4 992.161L1058.64 971.671Z" class="change-color-in-svg" fill="#4D61FC"/>
<path d="M1138.92 967.211L1145.56 969.551C1156.11 973.302 1167.21 975.272 1178.41 975.381C1181.23 975.45 1184.05 975.29 1186.85 974.901C1186.85 974.901 1210.15 969.231 1220.12 972.531C1220.12 972.531 1231.95 975.281 1228.84 986.081C1228.13 988.365 1226.96 990.482 1225.42 992.308C1223.87 994.134 1221.98 995.631 1219.84 996.711C1215.12 999.221 1207.57 1001.54 1197.11 999.651C1197.11 999.651 1172.57 999.311 1159.88 997.391C1158.32 997.149 1156.77 996.815 1155.24 996.391L1127.31 988.801L1138.92 967.211Z" class="change-color-in-svg" fill="#4D61FC"/>
<path opacity="0.8" d="M1058.64 971.671C1058.64 971.671 1048.49 970.861 1043.64 983.521C1043.64 983.521 1036.18 995.811 1054.43 993.951C1054.43 993.951 1076.68 991.541 1089.82 992.651C1094.59 993.061 1099.37 993.321 1104.16 993.291C1111.26 993.308 1118.35 992.931 1125.4 992.161L1058.64 971.671Z" fill="white"/>
<path opacity="0.8" d="M1138.92 967.211L1145.56 969.551C1156.11 973.302 1167.21 975.272 1178.41 975.381C1181.23 975.45 1184.05 975.29 1186.85 974.901C1186.85 974.901 1210.15 969.231 1220.12 972.531C1220.12 972.531 1231.95 975.281 1228.84 986.081C1228.13 988.365 1226.96 990.482 1225.42 992.308C1223.87 994.134 1221.98 995.631 1219.84 996.711C1215.12 999.221 1207.57 1001.54 1197.11 999.651C1197.11 999.651 1172.57 999.311 1159.88 997.391C1158.32 997.149 1156.77 996.815 1155.24 996.391L1127.31 988.801L1138.92 967.211Z" fill="white"/>
<path opacity="0.3" d="M1125.82 991.5L1124.91 991.02L1138.54 965.16L1091.09 940.83C1074.3 932.31 1041.5 916.42 1041.17 916.26L1041.63 915.33C1041.96 915.49 1074.76 931.39 1091.56 939.91L1139.94 964.71L1125.82 991.5Z" fill="black"/>
<path opacity="0.1" d="M1051 973.919C1051 973.919 1073.55 977.609 1123.58 992.589L1126.4 992.449L1058.69 971.669C1058.69 971.669 1053.61 971.189 1051 973.919Z" fill="black"/>
<path opacity="0.3" d="M1253 938.591L1252.39 937.751C1258.46 933.361 1259.84 929.011 1259.85 928.971L1260.85 929.271C1260.79 929.461 1259.35 934.001 1253 938.591Z" fill="black"/>
<path d="M1106.82 727.18L1105.82 714.18C1104.47 702.24 1092.4 703.92 1094.13 715.79C1095.86 727.66 1105.72 727 1105.72 727L1106.82 727.18Z" fill="#FC9D9D"/>
<path opacity="0.2" d="M1097 710.65C1097.04 710.729 1097.1 710.799 1097.16 710.855C1097.23 710.911 1097.31 710.952 1097.39 710.975C1097.48 710.999 1097.57 711.004 1097.66 710.991C1097.74 710.978 1097.83 710.948 1097.9 710.9C1098.17 710.653 1098.48 710.468 1098.83 710.361C1099.18 710.253 1099.54 710.226 1099.9 710.28C1100.61 710.62 1101.15 711.223 1101.42 711.96C1101.92 713.174 1102.17 714.477 1102.16 715.79L1102.22 717.16C1102.22 718.29 1103.53 718.02 1103.52 717.16V715.92C1103.58 714.317 1103.26 712.723 1102.58 711.27C1102.4 710.732 1102.1 710.242 1101.7 709.834C1101.3 709.426 1100.82 709.11 1100.29 708.91C1099.76 708.79 1099.21 708.802 1098.69 708.945C1098.16 709.088 1097.68 709.358 1097.29 709.73C1097.16 709.843 1097.07 709.988 1097.02 710.15C1096.97 710.312 1096.96 710.485 1097 710.65V710.65Z" fill="black"/>
<path d="M1101.23 722.73C1101.3 722.355 1101.47 722.007 1101.73 721.728C1101.99 721.449 1102.33 721.249 1102.7 721.154C1103.06 721.058 1103.45 721.07 1103.82 721.188C1104.18 721.306 1104.5 721.525 1104.74 721.82C1104.98 722.114 1105.14 722.472 1105.18 722.851C1105.23 723.229 1105.16 723.613 1105 723.957C1104.83 724.3 1104.57 724.589 1104.25 724.79C1103.93 724.991 1103.55 725.095 1103.17 725.09C1102.6 725.029 1102.08 724.748 1101.72 724.306C1101.35 723.865 1101.18 723.299 1101.23 722.73V722.73Z" class="change-color-in-svg" fill="#4D61FC"/>
<path opacity="0.15" d="M1104.27 724.791C1104.12 724.939 1103.94 725.052 1103.74 725.123C1103.54 725.194 1103.32 725.22 1103.11 725.201C1102.83 725.169 1102.55 725.08 1102.3 724.941C1102.05 724.801 1101.83 724.614 1101.65 724.388C1101.48 724.163 1101.35 723.905 1101.27 723.629C1101.2 723.353 1101.17 723.065 1101.21 722.781C1101.25 722.051 1101.58 721.367 1102.13 720.881C1101.91 721.281 1101.77 721.724 1101.73 722.181C1101.65 722.808 1101.83 723.439 1102.22 723.938C1102.6 724.436 1103.17 724.761 1103.8 724.841C1103.89 724.741 1104.09 724.761 1104.27 724.791Z" fill="black"/>
<path d="M1153 727.18L1154 714.18C1155.37 702.24 1167.64 703.92 1165.88 715.79C1164.12 727.66 1154.09 727 1154.09 727L1153 727.18Z" fill="#FC9D9D"/>
<path opacity="0.2" d="M1163 710.649C1162.96 710.728 1162.9 710.796 1162.83 710.852C1162.76 710.907 1162.68 710.947 1162.59 710.971C1162.51 710.994 1162.42 711 1162.33 710.988C1162.24 710.975 1162.16 710.945 1162.08 710.899C1161.81 710.656 1161.49 710.475 1161.15 710.368C1160.8 710.261 1160.44 710.231 1160.08 710.279C1159.37 710.615 1158.81 711.219 1158.54 711.959C1158.03 713.171 1157.78 714.475 1157.79 715.789L1157.73 717.159C1157.73 718.289 1156.39 718.019 1156.4 717.159V715.919C1156.35 714.312 1156.7 712.716 1157.4 711.269C1157.59 710.729 1157.9 710.237 1158.3 709.829C1158.7 709.422 1159.19 709.107 1159.73 708.909C1160.26 708.798 1160.81 708.814 1161.33 708.956C1161.85 709.099 1162.33 709.364 1162.73 709.729C1162.85 709.848 1162.94 709.994 1162.98 710.155C1163.03 710.316 1163.04 710.486 1163 710.649V710.649Z" fill="black"/>
<path d="M1158.67 722.73C1158.6 722.357 1158.43 722.011 1158.17 721.733C1157.92 721.455 1157.59 721.255 1157.22 721.158C1156.85 721.06 1156.47 721.068 1156.11 721.181C1155.74 721.294 1155.42 721.508 1155.18 721.797C1154.93 722.086 1154.77 722.438 1154.72 722.813C1154.67 723.189 1154.73 723.571 1154.88 723.916C1155.04 724.261 1155.29 724.554 1155.61 724.762C1155.92 724.97 1156.29 725.083 1156.67 725.09C1157.25 725.039 1157.78 724.762 1158.16 724.32C1158.53 723.879 1158.71 723.307 1158.67 722.73V722.73Z" class="change-color-in-svg" fill="#4D61FC"/>
<path opacity="0.15" d="M1155.58 724.791C1155.73 724.94 1155.92 725.053 1156.12 725.124C1156.32 725.195 1156.54 725.221 1156.75 725.201C1157.04 725.171 1157.32 725.085 1157.57 724.946C1157.82 724.808 1158.05 724.621 1158.23 724.396C1158.41 724.171 1158.54 723.912 1158.62 723.635C1158.7 723.358 1158.72 723.067 1158.69 722.781C1158.64 722.048 1158.3 721.365 1157.75 720.881C1157.97 721.281 1158.11 721.724 1158.15 722.181C1158.22 722.812 1158.04 723.446 1157.65 723.945C1157.26 724.444 1156.68 724.766 1156.05 724.841C1156 724.741 1155.76 724.761 1155.58 724.791Z" fill="black"/>
<path d="M1073.58 927.24H1193.77C1194.03 927.24 1194.29 927.346 1194.48 927.533C1194.66 927.721 1194.77 927.975 1194.77 928.24V931.42C1194.77 931.879 1194.59 932.319 1194.26 932.644C1193.94 932.968 1193.5 933.15 1193.04 933.15H1074.34C1073.88 933.15 1073.44 932.968 1073.12 932.644C1072.79 932.319 1072.61 931.879 1072.61 931.42V928.24C1072.61 927.98 1072.71 927.73 1072.89 927.544C1073.07 927.357 1073.32 927.248 1073.58 927.24Z" fill="#61656D"/>
<path opacity="0.2" d="M1073.58 927.24H1193.77C1194.03 927.24 1194.29 927.346 1194.48 927.533C1194.66 927.721 1194.77 927.975 1194.77 928.24V931.42C1194.77 931.879 1194.59 932.319 1194.26 932.644C1193.94 932.968 1193.5 933.15 1193.04 933.15H1074.34C1073.88 933.15 1073.44 932.968 1073.12 932.644C1072.79 932.319 1072.61 931.879 1072.61 931.42V928.24C1072.61 927.98 1072.71 927.73 1072.89 927.544C1073.07 927.357 1073.32 927.248 1073.58 927.24Z" fill="black"/>
<path d="M1073.45 927.351C1073.12 927.349 1072.8 927.224 1072.56 927C1072.32 926.776 1072.17 926.47 1072.14 926.141L1066.14 853.041C1066.1 852.681 1066.14 852.317 1066.25 851.972C1066.36 851.627 1066.54 851.309 1066.78 851.037C1067.01 850.764 1067.31 850.544 1067.63 850.39C1067.96 850.236 1068.32 850.151 1068.68 850.141H1199.68C1200.05 850.149 1200.41 850.237 1200.75 850.397C1201.08 850.558 1201.38 850.787 1201.62 851.071C1201.86 851.354 1202.04 851.686 1202.14 852.042C1202.24 852.399 1202.26 852.774 1202.21 853.141L1193.64 926.081C1193.6 926.402 1193.44 926.698 1193.2 926.912C1192.96 927.126 1192.64 927.243 1192.32 927.241L1073.45 927.351Z" fill="#61656D"/>
<g opacity="0.2">
<path opacity="0.2" d="M1073.45 927.351C1073.12 927.349 1072.8 927.224 1072.56 927C1072.32 926.776 1072.17 926.47 1072.14 926.141L1066.14 853.041C1066.1 852.681 1066.14 852.317 1066.25 851.972C1066.36 851.627 1066.54 851.309 1066.78 851.037C1067.01 850.764 1067.31 850.544 1067.63 850.39C1067.96 850.236 1068.32 850.151 1068.68 850.141H1199.68C1200.05 850.149 1200.41 850.237 1200.75 850.397C1201.08 850.558 1201.38 850.787 1201.62 851.071C1201.86 851.354 1202.04 851.686 1202.14 852.042C1202.24 852.399 1202.26 852.774 1202.21 853.141L1193.64 926.081C1193.6 926.402 1193.44 926.698 1193.2 926.912C1192.96 927.126 1192.64 927.243 1192.32 927.241L1073.45 927.351Z" fill="black"/>
</g>
<path d="M1073.44 927.38C1073.11 927.376 1072.8 927.25 1072.56 927.026C1072.31 926.802 1072.17 926.497 1072.14 926.169L1066.14 855.08C1066.11 854.725 1066.15 854.368 1066.26 854.031C1066.37 853.694 1066.56 853.383 1066.79 853.119C1067.03 852.855 1067.32 852.644 1067.65 852.497C1067.97 852.351 1068.32 852.274 1068.68 852.27H1199.68C1200.04 852.272 1200.4 852.352 1200.73 852.504C1201.06 852.656 1201.36 852.876 1201.6 853.15C1201.84 853.424 1202.01 853.746 1202.12 854.094C1202.23 854.442 1202.26 854.809 1202.21 855.169L1193.64 926.07C1193.6 926.392 1193.45 926.689 1193.2 926.904C1192.96 927.118 1192.64 927.234 1192.32 927.229L1073.44 927.38Z" fill="#61656D"/>
<path opacity="0.4" d="M1141 892.6C1140.01 892.669 1139.04 892.345 1138.29 891.699C1137.54 891.053 1137.08 890.137 1137 889.15C1137.01 888.619 1137.15 888.098 1137.41 887.633C1137.67 887.168 1138.04 886.772 1138.48 886.48C1137.43 886.043 1136.29 885.819 1135.15 885.82C1130.86 885.82 1127.38 888.82 1127.38 892.53C1127.38 896.24 1130.86 899.24 1135.15 899.24C1139.44 899.24 1142.92 896.24 1142.92 892.53C1142.92 892.41 1142.92 892.29 1142.92 892.18C1142.32 892.458 1141.66 892.602 1141 892.6Z" fill="white"/>
<g opacity="0.2">
<path opacity="0.2" d="M1193.28 927.79H1074.58C1074.47 927.79 1074.37 927.748 1074.3 927.673C1074.22 927.598 1074.18 927.496 1074.18 927.39C1074.18 927.284 1074.22 927.182 1074.3 927.107C1074.37 927.032 1074.47 926.99 1074.58 926.99H1193.28C1193.39 926.99 1193.49 927.032 1193.56 927.107C1193.64 927.182 1193.68 927.284 1193.68 927.39C1193.68 927.496 1193.64 927.598 1193.56 927.673C1193.49 927.748 1193.39 927.79 1193.28 927.79Z" fill="black"/>
</g>
<g opacity="0.4">
<path opacity="0.4" d="M1188.94 802.551H1188.13C1188.13 789.551 1196.69 779.741 1196.78 779.641L1197.38 780.181C1197.3 780.281 1188.94 789.851 1188.94 802.551Z" fill="black"/>
</g>
<g opacity="0.4">
<path opacity="0.4" d="M1078.71 800.93H1077.9C1077.9 788.22 1069.54 778.65 1069.46 778.56L1070.07 778.02C1070.15 778.12 1078.71 787.91 1078.71 800.93Z" fill="black"/>
</g>
<path d="M1128.88 747.479L1130.68 747.549C1133.86 747.546 1137.01 746.916 1139.95 745.694C1142.89 744.472 1145.56 742.683 1147.8 740.429C1150.05 738.174 1151.82 735.499 1153.03 732.556C1154.24 729.613 1154.86 726.461 1154.85 723.279L1155.03 688.899C1155.05 687.833 1154.86 686.773 1154.47 685.781C1154.07 684.789 1153.49 683.885 1152.74 683.12C1152 682.356 1151.11 681.747 1150.13 681.328C1149.15 680.909 1148.1 680.688 1147.03 680.679L1115.51 680.289C1112.72 680.3 1110.04 681.417 1108.07 683.397C1106.1 685.376 1105 688.056 1105 690.849L1104.83 722.849C1105 736.199 1115.65 747.399 1128.88 747.479Z" fill="#FC9D9D"/>
<path d="M1137.89 717.059C1137.37 717.073 1136.86 716.933 1136.42 716.657C1135.99 716.38 1135.64 715.98 1135.43 715.507C1135.22 715.034 1135.15 714.508 1135.24 713.998C1135.33 713.487 1135.56 713.014 1135.92 712.638C1136.28 712.262 1136.74 712 1137.24 711.885C1137.75 711.771 1138.27 711.808 1138.76 711.994C1139.24 712.179 1139.66 712.504 1139.96 712.926C1140.26 713.349 1140.43 713.851 1140.44 714.369C1140.46 714.715 1140.4 715.061 1140.28 715.385C1140.16 715.71 1139.98 716.006 1139.74 716.258C1139.5 716.509 1139.21 716.709 1138.9 716.847C1138.58 716.985 1138.24 717.057 1137.89 717.059Z" fill="black"/>
<path d="M1136.72 715.941C1136.64 715.948 1136.57 715.939 1136.5 715.914C1136.42 715.89 1136.36 715.85 1136.3 715.798C1136.25 715.746 1136.2 715.683 1136.17 715.613C1136.14 715.543 1136.13 715.467 1136.13 715.391C1136.12 715.315 1136.14 715.238 1136.16 715.166C1136.19 715.094 1136.23 715.028 1136.28 714.972C1136.33 714.917 1136.4 714.873 1136.47 714.843C1136.54 714.814 1136.61 714.799 1136.69 714.801C1136.84 714.801 1136.99 714.861 1137.09 714.968C1137.2 715.075 1137.26 715.22 1137.26 715.371C1137.26 715.522 1137.2 715.667 1137.09 715.774C1136.99 715.881 1136.84 715.941 1136.69 715.941H1136.72Z" fill="white"/>
<path d="M1117.22 717.059C1116.7 717.073 1116.19 716.933 1115.75 716.657C1115.32 716.38 1114.97 715.98 1114.76 715.507C1114.55 715.034 1114.48 714.508 1114.57 713.998C1114.66 713.487 1114.89 713.014 1115.25 712.638C1115.61 712.262 1116.07 712 1116.57 711.885C1117.08 711.771 1117.6 711.808 1118.09 711.994C1118.57 712.179 1118.99 712.504 1119.29 712.926C1119.59 713.349 1119.76 713.851 1119.77 714.369C1119.79 714.715 1119.73 715.061 1119.61 715.385C1119.49 715.71 1119.31 716.006 1119.07 716.258C1118.83 716.509 1118.54 716.709 1118.23 716.847C1117.91 716.985 1117.57 717.057 1117.22 717.059Z" fill="black"/>
<path d="M1116.16 715.71C1116.01 715.71 1115.86 715.65 1115.76 715.543C1115.65 715.436 1115.59 715.291 1115.59 715.14C1115.59 714.989 1115.65 714.844 1115.76 714.737C1115.86 714.63 1116.01 714.57 1116.16 714.57C1116.24 714.564 1116.31 714.575 1116.38 714.6C1116.46 714.626 1116.52 714.667 1116.58 714.72C1116.63 714.773 1116.67 714.837 1116.7 714.907C1116.73 714.978 1116.74 715.054 1116.74 715.13C1116.61 715.47 1116.39 715.7 1116.16 715.71Z" fill="white"/>
<path opacity="0.2" d="M1127.75 726L1131.31 726.47C1131.51 726.507 1131.71 726.466 1131.88 726.354C1132.04 726.242 1132.16 726.069 1132.2 725.873C1132.24 725.677 1132.2 725.473 1132.09 725.306C1131.98 725.139 1131.8 725.022 1131.61 724.98L1128.06 724.5C1127.64 724.447 1127.25 724.232 1126.99 723.899C1126.72 723.567 1126.6 723.143 1126.64 722.72C1126.71 722.296 1126.92 721.91 1127.25 721.63C1127.58 721.35 1127.99 721.194 1128.42 721.19C1128.61 721.196 1128.8 721.142 1128.97 721.034C1129.13 720.927 1129.25 720.771 1129.32 720.59C1129.33 720.395 1129.28 720.202 1129.17 720.04C1129.06 719.878 1128.9 719.755 1128.72 719.69C1127.9 719.597 1127.08 719.83 1126.43 720.339C1125.78 720.848 1125.36 721.593 1125.26 722.41C1125.13 722.812 1125.09 723.239 1125.16 723.657C1125.22 724.075 1125.38 724.473 1125.62 724.82C1125.86 725.168 1126.18 725.455 1126.55 725.659C1126.92 725.864 1127.33 725.98 1127.75 726Z" fill="black"/>
<path d="M1106.56 711.709C1106.36 714.373 1107.23 717.007 1108.97 719.032C1110.71 721.056 1113.19 722.305 1115.85 722.504C1118.52 722.703 1121.15 721.835 1123.18 720.092C1125.2 718.349 1126.45 715.873 1126.65 713.209C1126.81 711.377 1126.47 709.536 1125.65 707.889C1127.29 707.421 1129.02 707.439 1130.65 707.939C1130.22 708.982 1129.95 710.085 1129.85 711.209C1129.7 713.198 1130.14 715.186 1131.12 716.923C1132.1 718.66 1133.57 720.067 1135.35 720.967C1137.13 721.867 1139.14 722.218 1141.12 721.977C1143.1 721.736 1144.96 720.913 1146.47 719.613C1147.99 718.313 1149.08 716.593 1149.61 714.672C1150.15 712.75 1150.1 710.714 1149.47 708.819C1148.85 706.925 1147.68 705.259 1146.11 704.03C1144.54 702.802 1142.64 702.067 1140.65 701.919C1138.79 701.76 1136.92 702.126 1135.25 702.977C1133.59 703.827 1132.19 705.127 1131.23 706.729C1129.21 706.008 1127.02 705.973 1124.98 706.629C1124.11 705.408 1122.98 704.389 1121.68 703.642C1120.37 702.894 1118.92 702.436 1117.43 702.299C1116.09 702.18 1114.75 702.332 1113.47 702.744C1112.19 703.156 1111.01 703.821 1110 704.699C1108.98 705.577 1108.16 706.65 1107.57 707.855C1106.98 709.059 1106.63 710.37 1106.56 711.709V711.709ZM1130.75 711.379C1130.88 709.655 1131.52 708.009 1132.59 706.649C1133.65 705.289 1135.1 704.276 1136.74 703.739C1138.39 703.203 1140.15 703.165 1141.82 703.633C1143.48 704.1 1144.97 705.051 1146.09 706.366C1147.21 707.68 1147.92 709.297 1148.12 711.014C1148.33 712.731 1148.02 714.469 1147.23 716.009C1146.44 717.548 1145.22 718.819 1143.71 719.661C1142.2 720.504 1140.47 720.879 1138.75 720.739C1136.48 720.487 1134.38 719.38 1132.9 717.641C1131.41 715.903 1130.64 713.664 1130.75 711.379ZM1107.75 711.749C1107.88 710.025 1108.52 708.379 1109.59 707.019C1110.65 705.659 1112.1 704.646 1113.74 704.109C1115.39 703.573 1117.15 703.535 1118.82 704.003C1120.48 704.47 1121.97 705.421 1123.09 706.736C1124.21 708.05 1124.92 709.667 1125.12 711.384C1125.33 713.101 1125.02 714.839 1124.23 716.379C1123.44 717.918 1122.22 719.189 1120.71 720.031C1119.2 720.874 1117.47 721.249 1115.75 721.109C1114.61 721.022 1113.5 720.71 1112.48 720.192C1111.45 719.675 1110.55 718.96 1109.8 718.091C1109.06 717.222 1108.49 716.214 1108.14 715.126C1107.78 714.037 1107.65 712.89 1107.74 711.749H1107.75Z" fill="white"/>
<path d="M1142.66 681.59C1142.66 681.59 1144.5 703.11 1154.78 711.5C1154.78 711.5 1155.53 705.77 1163.31 706.36C1163.31 706.36 1163.96 704.97 1164.92 698.55C1165.88 692.13 1161.05 665.45 1131.44 667.97C1131.44 667.97 1121.92 666.29 1109.12 677.97C1096.32 689.65 1104.4 701.73 1104.4 701.73C1104.4 701.73 1126.33 698.13 1142.66 681.59Z" fill="black"/>
<path d="M1135.45 731.881C1135.89 731.881 1135.99 732.221 1135.89 732.561C1135.32 733.868 1134.38 734.982 1133.19 735.768C1132 736.554 1130.61 736.978 1129.19 736.99C1127.76 737.002 1126.36 736.6 1125.16 735.833C1123.96 735.067 1123 733.968 1122.41 732.671C1122.38 732.599 1122.37 732.522 1122.38 732.445C1122.38 732.369 1122.41 732.295 1122.45 732.229C1122.49 732.164 1122.55 732.109 1122.61 732.07C1122.68 732.03 1122.75 732.006 1122.83 732.001L1135.45 731.881Z" fill="white"/>
<path d="M724.39 346.301H453.93V527.391H724.39V346.301Z" fill="white"/>
<path d="M453.311 345.68V528H725.001V345.68H453.311ZM454.541 526.77V363.07H723.771V526.77H454.541Z" fill="#868A91"/>
<path d="M467.551 353.43C467.551 354.023 467.375 354.603 467.045 355.096C466.716 355.59 466.247 355.974 465.699 356.201C465.151 356.428 464.547 356.488 463.966 356.372C463.384 356.256 462.849 355.971 462.429 355.551C462.01 355.131 461.724 354.597 461.608 354.015C461.493 353.433 461.552 352.83 461.779 352.282C462.006 351.733 462.391 351.265 462.884 350.935C463.377 350.606 463.957 350.43 464.551 350.43C465.346 350.43 466.11 350.746 466.672 351.308C467.235 351.871 467.551 352.634 467.551 353.43V353.43Z" fill="white"/>
<path d="M478 353.43C478 354.023 477.824 354.603 477.494 355.096C477.165 355.59 476.696 355.974 476.148 356.201C475.6 356.428 474.997 356.488 474.415 356.372C473.833 356.256 473.298 355.971 472.879 355.551C472.459 355.131 472.173 354.597 472.058 354.015C471.942 353.433 472.001 352.83 472.228 352.282C472.455 351.733 472.84 351.265 473.333 350.935C473.827 350.606 474.407 350.43 475 350.43C475.796 350.43 476.559 350.746 477.121 351.308C477.684 351.871 478 352.634 478 353.43V353.43Z" fill="white"/>
<path d="M488.221 353.43C488.221 354.023 488.045 354.603 487.715 355.096C487.385 355.59 486.917 355.974 486.369 356.201C485.821 356.428 485.217 356.488 484.635 356.372C484.053 356.256 483.519 355.971 483.099 355.551C482.68 355.131 482.394 354.597 482.278 354.015C482.163 353.433 482.222 352.83 482.449 352.282C482.676 351.733 483.061 351.265 483.554 350.935C484.047 350.606 484.627 350.43 485.221 350.43C486.016 350.43 486.779 350.746 487.342 351.308C487.905 351.871 488.221 352.634 488.221 353.43Z" fill="white"/>
<path d="M537.75 443.311L583.42 476.481C572.42 491.611 556.42 499.751 537.75 499.751V443.311Z" fill="#DADDDF"/>
<path d="M537.75 443.311L555.19 389.631C562.24 391.92 568.77 395.575 574.408 400.389C580.045 405.202 584.678 411.079 588.044 417.683C591.409 424.288 593.44 431.49 594.021 438.88C594.602 446.27 593.722 453.702 591.43 460.751C589.652 466.401 586.949 471.716 583.43 476.481L537.75 443.311Z" fill="#B2B6BB"/>
<path d="M537.749 443.309V499.749C522.909 499.552 508.744 493.518 498.32 482.954C487.895 472.39 482.051 458.146 482.051 443.304C482.051 428.463 487.895 414.219 498.32 403.655C508.744 393.091 522.909 387.057 537.749 386.859C543.676 386.81 549.57 387.746 555.189 389.629L537.749 443.309Z" class="change-color-in-svg" fill="#4D61FC"/>
<path d="M565.027 445.322C567.405 430.608 557.405 416.753 542.692 414.375C527.978 411.997 514.123 421.997 511.745 436.711C509.367 451.424 519.367 465.279 534.08 467.657C548.794 470.035 562.649 460.035 565.027 445.322Z" fill="white"/>
<path d="M680.55 402.999C680.532 402.705 680.574 402.411 680.674 402.134C680.773 401.857 680.927 401.603 681.127 401.387C681.327 401.171 681.568 400.998 681.837 400.878C682.106 400.758 682.396 400.694 682.69 400.689C682.983 400.694 683.272 400.758 683.539 400.879C683.806 400.999 684.046 401.173 684.243 401.389C684.441 401.605 684.592 401.86 684.688 402.137C684.784 402.413 684.822 402.707 684.8 402.999V402.999C684.82 403.29 684.78 403.583 684.682 403.858C684.584 404.133 684.431 404.385 684.232 404.599C684.033 404.812 683.791 404.982 683.524 405.099C683.256 405.215 682.967 405.275 682.675 405.275C682.383 405.275 682.094 405.215 681.826 405.099C681.558 404.982 681.317 404.812 681.118 404.599C680.919 404.385 680.766 404.133 680.668 403.858C680.57 403.583 680.53 403.29 680.55 402.999V402.999ZM683.66 402.999C683.66 402.279 683.24 401.679 682.66 401.679C682.08 401.679 681.66 402.279 681.66 402.969C681.66 403.699 682.07 404.279 682.66 404.279C683.25 404.279 683.66 403.719 683.66 402.999ZM682 408.999L687.91 400.919C687.966 400.812 688.056 400.726 688.167 400.678C688.278 400.629 688.402 400.62 688.519 400.651C688.636 400.683 688.738 400.753 688.809 400.851C688.88 400.949 688.916 401.068 688.91 401.189C688.908 401.313 688.866 401.432 688.79 401.529L682.88 409.599C682.831 409.673 682.764 409.733 682.685 409.774C682.607 409.814 682.518 409.833 682.43 409.829C682.297 409.829 682.17 409.776 682.076 409.683C681.983 409.589 681.93 409.462 681.93 409.329C681.921 409.215 681.945 409.1 682 408.999V408.999ZM686 407.589C685.98 407.298 686.02 407.005 686.118 406.73C686.216 406.455 686.369 406.203 686.568 405.99C686.767 405.776 687.008 405.606 687.276 405.49C687.544 405.373 687.833 405.313 688.125 405.313C688.417 405.313 688.706 405.373 688.974 405.49C689.241 405.606 689.482 405.776 689.682 405.99C689.881 406.203 690.034 406.455 690.132 406.73C690.23 407.005 690.27 407.298 690.25 407.589C690.268 407.882 690.225 408.176 690.126 408.453C690.027 408.729 689.873 408.982 689.673 409.197C689.472 409.413 689.231 409.585 688.962 409.704C688.694 409.822 688.404 409.886 688.11 409.889C687.821 409.884 687.537 409.821 687.273 409.704C687.01 409.587 686.772 409.418 686.576 409.207C686.379 408.996 686.226 408.747 686.127 408.476C686.028 408.205 685.985 407.917 686 407.629V407.589ZM689.1 407.589C689.1 406.869 688.69 406.269 688.1 406.269C687.51 406.269 687.1 406.869 687.1 407.559C687.1 408.289 687.51 408.869 688.1 408.869C688.69 408.869 689.1 408.329 689.1 407.629V407.589Z" class="change-color-in-svg" fill="#4D61FC"/>
<path d="M678.151 400.25H665.98V411.2H678.151V400.25Z" class="change-color-in-svg" fill="#4D61FC"/>
<path d="M697 393.551H615.48V417.881H697V393.551Z" stroke="#868A91" stroke-width="1.22" stroke-miterlimit="10"/>
<path d="M656.45 402.07H623.19C622.632 402.07 622.18 402.522 622.18 403.08V403.09C622.18 403.648 622.632 404.1 623.19 404.1H656.45C657.008 404.1 657.46 403.648 657.46 403.09V403.08C657.46 402.522 657.008 402.07 656.45 402.07Z" fill="#868A91"/>
<path d="M656.45 407.34H623.19C622.632 407.34 622.18 407.792 622.18 408.35V408.36C622.18 408.918 622.632 409.37 623.19 409.37H656.45C657.008 409.37 657.46 408.918 657.46 408.36V408.35C657.46 407.792 657.008 407.34 656.45 407.34Z" fill="#868A91"/>
<path d="M680.55 439.521C680.532 439.227 680.574 438.933 680.674 438.656C680.773 438.379 680.927 438.125 681.127 437.909C681.327 437.693 681.568 437.52 681.837 437.4C682.106 437.28 682.396 437.215 682.69 437.211C682.98 437.215 683.266 437.279 683.531 437.398C683.796 437.516 684.035 437.687 684.232 437.9C684.429 438.113 684.581 438.364 684.679 438.637C684.776 438.911 684.818 439.201 684.8 439.491V439.491C684.82 439.782 684.78 440.074 684.682 440.349C684.584 440.625 684.431 440.877 684.232 441.09C684.033 441.304 683.791 441.474 683.524 441.59C683.256 441.706 682.967 441.766 682.675 441.766C682.383 441.766 682.094 441.706 681.826 441.59C681.558 441.474 681.317 441.304 681.118 441.09C680.919 440.877 680.766 440.625 680.668 440.349C680.57 440.074 680.53 439.782 680.55 439.491V439.521ZM683.66 439.521C683.66 438.801 683.24 438.201 682.66 438.201C682.08 438.201 681.66 438.801 681.66 439.491C681.66 440.221 682.07 440.801 682.66 440.801C683.25 440.801 683.66 440.221 683.66 439.521ZM682.03 445.521L687.94 437.441C687.996 437.333 688.086 437.248 688.197 437.199C688.308 437.15 688.432 437.141 688.549 437.173C688.666 437.204 688.768 437.275 688.839 437.373C688.91 437.47 688.946 437.59 688.94 437.711C688.939 437.834 688.896 437.954 688.82 438.051L682.91 446.121C682.861 446.195 682.794 446.255 682.715 446.295C682.637 446.336 682.548 446.355 682.46 446.351C682.394 446.352 682.328 446.34 682.267 446.315C682.206 446.291 682.15 446.254 682.103 446.207C682.057 446.16 682.02 446.105 681.995 446.044C681.971 445.982 681.959 445.917 681.96 445.851C681.945 445.746 681.959 445.638 682 445.541L682.03 445.521ZM686.03 444.111C686.01 443.819 686.05 443.527 686.148 443.252C686.245 442.977 686.399 442.725 686.598 442.511C686.797 442.298 687.038 442.127 687.306 442.011C687.574 441.895 687.863 441.835 688.155 441.835C688.447 441.835 688.736 441.895 689.004 442.011C689.271 442.127 689.513 442.298 689.712 442.511C689.911 442.725 690.064 442.977 690.162 443.252C690.26 443.527 690.3 443.819 690.28 444.111V444.111C690.298 444.404 690.255 444.698 690.156 444.974C690.057 445.25 689.903 445.504 689.703 445.719C689.502 445.934 689.261 446.106 688.992 446.225C688.724 446.344 688.434 446.407 688.14 446.411C687.847 446.41 687.558 446.349 687.289 446.232C687.021 446.116 686.779 445.945 686.578 445.732C686.378 445.519 686.223 445.266 686.124 444.991C686.024 444.716 685.982 444.423 686 444.131L686.03 444.111ZM689.13 444.111C689.13 443.391 688.72 442.791 688.13 442.791C687.54 442.791 687.13 443.391 687.13 444.081C687.13 444.811 687.54 445.391 688.13 445.391C688.72 445.391 689.1 444.831 689.1 444.131L689.13 444.111Z" fill="#B2B6BB"/>
<path d="M678.151 436.75H665.98V447.7H678.151V436.75Z" fill="#B2B6BB"/>
<path d="M697 430.061H615.48V454.391H697V430.061Z" stroke="#868A91" stroke-width="1.22" stroke-miterlimit="10"/>
<path d="M656.45 438.57H623.19C622.632 438.57 622.18 439.022 622.18 439.58V439.59C622.18 440.148 622.632 440.6 623.19 440.6H656.45C657.008 440.6 657.46 440.148 657.46 439.59V439.58C657.46 439.022 657.008 438.57 656.45 438.57Z" fill="#868A91"/>
<path d="M656.45 443.85H623.19C622.632 443.85 622.18 444.302 622.18 444.86V444.87C622.18 445.427 622.632 445.88 623.19 445.88H656.45C657.008 445.88 657.46 445.427 657.46 444.87V444.86C657.46 444.302 657.008 443.85 656.45 443.85Z" fill="#868A91"/>
<path d="M680.55 475.999C680.532 475.705 680.574 475.411 680.674 475.134C680.773 474.857 680.927 474.603 681.127 474.387C681.327 474.171 681.568 473.998 681.837 473.878C682.106 473.758 682.396 473.694 682.69 473.689C682.983 473.694 683.272 473.758 683.539 473.879C683.806 473.999 684.046 474.173 684.243 474.389C684.441 474.605 684.592 474.86 684.688 475.137C684.784 475.413 684.822 475.707 684.8 475.999V475.999C684.82 476.29 684.78 476.583 684.682 476.858C684.584 477.133 684.431 477.385 684.232 477.599C684.033 477.812 683.791 477.982 683.524 478.099C683.256 478.215 682.967 478.275 682.675 478.275C682.383 478.275 682.094 478.215 681.826 478.099C681.558 477.982 681.317 477.812 681.118 477.599C680.919 477.385 680.766 477.133 680.668 476.858C680.57 476.583 680.53 476.29 680.55 475.999V475.999ZM683.66 475.999C683.66 475.279 683.24 474.679 682.66 474.679C682.08 474.679 681.66 475.279 681.66 475.969C681.66 476.699 682.07 477.279 682.66 477.279C683.25 477.279 683.66 476.719 683.66 475.999ZM682 481.999L687.91 473.919C687.966 473.812 688.056 473.726 688.167 473.678C688.278 473.629 688.402 473.62 688.519 473.651C688.636 473.683 688.738 473.753 688.809 473.851C688.88 473.949 688.916 474.068 688.91 474.189C688.908 474.313 688.866 474.432 688.79 474.529L682.88 482.599C682.832 482.674 682.765 482.736 682.686 482.778C682.608 482.82 682.519 482.841 682.43 482.839C682.363 482.839 682.298 482.826 682.236 482.8C682.175 482.774 682.119 482.737 682.073 482.689C682.026 482.642 681.99 482.585 681.965 482.524C681.941 482.462 681.929 482.396 681.93 482.329C681.921 482.215 681.945 482.1 682 481.999V481.999ZM686 480.589C685.98 480.298 686.02 480.005 686.118 479.73C686.216 479.455 686.369 479.203 686.568 478.99C686.767 478.776 687.008 478.606 687.276 478.49C687.544 478.373 687.833 478.313 688.125 478.313C688.417 478.313 688.706 478.373 688.974 478.49C689.241 478.606 689.482 478.776 689.682 478.99C689.881 479.203 690.034 479.455 690.132 479.73C690.23 480.005 690.27 480.298 690.25 480.589V480.589C690.268 480.882 690.225 481.176 690.126 481.453C690.027 481.729 689.873 481.982 689.673 482.197C689.472 482.413 689.231 482.585 688.962 482.704C688.694 482.822 688.404 482.886 688.11 482.889C687.821 482.884 687.537 482.821 687.273 482.704C687.01 482.587 686.772 482.418 686.576 482.207C686.379 481.996 686.226 481.747 686.127 481.476C686.028 481.205 685.985 480.917 686 480.629V480.589ZM689.1 480.589C689.1 479.869 688.69 479.279 688.1 479.279C687.51 479.279 687.1 479.869 687.1 480.559C687.1 481.289 687.51 481.869 688.1 481.869C688.69 481.869 689.1 481.329 689.1 480.629V480.589Z" fill="#DADDDF"/>
<path d="M678.151 473.25H665.98V484.2H678.151V473.25Z" fill="#DADDDF"/>
<path d="M697 466.561H615.48V490.891H697V466.561Z" stroke="#868A91" stroke-width="1.22" stroke-miterlimit="10"/>
<path d="M656.45 475.07H623.19C622.632 475.07 622.18 475.522 622.18 476.08V476.09C622.18 476.648 622.632 477.1 623.19 477.1H656.45C657.008 477.1 657.46 476.648 657.46 476.09V476.08C657.46 475.522 657.008 475.07 656.45 475.07Z" fill="#868A91"/>
<path d="M656.45 480.35H623.19C622.632 480.35 622.18 480.802 622.18 481.36V481.37C622.18 481.927 622.632 482.38 623.19 482.38H656.45C657.008 482.38 657.46 481.927 657.46 481.37V481.36C657.46 480.802 657.008 480.35 656.45 480.35Z" fill="#868A91"/>
<path d="M758.241 962.75H635.801V978.29H758.241V962.75Z" fill="#61656D"/>
<path opacity="0.2" d="M658.851 962.75H635.561V978.29H658.851V962.75Z" fill="black"/>
<path opacity="0.2" d="M743.68 962.75H726.6V978.29H743.68V962.75Z" fill="white"/>
<path d="M758.241 931.66H635.801V947.2H758.241V931.66Z" fill="#61656D"/>
<path opacity="0.2" d="M658.851 931.66H635.561V947.2H658.851V931.66Z" fill="black"/>
<path opacity="0.2" d="M743.68 931.66H726.6V947.2H743.68V931.66Z" fill="white"/>
<path d="M758.241 885.039H635.801V900.579H758.241V885.039Z" fill="#61656D"/>
<path opacity="0.2" d="M658.851 885.039H635.561V900.579H658.851V885.039Z" fill="black"/>
<path opacity="0.2" d="M743.68 885.039H726.6V900.579H743.68V885.039Z" fill="white"/>
<path d="M772.821 978.289H650.381V993.829H772.821V978.289Z" fill="#61656D"/>
<path opacity="0.2" d="M674.28 977.43H650.99V992.97H674.28V977.43Z" fill="black"/>
<path opacity="0.2" d="M758.25 978.289H741.17V993.829H758.25V978.289Z" fill="white"/>
<path d="M772.821 916.119H650.381V931.659H772.821V916.119Z" fill="#61656D"/>
<path opacity="0.2" d="M674.28 916.119H650.99V931.659H674.28V916.119Z" fill="black"/>
<path opacity="0.2" d="M758.25 916.119H741.17V931.659H758.25V916.119Z" fill="white"/>
<path d="M772.821 900.58H650.381V916.12H772.821V900.58Z" fill="#61656D"/>
<path opacity="0.2" d="M674.28 900.58H650.99V916.12H674.28V900.58Z" fill="black"/>
<path opacity="0.2" d="M758.25 900.58H741.17V916.12H758.25V900.58Z" fill="white"/>
<path d="M772.821 947.199H650.381V962.739H772.821V947.199Z" fill="#61656D"/>
<path opacity="0.2" d="M674.28 947.199H650.99V962.739H674.28V947.199Z" fill="black"/>
<path opacity="0.2" d="M758.25 947.199H741.17V962.739H758.25V947.199Z" fill="white"/>
<g opacity="0.3">
<path opacity="0.3" d="M758.251 977.789H650.381V978.769H758.251V977.789Z" fill="black"/>
</g>
<g opacity="0.3">
<path opacity="0.3" d="M758.251 962.25H650.381V963.23H758.251V962.25Z" fill="black"/>
</g>
<g opacity="0.3">
<path opacity="0.3" d="M758.251 946.711H650.381V947.691H758.251V946.711Z" fill="black"/>
</g>
<g opacity="0.3">
<path opacity="0.3" d="M758.251 931.17H650.381V932.15H758.251V931.17Z" fill="black"/>
</g>
<g opacity="0.3">
<path opacity="0.3" d="M772.821 915.631H650.381V916.611H772.821V915.631Z" fill="black"/>
</g>
<g opacity="0.3">
<path opacity="0.3" d="M772.821 900.09H650.381V901.07H772.821V900.09Z" fill="black"/>
</g>
<path d="M636.211 991.176C664.667 981.4 679.811 950.406 670.035 921.95C660.259 893.494 629.265 878.351 600.809 888.127C572.353 897.903 557.21 928.896 566.986 957.352C576.762 985.808 607.755 1000.95 636.211 991.176Z" fill="#61656D"/>
<path opacity="0.2" d="M636.211 991.176C664.667 981.4 679.811 950.406 670.035 921.95C660.259 893.494 629.265 878.351 600.809 888.127C572.353 897.903 557.21 928.896 566.986 957.352C576.762 985.808 607.755 1000.95 636.211 991.176Z" fill="black"/>
<path d="M618.155 993.405C648.16 991.159 670.663 965.015 668.417 935.011C666.172 905.006 640.028 882.503 610.023 884.749C580.019 886.994 557.516 913.138 559.761 943.143C562.007 973.147 588.151 995.65 618.155 993.405Z" fill="#61656D"/>
<path opacity="0.2" d="M618.155 993.405C648.16 991.159 670.663 965.015 668.417 935.011C666.172 905.006 640.028 882.503 610.023 884.749C580.019 886.994 557.516 913.138 559.761 943.143C562.007 973.147 588.151 995.65 618.155 993.405Z" fill="white"/>
<path d="M636.269 976.691C657.088 964.481 664.067 937.706 651.858 916.888C639.648 896.069 612.874 889.09 592.055 901.299C571.236 913.509 564.257 940.283 576.466 961.102C588.676 981.921 615.451 988.9 636.269 976.691Z" fill="#61656D"/>
<path opacity="0.2" d="M572.731 937.179C573.703 925.632 579.221 914.943 588.072 907.463C596.923 899.982 608.382 896.323 619.931 897.289C628.931 898.049 637.981 902.389 644.531 907.659C640.419 903.606 635.544 900.409 630.189 898.251C624.833 896.094 619.104 895.019 613.33 895.089C607.557 895.159 601.855 896.373 596.554 898.66C591.253 900.948 586.458 904.263 582.445 908.414C578.433 912.566 575.284 917.472 573.179 922.848C571.074 928.224 570.055 933.964 570.182 939.737C570.309 945.509 571.579 951.199 573.918 956.477C576.258 961.756 579.62 966.518 583.811 970.489C579.799 965.671 576.87 960.048 575.221 953.999C573.761 948.939 572.271 942.689 572.731 937.179Z" fill="black"/>
<path d="M609 969.001L609.53 962.751C602.53 961.841 599.17 959.131 599.88 950.631C600.02 948.804 600.308 946.991 600.74 945.211L609.64 945.961C609.467 946.776 609.343 947.601 609.27 948.431C608.97 952.121 609.03 954.231 612.64 954.531C616.25 954.831 616.64 953.531 617.08 948.841C617.27 946.521 617.34 945.711 616.15 944.481C613.71 941.781 607.28 939.541 604.33 937.031C601.69 934.871 601.33 932.091 601.9 924.631C602.62 916.051 605.43 913.371 613.65 913.631L614.06 908.631L619.12 909.061L618.7 914.061C626.21 915.061 628.64 917.891 628 925.511C627.87 927.146 627.626 928.77 627.27 930.371L618.44 929.631C618.592 928.73 618.695 927.822 618.75 926.911C619.04 923.541 618.7 921.821 615.33 921.531C612.44 921.291 611.56 922.191 611.22 926.201C610.87 930.371 611.08 930.791 613.7 932.201C616.56 933.821 619.37 934.941 621.84 936.361C625.3 938.431 627.64 939.431 626.94 947.691C625.94 959.321 623.46 963.151 614.59 963.051L614.06 969.381L609 969.001Z" fill="#F4F4F4"/>
<path d="M922.58 946C923.799 946.253 924.953 946.75 925.976 947.459C926.998 948.169 927.867 949.077 928.53 950.13C929.844 952.252 930.655 954.646 930.9 957.13C931.51 961.89 930.02 967.21 928.1 971.6C923.37 969.16 921.01 963.44 920 960.47C918.4 955.77 918.36 946.3 922.58 946.02" class="change-color-in-svg" fill="#4D61FC"/>
<path d="M935.17 978.68C934.449 977.492 934.055 976.135 934.029 974.745C934.002 973.356 934.344 971.985 935.02 970.77C935.715 969.568 936.642 968.517 937.748 967.677C938.854 966.838 940.116 966.227 941.46 965.88C942.06 965.655 942.702 965.564 943.341 965.612C943.98 965.661 944.601 965.848 945.16 966.16C945.63 966.534 945.99 967.028 946.203 967.589C946.416 968.15 946.474 968.759 946.37 969.35C946.152 970.536 945.624 971.644 944.84 972.56C942.31 975.79 939.27 978.46 935.17 978.68" class="change-color-in-svg" fill="#4D61FC"/>
<path d="M925.761 980.84C924.6 978.15 922.816 975.774 920.555 973.91C918.295 972.046 915.623 970.747 912.761 970.12C911.311 969.82 909.511 969.83 908.671 971.06C907.831 972.29 908.511 973.98 909.361 975.2C911.198 977.706 913.735 979.614 916.653 980.681C919.571 981.749 922.74 981.929 925.761 981.2" class="change-color-in-svg" fill="#4D61FC"/>
<path d="M923.721 953.301C924.701 956.634 925.637 960.007 926.531 963.421C927.431 966.801 928.261 970.201 929.121 973.601C929.981 977.001 930.741 980.411 931.491 983.831C932.241 987.251 932.941 990.681 933.571 994.131L928.571 973.731L926.111 963.521C925.291 960.121 924.494 956.714 923.721 953.301Z" fill="#21252B"/>
<path d="M934 993.451C933.626 991.342 933.462 989.202 933.51 987.061C933.549 984.912 933.813 982.774 934.3 980.681C934.799 978.57 935.691 976.572 936.93 974.791C937.561 973.911 938.308 973.121 939.15 972.441C940.007 971.795 940.949 971.27 941.95 970.881C940.056 971.834 938.445 973.269 937.28 975.041C936.14 976.812 935.318 978.768 934.85 980.821C934.345 982.873 934.043 984.97 933.95 987.081C933.822 989.203 933.838 991.331 934 993.451V993.451Z" fill="#21252B"/>
<path d="M932.9 993.691C932.175 991.692 931.323 989.741 930.35 987.851C929.407 985.964 928.285 984.173 927 982.501C925.738 980.816 924.191 979.364 922.43 978.211C920.633 977.058 918.563 976.402 916.43 976.311C917.501 976.258 918.575 976.355 919.62 976.601C920.669 976.878 921.678 977.291 922.62 977.831C924.472 978.959 926.097 980.424 927.41 982.151C928.716 983.862 929.833 985.709 930.74 987.661C931.653 989.596 932.376 991.616 932.9 993.691V993.691Z" fill="#21252B"/>
<path d="M393 946C391.783 946.253 390.63 946.75 389.609 947.459C388.588 948.169 387.721 949.077 387.06 950.13C385.741 952.25 384.93 954.645 384.69 957.13C384.08 961.89 385.56 967.21 387.48 971.6C392.22 969.16 394.57 963.44 395.59 960.47C397.19 955.77 397.22 946.3 393 946.02" class="change-color-in-svg" fill="#4D61FC"/>
<path d="M380.45 978.68C381.171 977.492 381.564 976.135 381.591 974.745C381.617 973.356 381.275 971.985 380.6 970.77C379.906 969.567 378.979 968.515 377.873 967.675C376.767 966.835 375.505 966.225 374.16 965.88C373.56 965.655 372.918 965.564 372.279 965.612C371.64 965.661 371.019 965.848 370.46 966.16C369.991 966.535 369.632 967.029 369.42 967.59C369.207 968.151 369.148 968.759 369.25 969.35C369.468 970.536 369.996 971.644 370.78 972.56C373.31 975.79 376.35 978.46 380.45 978.68" class="change-color-in-svg" fill="#4D61FC"/>
<path d="M389.859 980.84C391.02 978.15 392.804 975.774 395.065 973.91C397.325 972.046 399.997 970.747 402.859 970.12C404.319 969.82 406.119 969.83 406.949 971.06C407.779 972.29 407.119 973.98 406.259 975.2C404.423 977.706 401.885 979.614 398.967 980.681C396.049 981.749 392.88 981.929 389.859 981.2" class="change-color-in-svg" fill="#4D61FC"/>
<path d="M391.901 953.301C390.921 956.634 389.987 960.007 389.101 963.421C388.201 966.801 387.361 970.201 386.511 973.601C385.661 977.001 384.891 980.411 384.141 983.831C383.391 987.251 382.681 990.681 382.051 994.131L387.051 973.731L389.511 963.521C390.331 960.121 391.127 956.714 391.901 953.301Z" fill="#21252B"/>
<path d="M381.62 993.451C381.99 991.342 382.151 989.201 382.1 987.061C382.071 984.912 381.807 982.772 381.31 980.681C380.81 978.572 379.922 976.574 378.69 974.791C378.053 973.914 377.303 973.124 376.46 972.441C375.606 971.791 374.663 971.265 373.66 970.881C375.557 971.83 377.169 973.266 378.33 975.041C379.474 976.81 380.297 978.766 380.76 980.821C381.264 982.874 381.568 984.97 381.67 987.081C381.789 989.203 381.772 991.331 381.62 993.451Z" fill="#21252B"/>
<path d="M382.73 993.689C383.446 991.687 384.298 989.735 385.28 987.849C386.225 985.957 387.357 984.165 388.66 982.499C389.917 980.809 391.465 979.357 393.23 978.209C395.026 977.053 397.097 976.397 399.23 976.309C398.155 976.256 397.078 976.353 396.03 976.599C394.981 976.876 393.972 977.29 393.03 977.829C391.182 978.962 389.558 980.427 388.24 982.149C386.934 983.858 385.82 985.705 384.92 987.659C383.992 989.592 383.259 991.612 382.73 993.689Z" fill="#21252B"/>
</svg>
