<svg class="gridItem__media" version="1.1" id="Layer_1" xmlns="http://www.w3.org/2000/svg" xmlns:xlink="http://www.w3.org/1999/xlink" x="0px" y="0px" width="1600" height="1200"	 viewBox="0 0 1600 1200" style="enable-background:new 0 0 1600 1200;" xml:space="preserve" fill="none">
<path d="M254.42 1055.2L151.25 650.531C150.006 641.519 151.168 632.338 154.62 623.921L365.23 286.171C365.675 285.433 366.079 284.672 366.44 283.891C367.755 280.983 369.743 278.429 372.24 276.442C374.737 274.454 377.672 273.09 380.8 272.461C382.172 272.197 383.525 271.843 384.85 271.401L780.05 166.771C785.914 164.775 792.22 164.467 798.25 165.881H798.38L1283.49 286.421C1292.12 288.561 1299.24 295.321 1302.49 304.471L1446.3 705.471C1449.43 714.362 1450.08 723.939 1448.17 733.171L1345.11 1059L254.42 1055.2Z" fill="#F4F4F4"/>
<path d="M1131.71 627.15L1131.87 627.37L1138.59 636.37L1138.75 636.59L1139 636.48L1145 633.81C1146.84 635.25 1148.86 636.453 1151 637.39C1151.18 639.65 1151.35 641.89 1151.51 643.97V644.24H1151.79L1162.91 645.86H1163.18L1163.28 645.61C1164.09 643.48 1164.9 641.38 1165.65 639.45C1167.98 639.155 1170.26 638.578 1172.45 637.73L1177.45 642.01L1177.65 642.18L1177.86 642.03L1186.86 635.3L1187.05 635.15L1186.95 634.93C1186.02 632.82 1185.1 630.76 1184.26 628.93C1185.71 627.071 1186.92 625.035 1187.86 622.87L1194.47 622.34H1194.69V622.13C1195.25 618.223 1195.78 614.513 1196.29 611V610.81L1196.1 610.73L1189.88 608.35C1189.58 605.984 1188.99 603.665 1188.11 601.45L1192.43 596.37L1192.52 596.26L1192.44 596.15L1185.67 587.15V587.08H1185.59L1181 589.18L1179.82 589.73L1179.42 589.94C1179.32 589.828 1179.2 589.728 1179.08 589.64C1178.85 589.45 1178.49 589.16 1177.99 588.81C1176.5 587.747 1174.91 586.842 1173.23 586.11C1173.1 584.27 1172.94 582.11 1172.75 579.4V579.27H1172.62L1161.5 577.6H1161.34L1161.28 577.76C1160.54 579.68 1159.74 581.76 1158.87 583.97C1156.51 584.241 1154.19 584.816 1151.97 585.68L1146.97 581.35L1146.81 581.21L1146.64 581.34L1137.64 588.03L1137.46 588.17L1137.55 588.38C1138.42 590.38 1139.32 592.4 1140.23 594.44C1138.78 596.278 1137.56 598.295 1136.62 600.44L1130 601H1129.75V601.25C1129.22 604.87 1128.68 608.576 1128.11 612.37V612.63L1128.35 612.73L1134.52 615.11C1134.8 617.436 1135.37 619.718 1136.22 621.9L1131.93 626.9L1131.71 627.15ZM1171.71 604.15C1172.2 605.007 1172.64 605.888 1173.04 606.79C1174.03 609.288 1174.15 612.045 1173.38 614.62C1172.86 616.379 1171.94 617.992 1170.69 619.33C1169.25 620.863 1167.43 621.987 1165.42 622.59C1164.34 622.922 1163.21 623.083 1162.08 623.07C1160.9 623.079 1159.73 622.904 1158.6 622.55C1156.22 621.82 1154.13 620.348 1152.64 618.347C1151.15 616.347 1150.34 613.923 1150.33 611.43C1150.3 610.254 1150.47 609.082 1150.82 607.96C1151.13 606.873 1151.61 605.841 1152.24 604.9C1153.15 603.523 1154.33 602.349 1155.72 601.454C1157.1 600.559 1158.66 599.962 1160.29 599.701C1161.92 599.44 1163.58 599.52 1165.18 599.936C1166.77 600.352 1168.27 601.096 1169.56 602.12C1170.3 602.743 1171 603.407 1171.66 604.11L1171.71 604.15ZM1178.86 589.57C1178.56 589.35 1178.25 589.15 1177.94 588.94L1178.07 589.02L1178.86 589.57Z" fill="#61656D"/>
<path opacity="0.5" d="M1131.71 627.15L1131.87 627.37L1138.59 636.37L1138.75 636.59L1139 636.48L1145 633.81C1146.84 635.25 1148.86 636.453 1151 637.39C1151.18 639.65 1151.35 641.89 1151.51 643.97V644.24H1151.79L1162.91 645.86H1163.18L1163.28 645.61C1164.09 643.48 1164.9 641.38 1165.65 639.45C1167.98 639.155 1170.26 638.578 1172.45 637.73L1177.45 642.01L1177.65 642.18L1177.86 642.03L1186.86 635.3L1187.05 635.15L1186.95 634.93C1186.02 632.82 1185.1 630.76 1184.26 628.93C1185.71 627.071 1186.92 625.035 1187.86 622.87L1194.47 622.34H1194.69V622.13C1195.25 618.223 1195.78 614.513 1196.29 611V610.81L1196.1 610.73L1189.88 608.35C1189.58 605.984 1188.99 603.665 1188.11 601.45L1192.43 596.37L1192.52 596.26L1192.44 596.15L1185.67 587.15V587.08H1185.59L1181 589.18L1179.82 589.73L1179.42 589.94C1179.32 589.828 1179.2 589.728 1179.08 589.64C1178.85 589.45 1178.49 589.16 1177.99 588.81C1176.5 587.747 1174.91 586.842 1173.23 586.11C1173.1 584.27 1172.94 582.11 1172.75 579.4V579.27H1172.62L1161.5 577.6H1161.34L1161.28 577.76C1160.54 579.68 1159.74 581.76 1158.87 583.97C1156.51 584.241 1154.19 584.816 1151.97 585.68L1146.97 581.35L1146.81 581.21L1146.64 581.34L1137.64 588.03L1137.46 588.17L1137.55 588.38C1138.42 590.38 1139.32 592.4 1140.23 594.44C1138.78 596.278 1137.56 598.295 1136.62 600.44L1130 601H1129.75V601.25C1129.22 604.87 1128.68 608.576 1128.11 612.37V612.63L1128.35 612.73L1134.52 615.11C1134.8 617.436 1135.37 619.718 1136.22 621.9L1131.93 626.9L1131.71 627.15ZM1171.71 604.15C1172.2 605.007 1172.64 605.888 1173.04 606.79C1174.03 609.288 1174.15 612.045 1173.38 614.62C1172.86 616.379 1171.94 617.992 1170.69 619.33C1169.25 620.863 1167.43 621.987 1165.42 622.59C1164.34 622.922 1163.21 623.083 1162.08 623.07C1160.9 623.079 1159.73 622.904 1158.6 622.55C1156.22 621.82 1154.13 620.348 1152.64 618.347C1151.15 616.347 1150.34 613.923 1150.33 611.43C1150.3 610.254 1150.47 609.082 1150.82 607.96C1151.13 606.873 1151.61 605.841 1152.24 604.9C1153.15 603.523 1154.33 602.349 1155.72 601.454C1157.1 600.559 1158.66 599.962 1160.29 599.701C1161.92 599.44 1163.58 599.52 1165.18 599.936C1166.77 600.352 1168.27 601.096 1169.56 602.12C1170.3 602.743 1171 603.407 1171.66 604.11L1171.71 604.15ZM1178.86 589.57C1178.56 589.35 1178.25 589.15 1177.94 588.94L1178.07 589.02L1178.86 589.57Z" fill="white"/>
<path d="M1122.09 537.73L1122.3 538.01L1130.87 549.53L1131.08 549.81L1131.4 549.67L1139.1 546.26C1141.46 548.098 1144.04 549.633 1146.78 550.83C1147 553.72 1147.22 556.58 1147.43 559.23V559.58H1147.78L1161.98 561.65H1162.33L1162.45 561.33C1163.45 558.62 1164.52 555.94 1165.45 553.46C1168.42 553.098 1171.34 552.359 1174.13 551.26L1180.54 556.74L1180.79 556.95L1181.05 556.76C1185.05 553.76 1188.94 550.86 1192.56 548.17L1192.81 547.98L1192.68 547.69C1191.48 545.01 1190.31 542.37 1189.24 539.97C1191.09 537.593 1192.64 534.993 1193.84 532.23L1202.28 531.55H1202.56V531.28C1203.28 526.28 1203.97 521.54 1204.56 517.07V516.82L1204.32 516.73L1196.32 513.73C1195.95 510.708 1195.2 507.747 1194.07 504.92L1199.58 498.42L1199.7 498.28L1199.59 498.14L1190.95 486.67L1190.88 486.58L1190.78 486.63L1184.93 489.3L1183.42 490.01C1183.08 490.17 1182.91 490.26 1182.9 490.27C1182.77 490.13 1182.62 490.003 1182.47 489.89C1182.17 489.65 1181.72 489.28 1181.08 488.83C1179.18 487.477 1177.14 486.325 1175 485.39C1174.83 483.04 1174.63 480.23 1174.39 476.81V476.65H1174.23L1160.03 474.51H1159.83L1159.75 474.71C1158.75 477.16 1157.75 479.76 1156.66 482.63C1153.64 482.984 1150.69 483.724 1147.86 484.83L1141.43 479.29L1141.22 479.11L1141 479.27L1129.47 487.83L1129.24 488L1129.35 488.27L1133 496C1131.14 498.367 1129.59 500.961 1128.38 503.72L1119.96 504.36H1119.64L1119.59 504.69C1118.92 509.303 1118.23 514.036 1117.5 518.89V519.22L1117.81 519.34L1125.67 522.34C1126.04 525.313 1126.77 528.229 1127.86 531.02C1126.05 533.126 1124.23 535.26 1122.38 537.42L1122.09 537.73ZM1173.09 508.31C1173 508.37 1173.88 509.43 1174.79 511.68C1176.05 514.87 1176.2 518.393 1175.22 521.68C1174.56 523.922 1173.38 525.977 1171.78 527.68C1169.95 529.637 1167.62 531.069 1165.05 531.83C1163.67 532.26 1162.23 532.469 1160.79 532.45C1159.28 532.468 1157.78 532.242 1156.35 531.78C1153.31 530.849 1150.64 528.97 1148.74 526.418C1146.84 523.865 1145.8 520.772 1145.78 517.59C1145.75 514.626 1146.61 511.72 1148.23 509.24C1149.39 507.481 1150.9 505.983 1152.67 504.841C1154.44 503.698 1156.43 502.935 1158.51 502.602C1160.59 502.268 1162.72 502.37 1164.75 502.901C1166.79 503.433 1168.7 504.383 1170.35 505.69C1172.26 507.23 1173 508.38 1173.11 508.31H1173.09Z" fill="#B2B6BB"/>
<path d="M1277.51 618.6C1274.33 619.759 1271.05 620.583 1267.7 621.06L1263.43 632.11L1241.23 628.83L1240.33 617.02C1237.27 615.596 1234.37 613.861 1231.67 611.84L1220.83 616.62L1207.47 598.62L1215.19 589.62C1214.03 586.445 1213.21 583.157 1212.74 579.81L1201.74 575.52L1205.05 553.37L1216.85 552.49C1218.29 549.413 1220.05 546.494 1222.09 543.78L1217.34 532.98L1235.25 519.74L1244.25 527.47C1247.49 526.296 1250.84 525.471 1254.25 525.01L1258.54 514.01L1280.3 517.33L1281.12 529.13C1283.63 530.381 1286.06 531.794 1288.39 533.36L1290.21 534.57L1299.58 530.3L1300.92 529.85L1313.98 547.27L1306.37 556.21C1307.57 559.443 1308.42 562.795 1308.91 566.21L1319.91 570.45L1316.96 590.73L1316.71 592.44L1304.94 593.36C1303.51 596.448 1301.77 599.377 1299.73 602.1L1304.52 612.93L1286.52 626.28L1277.51 618.6ZM1295.71 601.6L1296.34 600.8C1298.68 597.804 1300.64 594.525 1302.16 591.04L1302.57 590.1L1313.65 589.24L1316.07 572.64L1305.67 568.64L1305.55 567.64C1305.09 563.826 1304.14 560.088 1302.72 556.52L1302.35 555.52L1309.52 547.1L1299.64 534L1289.79 538.48L1286.38 536.21C1283.93 534.564 1281.36 533.1 1278.69 531.83L1277.75 531.42L1276.99 520.32L1260.61 517.82L1256.61 528.13L1255.61 528.25C1251.8 528.688 1248.07 529.612 1244.5 531L1243.5 531.37L1235.06 524.09L1221.53 534.09L1226 544.27L1225.37 545.07C1223.02 548.048 1221.06 551.314 1219.53 554.79L1219.11 555.73L1207.99 556.56L1205.49 573.33L1215.88 577.33L1216 578.33C1216.44 582.098 1217.35 585.795 1218.73 589.33L1219.1 590.33L1211.83 598.78L1222 612.4L1232.2 607.9L1233.01 608.54C1235.98 610.863 1239.23 612.808 1242.68 614.33L1243.62 614.74L1244.46 625.86L1261.28 628.34L1265.28 617.94L1266.28 617.82C1270.05 617.364 1273.74 616.437 1277.28 615.06L1278.28 614.69L1286.74 621.94L1300.32 611.84L1295.71 601.6ZM1260.39 593.53C1258.25 593.537 1256.12 593.199 1254.08 592.53C1249.75 591.189 1245.95 588.511 1243.24 584.88V584.88C1240.56 581.243 1239.1 576.855 1239.07 572.34C1239.03 570.191 1239.34 568.05 1239.98 566C1240.55 564.033 1241.42 562.165 1242.56 560.46C1244.52 557.461 1247.2 555.002 1250.35 553.308C1253.51 551.613 1257.04 550.737 1260.62 550.76C1265.53 550.78 1270.28 552.454 1274.12 555.51C1276.89 557.754 1279.04 560.665 1280.37 563.97C1282.15 568.511 1282.36 573.517 1280.96 578.19C1279.94 581.614 1278.09 584.729 1275.56 587.253C1273.03 589.777 1269.92 591.628 1266.49 592.64L1265.74 592.85C1264 593.326 1262.2 593.569 1260.39 593.57V593.53ZM1252.51 556.04C1249.62 557.476 1247.16 559.653 1245.38 562.35C1243.45 565.327 1242.43 568.802 1242.45 572.35C1242.47 576.162 1243.7 579.869 1245.98 582.928C1248.25 585.987 1251.44 588.237 1255.09 589.35C1258.48 590.405 1262.1 590.429 1265.5 589.42C1268.38 588.572 1271.01 587.016 1273.14 584.894C1275.26 582.772 1276.83 580.151 1277.68 577.27C1278.87 573.29 1278.68 569.028 1277.14 565.17C1276.02 562.43 1274.21 560.021 1271.9 558.17C1268.68 555.628 1264.7 554.238 1260.59 554.22C1258.96 554.224 1257.34 554.436 1255.77 554.85C1254.64 555.141 1253.55 555.553 1252.51 556.08V556.04Z" fill="#B2B6BB"/>
<path d="M1399.94 1059H209.049C208.299 1059 207.689 1058.15 207.689 1057.1C207.689 1056.05 208.299 1055.2 209.049 1055.2H1399.94C1400.69 1055.2 1401.29 1056.05 1401.29 1057.1C1401.29 1058.15 1400.69 1059 1399.94 1059Z" fill="#B2B6BB"/>
<path d="M1128.23 367.85H474.53C471.653 367.85 469.32 370.182 469.32 373.06V849.26C469.32 852.137 471.653 854.47 474.53 854.47H1128.23C1131.11 854.47 1133.44 852.137 1133.44 849.26V373.06C1133.44 370.182 1131.11 367.85 1128.23 367.85Z" class="change-color-in-svg" fill="#4D61FC"/>
<path opacity="0.6" d="M1128.23 367.85H474.53C471.653 367.85 469.32 370.182 469.32 373.06V849.26C469.32 852.137 471.653 854.47 474.53 854.47H1128.23C1131.11 854.47 1133.44 852.137 1133.44 849.26V373.06C1133.44 370.182 1131.11 367.85 1128.23 367.85Z" fill="white"/>
<path opacity="0.4" d="M473.44 367H1128.85C1129.53 367 1130.21 367.135 1130.84 367.397C1131.48 367.658 1132.05 368.042 1132.53 368.526C1133.02 369.01 1133.4 369.584 1133.66 370.216C1133.93 370.848 1134.06 371.526 1134.06 372.21V400.38H468.23V372.21C468.23 370.828 468.779 369.503 469.756 368.526C470.734 367.549 472.059 367 473.44 367Z" class="change-color-in-svg" fill="#4D61FC"/>
<path d="M1121.27 367.74H467.569C464.692 367.74 462.359 370.073 462.359 372.95V849.15C462.359 852.028 464.692 854.36 467.569 854.36H1121.27C1124.15 854.36 1126.48 852.028 1126.48 849.15V372.95C1126.48 370.073 1124.15 367.74 1121.27 367.74Z" class="change-color-in-svg" fill="#4D61FC"/>
<path opacity="0.8" d="M1121.27 367.74H467.569C464.692 367.74 462.359 370.073 462.359 372.95V849.15C462.359 852.028 464.692 854.36 467.569 854.36H1121.27C1124.15 854.36 1126.48 852.028 1126.48 849.15V372.95C1126.48 370.073 1124.15 367.74 1121.27 367.74Z" fill="white"/>
<path d="M1120.85 855.2H468C462.83 855.2 461.52 853.97 461.52 848.9V373.2C461.52 368.13 462.83 366.9 468 366.9H1120.86C1126.04 366.9 1127.35 368.13 1127.35 373.2V848.9C1127.34 854 1126 855.2 1120.85 855.2ZM468 368.57C463.77 368.57 463.23 369.05 463.23 373.2V848.9C463.23 853.05 463.77 853.52 468 853.52H1120.86C1125.1 853.52 1125.64 853.05 1125.64 848.9V373.2C1125.64 369.05 1125.1 368.57 1120.86 368.57H468Z" class="change-color-in-svg" fill="#4D61FC"/>
<path opacity="0.6" d="M1120.85 855.2H468C462.83 855.2 461.52 853.97 461.52 848.9V373.2C461.52 368.13 462.83 366.9 468 366.9H1120.86C1126.04 366.9 1127.35 368.13 1127.35 373.2V848.9C1127.34 854 1126 855.2 1120.85 855.2ZM468 368.57C463.77 368.57 463.23 369.05 463.23 373.2V848.9C463.23 853.05 463.77 853.52 468 853.52H1120.86C1125.1 853.52 1125.64 853.05 1125.64 848.9V373.2C1125.64 369.05 1125.1 368.57 1120.86 368.57H468Z" fill="white"/>
<path d="M1127.28 400.38H461.461V372.21C461.46 371.526 461.593 370.849 461.854 370.217C462.115 369.585 462.497 369.011 462.98 368.527C463.463 368.043 464.037 367.659 464.669 367.397C465.3 367.135 465.977 367 466.661 367H1122.08C1122.76 367 1123.44 367.135 1124.07 367.397C1124.7 367.659 1125.28 368.043 1125.76 368.527C1126.24 369.011 1126.63 369.585 1126.89 370.217C1127.15 370.849 1127.28 371.526 1127.28 372.21V400.38Z" class="change-color-in-svg" fill="#4D61FC"/>
<path d="M1061.65 390.899C1064.93 390.899 1067.58 388.244 1067.58 384.969C1067.58 381.694 1064.93 379.039 1061.65 379.039C1058.38 379.039 1055.72 381.694 1055.72 384.969C1055.72 388.244 1058.38 390.899 1061.65 390.899Z" fill="white"/>
<path d="M1080.5 390.899C1083.78 390.899 1086.43 388.244 1086.43 384.969C1086.43 381.694 1083.78 379.039 1080.5 379.039C1077.23 379.039 1074.57 381.694 1074.57 384.969C1074.57 388.244 1077.23 390.899 1080.5 390.899Z" fill="white"/>
<path d="M1099.35 390.899C1102.62 390.899 1105.28 388.244 1105.28 384.969C1105.28 381.694 1102.62 379.039 1099.35 379.039C1096.07 379.039 1093.42 381.694 1093.42 384.969C1093.42 388.244 1096.07 390.899 1099.35 390.899Z" fill="white"/>
<path d="M1009.79 610.949H579.06C570.042 610.949 562.73 618.26 562.73 627.279V629.009C562.73 638.028 570.042 645.339 579.06 645.339H1009.79C1018.81 645.339 1026.12 638.028 1026.12 629.009V627.279C1026.12 618.26 1018.81 610.949 1009.79 610.949Z" fill="white"/>
<path d="M1009.79 610.949H579.06C570.042 610.949 562.73 618.26 562.73 627.279V629.009C562.73 638.028 570.042 645.339 579.06 645.339H1009.79C1018.81 645.339 1026.12 638.028 1026.12 629.009V627.279C1026.12 618.26 1018.81 610.949 1009.79 610.949Z" stroke="#4D61FC" stroke-width="1.12" stroke-miterlimit="10"/>
<path d="M579.93 614.449H881.13V641.839H579.93C571.72 641.839 566.18 636.019 566.18 628.839V627.469C566.18 620.279 571.72 614.449 579.93 614.449Z" class="change-color-in-svg" fill="#4D61FC"/>
<path d="M784.529 623.829C784.529 620.979 786.309 619.189 788.769 619.209C791.229 619.229 792.929 621.029 792.899 623.909C792.869 626.789 791.149 628.549 788.689 628.519C786.229 628.489 784.509 626.669 784.529 623.829ZM790.529 623.829C790.529 622.019 789.859 621.149 788.789 621.139C787.719 621.129 787.029 622.009 787.009 623.799C786.989 625.589 787.709 626.489 788.749 626.489C789.789 626.489 790.469 625.689 790.489 623.879L790.529 623.829ZM798.869 619.449H801.739L789.999 636.309H787.129L798.869 619.449ZM795.979 631.849C795.979 628.999 797.759 627.209 800.199 627.229C802.639 627.249 804.379 629.079 804.359 631.919C804.339 634.759 802.569 636.559 800.109 636.539C797.649 636.519 795.919 634.739 795.939 631.899L795.979 631.849ZM801.919 631.899C801.919 630.119 801.239 629.219 800.179 629.209C799.119 629.199 798.409 630.059 798.399 631.869C798.389 633.679 799.089 634.549 800.129 634.559C801.169 634.569 801.859 633.739 801.879 631.999L801.919 631.899Z" fill="white"/>
<path d="M680.56 521.891H669.57C663.086 521.891 657.83 527.147 657.83 533.631V562.491C657.83 568.974 663.086 574.231 669.57 574.231H680.56C687.044 574.231 692.3 568.974 692.3 562.491V533.631C692.3 527.147 687.044 521.891 680.56 521.891Z" fill="white"/>
<path d="M731.781 539.76H720.791C714.307 539.76 709.051 545.016 709.051 551.5V562.49C709.051 568.974 714.307 574.23 720.791 574.23H731.781C738.265 574.23 743.521 568.974 743.521 562.49V551.5C743.521 545.016 738.265 539.76 731.781 539.76Z" fill="white"/>
<path d="M782.99 539.76H772C765.516 539.76 760.26 545.016 760.26 551.5V562.49C760.26 568.974 765.516 574.23 772 574.23H782.99C789.474 574.23 794.73 568.974 794.73 562.49V551.5C794.73 545.016 789.474 539.76 782.99 539.76Z" fill="white"/>
<path d="M834.211 521.891H823.22C816.737 521.891 811.48 527.147 811.48 533.631V562.491C811.48 568.974 816.737 574.231 823.22 574.231H834.211C840.694 574.231 845.951 568.974 845.951 562.491V533.631C845.951 527.147 840.694 521.891 834.211 521.891Z" fill="white"/>
<path d="M874.439 521.891H874.429C867.946 521.891 862.689 527.147 862.689 533.631V562.491C862.689 568.974 867.946 574.231 874.429 574.231H874.439C880.923 574.231 886.179 568.974 886.179 562.491V533.631C886.179 527.147 880.923 521.891 874.439 521.891Z" fill="white"/>
<path d="M919.27 539.76H914.67C908.186 539.76 902.93 545.016 902.93 551.5V562.49C902.93 568.974 908.186 574.23 914.67 574.23H919.27C925.754 574.23 931.01 568.974 931.01 562.49V551.5C931.01 545.016 925.754 539.76 919.27 539.76Z" fill="white"/>
<path d="M953.511 676.93H635.341C633.203 676.93 631.471 678.662 631.471 680.8V741.99C631.471 744.127 633.203 745.86 635.341 745.86H953.511C955.648 745.86 957.381 744.127 957.381 741.99V680.8C957.381 678.662 955.648 676.93 953.511 676.93Z" fill="white"/>
<path d="M935.541 689.91H737.391V693.77H935.541V689.91Z" fill="#DADDDF"/>
<path d="M935.541 702.949H737.391V706.809H935.541V702.949Z" fill="#DADDDF"/>
<path d="M935.541 715.99H737.391V719.85H935.541V715.99Z" fill="#DADDDF"/>
<path d="M865.201 729.02H737.391V732.88H865.201V729.02Z" fill="#DADDDF"/>
<path d="M718.76 681.68H636.91V741.1H718.76V681.68Z" fill="#F4F4F4"/>
<path d="M636.91 724.399L661.06 710.629L677.91 720.109L704.4 701.859L718.76 713.439V741.109H637.05L636.91 724.399Z" fill="#DADDDF"/>
<path d="M672.001 693.781C672.001 695.177 671.587 696.542 670.811 697.703C670.035 698.864 668.933 699.769 667.643 700.303C666.353 700.838 664.933 700.977 663.564 700.705C662.194 700.433 660.936 699.76 659.949 698.773C658.961 697.786 658.289 696.528 658.017 695.158C657.744 693.789 657.884 692.369 658.418 691.079C658.953 689.789 659.858 688.686 661.019 687.911C662.18 687.135 663.545 686.721 664.941 686.721C666.813 686.721 668.609 687.465 669.933 688.789C671.257 690.113 672.001 691.908 672.001 693.781V693.781Z" fill="#DADDDF"/>
<path d="M953.511 763.029H635.341C633.203 763.029 631.471 764.762 631.471 766.899V828.089C631.471 830.227 633.203 831.959 635.341 831.959H953.511C955.648 831.959 957.381 830.227 957.381 828.089V766.899C957.381 764.762 955.648 763.029 953.511 763.029Z" fill="white"/>
<path d="M935.541 776.02H737.391V779.88H935.541V776.02Z" fill="#DADDDF"/>
<path d="M935.541 789.051H737.391V792.911H935.541V789.051Z" fill="#DADDDF"/>
<path d="M935.541 802.09H737.391V805.95H935.541V802.09Z" fill="#DADDDF"/>
<path d="M865.201 815.131H737.391V818.991H865.201V815.131Z" fill="#DADDDF"/>
<path d="M718.76 767.789H636.91V827.209H718.76V767.789Z" fill="#F4F4F4"/>
<path d="M692.609 800.984C694.56 792.814 689.518 784.608 681.348 782.657C673.177 780.706 664.972 785.748 663.021 793.919C661.07 802.089 666.112 810.295 674.282 812.246C682.453 814.197 690.658 809.155 692.609 800.984Z" fill="#DADDDF"/>
<path d="M682.95 797.5L678.98 799.79L675.01 802.09V797.5V792.91L678.98 795.21L682.95 797.5Z" fill="#F4F4F4"/>
<path d="M625 374.42H495.3C494.632 374.422 493.978 374.61 493.411 374.963C492.844 375.316 492.386 375.821 492.09 376.42L479.4 401.93H640.89L628.19 376.41C627.896 375.815 627.441 375.314 626.878 374.962C626.314 374.611 625.664 374.423 625 374.42V374.42Z" fill="#DADDDF"/>
<path d="M1125.1 400.66H461.461V437.91H1125.1V400.66Z" fill="#DADDDF"/>
<path d="M556.58 408.41V428.91C556.565 429.196 556.661 429.477 556.847 429.694C557.033 429.912 557.295 430.05 557.58 430.08H1088.19C1088.47 430.05 1088.74 429.912 1088.92 429.694C1089.11 429.477 1089.2 429.196 1089.19 428.91V408.41C1089.2 408.124 1089.11 407.844 1088.92 407.626C1088.74 407.409 1088.47 407.271 1088.19 407.24H557.63C557.336 407.258 557.061 407.391 556.865 407.61C556.668 407.829 556.566 408.116 556.58 408.41Z" fill="white"/>
<path d="M1115.34 412.391H1098.59V414.601H1115.34V412.391Z" class="change-color-in-svg" fill="#4D61FC"/>
<path d="M1115.34 416.82H1098.59V419.03H1115.34V416.82Z" class="change-color-in-svg" fill="#4D61FC"/>
<path d="M1115.34 421.26H1098.59V423.47H1115.34V421.26Z" class="change-color-in-svg" fill="#4D61FC"/>
<path opacity="0.3" d="M1075.13 423.749L1074.83 423.579C1074.75 423.522 1074.69 423.446 1074.66 423.357C1074.62 423.269 1074.61 423.173 1074.63 423.079L1075.28 419.269L1072.28 416.389L1072.35 416.059C1072.38 415.967 1072.43 415.885 1072.5 415.823C1072.57 415.761 1072.66 415.721 1072.76 415.709L1076.58 415.149L1078.41 411.439H1078.75C1078.84 411.44 1078.94 411.466 1079.02 411.515C1079.1 411.565 1079.17 411.635 1079.21 411.719L1080.91 415.179L1085.01 415.769L1085.14 416.079C1085.17 416.17 1085.18 416.268 1085.16 416.362C1085.14 416.456 1085.09 416.542 1085.02 416.609L1082.25 419.299L1082.95 423.379L1082.71 423.599C1082.63 423.659 1082.54 423.695 1082.44 423.703C1082.34 423.712 1082.25 423.694 1082.16 423.649L1078.75 421.849L1075.13 423.749ZM1073.7 416.479L1076.23 418.939V419.239L1075.67 422.459L1078.79 420.819L1079.06 420.929L1081.96 422.459L1081.37 418.999L1081.54 418.779L1083.9 416.479L1080.41 415.969L1080.26 415.719L1078.82 412.789L1077.26 415.939L1076.98 416.009L1073.7 416.479Z" fill="black"/>
<path opacity="0.3" d="M509.839 412.209C509.7 412.127 509.537 412.093 509.376 412.113C509.216 412.133 509.066 412.207 508.952 412.321C508.837 412.436 508.764 412.585 508.743 412.746C508.723 412.907 508.757 413.07 508.839 413.209L512.709 417.079H502.419C502.226 417.079 502.04 417.156 501.903 417.293C501.766 417.43 501.689 417.616 501.689 417.809C501.689 418.003 501.766 418.188 501.903 418.325C502.04 418.462 502.226 418.539 502.419 418.539H512.899L508.899 422.539C508.774 422.676 508.705 422.854 508.705 423.039C508.705 423.224 508.774 423.403 508.899 423.539C509.034 423.669 509.213 423.741 509.399 423.741C509.586 423.741 509.765 423.669 509.899 423.539L515.589 417.849L509.839 412.209Z" fill="black"/>
<path opacity="0.3" d="M486.26 417.11H476L479.87 413.24C479.952 413.101 479.986 412.938 479.966 412.777C479.946 412.617 479.872 412.467 479.758 412.352C479.643 412.238 479.494 412.165 479.333 412.144C479.172 412.124 479.009 412.158 478.87 412.24L473.09 418L478.78 423.7C478.848 423.768 478.93 423.821 479.019 423.857C479.108 423.893 479.204 423.911 479.3 423.91C479.445 423.912 479.588 423.87 479.709 423.79C479.831 423.71 479.926 423.595 479.982 423.461C480.037 423.326 480.052 423.179 480.023 423.036C479.994 422.893 479.924 422.763 479.82 422.66L475.82 418.66H486.3C486.493 418.66 486.679 418.584 486.816 418.447C486.953 418.31 487.03 418.124 487.03 417.93C487.03 417.737 486.953 417.551 486.816 417.414C486.679 417.277 486.493 417.2 486.3 417.2L486.26 417.11Z" fill="black"/>
<g opacity="0.3">
<path opacity="0.3" d="M536.451 424.799C535.574 424.8 534.707 424.602 533.917 424.222C533.126 423.841 532.432 423.287 531.885 422.601C531.339 421.915 530.954 421.114 530.76 420.259C530.566 419.403 530.567 418.515 530.764 417.66C530.961 416.805 531.348 416.006 531.897 415.321C532.446 414.637 533.142 414.085 533.934 413.707C534.726 413.329 535.593 413.135 536.47 413.139C537.347 413.142 538.212 413.344 539.001 413.729C539.176 413.814 539.31 413.964 539.374 414.148C539.438 414.332 539.426 414.534 539.341 414.709C539.256 414.884 539.105 415.018 538.921 415.082C538.738 415.145 538.536 415.134 538.361 415.049C537.768 414.751 537.114 414.597 536.451 414.599C535.586 414.597 534.74 414.851 534.02 415.33C533.3 415.809 532.739 416.491 532.406 417.289C532.074 418.088 531.986 418.967 532.154 419.815C532.321 420.663 532.737 421.443 533.347 422.055C533.958 422.667 534.737 423.085 535.585 423.254C536.433 423.423 537.312 423.337 538.111 423.007C538.91 422.677 539.593 422.116 540.074 421.398C540.554 420.679 540.811 419.833 540.811 418.969C540.811 418.775 540.888 418.589 541.025 418.453C541.162 418.316 541.347 418.239 541.541 418.239C541.734 418.239 541.92 418.316 542.057 418.453C542.194 418.589 542.271 418.775 542.271 418.969C542.271 420.513 541.658 421.995 540.567 423.088C539.476 424.181 537.995 424.796 536.451 424.799V424.799Z" fill="black"/>
<path opacity="0.3" d="M537.36 417.27C537.185 417.275 537.015 417.218 536.879 417.108C536.743 416.998 536.651 416.843 536.619 416.671C536.588 416.5 536.619 416.322 536.707 416.171C536.796 416.021 536.935 415.906 537.1 415.85L539.85 414.8L538.79 412.05C538.724 411.868 538.731 411.667 538.809 411.49C538.887 411.313 539.031 411.173 539.21 411.1C539.3 411.064 539.396 411.047 539.493 411.049C539.589 411.051 539.684 411.072 539.773 411.111C539.861 411.15 539.941 411.206 540.007 411.277C540.074 411.347 540.126 411.429 540.16 411.52L541.74 415.64L537.63 417.22C537.543 417.251 537.452 417.268 537.36 417.27V417.27Z" fill="black"/>
</g>
<path opacity="0.3" d="M618.181 389.37L622.271 385.27C622.418 385.124 622.501 384.926 622.502 384.718C622.503 384.511 622.422 384.312 622.276 384.165C622.13 384.018 621.932 383.935 621.724 383.934C621.517 383.933 621.318 384.014 621.171 384.16L617.071 388.26L612.971 384.16C612.822 384.016 612.623 383.936 612.416 383.936C612.209 383.936 612.01 384.016 611.861 384.16C611.787 384.233 611.729 384.319 611.689 384.414C611.649 384.509 611.629 384.612 611.629 384.715C611.629 384.818 611.649 384.92 611.689 385.016C611.729 385.111 611.787 385.197 611.861 385.27L615.961 389.37L611.861 393.47C611.787 393.543 611.729 393.629 611.689 393.724C611.649 393.819 611.629 393.922 611.629 394.025C611.629 394.128 611.649 394.23 611.689 394.326C611.729 394.421 611.787 394.507 611.861 394.58C611.933 394.653 612.02 394.712 612.115 394.752C612.21 394.791 612.313 394.812 612.416 394.812C612.519 394.812 612.621 394.791 612.717 394.752C612.812 394.712 612.898 394.653 612.971 394.58L617.071 390.48L621.171 394.58C621.318 394.726 621.517 394.807 621.724 394.806C621.932 394.805 622.13 394.722 622.276 394.575C622.422 394.428 622.503 394.229 622.502 394.021C622.501 393.814 622.418 393.616 622.271 393.47L618.181 389.37Z" fill="black"/>
<path d="M512.61 603.269C596.668 603.269 664.81 535.127 664.81 451.069C664.81 367.011 596.668 298.869 512.61 298.869C428.552 298.869 360.41 367.011 360.41 451.069C360.41 535.127 428.552 603.269 512.61 603.269Z" fill="white"/>
<path opacity="0.15" d="M568.41 309.43C604.302 326.069 632.308 356.028 646.494 392.959C660.68 429.89 659.933 470.893 644.41 507.282C628.887 543.672 599.809 572.59 563.333 587.91C526.858 603.231 485.852 603.751 449 589.36C467.489 597.882 487.5 602.609 507.849 603.261C528.197 603.913 548.469 600.476 567.466 593.155C586.463 585.834 603.799 574.777 618.447 560.638C633.095 546.498 644.758 529.565 652.746 510.838C660.734 492.112 664.885 471.974 664.952 451.615C665.02 431.256 661.004 411.091 653.14 392.312C645.277 373.533 633.727 356.522 619.173 342.286C604.619 328.049 587.358 316.877 568.41 309.43Z" fill="black"/>
<path d="M608.561 472.16C602.858 496.894 587.807 518.463 566.561 532.35L586.221 562.29C614.924 543.496 635.325 514.408 643.221 481.02L608.561 472.16Z" class="change-color-in-svg" fill="#4D61FC"/>
<path opacity="0.4" d="M608.561 472.16C602.858 496.894 587.807 518.463 566.561 532.35L586.221 562.29C614.924 543.496 635.325 514.408 643.221 481.02L608.561 472.16Z" fill="black"/>
<path d="M516.52 351.551C530.923 352.127 545.023 355.861 557.824 362.488C570.625 369.115 581.814 378.473 590.599 389.901L617.84 366.621C605.693 351.253 590.327 338.732 572.822 329.938C555.318 321.144 536.1 316.292 516.52 315.721V351.551Z" class="change-color-in-svg" fill="#4D61FC"/>
<path opacity="0.2" d="M516.52 351.551C530.923 352.127 545.023 355.861 557.824 362.488C570.625 369.115 581.814 378.473 590.599 389.901L617.84 366.621C605.693 351.253 590.327 338.732 572.822 329.938C555.318 321.144 536.1 316.292 516.52 315.721V351.551Z" fill="black"/>
<path d="M595.16 396.31C605.585 412.273 611.122 430.934 611.09 450C611.087 454.853 610.73 459.699 610.02 464.5L644.85 473.39C646.193 465.666 646.862 457.84 646.85 450C646.871 422.434 638.362 395.538 622.49 373L595.16 396.31Z" class="change-color-in-svg" fill="#4D61FC"/>
<path opacity="0.3" d="M595.16 396.31C605.585 412.273 611.122 430.934 611.09 450C611.087 454.853 610.73 459.699 610.02 464.5L644.85 473.39C646.193 465.666 646.862 457.84 646.85 450C646.871 422.434 638.362 395.538 622.49 373L595.16 396.31Z" fill="black"/>
<path d="M432.431 392.821C441.15 380.579 452.556 370.495 465.774 363.342C478.993 356.188 493.673 352.155 508.691 351.551V315.721C488.496 316.313 468.695 321.458 450.766 330.77C432.836 340.082 417.24 353.321 405.141 369.501L432.431 392.821Z" class="change-color-in-svg" fill="#4D61FC"/>
<path d="M415.231 464.72C414.495 459.848 414.124 454.928 414.121 450C414.107 432.198 418.948 414.728 428.121 399.47L400.631 375.98C381.585 404.735 374.351 439.721 380.431 473.67L415.231 464.72Z" class="change-color-in-svg" fill="#4D61FC"/>
<path opacity="0.2" d="M415.231 464.72C414.495 459.848 414.124 454.928 414.121 450C414.107 432.198 418.948 414.728 428.121 399.47L400.631 375.98C381.585 404.735 374.351 439.721 380.431 473.67L415.231 464.72Z" fill="white"/>
<path d="M416.71 472.43L382 481.29C389.958 514.578 410.353 543.56 439 562.29L458.65 532.35C437.484 518.514 422.463 497.054 416.71 472.43V472.43Z" class="change-color-in-svg" fill="#4D61FC"/>
<path opacity="0.4" d="M416.71 472.43L382 481.29C389.958 514.578 410.353 543.56 439 562.29L458.65 532.35C437.484 518.514 422.463 497.054 416.71 472.43V472.43Z" fill="white"/>
<path d="M512.609 604.39C428.059 604.39 359.279 535.61 359.279 451.07C359.279 366.53 428.059 297.75 512.609 297.75C597.159 297.75 665.929 366.53 665.929 451.07C665.929 535.61 597.149 604.39 512.609 604.39ZM512.609 299.99C429.299 299.99 361.519 367.76 361.519 451.07C361.519 534.38 429.299 602.15 512.609 602.15C595.919 602.15 663.689 534.38 663.689 451.07C663.689 367.76 595.909 300 512.609 300V299.99Z" fill="#B2B6BB"/>
<path d="M515.68 440.1C517.787 441.006 520.166 441.042 522.3 440.201C524.434 439.36 526.148 437.71 527.07 435.61L574.43 338.33C574.531 338.018 574.52 337.68 574.399 337.375C574.277 337.07 574.053 336.817 573.765 336.659C573.478 336.502 573.144 336.45 572.821 336.512C572.499 336.574 572.209 336.747 572 337L511.83 427.42C511.147 428.48 510.703 429.676 510.529 430.924C510.354 432.173 510.454 433.445 510.82 434.651C511.186 435.857 511.811 436.97 512.65 437.911C513.489 438.851 514.523 439.599 515.68 440.1V440.1Z" fill="#21252B"/>
<path d="M512.61 480.171C528.681 480.171 541.71 467.142 541.71 451.071C541.71 434.999 528.681 421.971 512.61 421.971C496.538 421.971 483.51 434.999 483.51 451.071C483.51 467.142 496.538 480.171 512.61 480.171Z" fill="#DADDDF"/>
<path d="M512.61 470.099C523.12 470.099 531.64 461.579 531.64 451.069C531.64 440.559 523.12 432.039 512.61 432.039C502.1 432.039 493.58 440.559 493.58 451.069C493.58 461.579 502.1 470.099 512.61 470.099Z" class="change-color-in-svg" fill="#4D61FC"/>
<path d="M512.609 458.9C516.934 458.9 520.439 455.395 520.439 451.07C520.439 446.746 516.934 443.24 512.609 443.24C508.285 443.24 504.779 446.746 504.779 451.07C504.779 455.395 508.285 458.9 512.609 458.9Z" fill="white"/>
<path d="M512.61 480.171C506.854 480.173 501.227 478.468 496.44 475.271C491.653 472.075 487.922 467.531 485.718 462.214C483.514 456.897 482.936 451.045 484.058 445.4C485.18 439.754 487.95 434.568 492.02 430.497C496.089 426.427 501.274 423.654 506.919 422.531C512.564 421.407 518.416 421.983 523.734 424.185C529.052 426.387 533.597 430.117 536.795 434.903C539.993 439.688 541.7 445.315 541.7 451.071C541.692 458.784 538.625 466.18 533.172 471.635C527.718 477.091 520.324 480.16 512.61 480.171V480.171ZM512.61 424.171C507.297 424.169 502.103 425.742 497.685 428.693C493.266 431.643 489.822 435.837 487.787 440.745C485.753 445.653 485.22 451.054 486.255 456.265C487.29 461.476 489.848 466.263 493.604 470.02C497.36 473.778 502.146 476.337 507.356 477.374C512.567 478.411 517.968 477.88 522.877 475.847C527.785 473.814 531.981 470.372 534.933 465.954C537.884 461.537 539.46 456.344 539.46 451.031C539.442 443.918 536.606 437.103 531.574 432.076C526.541 427.049 519.723 424.221 512.61 424.211V424.171Z" fill="#B2B6BB"/>
<g opacity="0.2">
<path opacity="0.2" d="M512.609 470.061C508.852 470.061 505.178 468.946 502.054 466.858C498.929 464.771 496.494 461.803 495.056 458.332C493.618 454.86 493.241 451.039 493.974 447.354C494.708 443.668 496.517 440.283 499.174 437.626C501.832 434.968 505.217 433.159 508.903 432.426C512.588 431.693 516.409 432.069 519.88 433.507C523.352 434.945 526.32 437.38 528.407 440.505C530.495 443.629 531.609 447.303 531.609 451.061C531.609 456.1 529.608 460.932 526.044 464.496C522.481 468.059 517.648 470.061 512.609 470.061V470.061ZM512.609 434.251C509.283 434.251 506.031 435.237 503.265 437.085C500.499 438.933 498.343 441.56 497.07 444.634C495.797 447.707 495.464 451.089 496.113 454.352C496.762 457.615 498.364 460.612 500.716 462.964C503.068 465.316 506.065 466.918 509.328 467.567C512.591 468.216 515.973 467.883 519.046 466.61C522.12 465.337 524.747 463.181 526.595 460.415C528.443 457.649 529.429 454.397 529.429 451.071C529.421 446.612 527.647 442.338 524.494 439.186C521.342 436.033 517.068 434.258 512.609 434.251V434.251Z" fill="black"/>
</g>
<path d="M547.289 549.561H477.909C477.29 549.561 476.789 550.062 476.789 550.681V567.471C476.789 568.089 477.29 568.591 477.909 568.591H547.289C547.908 568.591 548.409 568.089 548.409 567.471V550.681C548.409 550.062 547.908 549.561 547.289 549.561Z" fill="#868A91"/>
<path d="M328.78 995.82C322.42 904.49 315.38 898.45 315.08 898.24L315.52 897.41C315.83 897.56 323.2 902.07 329.72 995.75L328.78 995.82Z" fill="#3F4249"/>
<path d="M335.37 995.81L334.42 995.75C338.61 929.03 334.05 892.65 334.01 892.29L334.95 892.16C334.95 892.52 339.56 928.99 335.37 995.81Z" fill="#3F4249"/>
<path d="M341.109 997.81C336.029 956.2 348.969 924.5 349.109 924.18L349.979 924.55C349.849 924.86 336.979 956.34 342.049 997.69L341.109 997.81Z" fill="#3F4249"/>
<path d="M346.41 1002.88C344.287 988.031 344.398 972.948 346.74 958.131L347.67 958.311C345.345 973.022 345.234 987.997 347.34 1002.74L346.41 1002.88Z" fill="#3F4249"/>
<path d="M349.26 924.931L353.37 924.591C356.281 924.353 359.106 923.487 361.65 922.051C362.896 921.327 364.185 920.679 365.51 920.111C370.59 918.111 376.25 918.441 381.71 918.171C390.65 917.717 399.41 915.477 407.47 911.581C407.94 911.375 408.332 911.025 408.59 910.581C409.44 909.051 407.87 907.681 406.52 906.851C399.61 902.591 392.57 898.271 384.73 896.161C376.89 894.051 368 894.381 361.3 899.001C353.45 904.401 350.59 915.501 349.3 924.941" class="change-color-in-svg" fill="#4D61FC"/>
<path opacity="0.3" d="M408.69 910.059C408.449 909.967 408.215 909.857 407.99 909.729L406.05 908.729C404.36 907.849 401.93 906.539 398.86 905.069C395.288 903.312 391.567 901.876 387.74 900.78C383.061 899.44 378.164 899.043 373.33 899.609C368.49 900.153 363.918 902.115 360.19 905.249C357.283 907.956 354.956 911.226 353.35 914.859C352.224 917.304 351.223 919.804 350.35 922.349C350.05 923.209 349.8 923.889 349.62 924.419C349.547 924.665 349.45 924.903 349.33 925.129C349.368 924.875 349.429 924.624 349.51 924.379C349.67 923.849 349.89 923.15 350.15 922.28C350.94 919.698 351.885 917.167 352.98 914.699C354.558 910.984 356.895 907.64 359.84 904.879C363.624 901.644 368.292 899.62 373.24 899.069C378.147 898.49 383.119 898.908 387.86 900.299C391.703 901.414 395.433 902.887 399 904.699C402.06 906.219 404.46 907.58 406.12 908.53L408.01 909.639C408.239 909.759 408.457 909.899 408.66 910.059" fill="black"/>
<path opacity="0.3" d="M398.829 915.35C398.749 915.48 393.379 912 386.829 907.6C380.279 903.2 375.069 899.52 375.149 899.39C375.229 899.26 380.599 902.74 387.149 907.15C393.699 911.56 398.919 915.23 398.829 915.35Z" fill="black"/>
<path opacity="0.3" d="M393.109 899.109C391.849 899.539 390.53 899.775 389.199 899.809C387.873 900.008 386.525 900.008 385.199 899.809C386.5 899.575 387.818 899.441 389.139 899.409C390.464 899.22 391.801 899.136 393.139 899.159" fill="black"/>
<path opacity="0.3" d="M369.609 896.051C369.17 897.054 368.576 897.982 367.849 898.801C367.233 899.748 366.482 900.601 365.619 901.331C366.058 900.328 366.652 899.4 367.379 898.581C367.995 897.633 368.746 896.781 369.609 896.051" fill="black"/>
<path opacity="0.3" d="M374.42 918.511C373.514 918.134 372.65 917.665 371.84 917.111C370.29 916.171 368.19 914.791 365.95 913.171C363.71 911.551 361.74 910.001 360.32 908.881C359.521 908.311 358.775 907.672 358.09 906.971C358.962 907.42 359.786 907.956 360.55 908.571L366.27 912.731C368.5 914.351 370.55 915.731 372.05 916.791C372.884 917.301 373.676 917.876 374.42 918.511" fill="black"/>
<path d="M360.391 1055.31H319.771L312.211 999.561H367.951L360.391 1055.31Z" fill="#61656D"/>
<path d="M372.679 1008.07H307.489L306.539 995.779H373.619L372.679 1008.07Z" fill="#61656D"/>
<path opacity="0.2" d="M313.359 1008.07H366.799L360.389 1055.31L353.979 1054.87L357.559 1011.85L313.779 1011.11L313.359 1008.07Z" fill="black"/>
<path opacity="0.2" d="M358.72 995.869L356.82 1008.07H372.68L373.62 995.779L358.72 995.869Z" fill="black"/>
<g opacity="0.2">
<g opacity="0.2">
<path opacity="0.2" d="M364.17 1022.1H315.84V1023.04H364.17V1022.1Z" fill="white"/>
</g>
</g>
<g opacity="0.2">
<g opacity="0.2">
<path opacity="0.2" d="M364.17 1025.87H315.84V1026.81H364.17V1025.87Z" fill="white"/>
</g>
</g>
<path d="M316.191 897.81C312.281 894.81 308.141 894.261 303.241 894.461C298.332 894.787 293.527 896.025 289.071 898.11C281.401 901.47 274.201 906.42 269.621 913.43C265.041 920.44 263.441 929.701 266.871 937.341C267.139 938.136 267.691 938.805 268.421 939.22C269.279 939.459 270.195 939.381 271.001 939C279.721 936.15 288.501 933.281 296.521 928.831C304.541 924.381 311.831 918.181 316.131 910.081C317.243 908.172 317.947 906.054 318.201 903.86C318.32 902.763 318.204 901.653 317.859 900.604C317.514 899.555 316.948 898.593 316.201 897.781" class="change-color-in-svg" fill="#4D61FC"/>
<path opacity="0.3" d="M316.271 896.891C316.071 897.001 315.86 897.088 315.641 897.151L313.811 897.781L312.491 898.221C312.011 898.391 311.491 898.601 310.941 898.821C309.841 899.271 308.561 899.711 307.211 900.371L305.071 901.371C304.331 901.711 303.591 902.131 302.811 902.531C301.231 903.311 299.631 904.301 297.931 905.311C294.297 907.593 290.844 910.151 287.601 912.961C284.401 915.821 281.422 918.92 278.691 922.231C277.481 923.791 276.291 925.231 275.321 926.721C274.821 927.451 274.321 928.131 273.871 928.821L272.641 930.821C271.811 932.081 271.211 933.291 270.641 934.331C270.351 934.851 270.081 935.331 269.841 935.791L269.241 937.041L268.381 938.771C268.296 938.98 268.185 939.179 268.051 939.361C268.104 939.143 268.181 938.931 268.281 938.731L269.041 936.951C269.221 936.561 269.411 936.131 269.611 935.671C269.811 935.211 270.101 934.671 270.371 934.191C270.931 933.131 271.511 931.901 272.321 930.631C272.701 929.981 273.111 929.301 273.531 928.631C273.951 927.961 274.461 927.241 274.961 926.501C275.961 925.011 277.101 923.501 278.311 921.951C281.04 918.601 284.03 915.471 287.251 912.591C290.515 909.761 293.999 907.196 297.671 904.921C299.391 903.921 301.011 902.921 302.611 902.171C303.401 901.781 304.151 901.361 304.901 901.031L307.071 900.031C308.431 899.401 309.731 898.971 310.851 898.551C311.411 898.351 311.931 898.151 312.411 897.991L313.761 897.591L315.621 897.061C315.835 896.989 316.056 896.939 316.281 896.911" fill="black"/>
<path opacity="0.3" d="M285.719 913.43C282.608 914.627 279.433 915.652 276.209 916.5C273.035 917.525 269.807 918.373 266.539 919.04C269.652 917.847 272.827 916.823 276.049 915.97C279.226 914.955 282.454 914.107 285.719 913.43Z" fill="black"/>
<path opacity="0.3" d="M285.329 934.42C285.156 933.43 285.086 932.425 285.119 931.42C285.069 929.59 285.059 927.05 285.119 924.26C285.179 921.47 285.349 918.93 285.499 917.11C285.529 916.117 285.653 915.13 285.869 914.16C285.964 915.158 285.964 916.162 285.869 917.16C285.809 919.16 285.729 921.61 285.649 924.3C285.569 926.99 285.519 929.44 285.469 931.45C285.494 932.453 285.437 933.456 285.299 934.45" fill="black"/>
<path opacity="0.3" d="M303.311 925.26C303.161 925.26 302.681 920.13 302.241 913.77C301.801 907.41 301.571 902.25 301.711 902.24C301.851 902.23 302.341 907.37 302.781 913.73C303.221 920.09 303.461 925.25 303.311 925.26Z" fill="black"/>
<path opacity="0.3" d="M280.931 901.741C281.926 901.613 282.93 901.58 283.931 901.641C285.811 901.641 288.411 901.711 291.271 901.811C294.131 901.911 296.731 902.021 298.611 902.131C299.617 902.142 300.621 902.239 301.611 902.421C300.6 902.55 299.578 902.584 298.561 902.521C296.681 902.521 294.081 902.451 291.221 902.351C288.361 902.251 285.751 902.141 283.881 902.031C282.874 902.021 281.871 901.924 280.881 901.741" fill="black"/>
<path d="M308.331 877.94L303.331 887.07C303.211 887.29 303.061 887.53 302.821 887.55C302.581 887.57 302.351 887.32 302.211 887.09C297.758 880.277 293.314 873.46 288.881 866.64L291.951 864.9L308.331 877.94Z" class="change-color-in-svg" fill="#4D61FC"/>
<path opacity="0.2" d="M308.331 877.94L303.331 887.07C303.211 887.29 303.061 887.53 302.821 887.55C302.581 887.57 302.351 887.32 302.211 887.09C297.758 880.277 293.314 873.46 288.881 866.64L291.951 864.9L308.331 877.94Z" fill="black"/>
<path d="M335.371 894.4L289.901 867.57C289.406 867.349 289.013 866.949 288.8 866.45C288.61 865.78 289.121 865.13 289.601 864.63C292.728 861.387 296.517 858.856 300.71 857.208C304.903 855.56 309.402 854.834 313.901 855.08C318.401 855.399 322.756 856.81 326.59 859.19C330.423 861.57 333.618 864.848 335.901 868.74C340.291 876.58 340.431 886.95 335.401 894.4" class="change-color-in-svg" fill="#4D61FC"/>
<path opacity="0.3" d="M296.449 858.999C296.646 858.953 296.847 858.93 297.049 858.929C297.439 858.929 298.049 858.839 298.769 858.849C300.884 858.819 302.996 858.986 305.079 859.349C308.184 859.869 311.209 860.786 314.079 862.079C321.185 865.208 327.088 870.551 330.909 877.309C332.477 880.038 333.684 882.959 334.499 885.999C335.073 888.032 335.452 890.115 335.629 892.219C335.709 892.969 335.679 893.159 335.699 893.549C335.666 893.906 335.546 894.249 335.349 894.549C335.486 893.79 335.51 893.015 335.419 892.249C335.158 890.171 334.726 888.117 334.129 886.109C331.842 878.451 327.189 871.714 320.836 866.864C314.484 862.013 306.759 859.299 298.769 859.109C297.279 859.109 296.459 859.109 296.449 859.049" fill="black"/>
<path opacity="0.3" d="M329.21 875.88C328.487 876.3 327.719 876.636 326.92 876.88C325.47 877.45 323.44 878.18 321.18 878.88C318.92 879.58 316.84 880.17 315.33 880.54C314.523 880.791 313.691 880.952 312.85 881.02C313.608 880.655 314.402 880.37 315.22 880.17L321.01 878.36L326.79 876.5C327.571 876.19 328.382 875.963 329.21 875.82" fill="black"/>
<path opacity="0.3" d="M322.051 856.65C322.457 858.308 322.639 860.014 322.591 861.72C322.729 863.422 322.635 865.134 322.311 866.81C322.09 865.127 322.003 863.428 322.051 861.73C321.918 860.04 321.918 858.341 322.051 856.65" fill="black"/>
<path opacity="0.3" d="M289.5 867.061C290.567 866.577 291.675 866.189 292.81 865.901C294.87 865.261 297.75 864.451 300.96 863.681C304.17 862.911 307.09 862.311 309.22 861.941C310.362 861.689 311.522 861.532 312.69 861.471C311.583 861.838 310.45 862.122 309.3 862.321C307.19 862.791 304.3 863.441 301.08 864.211C297.86 864.981 295 865.731 292.91 866.271C291.793 866.613 290.654 866.877 289.5 867.061" fill="black"/>
<path d="M354.361 945.199C350.441 944.199 345.781 947.969 344.971 951.939C344.161 955.909 345.651 959.939 347.391 963.619C351.251 971.709 356.571 979.209 363.581 984.799C370.591 990.389 379.371 993.959 388.331 993.909C386.681 986.219 388.771 978.189 387.851 970.389C387.041 963.509 383.919 957.107 378.995 952.233C374.072 947.358 367.639 944.3 360.751 943.559C358.251 943.289 355.351 942.889 354.361 945.199" class="change-color-in-svg" fill="#4D61FC"/>
<path opacity="0.3" d="M388.329 993.911C388.131 993.85 387.943 993.763 387.769 993.651C387.254 993.362 386.765 993.027 386.309 992.651C384.665 991.226 383.348 989.462 382.449 987.481C381.819 986.271 381.119 984.951 380.449 983.481L378.349 978.821C377.59 977.102 376.725 975.432 375.759 973.821C374.7 972.115 373.51 970.493 372.199 968.971C369.519 965.821 366.639 963.101 364.149 960.501C361.895 958.228 359.841 955.766 358.009 953.141C356.784 951.357 355.777 949.434 355.009 947.411C354.759 946.691 354.579 946.121 354.489 945.731C354.422 945.537 354.382 945.335 354.369 945.131C354.419 945.131 354.639 945.931 355.209 947.331C356.047 949.3 357.093 951.174 358.329 952.921C360.188 955.495 362.255 957.914 364.509 960.151C367.009 962.721 369.899 965.441 372.609 968.621C373.939 970.162 375.142 971.807 376.209 973.541C377.181 975.149 378.046 976.819 378.799 978.541C379.526 980.194 380.212 981.754 380.859 983.221C381.519 984.671 382.199 986.001 382.799 987.221C383.654 989.181 384.899 990.947 386.459 992.411C387.599 993.411 388.369 993.761 388.339 993.811" fill="black"/>
<path opacity="0.3" d="M368.09 987.519C368.109 986.632 368.23 985.749 368.45 984.889C368.76 983.279 369.26 981.059 369.94 978.649C370.62 976.239 371.34 974.089 371.94 972.559C372.203 971.708 372.562 970.889 373.01 970.119C372.86 970.993 372.626 971.851 372.31 972.679C371.82 974.239 371.16 976.399 370.48 978.799C369.8 981.199 369.25 983.389 368.84 984.969C368.68 985.841 368.435 986.695 368.11 987.519" fill="black"/>
<path opacity="0.3" d="M387.589 968.66C386.653 968.521 385.73 968.307 384.829 968.02C383.149 967.58 380.829 967.02 378.219 966.39C375.609 965.76 373.219 965.39 371.559 965.03C370.619 964.911 369.692 964.707 368.789 964.42C369.738 964.396 370.687 964.473 371.619 964.65C373.349 964.88 375.739 965.28 378.339 965.86C380.939 966.44 383.279 967.12 384.939 967.65C385.855 967.889 386.744 968.224 387.589 968.65" fill="black"/>
<path opacity="0.3" d="M353.569 974.14C353.603 973.128 353.744 972.123 353.989 971.14C354.329 969.27 354.879 966.7 355.609 963.9C356.339 961.1 357.119 958.58 357.739 956.78C358.018 955.789 358.393 954.828 358.859 953.91C358.686 954.929 358.432 955.932 358.099 956.91C357.589 958.73 356.869 961.25 356.099 964.04C355.329 966.83 354.759 969.38 354.329 971.23C354.14 972.249 353.873 973.252 353.529 974.23" fill="black"/>
<path opacity="0.3" d="M378.61 952.22C378.61 952.37 373.71 951.97 367.7 951.33C364.058 951.041 360.433 950.567 356.84 949.91C360.489 950.019 364.13 950.313 367.75 950.79C373.75 951.43 378.63 952.07 378.61 952.22Z" fill="black"/>
<path d="M335.059 906.49C334.729 902.93 331.129 900.24 327.549 900.2C323.969 900.16 320.629 902.31 318.439 905.14C316.379 908.078 314.893 911.379 314.059 914.87C311.649 923.27 310.329 932.09 311.359 940.77C312.389 949.45 315.909 957.98 322.139 964.11C323.139 965.11 324.459 966.11 325.849 965.81C326.611 965.59 327.301 965.173 327.849 964.6C333.945 959.02 338.777 952.201 342.02 944.6C345.262 936.999 346.841 928.792 346.649 920.53C346.559 917.24 346.119 913.8 344.289 911.05C342.459 908.3 338.209 905.39 335.099 906.49" class="change-color-in-svg" fill="#4D61FC"/>
<path opacity="0.3" d="M324.089 965.31C324.043 965.11 324.019 964.906 324.019 964.7C324.019 964.24 324.019 963.7 323.939 962.95C323.869 961.43 323.859 959.23 323.939 956.51C324.019 953.79 324.179 950.51 324.509 946.97C324.839 943.43 325.369 939.47 326.109 935.38C326.849 931.29 327.759 927.38 328.689 923.95C329.619 920.52 330.619 917.38 331.529 914.82C332.439 912.26 333.229 910.18 333.829 908.82L334.519 907.21C334.589 907.018 334.68 906.833 334.789 906.66C334.758 906.863 334.7 907.061 334.619 907.25L334.019 908.9C333.489 910.32 332.749 912.39 331.899 914.97C331.049 917.55 330.109 920.65 329.179 924.12C328.249 927.59 327.389 931.44 326.639 935.51C325.889 939.58 325.389 943.51 325.009 947.06C324.629 950.61 324.429 953.85 324.329 956.56C324.229 959.27 324.179 961.47 324.179 962.99C324.179 963.7 324.179 964.28 324.179 964.74C324.196 964.943 324.196 965.147 324.179 965.35" fill="black"/>
<path opacity="0.3" d="M326.481 935.539C325.953 936.271 325.346 936.941 324.671 937.539C323.491 938.709 321.821 940.289 319.921 941.959C318.021 943.629 316.231 945.079 314.921 946.089C314.243 946.683 313.502 947.199 312.711 947.629C313.321 946.957 313.99 946.341 314.711 945.789L319.601 941.549L324.451 937.259C325.084 936.624 325.777 936.051 326.521 935.549" fill="black"/>
<path opacity="0.3" d="M340.879 947.13C340.163 946.293 339.514 945.4 338.939 944.46L334.449 937.9L329.859 931.41C329.181 930.544 328.569 929.628 328.029 928.67C328.817 929.44 329.533 930.28 330.169 931.18C331.429 932.78 333.119 935.03 334.899 937.59C336.679 940.15 338.199 942.51 339.269 944.25C339.887 945.162 340.426 946.126 340.879 947.13" fill="black"/>
<path opacity="0.3" d="M333.34 910.669C333.42 910.799 328.64 914.019 322.66 917.859C316.68 921.699 311.77 924.72 311.66 924.59C311.55 924.46 316.36 921.25 322.34 917.4C328.32 913.55 333.22 910.549 333.34 910.669Z" fill="black"/>
<path opacity="0.3" d="M346.82 925.221C344.284 923.135 341.87 920.904 339.59 918.541C337.178 916.309 334.888 913.949 332.73 911.471C335.269 913.558 337.686 915.788 339.97 918.151C342.375 920.387 344.662 922.747 346.82 925.221" fill="black"/>
<path d="M388.521 738.05L315.361 761.62C315.231 761.677 315.092 761.706 314.95 761.706C314.809 761.705 314.67 761.674 314.541 761.616C314.413 761.557 314.298 761.472 314.205 761.366C314.112 761.26 314.042 761.135 314.001 761L283.601 666.47C283.551 666.34 283.529 666.201 283.537 666.062C283.544 665.922 283.58 665.786 283.643 665.662C283.707 665.538 283.795 665.428 283.903 665.34C284.011 665.252 284.136 665.187 284.271 665.15L339.081 647.49L364.351 659.64L389.201 736.73C389.283 736.995 389.257 737.282 389.13 737.529C389.003 737.776 388.784 737.963 388.521 738.05V738.05Z" fill="#DADDDF"/>
<path d="M354.88 662.751L298.426 681.127L299.277 683.742L355.732 665.366L354.88 662.751Z" fill="white"/>
<path d="M357.607 671.128L301.152 689.504L302.004 692.119L358.458 673.743L357.607 671.128Z" fill="white"/>
<path d="M360.322 679.485L303.867 697.861L304.718 700.476L361.173 682.1L360.322 679.485Z" fill="white"/>
<path d="M363.048 687.851L306.594 706.227L307.445 708.842L363.9 690.466L363.048 687.851Z" fill="white"/>
<path d="M365.771 696.218L309.316 714.594L310.168 717.209L366.622 698.833L365.771 696.218Z" fill="white"/>
<path d="M368.488 704.585L312.033 722.961L312.884 725.576L369.339 707.2L368.488 704.585Z" fill="white"/>
<path d="M371.239 712.123L314.838 730.527L315.69 733.14L372.092 714.735L371.239 712.123Z" fill="white"/>
<path d="M373.937 721.308L317.482 739.684L318.334 742.299L374.788 723.923L373.937 721.308Z" fill="white"/>
<path d="M339.08 647.49L364.35 659.64L346 665.55C345.87 665.6 345.731 665.622 345.591 665.614C345.452 665.607 345.316 665.57 345.192 665.507C345.068 665.444 344.958 665.356 344.87 665.248C344.782 665.14 344.717 665.015 344.68 664.88L339.08 647.49Z" fill="#DADDDF"/>
<path opacity="0.2" d="M339.08 647.49L364.35 659.64L346 665.55C345.87 665.6 345.731 665.622 345.591 665.614C345.452 665.607 345.316 665.57 345.192 665.507C345.068 665.444 344.958 665.356 344.87 665.248C344.782 665.14 344.717 665.015 344.68 664.88L339.08 647.49Z" fill="black"/>
<path d="M1317.62 885.379L1244.46 908.999C1244.33 909.047 1244.19 909.067 1244.05 909.058C1243.91 909.049 1243.78 909.012 1243.66 908.948C1243.53 908.884 1243.42 908.795 1243.34 908.687C1243.25 908.578 1243.19 908.453 1243.15 908.319L1212.7 813.849C1212.65 813.719 1212.63 813.58 1212.64 813.44C1212.64 813.301 1212.68 813.165 1212.74 813.041C1212.81 812.917 1212.89 812.807 1213 812.719C1213.11 812.631 1213.24 812.566 1213.37 812.529L1268.18 794.869L1293.45 806.999L1318.3 884.099C1318.34 884.228 1318.36 884.364 1318.35 884.499C1318.34 884.634 1318.3 884.765 1318.23 884.885C1318.17 885.005 1318.08 885.11 1317.98 885.195C1317.87 885.28 1317.75 885.343 1317.62 885.379V885.379Z" fill="#DADDDF"/>
<path d="M1283.99 810.165L1227.54 828.541L1228.39 831.156L1284.84 812.78L1283.99 810.165Z" fill="white"/>
<path d="M1285.97 817.177L1229.56 835.582L1230.42 838.195L1286.82 819.79L1285.97 817.177Z" fill="white"/>
<path d="M1289.43 826.901L1232.98 845.277L1233.83 847.892L1290.28 829.516L1289.43 826.901Z" fill="white"/>
<path d="M1292.17 835.265L1235.71 853.641L1236.56 856.256L1293.02 837.88L1292.17 835.265Z" fill="white"/>
<path d="M1294.88 843.632L1238.43 862.008L1239.28 864.623L1295.73 846.247L1294.88 843.632Z" fill="white"/>
<path d="M1297.6 851.989L1241.15 870.365L1242 872.98L1298.46 854.604L1297.6 851.989Z" fill="white"/>
<path d="M1300.33 860.364L1243.88 878.74L1244.73 881.355L1301.18 862.979L1300.33 860.364Z" fill="white"/>
<path d="M1303.05 868.722L1246.59 887.098L1247.44 889.713L1303.9 871.337L1303.05 868.722Z" fill="white"/>
<path d="M1268.18 794.83L1293.45 807L1275.1 812.92C1274.83 813.005 1274.55 812.981 1274.3 812.853C1274.05 812.726 1273.86 812.505 1273.78 812.24L1268.18 794.83Z" fill="#DADDDF"/>
<path opacity="0.2" d="M1268.18 794.83L1293.45 807L1275.1 812.92C1274.83 813.005 1274.55 812.981 1274.3 812.853C1274.05 812.726 1273.86 812.505 1273.78 812.24L1268.18 794.83Z" fill="black"/>
<path d="M1005.06 1026.43L1008.63 1027.91C1011.57 1029.22 1014.75 1029.91 1017.97 1029.92C1021.19 1029.93 1024.37 1029.26 1027.32 1027.97H1027.47H1027.7C1028.93 1027.41 1030.18 1026.45 1031.37 1026.97L1043.98 1032.69C1044.3 1032.85 1044.66 1032.91 1045.01 1032.87C1045.37 1032.82 1045.7 1032.68 1045.98 1032.46C1046.23 1032.27 1046.44 1032.02 1046.59 1031.74C1046.73 1031.46 1046.81 1031.15 1046.83 1030.83C1046.84 1030.51 1046.78 1030.2 1046.65 1029.91C1046.52 1029.62 1046.33 1029.36 1046.09 1029.15L1036.86 1021.74L1050.65 1032.48C1050.97 1032.72 1051.34 1032.88 1051.73 1032.95C1052.12 1033.02 1052.52 1032.99 1052.9 1032.86C1053.26 1032.73 1053.58 1032.51 1053.83 1032.23C1054.08 1031.94 1054.26 1031.6 1054.35 1031.23C1054.44 1030.86 1054.43 1030.47 1054.33 1030.1C1054.23 1029.73 1054.04 1029.4 1053.78 1029.12L1044.05 1018.83L1056.84 1032.24C1057.16 1032.58 1057.57 1032.81 1058.03 1032.91C1058.48 1033 1058.95 1032.96 1059.38 1032.79C1059.76 1032.66 1060.1 1032.45 1060.37 1032.16C1060.65 1031.88 1060.85 1031.53 1060.97 1031.16C1061.09 1030.78 1061.11 1030.38 1061.04 1029.98C1060.97 1029.59 1060.81 1029.23 1060.57 1028.91L1051.05 1016.82L1065.86 1028.49C1066.11 1028.7 1066.39 1028.87 1066.71 1028.97C1067.02 1029.07 1067.34 1029.1 1067.67 1029.07C1067.99 1029.04 1068.31 1028.95 1068.6 1028.79C1068.88 1028.64 1069.14 1028.43 1069.34 1028.17C1069.96 1027.74 1070.02 1026.08 1069 1025.17L1052.54 1010C1050.97 1008.38 1048.85 1007.39 1046.6 1007.23L1018.22 1008.97L1005.06 1026.43Z" fill="#FC9D9D"/>
<path opacity="0.15" d="M1045.89 1029.89C1045.74 1029.89 1045.74 1029.89 1045.59 1029.73L1037.09 1022.94C1036.95 1022.79 1036.81 1022.48 1036.96 1022.34C1037.11 1022.2 1037.42 1022.05 1037.57 1022.21L1046.07 1028.99C1046.22 1029.15 1046.36 1029.45 1046.2 1029.6L1045.89 1029.89Z" fill="black"/>
<path opacity="0.15" d="M1053.27 1029.85C1053.12 1029.85 1052.97 1029.85 1052.98 1029.69L1043.83 1020.02C1043.75 1019.94 1043.71 1019.83 1043.72 1019.72C1043.72 1019.6 1043.77 1019.5 1043.85 1019.42C1043.93 1019.34 1044.04 1019.3 1044.15 1019.3C1044.27 1019.31 1044.37 1019.36 1044.45 1019.44L1053.6 1029.11C1053.67 1029.19 1053.71 1029.3 1053.71 1029.41C1053.71 1029.52 1053.67 1029.63 1053.6 1029.71C1053.58 1029.86 1053.43 1029.85 1053.27 1029.85Z" fill="black"/>
<path opacity="0.15" d="M1034 1025.7C1036.81 1027.3 1041.69 1029.89 1043.31 1031C1045.67 1032.44 1046.48 1030.66 1046.48 1030.66C1046.54 1031.05 1046.5 1031.45 1046.35 1031.81C1046.21 1032.18 1045.97 1032.5 1045.66 1032.74C1045.37 1032.93 1045.03 1033.05 1044.69 1033.09C1044.34 1033.13 1043.99 1033.09 1043.66 1032.97L1031.05 1027.25C1029.86 1026.76 1028.6 1027.72 1027.38 1028.25L1029.74 1025.82C1030.38 1025.43 1031.11 1025.21 1031.85 1025.19C1032.6 1025.16 1033.34 1025.34 1034 1025.7V1025.7Z" fill="black"/>
<path opacity="0.15" d="M1018.22 1016.34L1050.58 1017.95C1051.61 1017.99 1052.63 1018.27 1053.54 1018.75C1054.46 1019.23 1055.26 1019.91 1055.88 1020.74L1056.5 1021.56L999.5 1030.89L1007.6 1017.11L1018.22 1016.34Z" fill="black"/>
<path d="M560.88 878.11L568 859.39C568 859.39 576.4 842.31 570.37 830.18C570.37 830.18 559.04 806.18 547.37 795.99L538.1 785.89C538.1 785.89 538.87 777.07 550.97 784.89C554.109 786.893 557.521 788.432 561.1 789.46C566.482 791.164 571.367 794.158 575.33 798.18C581.733 806.224 589.832 812.756 599.05 817.31C599.05 817.31 622.93 825.6 607.42 842.63L607.26 842.84C601.98 849.768 598.46 857.873 597 866.46L594.34 881.85L560.88 878.11Z" fill="#FC9D9D"/>
<path opacity="0.15" d="M554.6 799.19L573.91 823.92C586.91 839.07 574.65 861.37 574.65 861.37L567.65 860L568.23 858.41C568.23 858.41 576.39 841.22 570.23 829.17C570.23 829.17 558.57 805.33 546.75 795.29L539.31 787.4L537.93 783.4L554.6 799.19Z" fill="black"/>
<path d="M948 975L946.3 994.849C946.3 994.849 955.3 997.14 965.18 1000.33C974.28 1003.27 983.56 1004.91 993.18 1006.33C999.68 1007.28 1019.33 1008.74 1019.33 1008.74V1022.48L919.48 1034.62L932.591 973.77L948 975Z" fill="#FC9D9D"/>
<path d="M1018.44 1008.76V1022.5L1010.99 1022.83L1011.28 1008.2L1018.44 1008.76Z" fill="#3F4249"/>
<path d="M533.461 885L531.081 865.11C531.081 865.11 530.561 846.11 519.591 838.11C519.591 838.11 498.391 822.11 483.311 818.54L470.421 813.92C470.421 813.92 466.991 805.75 481.361 807.08C485.07 807.387 488.805 807.162 492.451 806.41C498.008 805.415 503.725 805.796 509.101 807.52C518.513 811.659 528.722 813.674 539.001 813.42C539.001 813.42 564.001 809.65 558.181 831.94C558.181 831.94 558.181 832.03 558.181 832.2C556.704 840.778 557.329 849.587 560.001 857.87L564.801 872.72L533.461 885Z" fill="#FC9D9D"/>
<path d="M692.63 966.24L593.77 968.43L560.75 858.4L524.09 868.78L552.36 1011.84L692.63 966.24Z" fill="#21252B"/>
<path opacity="0.3" d="M692.63 966.24L593.86 968.56L586.9 948.55L560.75 858.4L524.09 868.78L552.36 1011.84L692.63 966.24Z" fill="black"/>
<path opacity="0.15" d="M919.461 1032.44L932.571 971.59L946.001 972.4L941.001 990L939.361 1013.26C939.361 1013.26 949.841 1013 963.961 1013.98C976.201 1014.84 988.471 1017.34 1000.73 1016.98L1019.36 1016.43V1020.28L919.461 1032.44Z" fill="black"/>
<path d="M747.431 959C747.431 959 712.631 958.56 681.011 969.12C674.293 971.408 667.381 973.081 660.361 974.12L572.361 991.341L601.661 864.341L563.761 853.23L505.761 1016.72C505.761 1016.72 495.041 1051.18 523.371 1055.01H757.711L747.431 959Z" fill="#21252B"/>
<path opacity="0.43" d="M564.78 998.93C565.55 995.1 573.21 990.5 573.21 990.5C573.21 990.5 564.02 990.5 559.42 996.63" stroke="black" stroke-miterlimit="10"/>
<path opacity="0.43" d="M585.88 978.119C586.45 974.259 593.88 969.279 593.88 969.279C593.88 969.279 584.7 969.739 580.42 976.089" stroke="black" stroke-miterlimit="10"/>
<path opacity="0.3" d="M505.079 1019.27C504.409 1027.77 507.419 1044.84 530.509 1045.79L755.509 1042.1L757.699 1055.1H523.329C499.609 1051.88 503.259 1027.22 505.079 1019.27Z" fill="black"/>
<path opacity="0.43" d="M746.27 1012.47C746.27 1012.47 714.27 1011.82 681.8 1017.61C674.548 1018.89 667.23 1019.76 659.88 1020.22L539.59 1026.73C539.59 1026.73 536 1026.73 536 1023.37C536 1018.59 531.48 1024.37 530.35 1023.81C528.61 1022.94 529.91 1021.2 531.35 1017.06L581.62 866.471" stroke="black" stroke-miterlimit="10"/>
<path d="M950.281 960.23L948.611 981.17L943.391 980.3L950.281 960.23Z" class="change-color-in-svg" fill="#4D61FC"/>
<path opacity="0.2" d="M950.281 960.23L945.571 980.74L943.391 980.3L950.281 960.23Z" fill="black"/>
<path d="M958.641 929.631C958.641 929.631 959.051 941.731 955.641 946.771L954.471 931.291L958.161 925.381L958.641 929.631Z" class="change-color-in-svg" fill="#4D61FC"/>
<path opacity="0.2" d="M958.641 929.631C958.641 929.631 959.051 941.731 955.641 946.771L954.471 931.291L958.161 925.381L958.641 929.631Z" fill="black"/>
<path d="M965.6 844.32L946.77 874.48L922.68 902.11L951.68 935.28L966.68 913.74L974.75 920.74C975.01 921 975.29 921.24 975.57 921.47C980.91 925.85 984.57 927.62 992.08 919.47L1000.5 909.17L1005.04 909.94C1005.13 909.951 1005.21 909.951 1005.3 909.94C1005.62 909.956 1005.94 909.909 1006.24 909.801C1006.55 909.693 1006.82 909.527 1007.06 909.311C1007.3 909.096 1007.49 908.836 1007.63 908.545C1007.77 908.255 1007.84 907.941 1007.86 907.62L1008.41 895.32L1008.74 894.77L1009.95 893.77C1015.03 889.327 1018.79 883.564 1020.8 877.12L1022.8 870.79L965.6 844.32Z" fill="#FC9D9D"/>
<path d="M974.71 873.381L980.26 874.261L975.67 887.561C975.586 887.803 975.555 888.061 975.579 888.316C975.603 888.571 975.682 888.819 975.81 889.041L981.39 898.971C981.617 899.377 981.759 899.824 981.807 900.287C981.856 900.75 981.809 901.217 981.67 901.661L980.57 905.221C980.387 905.809 980.367 906.435 980.511 907.034C980.656 907.633 980.959 908.181 981.39 908.621C981.956 909.2 982.709 909.56 983.515 909.635C984.321 909.71 985.127 909.496 985.79 909.031L989.12 906.701C990.08 906.034 991.226 905.687 992.395 905.708C993.563 905.73 994.695 906.119 995.63 906.821C997.107 907.865 998.369 909.182 999.35 910.701L992.17 919.471C984.65 927.591 981 925.821 975.66 921.471C975.38 921.241 975.1 921.001 974.84 920.741L967 913.921L966.81 913.621L964 910.001C962.159 907.636 961.073 904.772 960.882 901.781C960.691 898.79 961.405 895.811 962.93 893.231L974.71 873.381Z" fill="black"/>
<path d="M955.679 946.77L951.219 957.41L938.169 996.41L889.659 1027.52L858.099 1043.3C855.77 1044.46 853.336 1045.4 850.829 1046.1C840.389 1048.99 797.749 1056.1 764.669 1055.01L756.219 1055.12C756.219 1055.12 744.219 984.45 735.949 963.12L733.759 958.54C733.703 958.426 733.676 958.299 733.68 958.172C733.685 958.044 733.721 957.92 733.785 957.81C733.85 957.7 733.94 957.607 734.049 957.541C734.158 957.475 734.282 957.437 734.409 957.43C739.179 957.19 758.339 956.31 783.079 956.59C783.079 956.59 808.139 955.44 831.829 935.67C837.349 931.012 843.157 926.707 849.219 922.78L885.999 899.26C885.999 899.26 907.059 888.73 924.469 892.64L936.469 901.56L955.679 946.77Z" class="change-color-in-svg" fill="#4D61FC"/>
<path d="M1023.33 872.26L1003.77 868.94C1002.93 868.661 1002.02 868.631 1001.16 868.852C1000.3 869.074 999.524 869.538 998.92 870.19L996.6 872.64C993.6 875.94 989.96 875.92 985.89 874.11L981.95 872.11L976.95 878.57C976.601 879.008 976.107 879.307 975.557 879.414C975.007 879.52 974.437 879.426 973.95 879.15V879.15C973.435 878.84 973.063 878.339 972.917 877.756C972.771 877.173 972.862 876.556 973.17 876.04L974.71 873.43L965.12 869L959.5 875.52C952.85 879.67 945.41 876.02 945.41 876.02C949.19 859.9 951.24 843.89 963.41 833.25L963.71 832.99C967.92 829.25 978.34 827.57 983.91 833.07C985.91 835.13 988.82 833.47 990.14 833.22C996.84 829.84 1009.23 834.95 1013.44 843.01L1015.95 848.45C1018.37 852.23 1022.76 853.45 1026.95 855.38C1033.49 857.3 1032.86 868.84 1023.33 872.26Z" fill="black"/>
<path opacity="0.15" d="M961.73 921.35L958.65 909C958.602 908.657 958.666 908.306 958.833 908.002C959 907.697 959.261 907.455 959.577 907.311C959.893 907.167 960.248 907.129 960.587 907.203C960.926 907.277 961.233 907.458 961.46 907.72L966.8 913.62L961.73 921.35Z" fill="black"/>
<path d="M966.001 888.331L974.491 874C975.385 872.465 975.637 870.639 975.193 868.919C974.75 867.198 973.646 865.722 972.121 864.81V864.81C970.587 863.917 968.762 863.665 967.043 864.109C965.325 864.552 963.85 865.656 962.941 867.18L961.271 870C959.471 873.059 958.958 876.707 959.845 880.144C960.732 883.58 962.946 886.524 966.001 888.331V888.331Z" fill="#FC9D9D"/>
<path opacity="0.15" d="M951.221 877.559L960.141 881.349C959.69 879.498 959.481 877.595 959.521 875.689C958.336 876.546 956.989 877.154 955.562 877.475C954.136 877.797 952.659 877.825 951.221 877.559V877.559Z" fill="black"/>
<path d="M1005.58 894.243C1006.37 892.916 1006.02 891.265 1004.82 890.555C1003.62 889.845 1002.01 890.344 1001.22 891.671C1000.44 892.998 1000.78 894.65 1001.99 895.36C1003.19 896.07 1004.8 895.57 1005.58 894.243Z" fill="black"/>
<path d="M1005.17 893.02C1005.38 893.02 1005.55 892.85 1005.55 892.64C1005.55 892.43 1005.38 892.26 1005.17 892.26C1004.96 892.26 1004.79 892.43 1004.79 892.64C1004.79 892.85 1004.96 893.02 1005.17 893.02Z" fill="white"/>
<path opacity="0.2" d="M946.161 950.461C945.771 943.951 944.521 936.561 941.221 932.011C937.71 926.298 932.449 921.872 926.221 919.391V920.681L934.791 998.051L938.081 996.951L943.421 980.301L945.271 968.621C946.222 962.617 946.52 956.528 946.161 950.461V950.461Z" fill="black"/>
<path opacity="0.2" d="M970.499 875.71L971.919 873.31C972.501 872.296 972.664 871.094 972.373 869.962C972.081 868.83 971.359 867.856 970.359 867.25C969.811 866.903 969.192 866.685 968.548 866.611C967.904 866.536 967.252 866.608 966.639 866.82H966.519C966.379 866.856 966.249 866.922 966.137 867.014C966.025 867.105 965.934 867.22 965.87 867.35C965.807 867.48 965.773 867.622 965.77 867.767C965.767 867.912 965.795 868.055 965.853 868.188C965.911 868.32 965.997 868.439 966.105 868.535C966.213 868.631 966.341 868.703 966.479 868.745C966.618 868.787 966.764 868.798 966.907 868.778C967.05 868.758 967.188 868.708 967.309 868.63C967.649 868.497 968.016 868.447 968.38 868.483C968.743 868.52 969.092 868.642 969.399 868.84V868.84C969.975 869.181 970.393 869.737 970.559 870.386C970.726 871.034 970.629 871.723 970.289 872.3L968.879 874.7C968.76 874.935 968.729 875.205 968.794 875.46C968.858 875.716 969.013 875.939 969.229 876.09C969.331 876.17 969.451 876.225 969.579 876.249C969.707 876.274 969.838 876.267 969.963 876.23C970.088 876.192 970.201 876.126 970.295 876.035C970.388 875.945 970.458 875.833 970.499 875.71V875.71Z" fill="#21252B"/>
<path d="M997.469 913.24C995.699 911.99 994.128 910.48 992.809 908.76C992.74 908.669 992.642 908.603 992.532 908.573C992.422 908.543 992.304 908.55 992.198 908.593C992.092 908.637 992.004 908.714 991.946 908.813C991.888 908.912 991.865 909.027 991.879 909.14C992.237 911.762 993.314 914.233 994.989 916.28L997.469 913.24Z" fill="white"/>
<path opacity="0.2" d="M948.42 944.819C949.48 948.497 950.341 952.229 951 955.999L952.12 955.279C951.622 951.744 950.914 948.241 950 944.789" fill="black"/>
<path d="M1012.66 888.999C1012.1 889.289 1010.45 887.079 1008.1 885.469C1005.75 883.859 1003.56 883.329 1003.61 882.689C1003.61 882.389 1004.3 882.239 1005.37 882.409C1006.78 882.678 1008.12 883.252 1009.29 884.089C1010.5 884.909 1011.52 885.976 1012.29 887.219C1012.82 888.129 1012.92 888.819 1012.66 888.999Z" fill="black"/>
<path d="M955.681 946.77C956.001 915 936.001 889.48 934.141 887.17C934.098 887.129 934.04 887.105 933.981 887.105C933.921 887.105 933.864 887.129 933.821 887.17C930.847 889.242 927.721 891.087 924.471 892.69C924.471 892.69 944.041 917.49 952.121 955.33L955.681 946.77Z" class="change-color-in-svg" fill="#4D61FC"/>
<path d="M997.41 1052.18L989.07 1033.26H1091.22L1111.32 1052.18H997.41Z" fill="#61656D"/>
<path opacity="0.2" d="M997.41 1052.18L989.07 1033.26H1091.22L1111.32 1052.18H997.41Z" fill="black"/>
<path d="M997.77 1052.84L988.99 1033.32H993.12L1000.62 1050.17L997.77 1052.84Z" fill="#61656D"/>
<path d="M1000.5 1049.79L1108.23 1048.92C1109.07 1048.94 1109.87 1049.3 1110.45 1049.91C1111.03 1050.52 1111.34 1051.34 1111.32 1052.18C1111.33 1052.6 1111.26 1053.01 1111.11 1053.4C1110.96 1053.79 1110.74 1054.15 1110.45 1054.46C1110.17 1054.76 1109.82 1055 1109.44 1055.17C1109.06 1055.34 1108.65 1055.44 1108.23 1055.45H1000.5C1000.08 1055.44 999.671 1055.34 999.289 1055.17C998.908 1055 998.564 1054.76 998.277 1054.46C997.99 1054.15 997.766 1053.79 997.617 1053.4C997.468 1053.01 997.398 1052.6 997.41 1052.18V1053.05C997.388 1052.21 997.701 1051.39 998.281 1050.78C998.86 1050.17 999.658 1049.81 1000.5 1049.79Z" fill="#61656D"/>
<path d="M1091.22 1033.26L1131.4 963.42C1131.5 963.253 1131.66 963.129 1131.84 963.072C1132.03 963.015 1132.23 963.028 1132.4 963.11L1152.63 973.22L1107.4 1049L1091.22 1033.26Z" fill="#61656D"/>
<path opacity="0.2" d="M1091.22 1033.26L1131.4 963.42C1131.5 963.253 1131.66 963.129 1131.84 963.072C1132.03 963.015 1132.23 963.028 1132.4 963.11L1152.63 973.22L1107.4 1049L1091.22 1033.26Z" fill="black"/>
<path d="M1106 1051.23L1150.51 973.1C1150.62 972.899 1150.81 972.75 1151.03 972.685C1151.25 972.619 1151.49 972.643 1151.69 972.75L1154.23 974.11C1154.33 974.167 1154.42 974.243 1154.5 974.334C1154.57 974.426 1154.62 974.531 1154.65 974.644C1154.69 974.757 1154.69 974.875 1154.68 974.991C1154.67 975.107 1154.63 975.219 1154.57 975.32L1109.7 1053.41C1109.64 1053.51 1109.57 1053.6 1109.47 1053.67C1109.38 1053.74 1109.28 1053.8 1109.16 1053.83C1109.05 1053.86 1108.93 1053.86 1108.82 1053.85C1108.7 1053.83 1108.59 1053.79 1108.49 1053.73L1106.31 1052.41C1106.21 1052.35 1106.13 1052.28 1106.06 1052.19C1105.99 1052.1 1105.94 1051.99 1105.91 1051.88C1105.88 1051.78 1105.87 1051.66 1105.89 1051.55C1105.9 1051.44 1105.94 1051.33 1106 1051.23Z" fill="#61656D"/>
<path opacity="0.2" d="M1147.06 973.479L1132.06 965.989C1131.97 965.948 1131.87 965.94 1131.78 965.967C1131.68 965.995 1131.6 966.056 1131.55 966.139L1093.6 1032.14C1093.56 1032.22 1093.54 1032.3 1093.55 1032.39C1093.56 1032.48 1093.61 1032.56 1093.67 1032.62L1106.08 1044.09C1106.12 1044.13 1106.17 1044.16 1106.23 1044.18C1106.28 1044.2 1106.34 1044.2 1106.4 1044.19C1106.45 1044.19 1106.51 1044.16 1106.56 1044.13C1106.6 1044.1 1106.64 1044.05 1106.67 1044L1147.19 973.999C1147.24 973.913 1147.26 973.81 1147.23 973.713C1147.21 973.615 1147.15 973.531 1147.06 973.479V973.479Z" fill="black"/>
<path d="M895.09 1037L886 986.461L935.55 989.901L933.77 1019.17C933.77 1019.17 948.63 1017.52 971.16 1019.39C979.08 1020.05 987.05 1021.8 994.98 1021.2L1015.98 1020.47L1018.16 1040.92C1018.16 1040.92 953.33 1056.58 922.45 1056.15C922.5 1056.15 900.74 1060.06 895.09 1037Z" fill="#FC9D9D"/>
<path opacity="0.15" d="M933.81 1019.17L931.51 1023.92C931.474 1024 931.467 1024.09 931.49 1024.18C931.513 1024.26 931.565 1024.34 931.638 1024.39C931.71 1024.44 931.797 1024.46 931.886 1024.46C931.974 1024.45 932.057 1024.41 932.12 1024.35L937.34 1019.17H933.81Z" fill="black"/>
<path opacity="0.15" d="M946.22 994.609L943.92 999.359C943.878 999.44 943.866 999.534 943.887 999.623C943.908 999.712 943.961 999.79 944.035 999.843C944.109 999.897 944.2 999.922 944.291 999.914C944.381 999.906 944.467 999.865 944.53 999.799L948.88 995.479L946.22 994.609Z" fill="black"/>
<path opacity="0.15" d="M902.2 1032.44C902.2 1032.44 903.33 1050.05 925.09 1056.15H922.5C922.5 1056.15 900.74 1060.06 895.09 1037.01L886 986.461L897.52 987.261L902.2 1032.44Z" fill="black"/>
<path opacity="0.2" d="M754.43 1042C777.34 1043.45 826.64 1039.83 844 1035.6C851.09 1033.87 861.1 1030.82 867 1026.6C885.27 1013.47 889.13 1004.32 889.13 1004.32L892.9 1025.42L889.63 1027.52L864 1040.34C857.026 1043.83 849.631 1046.4 842 1048C820.889 1052.29 799.429 1054.63 777.89 1055L756.24 1055.11L754.43 1042Z" fill="black"/>
<path d="M1009.19 1038.87L1012.75 1040.36C1015.69 1041.67 1018.87 1042.36 1022.09 1042.37C1025.31 1042.38 1028.49 1041.71 1031.44 1040.42H1031.82C1033.05 1039.86 1034.31 1038.9 1035.49 1039.42L1048.1 1045.14C1048.42 1045.29 1048.78 1045.35 1049.13 1045.31C1049.49 1045.27 1049.82 1045.13 1050.1 1044.91C1050.35 1044.72 1050.56 1044.48 1050.71 1044.19C1050.86 1043.91 1050.94 1043.6 1050.95 1043.28C1050.96 1042.97 1050.9 1042.65 1050.78 1042.36C1050.65 1042.07 1050.46 1041.81 1050.22 1041.6L1040.98 1034.19L1054.77 1044.92C1055.08 1045.17 1055.45 1045.33 1055.85 1045.4C1056.24 1045.47 1056.64 1045.44 1057.02 1045.31C1057.38 1045.18 1057.7 1044.97 1057.95 1044.68C1058.21 1044.4 1058.39 1044.05 1058.48 1043.68C1058.56 1043.31 1058.56 1042.92 1058.46 1042.55C1058.35 1042.18 1058.16 1041.85 1057.9 1041.57L1048.17 1031.28L1060.96 1044.69C1061.28 1045.03 1061.69 1045.26 1062.15 1045.35C1062.6 1045.45 1063.07 1045.41 1063.5 1045.23C1063.87 1045.11 1064.21 1044.89 1064.49 1044.61C1064.77 1044.33 1064.97 1043.98 1065.09 1043.6C1065.21 1043.22 1065.23 1042.82 1065.16 1042.43C1065.09 1042.04 1064.93 1041.68 1064.69 1041.36L1055.18 1029.26L1069.98 1040.94C1070.23 1041.15 1070.52 1041.31 1070.83 1041.41C1071.14 1041.51 1071.46 1041.55 1071.79 1041.51C1072.11 1041.48 1072.43 1041.39 1072.72 1041.23C1073 1041.08 1073.26 1040.87 1073.46 1040.61C1074.08 1040.18 1074.14 1038.53 1073.12 1037.61L1056.69 1022.48C1055.12 1020.85 1053.01 1019.87 1050.76 1019.71L1014.54 1020.71L1009.19 1038.87Z" fill="#FC9D9D"/>
<path opacity="0.15" d="M1050 1042.33C1049.85 1042.33 1049.85 1042.33 1049.7 1042.17L1041.2 1035.39C1041.06 1035.24 1040.92 1034.93 1041.07 1034.78C1041.22 1034.63 1041.54 1034.5 1041.68 1034.66L1050.18 1041.44C1050.33 1041.59 1050.47 1041.9 1050.31 1042.04L1050 1042.33Z" fill="black"/>
<path opacity="0.15" d="M1057.4 1042.3C1057.25 1042.3 1057.09 1042.3 1057.1 1042.13L1047.95 1032.47C1047.88 1032.39 1047.83 1032.28 1047.83 1032.17C1047.83 1032.05 1047.88 1031.94 1047.95 1031.86C1048.03 1031.79 1048.14 1031.75 1048.25 1031.75C1048.36 1031.75 1048.47 1031.79 1048.55 1031.86L1057.7 1041.53C1057.77 1041.61 1057.82 1041.72 1057.82 1041.84C1057.82 1041.95 1057.77 1042.06 1057.7 1042.14C1057.7 1042.31 1057.55 1042.3 1057.4 1042.3Z" fill="black"/>
<path opacity="0.15" d="M1038.1 1038.14C1040.91 1039.75 1045.79 1042.34 1047.41 1043.45C1049.77 1044.89 1050.58 1043.11 1050.58 1043.11C1050.64 1043.5 1050.6 1043.9 1050.46 1044.26C1050.31 1044.63 1050.07 1044.95 1049.76 1045.19C1049.47 1045.38 1049.13 1045.49 1048.79 1045.53C1048.44 1045.57 1048.09 1045.53 1047.76 1045.42L1035.15 1039.7C1033.96 1039.21 1032.7 1040.16 1031.48 1040.7L1033.85 1038.28C1034.48 1037.88 1035.21 1037.66 1035.96 1037.64C1036.7 1037.61 1037.44 1037.79 1038.1 1038.14V1038.14Z" fill="black"/>
<path opacity="0.2" d="M798.27 953.631C798.27 953.631 787.21 957.631 792 968.121C792 968.121 796.35 979.001 804.18 983.351C804.18 983.351 796.24 976.661 795.1 966.161C795.1 965.801 795.02 965.451 794.96 965.091C794.65 963.211 793.96 955.501 801.96 952.461L798.27 953.631Z" fill="black"/>
<path d="M1008.12 1008.41L1021.2 1009.37C1021.92 1009.42 1022.55 1008.88 1022.6 1008.16C1022.65 1007.44 1022.11 1006.82 1021.39 1006.76L1008.32 1005.81C1007.59 1005.75 1006.97 1006.29 1006.91 1007.01C1006.86 1007.73 1007.4 1008.36 1008.12 1008.41Z" fill="#21252B"/>
<path opacity="0.15" d="M492.06 818.47L520.49 831.76C538.9 839.39 538.11 864.76 538.11 864.76L531.28 866.7L531.08 865.02C531.08 865.02 530.56 846.02 519.59 838.02C519.59 838.02 498.39 822.02 483.31 818.45L473.1 814.79L470.1 811.85L492.06 818.47Z" fill="black"/>
<path d="M944.81 951C944.89 961.42 943.42 976.19 938.39 996.64L884 992.7V961C884 961 883.78 914.14 917.33 918.11C933.35 920.05 944.68 934.86 944.81 951Z" class="change-color-in-svg" fill="#4D61FC"/>
<path opacity="0.2" d="M954.211 941.31L949.451 942.9C944.383 924.711 935.899 907.654 924.451 892.64L921.061 892.26C921.061 892.26 929.921 899.61 939.001 920C941.451 925.5 945.001 947 945.001 947C945.001 947 952.001 944 955.481 948L955.891 947.22L954.211 941.31Z" fill="black"/>
<path opacity="0.2" d="M884 961C884 961 883.78 914.14 917.33 918.11C918.15 918.21 918.96 918.35 919.75 918.51C912.51 917.75 901.62 921.1 896.25 934.73C896.25 934.73 892.7 942.85 891.18 962.43C890.58 970.08 890.74 993.31 890.74 993.31L884 992.7V961Z" fill="black"/>
<path d="M955.68 947C955.68 947 956 944 946 945C946 945 942.39 922.91 938 914L955.46 939.61L955.68 947Z" class="change-color-in-svg" fill="#4D61FC"/>
</svg>
